<svg version="1.1" xmlns="http://www.w3.org/2000/svg" xmlns:xlink="http://www.w3.org/1999/xlink" width="1039.63427734375" height="586"><defs/><g><g transform="translate(-30,-158) scale(1,1)"><rect fill="#C0C0C0" stroke="none" x="487" y="455" width="262.23974609375" height="130" opacity="0.2"/></g><g transform="translate(-30,-158) scale(1,1)"><rect fill="#ffffff" stroke="none" x="480" y="448" width="262.23974609375" height="130"/></g><g transform="translate(-30,-158) scale(1,1)"><path fill="none" stroke="#000000" d="M 480 448 L 742.23974609375 448 L 742.23974609375 578 L 480 578 L 480 448 Z Z" stroke-miterlimit="10"/></g><g transform="translate(-30,-158) scale(1,1)"><path fill="none" stroke="#000000" d="M 480 488 L 742.23974609375 488" stroke-miterlimit="10"/></g><g transform="translate(-30,-158) scale(1,1)"><path fill="none" stroke="#000000" d="M 480 526 L 742.23974609375 526" stroke-miterlimit="10"/></g><g transform="translate(-30,-158) scale(1,1)"><g><path fill="none" stroke="none"/><text fill="#000000" stroke="none" font-family="Arial" font-size="13px" font-style="normal" font-weight="bold" text-decoration="none" x="540.667236328125" y="467.5">ContentMainRunnerImpl</text></g></g><g transform="translate(-30,-158) scale(1,1)"><g><path fill="none" stroke="none"/><text fill="#000000" stroke="none" font-family="Arial" font-size="13px" font-style="normal" font-weight="normal" text-decoration="none" x="570.6630859375" y="482.5">(from content)</text></g></g><g transform="translate(-30,-158) scale(1,1)"><g><path fill="none" stroke="none"/><text fill="#000000" stroke="none" font-family="Arial" font-size="13px" font-style="normal" font-weight="normal" text-decoration="none" x="485" y="505.5">-delegate_: ContentMainDelegate</text></g></g><g transform="translate(-30,-158) scale(1,1)"><g><path fill="none" stroke="none"/><text fill="#000000" stroke="none" font-family="Arial" font-size="13px" font-style="normal" font-weight="normal" text-decoration="none" x="485" y="520.5">-empty_content_client_: ContentClient</text></g></g><g transform="translate(-30,-158) scale(1,1)"><g><path fill="none" stroke="none"/><text fill="#000000" stroke="none" font-family="Arial" font-size="13px" font-style="normal" font-weight="normal" text-decoration="none" x="485" y="543.5">+Initialize(params: ContentMainParams): int</text></g></g><g transform="translate(-30,-158) scale(1,1)"><g><path fill="none" stroke="none"/><text fill="#000000" stroke="none" font-family="Arial" font-size="13px" font-style="normal" font-weight="normal" text-decoration="none" x="485" y="558.5">+Run(): int</text></g></g><g transform="translate(-30,-158) scale(1,1)"><g><path fill="none" stroke="none"/><text fill="#000000" stroke="none" font-family="Arial" font-size="13px" font-style="normal" font-weight="normal" text-decoration="none" x="485" y="573.5">+Shutdown(): void</text></g></g><g transform="translate(-30,-158) scale(1,1)"><rect fill="#C0C0C0" stroke="none" x="135" y="207" width="222.509765625" height="162" opacity="0.2"/></g><g transform="translate(-30,-158) scale(1,1)"><rect fill="#ffffff" stroke="none" x="128" y="200" width="222.509765625" height="162"/></g><g transform="translate(-30,-158) scale(1,1)"><path fill="none" stroke="#000000" d="M 128 200 L 350.509765625 200 L 350.509765625 362 L 128 362 L 128 200 Z Z" stroke-miterlimit="10"/></g><g transform="translate(-30,-158) scale(1,1)"><path fill="none" stroke="#000000" d="M 128 240 L 350.509765625 240" stroke-miterlimit="10"/></g><g transform="translate(-30,-158) scale(1,1)"><path fill="none" stroke="#000000" d="M 128 250 L 350.509765625 250" stroke-miterlimit="10"/></g><g transform="translate(-30,-158) scale(1,1)"><g><path fill="none" stroke="none"/><text fill="#000000" stroke="none" font-family="Arial" font-size="13px" font-style="normal" font-weight="bold" text-decoration="none" x="176.38134765625" y="219.5">ContentMainDelegate</text></g></g><g transform="translate(-30,-158) scale(1,1)"><g><path fill="none" stroke="none"/><text fill="#000000" stroke="none" font-family="Arial" font-size="13px" font-style="normal" font-weight="normal" text-decoration="none" x="198.798095703125" y="234.5">(from content)</text></g></g><g transform="translate(-30,-158) scale(1,1)"><g><path fill="none" stroke="none"/><text fill="#000000" stroke="none" font-family="Arial" font-size="13px" font-style="normal" font-weight="normal" text-decoration="none" x="133" y="267.5">+BasicStartupComplete(): bool</text></g></g><g transform="translate(-30,-158) scale(1,1)"><g><path fill="none" stroke="none"/><text fill="#000000" stroke="none" font-family="Arial" font-size="13px" font-style="normal" font-weight="normal" text-decoration="none" x="133" y="282.5">+PreSandboxStartup(): void</text></g></g><g transform="translate(-30,-158) scale(1,1)"><g><path fill="none" stroke="none"/><text fill="#000000" stroke="none" font-family="Arial" font-size="13px" font-style="normal" font-weight="normal" text-decoration="none" x="133" y="297.5">+RunProcess(): int</text></g></g><g transform="translate(-30,-158) scale(1,1)"><g><path fill="none" stroke="none"/><text fill="#000000" stroke="none" font-family="Arial" font-size="13px" font-style="italic" font-weight="normal" text-decoration="none" x="133" y="312.5">-CreateContentBrowserClient()</text></g></g><g transform="translate(-30,-158) scale(1,1)"><g><path fill="none" stroke="none"/><text fill="#000000" stroke="none" font-family="Arial" font-size="13px" font-style="italic" font-weight="normal" text-decoration="none" x="133" y="327.5">-CreateContentPluginClient()</text></g></g><g transform="translate(-30,-158) scale(1,1)"><g><path fill="none" stroke="none"/><text fill="#000000" stroke="none" font-family="Arial" font-size="13px" font-style="italic" font-weight="normal" text-decoration="none" x="133" y="342.5">-CreateContentRendererClient()</text></g></g><g transform="translate(-30,-158) scale(1,1)"><g><path fill="none" stroke="none"/><text fill="#000000" stroke="none" font-family="Arial" font-size="13px" font-style="italic" font-weight="normal" text-decoration="none" x="133" y="357.5">-CreateContentUtilityClient()</text></g></g><g transform="translate(-30,-158) scale(1,1)"><path fill="#C0C0C0" stroke="none" d="M 617.71484375 258.5 C 617.71484375 252.1487248 622.86356855 247 629.21484375 247 C 635.56611895 247 640.71484375 252.1487248 640.71484375 258.5 C 640.71484375 264.8512752 635.56611895 270 629.21484375 270 C 622.86356855 270 617.71484375 264.8512752 617.71484375 258.5 Z" opacity="0.2"/></g><g transform="translate(-30,-158) scale(1,1)"><path fill="#ffffff" stroke="none" d="M 610.71484375 251.5 C 610.71484375 245.1487248 615.86356855 240 622.21484375 240 C 628.56611895 240 633.71484375 245.1487248 633.71484375 251.5 C 633.71484375 257.8512752 628.56611895 263 622.21484375 263 C 615.86356855 263 610.71484375 257.8512752 610.71484375 251.5 Z"/></g><g transform="translate(-30,-158) scale(1,1)"><path fill="none" stroke="#000000" d="M 610.71484375 251.5 C 610.71484375 245.1487248 615.86356855 240 622.21484375 240 C 628.56611895 240 633.71484375 245.1487248 633.71484375 251.5 C 633.71484375 257.8512752 628.56611895 263 622.21484375 263 C 615.86356855 263 610.71484375 257.8512752 610.71484375 251.5 Z" stroke-miterlimit="10"/></g><g transform="translate(-30,-158) scale(1,1)"><path fill="none" stroke="#000000" d="M 464 303 L 780.4296875 303" stroke-miterlimit="10"/></g><g transform="translate(-30,-158) scale(1,1)"><g><path fill="none" stroke="none"/><text fill="#000000" stroke="none" font-family="Arial" font-size="13px" font-style="normal" font-weight="bold" text-decoration="none" x="564.041748046875" y="282.5">ContentMainRunner</text></g></g><g transform="translate(-30,-158) scale(1,1)"><g><path fill="none" stroke="none"/><text fill="#000000" stroke="none" font-family="Arial" font-size="13px" font-style="normal" font-weight="normal" text-decoration="none" x="581.758056640625" y="297.5">(from content)</text></g></g><g transform="translate(-30,-158) scale(1,1)"><g><path fill="none" stroke="none"/><text fill="#000000" stroke="none" font-family="Arial" font-size="13px" font-style="normal" font-weight="normal" text-decoration="none" x="469" y="320.5">+Create(): ContentMainRunner</text><path fill="none" stroke="#000000" d="M 469 320.5 L 647.8388671875 320.5" stroke-miterlimit="10"/></g></g><g transform="translate(-30,-158) scale(1,1)"><g><path fill="none" stroke="none"/><text fill="#000000" stroke="none" font-family="Arial" font-size="13px" font-style="normal" font-weight="normal" text-decoration="none" x="469" y="335.5">+Initialize(params: ContentMainParams): int</text></g></g><g transform="translate(-30,-158) scale(1,1)"><g><path fill="none" stroke="none"/><text fill="#000000" stroke="none" font-family="Arial" font-size="13px" font-style="normal" font-weight="normal" text-decoration="none" x="469" y="350.5">+Run(): int</text></g></g><g transform="translate(-30,-158) scale(1,1)"><g><path fill="none" stroke="none"/><text fill="#000000" stroke="none" font-family="Arial" font-size="13px" font-style="normal" font-weight="normal" text-decoration="none" x="469" y="365.5">+Shutdown(): void</text></g></g><g transform="translate(-30,-158) scale(1,1)"><rect fill="#C0C0C0" stroke="none" x="47" y="415" width="355.8740234375" height="190" opacity="0.2"/></g><g transform="translate(-30,-158) scale(1,1)"><rect fill="#ffffff" stroke="none" x="40" y="408" width="355.8740234375" height="190"/></g><g transform="translate(-30,-158) scale(1,1)"><path fill="none" stroke="#000000" d="M 40 408 L 395.8740234375 408 L 395.8740234375 598 L 40 598 L 40 408 Z Z" stroke-miterlimit="10"/></g><g transform="translate(-30,-158) scale(1,1)"><path fill="none" stroke="#000000" d="M 40 448 L 395.8740234375 448" stroke-miterlimit="10"/></g><g transform="translate(-30,-158) scale(1,1)"><path fill="none" stroke="#000000" d="M 40 516 L 395.8740234375 516" stroke-miterlimit="10"/></g><g transform="translate(-30,-158) scale(1,1)"><g><path fill="none" stroke="none"/><text fill="#000000" stroke="none" font-family="Arial" font-size="13px" font-style="normal" font-weight="bold" text-decoration="none" x="163.375732421875" y="427.5">ShellMainDelegate</text></g></g><g transform="translate(-30,-158) scale(1,1)"><g><path fill="none" stroke="none"/><text fill="#000000" stroke="none" font-family="Arial" font-size="13px" font-style="normal" font-weight="normal" text-decoration="none" x="177.480224609375" y="442.5">(from content)</text></g></g><g transform="translate(-30,-158) scale(1,1)"><g><path fill="none" stroke="none"/><text fill="#000000" stroke="none" font-family="Arial" font-size="13px" font-style="normal" font-weight="normal" text-decoration="none" x="45" y="465.5">-browser_client_: scoped_ptr&lt;ShellContentBrowserClient&gt;</text></g></g><g transform="translate(-30,-158) scale(1,1)"><g><path fill="none" stroke="none"/><text fill="#000000" stroke="none" font-family="Arial" font-size="13px" font-style="normal" font-weight="normal" text-decoration="none" x="45" y="480.5">-renderer_client_: scoped_ptr&lt;ShellContentRendererClient&gt;</text></g></g><g transform="translate(-30,-158) scale(1,1)"><g><path fill="none" stroke="none"/><text fill="#000000" stroke="none" font-family="Arial" font-size="13px" font-style="normal" font-weight="normal" text-decoration="none" x="45" y="495.5">-utility_client_: scoped_ptr&lt;ShellContentUtilityClient&gt;</text></g></g><g transform="translate(-30,-158) scale(1,1)"><g><path fill="none" stroke="none"/><text fill="#000000" stroke="none" font-family="Arial" font-size="13px" font-style="normal" font-weight="normal" text-decoration="none" x="45" y="510.5">-content_client_: ShellContentClient</text></g></g><g transform="translate(-30,-158) scale(1,1)"><g><path fill="none" stroke="none"/><text fill="#000000" stroke="none" font-family="Arial" font-size="13px" font-style="normal" font-weight="normal" text-decoration="none" x="45" y="533.5">+BasicStartupComplete(): bool</text></g></g><g transform="translate(-30,-158) scale(1,1)"><g><path fill="none" stroke="none"/><text fill="#000000" stroke="none" font-family="Arial" font-size="13px" font-style="normal" font-weight="normal" text-decoration="none" x="45" y="548.5">+RunProcess(): int</text></g></g><g transform="translate(-30,-158) scale(1,1)"><g><path fill="none" stroke="none"/><text fill="#000000" stroke="none" font-family="Arial" font-size="13px" font-style="normal" font-weight="normal" text-decoration="none" x="45" y="563.5">+CreateContentBrowserClient()</text></g></g><g transform="translate(-30,-158) scale(1,1)"><g><path fill="none" stroke="none"/><text fill="#000000" stroke="none" font-family="Arial" font-size="13px" font-style="normal" font-weight="normal" text-decoration="none" x="45" y="578.5">+CreateContentRendererClient()</text></g></g><g transform="translate(-30,-158) scale(1,1)"><g><path fill="none" stroke="none"/><text fill="#000000" stroke="none" font-family="Arial" font-size="13px" font-style="normal" font-weight="normal" text-decoration="none" x="45" y="593.5">+CreateContentUtilityClient()</text></g></g><g transform="translate(-30,-158) scale(1,1)"><path fill="none" stroke="#000000" d="M 232 408 L 232 362" stroke-miterlimit="10"/></g><g transform="translate(-30,-158) scale(1,1)"><path fill="#FFFFFF" stroke="none" d="M 240.41903551203197 382.3253497152483 L 232 362 L 223.58096448796803 382.3253497152483"/></g><g transform="translate(-30,-158) scale(1,1)"><path fill="none" stroke="#000000" d="M 240.41903551203197 382.3253497152483 L 232 362 L 223.58096448796803 382.3253497152483 L 240.41903551203197 382.3253497152483" stroke-miterlimit="10"/></g><g transform="translate(-30,-158) scale(1,1)"><path fill="none" stroke="#000000" d="M 622 448 L 622 263" stroke-miterlimit="10"/></g><g transform="translate(-30,-158) scale(1,1)"><rect fill="#C0C0C0" stroke="none" x="231" y="639" width="199.4423828125" height="102" opacity="0.2"/></g><g transform="translate(-30,-158) scale(1,1)"><rect fill="#ffffff" stroke="none" x="224" y="632" width="199.4423828125" height="102"/></g><g transform="translate(-30,-158) scale(1,1)"><path fill="none" stroke="#000000" d="M 224 632 L 423.4423828125 632 L 423.4423828125 734 L 224 734 L 224 632 Z Z" stroke-miterlimit="10"/></g><g transform="translate(-30,-158) scale(1,1)"><path fill="none" stroke="#000000" d="M 224 672 L 423.4423828125 672" stroke-miterlimit="10"/></g><g transform="translate(-30,-158) scale(1,1)"><path fill="none" stroke="#000000" d="M 224 725 L 423.4423828125 725" stroke-miterlimit="10"/></g><g transform="translate(-30,-158) scale(1,1)"><g><path fill="none" stroke="none"/><text fill="#000000" stroke="none" font-family="Arial" font-size="13px" font-style="normal" font-weight="bold" text-decoration="none" x="264.47216796875" y="651.5">ContentMainParams</text></g></g><g transform="translate(-30,-158) scale(1,1)"><g><path fill="none" stroke="none"/><text fill="#000000" stroke="none" font-family="Arial" font-size="13px" font-style="normal" font-weight="normal" text-decoration="none" x="283.264404296875" y="666.5">(from content)</text></g></g><g transform="translate(-30,-158) scale(1,1)"><g><path fill="none" stroke="none"/><text fill="#000000" stroke="none" font-family="Arial" font-size="13px" font-style="normal" font-weight="normal" text-decoration="none" x="229" y="689.5">+delegate: ContentMainDelegate</text></g></g><g transform="translate(-30,-158) scale(1,1)"><g><path fill="none" stroke="none"/><text fill="#000000" stroke="none" font-family="Arial" font-size="13px" font-style="normal" font-weight="normal" text-decoration="none" x="229" y="704.5">+argc: int</text></g></g><g transform="translate(-30,-158) scale(1,1)"><g><path fill="none" stroke="none"/><text fill="#000000" stroke="none" font-family="Arial" font-size="13px" font-style="normal" font-weight="normal" text-decoration="none" x="229" y="719.5">+argv: const char**</text></g></g><g transform="translate(-30,-158) scale(1,1)"><rect fill="#C0C0C0" stroke="none" x="847" y="175" width="219.63427734375" height="250" opacity="0.2"/></g><g transform="translate(-30,-158) scale(1,1)"><rect fill="#ffffff" stroke="none" x="840" y="168" width="219.63427734375" height="250"/></g><g transform="translate(-30,-158) scale(1,1)"><path fill="none" stroke="#000000" d="M 840 168 L 1059.63427734375 168 L 1059.63427734375 418 L 840 418 L 840 168 Z Z" stroke-miterlimit="10"/></g><g transform="translate(-30,-158) scale(1,1)"><path fill="none" stroke="#000000" d="M 840 208 L 1059.63427734375 208" stroke-miterlimit="10"/></g><g transform="translate(-30,-158) scale(1,1)"><path fill="none" stroke="#000000" d="M 840 276 L 1059.63427734375 276" stroke-miterlimit="10"/></g><g transform="translate(-30,-158) scale(1,1)"><g><path fill="none" stroke="none"/><text fill="#000000" stroke="none" font-family="Arial" font-size="13px" font-style="normal" font-weight="bold" text-decoration="none" x="910.43310546875" y="187.5">ContentClient</text></g></g><g transform="translate(-30,-158) scale(1,1)"><g><path fill="none" stroke="none"/><text fill="#000000" stroke="none" font-family="Arial" font-size="13px" font-style="normal" font-weight="normal" text-decoration="none" x="909.3603515625" y="202.5">(from content)</text></g></g><g transform="translate(-30,-158) scale(1,1)"><g><path fill="none" stroke="none"/><text fill="#000000" stroke="none" font-family="Arial" font-size="13px" font-style="normal" font-weight="normal" text-decoration="none" x="845" y="225.5">-browser_: ContentBrowserClient*</text></g></g><g transform="translate(-30,-158) scale(1,1)"><g><path fill="none" stroke="none"/><text fill="#000000" stroke="none" font-family="Arial" font-size="13px" font-style="normal" font-weight="normal" text-decoration="none" x="845" y="240.5">-plugin_: ContentPluginClient*</text></g></g><g transform="translate(-30,-158) scale(1,1)"><g><path fill="none" stroke="none"/><text fill="#000000" stroke="none" font-family="Arial" font-size="13px" font-style="normal" font-weight="normal" text-decoration="none" x="845" y="255.5">-renderer_: ContentRendererClient*</text></g></g><g transform="translate(-30,-158) scale(1,1)"><g><path fill="none" stroke="none"/><text fill="#000000" stroke="none" font-family="Arial" font-size="13px" font-style="normal" font-weight="normal" text-decoration="none" x="845" y="270.5">-utility_: ContentUtilityClient*</text></g></g><g transform="translate(-30,-158) scale(1,1)"><g><path fill="none" stroke="none"/><text fill="#000000" stroke="none" font-family="Arial" font-size="13px" font-style="normal" font-weight="normal" text-decoration="none" x="845" y="293.5">+browser(): ContentBrowserClient*</text></g></g><g transform="translate(-30,-158) scale(1,1)"><g><path fill="none" stroke="none"/><text fill="#000000" stroke="none" font-family="Arial" font-size="13px" font-style="normal" font-weight="normal" text-decoration="none" x="845" y="308.5">+plugin(): ContentPluginClient*</text></g></g><g transform="translate(-30,-158) scale(1,1)"><g><path fill="none" stroke="none"/><text fill="#000000" stroke="none" font-family="Arial" font-size="13px" font-style="normal" font-weight="normal" text-decoration="none" x="845" y="323.5">+renderer(): ContentRendererClient*</text></g></g><g transform="translate(-30,-158) scale(1,1)"><g><path fill="none" stroke="none"/><text fill="#000000" stroke="none" font-family="Arial" font-size="13px" font-style="normal" font-weight="normal" text-decoration="none" x="845" y="338.5">+utility(): ContentUtilityClient*</text></g></g><g transform="translate(-30,-158) scale(1,1)"><g><path fill="none" stroke="none"/><text fill="#000000" stroke="none" font-family="Arial" font-size="13px" font-style="normal" font-weight="normal" text-decoration="none" x="845" y="353.5">+SetActiveURL()</text></g></g><g transform="translate(-30,-158) scale(1,1)"><g><path fill="none" stroke="none"/><text fill="#000000" stroke="none" font-family="Arial" font-size="13px" font-style="normal" font-weight="normal" text-decoration="none" x="845" y="368.5">+SetGpuInfo()</text></g></g><g transform="translate(-30,-158) scale(1,1)"><g><path fill="none" stroke="none"/><text fill="#000000" stroke="none" font-family="Arial" font-size="13px" font-style="normal" font-weight="normal" text-decoration="none" x="845" y="383.5">+GetProduct()</text></g></g><g transform="translate(-30,-158) scale(1,1)"><g><path fill="none" stroke="none"/><text fill="#000000" stroke="none" font-family="Arial" font-size="13px" font-style="normal" font-weight="normal" text-decoration="none" x="845" y="398.5">+GetUserAgent()</text></g></g><g transform="translate(-30,-158) scale(1,1)"><g><path fill="none" stroke="none"/><text fill="#000000" stroke="none" font-family="Arial" font-size="13px" font-style="normal" font-weight="normal" text-decoration="none" x="845" y="413.5">+GetLocalizedString()</text></g></g><g transform="translate(-30,-158) scale(1,1)"><path fill="none" stroke="#000000" d="M 396 512 L 480 512" stroke-miterlimit="10"/></g><g transform="translate(-30,-158) scale(1,1)"><path fill="#000000" stroke="none" d="M 469.83732514237585 516.209517756016 L 480 512 L 469.83732514237585 507.790482243984 L 458 512"/></g><g transform="translate(-30,-158) scale(1,1)"><path fill="none" stroke="#000000" d="M 469.83732514237585 516.209517756016 L 480 512 L 469.83732514237585 507.790482243984 L 458 512 L 469.83732514237585 516.209517756016" stroke-miterlimit="10"/></g><g transform="translate(-30,-158) scale(1,1)"><g><path fill="none" stroke="none"/><text fill="#000000" stroke="none" font-family="Arial" font-size="13px" font-style="normal" font-weight="normal" text-decoration="none" x="453.885009765625" y="530.5">1</text></g></g><g transform="translate(-30,-158) scale(1,1)"><rect fill="#C0C0C0" stroke="none" x="863" y="471" width="161.08984375" height="102" opacity="0.2"/></g><g transform="translate(-30,-158) scale(1,1)"><rect fill="#ffffff" stroke="none" x="856" y="464" width="161.08984375" height="102"/></g><g transform="translate(-30,-158) scale(1,1)"><path fill="none" stroke="#000000" d="M 856 464 L 1017.08984375 464 L 1017.08984375 566 L 856 566 L 856 464 Z Z" stroke-miterlimit="10"/></g><g transform="translate(-30,-158) scale(1,1)"><path fill="none" stroke="#000000" d="M 856 504 L 1017.08984375 504" stroke-miterlimit="10"/></g><g transform="translate(-30,-158) scale(1,1)"><path fill="none" stroke="#000000" d="M 856 514 L 1017.08984375 514" stroke-miterlimit="10"/></g><g transform="translate(-30,-158) scale(1,1)"><g><path fill="none" stroke="none"/><text fill="#000000" stroke="none" font-family="Arial" font-size="13px" font-style="normal" font-weight="bold" text-decoration="none" x="882.707275390625" y="483.5">ShellContentClient</text></g></g><g transform="translate(-30,-158) scale(1,1)"><g><path fill="none" stroke="none"/><text fill="#000000" stroke="none" font-family="Arial" font-size="13px" font-style="normal" font-weight="normal" text-decoration="none" x="896.088134765625" y="498.5">(from content)</text></g></g><g transform="translate(-30,-158) scale(1,1)"><g><path fill="none" stroke="none"/><text fill="#000000" stroke="none" font-family="Arial" font-size="13px" font-style="normal" font-weight="normal" text-decoration="none" x="861" y="531.5">+GetUserAgent()</text></g></g><g transform="translate(-30,-158) scale(1,1)"><g><path fill="none" stroke="none"/><text fill="#000000" stroke="none" font-family="Arial" font-size="13px" font-style="normal" font-weight="normal" text-decoration="none" x="861" y="546.5">+GetLocalizedString()</text></g></g><g transform="translate(-30,-158) scale(1,1)"><g><path fill="none" stroke="none"/><text fill="#000000" stroke="none" font-family="Arial" font-size="13px" font-style="normal" font-weight="normal" text-decoration="none" x="861" y="561.5">+GetNativeImageNamed()</text></g></g><g transform="translate(-30,-158) scale(1,1)"><path fill="none" stroke="#000000" d="M 942 464 L 942 418" stroke-miterlimit="10"/></g><g transform="translate(-30,-158) scale(1,1)"><path fill="#FFFFFF" stroke="none" d="M 950.419035512032 438.3253497152483 L 942 418 L 933.580964487968 438.3253497152483"/></g><g transform="translate(-30,-158) scale(1,1)"><path fill="none" stroke="#000000" d="M 950.419035512032 438.3253497152483 L 942 418 L 933.580964487968 438.3253497152483 L 950.419035512032 438.3253497152483" stroke-miterlimit="10"/></g><g transform="translate(-30,-158) scale(1,1)"><rect fill="#C0C0C0" stroke="none" x="663" y="663" width="356.2294921875" height="72" opacity="0.2"/></g><g transform="translate(-30,-158) scale(1,1)"><rect fill="#ffffff" stroke="none" x="656" y="656" width="356.2294921875" height="72"/></g><g transform="translate(-30,-158) scale(1,1)"><path fill="none" stroke="#000000" d="M 656 656 L 1012.2294921875 656 L 1012.2294921875 728 L 656 728 L 656 656 Z Z" stroke-miterlimit="10"/></g><g transform="translate(-30,-158) scale(1,1)"><path fill="none" stroke="#000000" d="M 656 696 L 1012.2294921875 696" stroke-miterlimit="10"/></g><g transform="translate(-30,-158) scale(1,1)"><path fill="none" stroke="#000000" d="M 656 706 L 1012.2294921875 706" stroke-miterlimit="10"/></g><g transform="translate(-30,-158) scale(1,1)"><g><path fill="none" stroke="none"/><text fill="#000000" stroke="none" font-family="Arial" font-size="13px" font-style="normal" font-weight="bold" text-decoration="none" x="769.0830078125" y="675.5">ContentClientInitializer</text></g></g><g transform="translate(-30,-158) scale(1,1)"><g><path fill="none" stroke="none"/><text fill="#000000" stroke="none" font-family="Arial" font-size="13px" font-style="normal" font-weight="normal" text-decoration="none" x="793.657958984375" y="690.5">(from content)</text></g></g><g transform="translate(-30,-158) scale(1,1)"><g><path fill="none" stroke="none"/><text fill="#000000" stroke="none" font-family="Arial" font-size="13px" font-style="normal" font-weight="normal" text-decoration="none" x="661" y="723.5">+Set(process_type: string, delegate: ContentMainDelegate*)</text><path fill="none" stroke="#000000" d="M 661 723.5 L 1008.2294921875 723.5" stroke-miterlimit="10"/></g></g><g transform="translate(-30,-158) scale(1,1)"><path fill="none" stroke="#000000" d="M 693 579 L 788 655" stroke-miterlimit="10"/></g><g transform="translate(-30,-158) scale(1,1)"><path fill="none" stroke="#000000" d="M 777.4346192883949 651.9385084650058 L 788 655 L 782.6939490779461 645.3643462280668" stroke-miterlimit="10"/></g><g transform="translate(-30,-158) scale(1,1)"><path fill="none" stroke="#000000" d="M 499 579 L 411 631" stroke-miterlimit="10"/></g><g transform="translate(-30,-158) scale(1,1)"><path fill="none" stroke="#000000" d="M 417.6078113101424 622.2058639031708 L 411 631 L 421.8908214549482 629.4540349174575" stroke-miterlimit="10"/></g><g transform="translate(-30,-158) scale(1,1)"><path fill="none" stroke="#000000" d="M 856 512 L 742 512" stroke-miterlimit="10"/></g><g transform="translate(-30,-158) scale(1,1)"><path fill="#FFFFFF" stroke="none" d="M 752.1626748576241 507.790482243984 L 742 512 L 752.1626748576241 516.209517756016 L 764 512"/></g><g transform="translate(-30,-158) scale(1,1)"><path fill="none" stroke="#000000" d="M 752.1626748576241 507.790482243984 L 742 512 L 752.1626748576241 516.209517756016 L 764 512 L 752.1626748576241 507.790482243984" stroke-miterlimit="10"/></g><g transform="translate(-30,-158) scale(1,1)"><g><path fill="none" stroke="none"/><text fill="#000000" stroke="none" font-family="Arial" font-size="13px" font-style="normal" font-weight="normal" text-decoration="none" x="758.885009765625" y="505.5">1</text></g></g></g></svg>