<svg version="1.1" xmlns="http://www.w3.org/2000/svg" xmlns:xlink="http://www.w3.org/1999/xlink" width="796.5" height="356"><defs/><g><g transform="translate(-30,-30) scale(1,1)"><rect fill="#C0C0C0" stroke="none" x="47" y="47" width="71.736328125" height="39" opacity="0.2"/></g><g transform="translate(-30,-30) scale(1,1)"><rect fill="#ffffff" stroke="none" x="40" y="40" width="71.736328125" height="39"/></g><g transform="translate(-30,-30) scale(1,1)"><path fill="none" stroke="#000000" d="M 40 40 L 111.736328125 40 L 111.736328125 79 L 40 79 L 40 40 Z Z" stroke-miterlimit="10"/></g><g transform="translate(-30,-30) scale(1,1)"><g><path fill="none" stroke="none"/><text fill="#000000" stroke="none" font-family="Arial" font-size="13px" font-style="normal" font-weight="bold" text-decoration="none" x="61.779541015625" y="59.5">main</text></g></g><g transform="translate(-30,-30) scale(1,1)"><path fill="none" stroke="#000000" d="M 76.5 80 L 76.5 374" stroke-miterlimit="10" stroke-dasharray="3"/></g><g transform="translate(-30,-30) scale(1,1)"><rect fill="#C0C0C0" stroke="none" x="159" y="47" width="103.5126953125" height="39" opacity="0.2"/></g><g transform="translate(-30,-30) scale(1,1)"><rect fill="#ffffff" stroke="none" x="152" y="40" width="103.5126953125" height="39"/></g><g transform="translate(-30,-30) scale(1,1)"><path fill="none" stroke="#000000" d="M 152 40 L 255.5126953125 40 L 255.5126953125 79 L 152 79 L 152 40 Z Z" stroke-miterlimit="10"/></g><g transform="translate(-30,-30) scale(1,1)"><g><path fill="none" stroke="none"/><text fill="#000000" stroke="none" font-family="Arial" font-size="13px" font-style="normal" font-weight="bold" text-decoration="none" x="164.73095703125" y="59.5">content_main</text></g></g><g transform="translate(-30,-30) scale(1,1)"><path fill="none" stroke="#000000" d="M 204.5 80 L 204.5 374" stroke-miterlimit="10" stroke-dasharray="3"/></g><g transform="translate(-30,-30) scale(1,1)"><rect fill="#C0C0C0" stroke="none" x="287" y="47" width="169.9345703125" height="39" opacity="0.2"/></g><g transform="translate(-30,-30) scale(1,1)"><rect fill="#ffffff" stroke="none" x="280" y="40" width="169.9345703125" height="39"/></g><g transform="translate(-30,-30) scale(1,1)"><path fill="none" stroke="#000000" d="M 280 40 L 449.9345703125 40 L 449.9345703125 79 L 280 79 L 280 40 Z Z" stroke-miterlimit="10"/></g><g transform="translate(-30,-30) scale(1,1)"><g><path fill="none" stroke="none"/><text fill="#000000" stroke="none" font-family="Arial" font-size="13px" font-style="normal" font-weight="bold" text-decoration="none" x="326.668701171875" y="59.5">main_runner:</text><text fill="#000000" stroke="none" font-family="Arial" font-size="13px" font-style="normal" font-weight="bold" text-decoration="none" x="294.5146484375" y="72.5">ContentMainRunnerImpl</text></g></g><g transform="translate(-30,-30) scale(1,1)"><path fill="none" stroke="#000000" d="M 365.5 80 L 365.5 376" stroke-miterlimit="10" stroke-dasharray="3"/></g><g transform="translate(-30,-30) scale(1,1)"><rect fill="#C0C0C0" stroke="none" x="479" y="47" width="151.90087890625" height="39" opacity="0.2"/></g><g transform="translate(-30,-30) scale(1,1)"><rect fill="#ffffff" stroke="none" x="472" y="40" width="151.90087890625" height="39"/></g><g transform="translate(-30,-30) scale(1,1)"><path fill="none" stroke="#000000" d="M 472 40 L 623.90087890625 40 L 623.90087890625 79 L 472 79 L 472 40 Z Z" stroke-miterlimit="10"/></g><g transform="translate(-30,-30) scale(1,1)"><g><path fill="none" stroke="none"/><text fill="#000000" stroke="none" font-family="Arial" font-size="13px" font-style="normal" font-weight="bold" text-decoration="none" x="517.589599609375" y="59.5">delegate_:</text><text fill="#000000" stroke="none" font-family="Arial" font-size="13px" font-style="normal" font-weight="bold" text-decoration="none" x="485.076904296875" y="72.5">ContentMainDelegate</text></g></g><g transform="translate(-30,-30) scale(1,1)"><path fill="none" stroke="#000000" d="M 548.5 80 L 548.5 376" stroke-miterlimit="10" stroke-dasharray="3"/></g><g transform="translate(-30,-30) scale(1,1)"><rect fill="#C0C0C0" stroke="none" x="655" y="47" width="168.5" height="39" opacity="0.2"/></g><g transform="translate(-30,-30) scale(1,1)"><rect fill="#ffffff" stroke="none" x="648" y="40" width="168.5" height="39"/></g><g transform="translate(-30,-30) scale(1,1)"><path fill="none" stroke="#000000" d="M 648 40 L 816.5 40 L 816.5 79 L 648 79 L 648 40 Z Z" stroke-miterlimit="10"/></g><g transform="translate(-30,-30) scale(1,1)"><g><path fill="none" stroke="none"/><text fill="#000000" stroke="none" font-family="Arial" font-size="13px" font-style="normal" font-weight="bold" text-decoration="none" x="663.6064453125" y="59.5">: ContentClientInitializer</text></g></g><g transform="translate(-30,-30) scale(1,1)"><path fill="none" stroke="#000000" d="M 733.5 80 L 733.5 376" stroke-miterlimit="10" stroke-dasharray="3"/></g><g transform="translate(-30,-30) scale(1,1)"><path fill="none" stroke="#000000" d="M 76 113 L 197 113" stroke-miterlimit="10"/></g><g transform="translate(-30,-30) scale(1,1)"><path fill="#000000" stroke="none" d="M 186.83732514237585 117.20951775601598 L 197 113 L 186.83732514237585 108.79048224398402"/></g><g transform="translate(-30,-30) scale(1,1)"><path fill="none" stroke="#000000" d="M 186.83732514237585 117.20951775601598 L 197 113 L 186.83732514237585 108.79048224398402 L 186.83732514237585 117.20951775601598" stroke-miterlimit="10"/></g><g transform="translate(-30,-30) scale(1,1)"><g><path fill="none" stroke="none"/><text fill="#000000" stroke="none" font-family="Arial" font-size="13px" font-style="normal" font-weight="normal" text-decoration="none" x="90.5" y="109.5">1 : ContentMain</text></g></g><g transform="translate(-30,-30) scale(1,1)"><rect fill="#ffffff" stroke="none" x="197" y="113" width="13" height="247"/></g><g transform="translate(-30,-30) scale(1,1)"><path fill="none" stroke="#000000" d="M 197 113 L 210 113 L 210 360 L 197 360 L 197 113 Z Z" stroke-miterlimit="10"/></g><g transform="translate(-30,-30) scale(1,1)"><path fill="none" stroke="#000000" d="M 210 128 L 358 128" stroke-miterlimit="10"/></g><g transform="translate(-30,-30) scale(1,1)"><path fill="#000000" stroke="none" d="M 347.83732514237585 132.209517756016 L 358 128 L 347.83732514237585 123.79048224398402"/></g><g transform="translate(-30,-30) scale(1,1)"><path fill="none" stroke="#000000" d="M 347.83732514237585 132.209517756016 L 358 128 L 347.83732514237585 123.79048224398402 L 347.83732514237585 132.209517756016" stroke-miterlimit="10"/></g><g transform="translate(-30,-30) scale(1,1)"><g><path fill="none" stroke="none"/><text fill="#000000" stroke="none" font-family="Arial" font-size="13px" font-style="normal" font-weight="normal" text-decoration="none" x="251.00634765625" y="124.5">2 : Initialize</text></g></g><g transform="translate(-30,-30) scale(1,1)"><rect fill="#ffffff" stroke="none" x="358" y="128" width="13" height="96"/></g><g transform="translate(-30,-30) scale(1,1)"><path fill="none" stroke="#000000" d="M 358 128 L 371 128 L 371 224 L 358 224 L 358 128 Z Z" stroke-miterlimit="10"/></g><g transform="translate(-30,-30) scale(1,1)"><path fill="none" stroke="#000000" d="M 371 136 L 541 136" stroke-miterlimit="10"/></g><g transform="translate(-30,-30) scale(1,1)"><path fill="#000000" stroke="none" d="M 530.8373251423759 140.209517756016 L 541 136 L 530.8373251423758 131.790482243984"/></g><g transform="translate(-30,-30) scale(1,1)"><path fill="none" stroke="#000000" d="M 530.8373251423759 140.209517756016 L 541 136 L 530.8373251423758 131.790482243984 L 530.8373251423759 140.209517756016" stroke-miterlimit="10"/></g><g transform="translate(-30,-30) scale(1,1)"><g><path fill="none" stroke="none"/><text fill="#000000" stroke="none" font-family="Arial" font-size="13px" font-style="normal" font-weight="normal" text-decoration="none" x="382.5" y="132.5">3 : BasicStartupComplete</text></g></g><g transform="translate(-30,-30) scale(1,1)"><rect fill="#ffffff" stroke="none" x="541" y="136" width="13" height="28"/></g><g transform="translate(-30,-30) scale(1,1)"><path fill="none" stroke="#000000" d="M 541 136 L 554 136 L 554 164 L 541 164 L 541 136 Z Z" stroke-miterlimit="10"/></g><g transform="translate(-30,-30) scale(1,1)"><path fill="none" stroke="#000000" d="M 371 184 L 726 184" stroke-miterlimit="10"/></g><g transform="translate(-30,-30) scale(1,1)"><path fill="#000000" stroke="none" d="M 715.8373251423759 188.209517756016 L 726 184 L 715.8373251423758 179.790482243984"/></g><g transform="translate(-30,-30) scale(1,1)"><path fill="none" stroke="#000000" d="M 715.8373251423759 188.209517756016 L 726 184 L 715.8373251423758 179.790482243984 L 715.8373251423759 188.209517756016" stroke-miterlimit="10"/></g><g transform="translate(-30,-30) scale(1,1)"><g><path fill="none" stroke="none"/><text fill="#000000" stroke="none" font-family="Arial" font-size="13px" font-style="normal" font-weight="normal" text-decoration="none" x="528.733154296875" y="180.5">4 : Set</text></g></g><g transform="translate(-30,-30) scale(1,1)"><rect fill="#ffffff" stroke="none" x="726" y="184" width="13" height="28"/></g><g transform="translate(-30,-30) scale(1,1)"><path fill="none" stroke="#000000" d="M 726 184 L 739 184 L 739 212 L 726 212 L 726 184 Z Z" stroke-miterlimit="10"/></g><g transform="translate(-30,-30) scale(1,1)"><path fill="none" stroke="#000000" d="M 210 240 L 358 240" stroke-miterlimit="10"/></g><g transform="translate(-30,-30) scale(1,1)"><path fill="#000000" stroke="none" d="M 347.83732514237585 244.209517756016 L 358 240 L 347.83732514237585 235.790482243984"/></g><g transform="translate(-30,-30) scale(1,1)"><path fill="none" stroke="#000000" d="M 347.83732514237585 244.209517756016 L 358 240 L 347.83732514237585 235.790482243984 L 347.83732514237585 244.209517756016" stroke-miterlimit="10"/></g><g transform="translate(-30,-30) scale(1,1)"><g><path fill="none" stroke="none"/><text fill="#000000" stroke="none" font-family="Arial" font-size="13px" font-style="normal" font-weight="normal" text-decoration="none" x="262.5654296875" y="236.5">5 : Run</text></g></g><g transform="translate(-30,-30) scale(1,1)"><rect fill="#ffffff" stroke="none" x="358" y="240" width="13" height="59"/></g><g transform="translate(-30,-30) scale(1,1)"><path fill="none" stroke="#000000" d="M 358 240 L 371 240 L 371 299 L 358 299 L 358 240 Z Z" stroke-miterlimit="10"/></g><g transform="translate(-30,-30) scale(1,1)"><path fill="none" stroke="#000000" d="M 371 248 L 401 248 L 401 268 L 378 268" stroke-miterlimit="10"/></g><g transform="translate(-30,-30) scale(1,1)"><path fill="#000000" stroke="none" d="M 388.16267485762415 263.790482243984 L 378 268 L 388.16267485762415 272.209517756016"/></g><g transform="translate(-30,-30) scale(1,1)"><path fill="none" stroke="#000000" d="M 388.16267485762415 263.790482243984 L 378 268 L 388.16267485762415 272.209517756016 L 388.16267485762415 263.790482243984" stroke-miterlimit="10"/></g><g transform="translate(-30,-30) scale(1,1)"><g><path fill="none" stroke="none"/><text fill="#000000" stroke="none" font-family="Arial" font-size="13px" font-style="normal" font-weight="normal" text-decoration="none" x="316.5" y="263.5">6 : RunNamedProcessTypeMain</text></g></g><g transform="translate(-30,-30) scale(1,1)"><rect fill="#ffffff" stroke="none" x="365" y="268" width="13" height="28"/></g><g transform="translate(-30,-30) scale(1,1)"><path fill="none" stroke="#000000" d="M 365 268 L 378 268 L 378 296 L 365 296 L 365 268 Z Z" stroke-miterlimit="10"/></g><g transform="translate(-30,-30) scale(1,1)"><path fill="none" stroke="#000000" d="M 210 320 L 358 320" stroke-miterlimit="10"/></g><g transform="translate(-30,-30) scale(1,1)"><path fill="#000000" stroke="none" d="M 347.83732514237585 324.209517756016 L 358 320 L 347.83732514237585 315.790482243984"/></g><g transform="translate(-30,-30) scale(1,1)"><path fill="none" stroke="#000000" d="M 347.83732514237585 324.209517756016 L 358 320 L 347.83732514237585 315.790482243984 L 347.83732514237585 324.209517756016" stroke-miterlimit="10"/></g><g transform="translate(-30,-30) scale(1,1)"><g><path fill="none" stroke="none"/><text fill="#000000" stroke="none" font-family="Arial" font-size="13px" font-style="normal" font-weight="normal" text-decoration="none" x="245.5791015625" y="316.5">7 : Shutdown</text></g></g><g transform="translate(-30,-30) scale(1,1)"><rect fill="#ffffff" stroke="none" x="358" y="320" width="13" height="28"/></g><g transform="translate(-30,-30) scale(1,1)"><path fill="none" stroke="#000000" d="M 358 320 L 371 320 L 371 348 L 358 348 L 358 320 Z Z" stroke-miterlimit="10"/></g></g></svg>