<svg version="1.1" xmlns="http://www.w3.org/2000/svg" xmlns:xlink="http://www.w3.org/1999/xlink" width="904.23974609375" height="579"><defs/><g><g transform="translate(-174,-118) scale(1,1)"><rect fill="#C0C0C0" stroke="none" x="487" y="319" width="262.23974609375" height="115" opacity="0.2"/></g><g transform="translate(-174,-118) scale(1,1)"><rect fill="#ffffff" stroke="none" x="480" y="312" width="262.23974609375" height="115"/></g><g transform="translate(-174,-118) scale(1,1)"><path fill="none" stroke="#000000" d="M 480 312 L 742.23974609375 312 L 742.23974609375 427 L 480 427 L 480 312 Z Z" stroke-miterlimit="10"/></g><g transform="translate(-174,-118) scale(1,1)"><path fill="none" stroke="#000000" d="M 480 352 L 742.23974609375 352" stroke-miterlimit="10"/></g><g transform="translate(-174,-118) scale(1,1)"><path fill="none" stroke="#000000" d="M 480 375 L 742.23974609375 375" stroke-miterlimit="10"/></g><g transform="translate(-174,-118) scale(1,1)"><g><path fill="none" stroke="none"/><text fill="#000000" stroke="none" font-family="Arial" font-size="13px" font-style="normal" font-weight="bold" text-decoration="none" x="540.667236328125" y="331.5">ContentMainRunnerImpl</text></g></g><g transform="translate(-174,-118) scale(1,1)"><g><path fill="none" stroke="none"/><text fill="#000000" stroke="none" font-family="Arial" font-size="13px" font-style="normal" font-weight="normal" text-decoration="none" x="570.6630859375" y="346.5">(from content)</text></g></g><g transform="translate(-174,-118) scale(1,1)"><g><path fill="none" stroke="none"/><text fill="#000000" stroke="none" font-family="Arial" font-size="13px" font-style="normal" font-weight="normal" text-decoration="none" x="485" y="369.5">-delegate_: ContentMainDelegate</text></g></g><g transform="translate(-174,-118) scale(1,1)"><g><path fill="none" stroke="none"/><text fill="#000000" stroke="none" font-family="Arial" font-size="13px" font-style="normal" font-weight="normal" text-decoration="none" x="485" y="392.5">+Initialize(params: ContentMainParams): int</text></g></g><g transform="translate(-174,-118) scale(1,1)"><g><path fill="none" stroke="none"/><text fill="#000000" stroke="none" font-family="Arial" font-size="13px" font-style="normal" font-weight="normal" text-decoration="none" x="485" y="407.5">+Run(params: ContentMainParams)</text></g></g><g transform="translate(-174,-118) scale(1,1)"><g><path fill="none" stroke="none"/><text fill="#000000" stroke="none" font-family="Arial" font-size="13px" font-style="normal" font-weight="normal" text-decoration="none" x="485" y="422.5">+Shutdown(): void</text></g></g><g transform="translate(-174,-118) scale(1,1)"><rect fill="#C0C0C0" stroke="none" x="191" y="351" width="141.90087890625" height="59" opacity="0.2"/></g><g transform="translate(-174,-118) scale(1,1)"><rect fill="#ffffff" stroke="none" x="184" y="344" width="141.90087890625" height="59"/></g><g transform="translate(-174,-118) scale(1,1)"><path fill="none" stroke="#000000" d="M 184 344 L 325.90087890625 344 L 325.90087890625 403 L 184 403 L 184 344 Z Z" stroke-miterlimit="10"/></g><g transform="translate(-174,-118) scale(1,1)"><path fill="none" stroke="#000000" d="M 184 384 L 325.90087890625 384" stroke-miterlimit="10"/></g><g transform="translate(-174,-118) scale(1,1)"><path fill="none" stroke="#000000" d="M 184 394 L 325.90087890625 394" stroke-miterlimit="10"/></g><g transform="translate(-174,-118) scale(1,1)"><g><path fill="none" stroke="none"/><text fill="#000000" stroke="none" font-family="Arial" font-size="13px" font-style="normal" font-weight="bold" text-decoration="none" x="192.076904296875" y="363.5">ContentMainDelegate</text></g></g><g transform="translate(-174,-118) scale(1,1)"><g><path fill="none" stroke="none"/><text fill="#000000" stroke="none" font-family="Arial" font-size="13px" font-style="normal" font-weight="normal" text-decoration="none" x="214.49365234375" y="378.5">(from content)</text></g></g><g transform="translate(-174,-118) scale(1,1)"><path fill="#C0C0C0" stroke="none" d="M 601.71484375 146.5 C 601.71484375 140.1487248 606.86356855 135 613.21484375 135 C 619.56611895 135 624.71484375 140.1487248 624.71484375 146.5 C 624.71484375 152.8512752 619.56611895 158 613.21484375 158 C 606.86356855 158 601.71484375 152.8512752 601.71484375 146.5 Z" opacity="0.2"/></g><g transform="translate(-174,-118) scale(1,1)"><path fill="#ffffff" stroke="none" d="M 594.71484375 139.5 C 594.71484375 133.1487248 599.86356855 128 606.21484375 128 C 612.56611895 128 617.71484375 133.1487248 617.71484375 139.5 C 617.71484375 145.8512752 612.56611895 151 606.21484375 151 C 599.86356855 151 594.71484375 145.8512752 594.71484375 139.5 Z"/></g><g transform="translate(-174,-118) scale(1,1)"><path fill="none" stroke="#000000" d="M 594.71484375 139.5 C 594.71484375 133.1487248 599.86356855 128 606.21484375 128 C 612.56611895 128 617.71484375 133.1487248 617.71484375 139.5 C 617.71484375 145.8512752 612.56611895 151 606.21484375 151 C 599.86356855 151 594.71484375 145.8512752 594.71484375 139.5 Z" stroke-miterlimit="10"/></g><g transform="translate(-174,-118) scale(1,1)"><path fill="none" stroke="#000000" d="M 448 191 L 764.4296875 191" stroke-miterlimit="10"/></g><g transform="translate(-174,-118) scale(1,1)"><g><path fill="none" stroke="none"/><text fill="#000000" stroke="none" font-family="Arial" font-size="13px" font-style="normal" font-weight="bold" text-decoration="none" x="548.041748046875" y="170.5">ContentMainRunner</text></g></g><g transform="translate(-174,-118) scale(1,1)"><g><path fill="none" stroke="none"/><text fill="#000000" stroke="none" font-family="Arial" font-size="13px" font-style="normal" font-weight="normal" text-decoration="none" x="565.758056640625" y="185.5">(from content)</text></g></g><g transform="translate(-174,-118) scale(1,1)"><g><path fill="none" stroke="none"/><text fill="#000000" stroke="none" font-family="Arial" font-size="13px" font-style="normal" font-weight="normal" text-decoration="none" x="453" y="208.5">+Create(): ContentMainRunner</text><path fill="none" stroke="#000000" d="M 453 208.5 L 631.8388671875 208.5" stroke-miterlimit="10"/></g></g><g transform="translate(-174,-118) scale(1,1)"><g><path fill="none" stroke="none"/><text fill="#000000" stroke="none" font-family="Arial" font-size="13px" font-style="normal" font-weight="normal" text-decoration="none" x="453" y="223.5">+Initialize(params: ContentMainParams): int</text></g></g><g transform="translate(-174,-118) scale(1,1)"><g><path fill="none" stroke="none"/><text fill="#000000" stroke="none" font-family="Arial" font-size="13px" font-style="normal" font-weight="normal" text-decoration="none" x="453" y="238.5">+Run(params: ContentMainParams)</text></g></g><g transform="translate(-174,-118) scale(1,1)"><g><path fill="none" stroke="none"/><text fill="#000000" stroke="none" font-family="Arial" font-size="13px" font-style="normal" font-weight="normal" text-decoration="none" x="453" y="253.5">+Shutdown(): void</text></g></g><g transform="translate(-174,-118) scale(1,1)"><rect fill="#C0C0C0" stroke="none" x="199" y="503" width="123.8671875" height="59" opacity="0.2"/></g><g transform="translate(-174,-118) scale(1,1)"><rect fill="#ffffff" stroke="none" x="192" y="496" width="123.8671875" height="59"/></g><g transform="translate(-174,-118) scale(1,1)"><path fill="none" stroke="#000000" d="M 192 496 L 315.8671875 496 L 315.8671875 555 L 192 555 L 192 496 Z Z" stroke-miterlimit="10"/></g><g transform="translate(-174,-118) scale(1,1)"><path fill="none" stroke="#000000" d="M 192 536 L 315.8671875 536" stroke-miterlimit="10"/></g><g transform="translate(-174,-118) scale(1,1)"><path fill="none" stroke="#000000" d="M 192 546 L 315.8671875 546" stroke-miterlimit="10"/></g><g transform="translate(-174,-118) scale(1,1)"><g><path fill="none" stroke="none"/><text fill="#000000" stroke="none" font-family="Arial" font-size="13px" font-style="normal" font-weight="bold" text-decoration="none" x="199.372314453125" y="515.5">ShellMainDelegate</text></g></g><g transform="translate(-174,-118) scale(1,1)"><g><path fill="none" stroke="none"/><text fill="#000000" stroke="none" font-family="Arial" font-size="13px" font-style="normal" font-weight="normal" text-decoration="none" x="213.476806640625" y="530.5">(from content)</text></g></g><g transform="translate(-174,-118) scale(1,1)"><path fill="none" stroke="#000000" d="M 256 496 L 256 403" stroke-miterlimit="10"/></g><g transform="translate(-174,-118) scale(1,1)"><path fill="#FFFFFF" stroke="none" d="M 264.419035512032 423.3253497152483 L 256 403 L 247.58096448796803 423.3253497152483"/></g><g transform="translate(-174,-118) scale(1,1)"><path fill="none" stroke="#000000" d="M 264.419035512032 423.3253497152483 L 256 403 L 247.58096448796803 423.3253497152483 L 264.419035512032 423.3253497152483" stroke-miterlimit="10"/></g><g transform="translate(-174,-118) scale(1,1)"><path fill="none" stroke="#000000" d="M 326 372 L 480 372" stroke-miterlimit="10"/></g><g transform="translate(-174,-118) scale(1,1)"><path fill="#FFFFFF" stroke="none" d="M 469.83732514237585 376.209517756016 L 480 372 L 469.83732514237585 367.790482243984 L 458 372"/></g><g transform="translate(-174,-118) scale(1,1)"><path fill="none" stroke="#000000" d="M 469.83732514237585 376.209517756016 L 480 372 L 469.83732514237585 367.790482243984 L 458 372 L 469.83732514237585 376.209517756016" stroke-miterlimit="10"/></g><g transform="translate(-174,-118) scale(1,1)"><path fill="none" stroke="#000000" d="M 606 312 L 606 151" stroke-miterlimit="10"/></g><g transform="translate(-174,-118) scale(1,1)"><rect fill="#C0C0C0" stroke="none" x="195" y="183" width="134.68994140625" height="59" opacity="0.2"/></g><g transform="translate(-174,-118) scale(1,1)"><rect fill="#ffffff" stroke="none" x="188" y="176" width="134.68994140625" height="59"/></g><g transform="translate(-174,-118) scale(1,1)"><path fill="none" stroke="#000000" d="M 188 176 L 322.68994140625 176 L 322.68994140625 235 L 188 235 L 188 176 Z Z" stroke-miterlimit="10"/></g><g transform="translate(-174,-118) scale(1,1)"><path fill="none" stroke="#000000" d="M 188 216 L 322.68994140625 216" stroke-miterlimit="10"/></g><g transform="translate(-174,-118) scale(1,1)"><path fill="none" stroke="#000000" d="M 188 226 L 322.68994140625 226" stroke-miterlimit="10"/></g><g transform="translate(-174,-118) scale(1,1)"><g><path fill="none" stroke="none"/><text fill="#000000" stroke="none" font-family="Arial" font-size="13px" font-style="normal" font-weight="bold" text-decoration="none" x="196.095947265625" y="195.5">ContentMainParams</text></g></g><g transform="translate(-174,-118) scale(1,1)"><g><path fill="none" stroke="none"/><text fill="#000000" stroke="none" font-family="Arial" font-size="13px" font-style="normal" font-weight="normal" text-decoration="none" x="214.88818359375" y="210.5">(from content)</text></g></g><g transform="translate(-174,-118) scale(1,1)"><path fill="none" stroke="#000000" d="M 255 235 L 255 344" stroke-miterlimit="10"/></g><g transform="translate(-174,-118) scale(1,1)"><path fill="none" stroke="#000000" d="M 250.790482243984 333.83732514237585 L 255 344 L 259.209517756016 333.83732514237585" stroke-miterlimit="10"/></g><g transform="translate(-174,-118) scale(1,1)"><path fill="none" stroke="#000000" d="M 448 203 L 323 203" stroke-miterlimit="10"/></g><g transform="translate(-174,-118) scale(1,1)"><path fill="none" stroke="#000000" d="M 333.16267485762415 198.790482243984 L 323 203 L 333.16267485762415 207.209517756016" stroke-miterlimit="10"/></g><g transform="translate(-174,-118) scale(1,1)"><rect fill="#C0C0C0" stroke="none" x="839" y="335" width="236.23974609375" height="72" opacity="0.2"/></g><g transform="translate(-174,-118) scale(1,1)"><rect fill="#ffffff" stroke="none" x="832" y="328" width="236.23974609375" height="72"/></g><g transform="translate(-174,-118) scale(1,1)"><path fill="none" stroke="#000000" d="M 832 328 L 1068.23974609375 328 L 1068.23974609375 400 L 832 400 L 832 328 Z Z" stroke-miterlimit="10"/></g><g transform="translate(-174,-118) scale(1,1)"><path fill="none" stroke="#000000" d="M 832 368 L 1068.23974609375 368" stroke-miterlimit="10"/></g><g transform="translate(-174,-118) scale(1,1)"><path fill="none" stroke="#000000" d="M 832 378 L 1068.23974609375 378" stroke-miterlimit="10"/></g><g transform="translate(-174,-118) scale(1,1)"><g><path fill="none" stroke="none"/><text fill="#000000" stroke="none" font-family="Arial" font-size="13px" font-style="normal" font-weight="bold" text-decoration="none" x="885.088134765625" y="347.5">ContentClientInitializer</text></g></g><g transform="translate(-174,-118) scale(1,1)"><g><path fill="none" stroke="none"/><text fill="#000000" stroke="none" font-family="Arial" font-size="13px" font-style="normal" font-weight="normal" text-decoration="none" x="909.6630859375" y="362.5">(from content)</text></g></g><g transform="translate(-174,-118) scale(1,1)"><g><path fill="none" stroke="none"/><text fill="#000000" stroke="none" font-family="Arial" font-size="13px" font-style="normal" font-weight="normal" text-decoration="none" x="837" y="395.5">+Set(process_type: string, delegate)</text><path fill="none" stroke="#000000" d="M 837 395.5 L 1046.19970703125 395.5" stroke-miterlimit="10"/></g></g><g transform="translate(-174,-118) scale(1,1)"><path fill="none" stroke="#000000" d="M 742 364 L 832 364" stroke-miterlimit="10"/></g><g transform="translate(-174,-118) scale(1,1)"><path fill="none" stroke="#000000" d="M 821.8373251423759 368.209517756016 L 832 364 L 821.8373251423758 359.790482243984" stroke-miterlimit="10"/></g><g transform="translate(-174,-118) scale(1,1)"><rect fill="#C0C0C0" stroke="none" x="567" y="495" width="94.2109375" height="59" opacity="0.2"/></g><g transform="translate(-174,-118) scale(1,1)"><rect fill="#ffffff" stroke="none" x="560" y="488" width="94.2109375" height="59"/></g><g transform="translate(-174,-118) scale(1,1)"><path fill="none" stroke="#000000" d="M 560 488 L 654.2109375 488 L 654.2109375 547 L 560 547 L 560 488 Z Z" stroke-miterlimit="10"/></g><g transform="translate(-174,-118) scale(1,1)"><path fill="none" stroke="#000000" d="M 560 528 L 654.2109375 528" stroke-miterlimit="10"/></g><g transform="translate(-174,-118) scale(1,1)"><path fill="none" stroke="#000000" d="M 560 538 L 654.2109375 538" stroke-miterlimit="10"/></g><g transform="translate(-174,-118) scale(1,1)"><g><path fill="none" stroke="none"/><text fill="#000000" stroke="none" font-family="Arial" font-size="13px" font-style="normal" font-weight="bold" text-decoration="none" x="567.721435546875" y="507.5">ContentClient</text></g></g><g transform="translate(-174,-118) scale(1,1)"><g><path fill="none" stroke="none"/><text fill="#000000" stroke="none" font-family="Arial" font-size="13px" font-style="normal" font-weight="normal" text-decoration="none" x="566.648681640625" y="522.5">(from content)</text></g></g><g transform="translate(-174,-118) scale(1,1)"><path fill="none" stroke="#000000" d="M 867 401 L 655 495" stroke-miterlimit="10"/></g><g transform="translate(-174,-118) scale(1,1)"><path fill="none" stroke="#000000" d="M 662.5841022840654 487.03247889586515 L 655 495 L 665.9966583562557 494.72888195229433" stroke-miterlimit="10"/></g><g transform="translate(-174,-118) scale(1,1)"><rect fill="#C0C0C0" stroke="none" x="199" y="635" width="146.22998046875" height="59" opacity="0.2"/></g><g transform="translate(-174,-118) scale(1,1)"><rect fill="#ffffff" stroke="none" x="192" y="628" width="146.22998046875" height="59"/></g><g transform="translate(-174,-118) scale(1,1)"><path fill="none" stroke="#000000" d="M 192 628 L 338.22998046875 628 L 338.22998046875 687 L 192 687 L 192 628 Z Z" stroke-miterlimit="10"/></g><g transform="translate(-174,-118) scale(1,1)"><path fill="none" stroke="#000000" d="M 192 668 L 338.22998046875 668" stroke-miterlimit="10"/></g><g transform="translate(-174,-118) scale(1,1)"><path fill="none" stroke="#000000" d="M 192 678 L 338.22998046875 678" stroke-miterlimit="10"/></g><g transform="translate(-174,-118) scale(1,1)"><g><path fill="none" stroke="none"/><text fill="#000000" stroke="none" font-family="Arial" font-size="13px" font-style="normal" font-weight="bold" text-decoration="none" x="201.892333984375" y="647.5">ContentBrowserClient</text></g></g><g transform="translate(-174,-118) scale(1,1)"><g><path fill="none" stroke="none"/><text fill="#000000" stroke="none" font-family="Arial" font-size="13px" font-style="normal" font-weight="normal" text-decoration="none" x="224.658203125" y="662.5">(from content)</text></g></g><g transform="translate(-174,-118) scale(1,1)"><rect fill="#C0C0C0" stroke="none" x="447" y="635" width="120.20458984375" height="59" opacity="0.2"/></g><g transform="translate(-174,-118) scale(1,1)"><rect fill="#ffffff" stroke="none" x="440" y="628" width="120.20458984375" height="59"/></g><g transform="translate(-174,-118) scale(1,1)"><path fill="none" stroke="#000000" d="M 440 628 L 560.20458984375 628 L 560.20458984375 687 L 440 687 L 440 628 Z Z" stroke-miterlimit="10"/></g><g transform="translate(-174,-118) scale(1,1)"><path fill="none" stroke="#000000" d="M 440 668 L 560.20458984375 668" stroke-miterlimit="10"/></g><g transform="translate(-174,-118) scale(1,1)"><path fill="none" stroke="#000000" d="M 440 678 L 560.20458984375 678" stroke-miterlimit="10"/></g><g transform="translate(-174,-118) scale(1,1)"><g><path fill="none" stroke="none"/><text fill="#000000" stroke="none" font-family="Arial" font-size="13px" font-style="normal" font-weight="bold" text-decoration="none" x="448.432373046875" y="647.5">ContentGpuClient</text></g></g><g transform="translate(-174,-118) scale(1,1)"><g><path fill="none" stroke="none"/><text fill="#000000" stroke="none" font-family="Arial" font-size="13px" font-style="normal" font-weight="normal" text-decoration="none" x="459.6455078125" y="662.5">(from content)</text></g></g><g transform="translate(-174,-118) scale(1,1)"><rect fill="#C0C0C0" stroke="none" x="679" y="635" width="151.2890625" height="59" opacity="0.2"/></g><g transform="translate(-174,-118) scale(1,1)"><rect fill="#ffffff" stroke="none" x="672" y="628" width="151.2890625" height="59"/></g><g transform="translate(-174,-118) scale(1,1)"><path fill="none" stroke="#000000" d="M 672 628 L 823.2890625 628 L 823.2890625 687 L 672 687 L 672 628 Z Z" stroke-miterlimit="10"/></g><g transform="translate(-174,-118) scale(1,1)"><path fill="none" stroke="#000000" d="M 672 668 L 823.2890625 668" stroke-miterlimit="10"/></g><g transform="translate(-174,-118) scale(1,1)"><path fill="none" stroke="#000000" d="M 672 678 L 823.2890625 678" stroke-miterlimit="10"/></g><g transform="translate(-174,-118) scale(1,1)"><g><path fill="none" stroke="none"/><text fill="#000000" stroke="none" font-family="Arial" font-size="13px" font-style="normal" font-weight="bold" text-decoration="none" x="681.162353515625" y="647.5">ContentRendererClient</text></g></g><g transform="translate(-174,-118) scale(1,1)"><g><path fill="none" stroke="none"/><text fill="#000000" stroke="none" font-family="Arial" font-size="13px" font-style="normal" font-weight="normal" text-decoration="none" x="707.187744140625" y="662.5">(from content)</text></g></g><g transform="translate(-174,-118) scale(1,1)"><rect fill="#C0C0C0" stroke="none" x="919" y="635" width="130.32275390625" height="59" opacity="0.2"/></g><g transform="translate(-174,-118) scale(1,1)"><rect fill="#ffffff" stroke="none" x="912" y="628" width="130.32275390625" height="59"/></g><g transform="translate(-174,-118) scale(1,1)"><path fill="none" stroke="#000000" d="M 912 628 L 1042.32275390625 628 L 1042.32275390625 687 L 912 687 L 912 628 Z Z" stroke-miterlimit="10"/></g><g transform="translate(-174,-118) scale(1,1)"><path fill="none" stroke="#000000" d="M 912 668 L 1042.32275390625 668" stroke-miterlimit="10"/></g><g transform="translate(-174,-118) scale(1,1)"><path fill="none" stroke="#000000" d="M 912 678 L 1042.32275390625 678" stroke-miterlimit="10"/></g><g transform="translate(-174,-118) scale(1,1)"><g><path fill="none" stroke="none"/><text fill="#000000" stroke="none" font-family="Arial" font-size="13px" font-style="normal" font-weight="bold" text-decoration="none" x="921.88916015625" y="647.5">ContentUtilityClient</text></g></g><g transform="translate(-174,-118) scale(1,1)"><g><path fill="none" stroke="none"/><text fill="#000000" stroke="none" font-family="Arial" font-size="13px" font-style="normal" font-weight="normal" text-decoration="none" x="936.70458984375" y="662.5">(from content)</text></g></g><g transform="translate(-174,-118) scale(1,1)"><path fill="none" stroke="#000000" d="M 338 627 L 559 537" stroke-miterlimit="10"/></g><g transform="translate(-174,-118) scale(1,1)"><path fill="#FFFFFF" stroke="none" d="M 551.1755509807159 544.7316232153813 L 559 537 L 548.0001958342402 536.9343622445913 L 538.6247751761792 545.2976028694293"/></g><g transform="translate(-174,-118) scale(1,1)"><path fill="none" stroke="#000000" d="M 551.1755509807159 544.7316232153813 L 559 537 L 548.0001958342402 536.9343622445913 L 538.6247751761792 545.2976028694293 L 551.1755509807159 544.7316232153813" stroke-miterlimit="10"/></g><g transform="translate(-174,-118) scale(1,1)"><path fill="none" stroke="#000000" d="M 523 627 L 583 548" stroke-miterlimit="10"/></g><g transform="translate(-174,-118) scale(1,1)"><path fill="#FFFFFF" stroke="none" d="M 580.2056096944327 558.6391438950768 L 583 548 L 573.5010568714231 553.5470784598797 L 569.6937917752886 565.5198408292034"/></g><g transform="translate(-174,-118) scale(1,1)"><path fill="none" stroke="#000000" d="M 580.2056096944327 558.6391438950768 L 583 548 L 573.5010568714231 553.5470784598797 L 569.6937917752886 565.5198408292034 L 580.2056096944327 558.6391438950768" stroke-miterlimit="10"/></g><g transform="translate(-174,-118) scale(1,1)"><path fill="none" stroke="#000000" d="M 717 627 L 638 548" stroke-miterlimit="10"/></g><g transform="translate(-174,-118) scale(1,1)"><path fill="#FFFFFF" stroke="none" d="M 648.1626748576241 552.209517756016 L 638 548 L 642.209517756016 558.1626748576241 L 653.5563491861041 563.5563491861041"/></g><g transform="translate(-174,-118) scale(1,1)"><path fill="none" stroke="#000000" d="M 648.1626748576241 552.209517756016 L 638 548 L 642.209517756016 558.1626748576241 L 653.5563491861041 563.5563491861041 L 648.1626748576241 552.209517756016" stroke-miterlimit="10"/></g><g transform="translate(-174,-118) scale(1,1)"><path fill="none" stroke="#000000" d="M 911 632 L 655 535" stroke-miterlimit="10"/></g><g transform="translate(-174,-118) scale(1,1)"><path fill="#FFFFFF" stroke="none" d="M 665.9948812840943 534.6644622991762 L 655 535 L 663.0118160979204 542.5372941307278 L 675.5727009996104 542.7951249881337"/></g><g transform="translate(-174,-118) scale(1,1)"><path fill="none" stroke="#000000" d="M 665.9948812840943 534.6644622991762 L 655 535 L 663.0118160979204 542.5372941307278 L 675.5727009996104 542.7951249881337 L 665.9948812840943 534.6644622991762" stroke-miterlimit="10"/></g></g></svg>