<svg version="1.1" xmlns="http://www.w3.org/2000/svg" xmlns:xlink="http://www.w3.org/1999/xlink" width="684.126953125" height="696"><defs/><g><g transform="translate(-222,-46) scale(1,1)"><path fill="#C0C0C0" stroke="none" d="M 373 74.5 C 373 68.1487248 378.1487248 63 384.5 63 C 390.8512752 63 396 68.1487248 396 74.5 C 396 80.8512752 390.8512752 86 384.5 86 C 378.1487248 86 373 80.8512752 373 74.5 Z" opacity="0.2"/></g><g transform="translate(-222,-46) scale(1,1)"><path fill="#ffffff" stroke="none" d="M 366 67.5 C 366 61.1487248 371.1487248 56 377.5 56 C 383.8512752 56 389 61.1487248 389 67.5 C 389 73.8512752 383.8512752 79 377.5 79 C 371.1487248 79 366 73.8512752 366 67.5 Z"/></g><g transform="translate(-222,-46) scale(1,1)"><path fill="none" stroke="#000000" d="M 366 67.5 C 366 61.1487248 371.1487248 56 377.5 56 C 383.8512752 56 389 61.1487248 389 67.5 C 389 73.8512752 383.8512752 79 377.5 79 C 371.1487248 79 366 73.8512752 366 67.5 Z" stroke-miterlimit="10"/></g><g transform="translate(-222,-46) scale(1,1)"><path fill="none" stroke="#000000" d="M 232 119 L 523 119" stroke-miterlimit="10"/></g><g transform="translate(-222,-46) scale(1,1)"><g><path fill="none" stroke="none"/><text fill="#000000" stroke="none" font-family="Arial" font-size="13px" font-style="normal" font-weight="bold" text-decoration="none" x="318.254150390625" y="98.5">BrowserMainRunner</text></g></g><g transform="translate(-222,-46) scale(1,1)"><g><path fill="none" stroke="none"/><text fill="#000000" stroke="none" font-family="Arial" font-size="13px" font-style="normal" font-weight="normal" text-decoration="none" x="337.043212890625" y="113.5">(from content)</text></g></g><g transform="translate(-222,-46) scale(1,1)"><g><path fill="none" stroke="none"/><text fill="#000000" stroke="none" font-family="Arial" font-size="13px" font-style="italic" font-weight="normal" text-decoration="none" x="237" y="136.5">+Create(): BrowserMainRunner</text><path fill="none" stroke="#000000" d="M 237 136.5 L 417.984375 136.5" stroke-miterlimit="10"/></g></g><g transform="translate(-222,-46) scale(1,1)"><g><path fill="none" stroke="none"/><text fill="#000000" stroke="none" font-family="Arial" font-size="13px" font-style="italic" font-weight="normal" text-decoration="none" x="237" y="151.5">+Initialize(parameters: MainFunctionParams): int</text></g></g><g transform="translate(-222,-46) scale(1,1)"><g><path fill="none" stroke="none"/><text fill="#000000" stroke="none" font-family="Arial" font-size="13px" font-style="italic" font-weight="normal" text-decoration="none" x="237" y="166.5">+Run(params: ContentMainParams)</text></g></g><g transform="translate(-222,-46) scale(1,1)"><g><path fill="none" stroke="none"/><text fill="#000000" stroke="none" font-family="Arial" font-size="13px" font-style="italic" font-weight="normal" text-decoration="none" x="237" y="181.5">+Shutdown(): void</text></g></g><g transform="translate(-222,-46) scale(1,1)"><rect fill="#C0C0C0" stroke="none" x="239" y="207" width="288.9697265625" height="130" opacity="0.2"/></g><g transform="translate(-222,-46) scale(1,1)"><rect fill="#ffffff" stroke="none" x="232" y="200" width="288.9697265625" height="130"/></g><g transform="translate(-222,-46) scale(1,1)"><path fill="none" stroke="#000000" d="M 232 200 L 520.9697265625 200 L 520.9697265625 330 L 232 330 L 232 200 Z Z" stroke-miterlimit="10"/></g><g transform="translate(-222,-46) scale(1,1)"><path fill="none" stroke="#000000" d="M 232 240 L 520.9697265625 240" stroke-miterlimit="10"/></g><g transform="translate(-222,-46) scale(1,1)"><path fill="none" stroke="#000000" d="M 232 263 L 520.9697265625 263" stroke-miterlimit="10"/></g><g transform="translate(-222,-46) scale(1,1)"><g><path fill="none" stroke="none"/><text fill="#000000" stroke="none" font-family="Arial" font-size="13px" font-style="normal" font-weight="bold" text-decoration="none" x="304.95947265625" y="219.5">BrowserMainRunnerImpl</text></g></g><g transform="translate(-222,-46) scale(1,1)"><g><path fill="none" stroke="none"/><text fill="#000000" stroke="none" font-family="Arial" font-size="13px" font-style="normal" font-weight="normal" text-decoration="none" x="336.028076171875" y="234.5">(from content)</text></g></g><g transform="translate(-222,-46) scale(1,1)"><g><path fill="none" stroke="none"/><text fill="#000000" stroke="none" font-family="Arial" font-size="13px" font-style="normal" font-weight="normal" text-decoration="none" x="237" y="257.5">#main_loop_: BrowserMainLoop</text></g></g><g transform="translate(-222,-46) scale(1,1)"><g><path fill="none" stroke="none"/><text fill="#000000" stroke="none" font-family="Arial" font-size="13px" font-style="normal" font-weight="normal" text-decoration="none" x="237" y="280.5">+Create(): BrowserMainRunner</text><path fill="none" stroke="#000000" d="M 237 280.5 L 417.984375 280.5" stroke-miterlimit="10"/></g></g><g transform="translate(-222,-46) scale(1,1)"><g><path fill="none" stroke="none"/><text fill="#000000" stroke="none" font-family="Arial" font-size="13px" font-style="normal" font-weight="normal" text-decoration="none" x="237" y="295.5">+Initialize(parameters: MainFunctionParams): int</text></g></g><g transform="translate(-222,-46) scale(1,1)"><g><path fill="none" stroke="none"/><text fill="#000000" stroke="none" font-family="Arial" font-size="13px" font-style="normal" font-weight="normal" text-decoration="none" x="237" y="310.5">+Run(params: ContentMainParams)</text></g></g><g transform="translate(-222,-46) scale(1,1)"><g><path fill="none" stroke="none"/><text fill="#000000" stroke="none" font-family="Arial" font-size="13px" font-style="normal" font-weight="normal" text-decoration="none" x="237" y="325.5">+Shutdown(): void</text></g></g><g transform="translate(-222,-46) scale(1,1)"><path fill="none" stroke="#000000" d="M 377 200 L 377 79" stroke-miterlimit="10"/></g><g transform="translate(-222,-46) scale(1,1)"><rect fill="#C0C0C0" stroke="none" x="647" y="175" width="256.126953125" height="250" opacity="0.2"/></g><g transform="translate(-222,-46) scale(1,1)"><rect fill="#ffffff" stroke="none" x="640" y="168" width="256.126953125" height="250"/></g><g transform="translate(-222,-46) scale(1,1)"><path fill="none" stroke="#000000" d="M 640 168 L 896.126953125 168 L 896.126953125 418 L 640 418 L 640 168 Z Z" stroke-miterlimit="10"/></g><g transform="translate(-222,-46) scale(1,1)"><path fill="none" stroke="#000000" d="M 640 208 L 896.126953125 208" stroke-miterlimit="10"/></g><g transform="translate(-222,-46) scale(1,1)"><path fill="none" stroke="#000000" d="M 640 306 L 896.126953125 306" stroke-miterlimit="10"/></g><g transform="translate(-222,-46) scale(1,1)"><g><path fill="none" stroke="none"/><text fill="#000000" stroke="none" font-family="Arial" font-size="13px" font-style="normal" font-weight="bold" text-decoration="none" x="715.67626953125" y="187.5">BrowserMainLoop</text></g></g><g transform="translate(-222,-46) scale(1,1)"><g><path fill="none" stroke="none"/><text fill="#000000" stroke="none" font-family="Arial" font-size="13px" font-style="normal" font-weight="normal" text-decoration="none" x="727.606689453125" y="202.5">(from content)</text></g></g><g transform="translate(-222,-46) scale(1,1)"><g><path fill="none" stroke="none"/><text fill="#000000" stroke="none" font-family="Arial" font-size="13px" font-style="normal" font-weight="normal" text-decoration="none" x="645" y="225.5">-main_message_loop_: MessageLoop</text></g></g><g transform="translate(-222,-46) scale(1,1)"><g><path fill="none" stroke="none"/><text fill="#000000" stroke="none" font-family="Arial" font-size="13px" font-style="normal" font-weight="normal" text-decoration="none" x="645" y="240.5">-parts_: ShellBrowserMainParts</text></g></g><g transform="translate(-222,-46) scale(1,1)"><g><path fill="none" stroke="none"/><text fill="#000000" stroke="none" font-family="Arial" font-size="13px" font-style="normal" font-weight="normal" text-decoration="none" x="645" y="255.5">-main_thread_: BrowserThreadImpl</text></g></g><g transform="translate(-222,-46) scale(1,1)"><g><path fill="none" stroke="none"/><text fill="#000000" stroke="none" font-family="Arial" font-size="13px" font-style="normal" font-weight="normal" text-decoration="none" x="645" y="270.5">-startup_task_runner_: StartupTaskRunner</text></g></g><g transform="translate(-222,-46) scale(1,1)"><g><path fill="none" stroke="none"/><text fill="#000000" stroke="none" font-family="Arial" font-size="13px" font-style="normal" font-weight="normal" text-decoration="none" x="645" y="285.5">-db_thread_: BrowserProcessSubThread</text></g></g><g transform="translate(-222,-46) scale(1,1)"><g><path fill="none" stroke="none"/><text fill="#000000" stroke="none" font-family="Arial" font-size="13px" font-style="normal" font-weight="normal" text-decoration="none" x="645" y="300.5">+io_thread_: BrowserProcessSubThread</text></g></g><g transform="translate(-222,-46) scale(1,1)"><g><path fill="none" stroke="none"/><text fill="#000000" stroke="none" font-family="Arial" font-size="13px" font-style="normal" font-weight="normal" text-decoration="none" x="645" y="323.5">+Init(): void</text></g></g><g transform="translate(-222,-46) scale(1,1)"><g><path fill="none" stroke="none"/><text fill="#000000" stroke="none" font-family="Arial" font-size="13px" font-style="normal" font-weight="normal" text-decoration="none" x="645" y="338.5">+PreMainMessageLoopStart(): void</text></g></g><g transform="translate(-222,-46) scale(1,1)"><g><path fill="none" stroke="none"/><text fill="#000000" stroke="none" font-family="Arial" font-size="13px" font-style="normal" font-weight="normal" text-decoration="none" x="645" y="353.5">+PostMainMessageLoopStart(): void</text></g></g><g transform="translate(-222,-46) scale(1,1)"><g><path fill="none" stroke="none"/><text fill="#000000" stroke="none" font-family="Arial" font-size="13px" font-style="normal" font-weight="normal" text-decoration="none" x="645" y="368.5">+PreMainMessageLoopStart(): void</text></g></g><g transform="translate(-222,-46) scale(1,1)"><g><path fill="none" stroke="none"/><text fill="#000000" stroke="none" font-family="Arial" font-size="13px" font-style="normal" font-weight="normal" text-decoration="none" x="645" y="383.5">+CreateStartupTasks(): void</text></g></g><g transform="translate(-222,-46) scale(1,1)"><g><path fill="none" stroke="none"/><text fill="#000000" stroke="none" font-family="Arial" font-size="13px" font-style="normal" font-weight="normal" text-decoration="none" x="645" y="398.5">+RunMainMessageLoopParts(): void</text></g></g><g transform="translate(-222,-46) scale(1,1)"><g><path fill="none" stroke="none"/><text fill="#000000" stroke="none" font-family="Arial" font-size="13px" font-style="normal" font-weight="normal" text-decoration="none" x="645" y="413.5">+ShutdownThreadsAndCleanUp(): void</text></g></g><g transform="translate(-222,-46) scale(1,1)"><path fill="none" stroke="#000000" d="M 640 280 L 521 280" stroke-miterlimit="10"/></g><g transform="translate(-222,-46) scale(1,1)"><path fill="#000000" stroke="none" d="M 531.1626748576241 275.790482243984 L 521 280 L 531.1626748576241 284.209517756016 L 543 280"/></g><g transform="translate(-222,-46) scale(1,1)"><path fill="none" stroke="#000000" d="M 531.1626748576241 275.790482243984 L 521 280 L 531.1626748576241 284.209517756016 L 543 280 L 531.1626748576241 275.790482243984" stroke-miterlimit="10"/></g><g transform="translate(-222,-46) scale(1,1)"><g><path fill="none" stroke="none"/><text fill="#000000" stroke="none" font-family="Arial" font-size="13px" font-style="normal" font-weight="normal" text-decoration="none" x="537.885009765625" y="273.5">1</text></g></g><g transform="translate(-222,-46) scale(1,1)"><rect fill="#C0C0C0" stroke="none" x="239" y="423" width="250.69970703125" height="147" opacity="0.2"/></g><g transform="translate(-222,-46) scale(1,1)"><rect fill="#ffffff" stroke="none" x="232" y="416" width="250.69970703125" height="147"/></g><g transform="translate(-222,-46) scale(1,1)"><path fill="none" stroke="#000000" d="M 232 416 L 482.69970703125 416 L 482.69970703125 563 L 232 563 L 232 416 Z Z" stroke-miterlimit="10"/></g><g transform="translate(-222,-46) scale(1,1)"><path fill="none" stroke="#000000" d="M 232 456 L 482.69970703125 456" stroke-miterlimit="10"/></g><g transform="translate(-222,-46) scale(1,1)"><path fill="none" stroke="#000000" d="M 232 466 L 482.69970703125 466" stroke-miterlimit="10"/></g><g transform="translate(-222,-46) scale(1,1)"><g><path fill="none" stroke="none"/><text fill="#000000" stroke="none" font-family="Arial" font-size="13px" font-style="normal" font-weight="bold" text-decoration="none" x="289.798095703125" y="435.5">ShellBrowserMainParts</text></g></g><g transform="translate(-222,-46) scale(1,1)"><g><path fill="none" stroke="none"/><text fill="#000000" stroke="none" font-family="Arial" font-size="13px" font-style="normal" font-weight="normal" text-decoration="none" x="316.89306640625" y="450.5">(from content)</text></g></g><g transform="translate(-222,-46) scale(1,1)"><g><path fill="none" stroke="none"/><text fill="#000000" stroke="none" font-family="Arial" font-size="13px" font-style="normal" font-weight="normal" text-decoration="none" x="237" y="483.5">+PreMainMessageLoopStart(): void</text></g></g><g transform="translate(-222,-46) scale(1,1)"><g><path fill="none" stroke="none"/><text fill="#000000" stroke="none" font-family="Arial" font-size="13px" font-style="normal" font-weight="normal" text-decoration="none" x="237" y="498.5">+PostMainMessageLoopStart(): void</text></g></g><g transform="translate(-222,-46) scale(1,1)"><g><path fill="none" stroke="none"/><text fill="#000000" stroke="none" font-family="Arial" font-size="13px" font-style="normal" font-weight="normal" text-decoration="none" x="237" y="513.5">+PreCreateThreads(): int</text></g></g><g transform="translate(-222,-46) scale(1,1)"><g><path fill="none" stroke="none"/><text fill="#000000" stroke="none" font-family="Arial" font-size="13px" font-style="normal" font-weight="normal" text-decoration="none" x="237" y="528.5">+PreMainMessageLoopRun(): void</text></g></g><g transform="translate(-222,-46) scale(1,1)"><g><path fill="none" stroke="none"/><text fill="#000000" stroke="none" font-family="Arial" font-size="13px" font-style="normal" font-weight="normal" text-decoration="none" x="237" y="543.5">+MainMessageLoopRun(): bool</text></g></g><g transform="translate(-222,-46) scale(1,1)"><g><path fill="none" stroke="none"/><text fill="#000000" stroke="none" font-family="Arial" font-size="13px" font-style="normal" font-weight="normal" text-decoration="none" x="237" y="558.5">+PostMainMessageLoopRun(): void</text></g></g><g transform="translate(-222,-46) scale(1,1)"><rect fill="#C0C0C0" stroke="none" x="239" y="639" width="248" height="100" opacity="0.2"/></g><g transform="translate(-222,-46) scale(1,1)"><rect fill="#ffffff" stroke="none" x="232" y="632" width="248" height="100"/></g><g transform="translate(-222,-46) scale(1,1)"><path fill="none" stroke="#000000" d="M 232 632 L 480 632 L 480 732 L 232 732 L 232 632 Z Z" stroke-miterlimit="10"/></g><g transform="translate(-222,-46) scale(1,1)"><path fill="none" stroke="#000000" d="M 232 672 L 480 672" stroke-miterlimit="10"/></g><g transform="translate(-222,-46) scale(1,1)"><path fill="none" stroke="#000000" d="M 232 695 L 480 695" stroke-miterlimit="10"/></g><g transform="translate(-222,-46) scale(1,1)"><g><path fill="none" stroke="none"/><text fill="#000000" stroke="none" font-family="Arial" font-size="13px" font-style="normal" font-weight="bold" text-decoration="none" x="299.63916015625" y="651.5">StartupTaskRunner</text></g></g><g transform="translate(-222,-46) scale(1,1)"><g><path fill="none" stroke="none"/><text fill="#000000" stroke="none" font-family="Arial" font-size="13px" font-style="normal" font-weight="normal" text-decoration="none" x="315.543212890625" y="666.5">(from content)</text></g></g><g transform="translate(-222,-46) scale(1,1)"><g><path fill="none" stroke="none"/><text fill="#000000" stroke="none" font-family="Arial" font-size="13px" font-style="normal" font-weight="normal" text-decoration="none" x="237" y="689.5">-task_list_: std::list&lt;StartupTask&gt;</text></g></g><g transform="translate(-222,-46) scale(1,1)"><g><path fill="none" stroke="none"/><text fill="#000000" stroke="none" font-family="Arial" font-size="13px" font-style="normal" font-weight="normal" text-decoration="none" x="237" y="712.5">+AddTask(callback: StartupTask&amp;): void</text></g></g><g transform="translate(-222,-46) scale(1,1)"><g><path fill="none" stroke="none"/><text fill="#000000" stroke="none" font-family="Arial" font-size="13px" font-style="normal" font-weight="normal" text-decoration="none" x="237" y="727.5">+RunAllTasksNow(): void</text></g></g><g transform="translate(-222,-46) scale(1,1)"><path fill="none" stroke="#000000" d="M 483 432 L 560 432 L 560 352 L 640 352" stroke-miterlimit="10"/></g><g transform="translate(-222,-46) scale(1,1)"><path fill="#000000" stroke="none" d="M 629.8373251423759 356.209517756016 L 640 352 L 629.8373251423758 347.790482243984 L 618 352"/></g><g transform="translate(-222,-46) scale(1,1)"><path fill="none" stroke="#000000" d="M 629.8373251423759 356.209517756016 L 640 352 L 629.8373251423758 347.790482243984 L 618 352 L 629.8373251423759 356.209517756016" stroke-miterlimit="10"/></g><g transform="translate(-222,-46) scale(1,1)"><g><path fill="none" stroke="none"/><text fill="#000000" stroke="none" font-family="Arial" font-size="13px" font-style="normal" font-weight="normal" text-decoration="none" x="613.885009765625" y="370.5">1</text></g></g><g transform="translate(-222,-46) scale(1,1)"><path fill="none" stroke="#000000" d="M 480 648 L 576 648 L 576 400 L 640 400" stroke-miterlimit="10"/></g><g transform="translate(-222,-46) scale(1,1)"><path fill="#000000" stroke="none" d="M 629.8373251423759 404.209517756016 L 640 400 L 629.8373251423758 395.790482243984 L 618 400"/></g><g transform="translate(-222,-46) scale(1,1)"><path fill="none" stroke="#000000" d="M 629.8373251423759 404.209517756016 L 640 400 L 629.8373251423758 395.790482243984 L 618 400 L 629.8373251423759 404.209517756016" stroke-miterlimit="10"/></g><g transform="translate(-222,-46) scale(1,1)"><g><path fill="none" stroke="none"/><text fill="#000000" stroke="none" font-family="Arial" font-size="13px" font-style="normal" font-weight="normal" text-decoration="none" x="613.885009765625" y="418.5">1</text></g></g><g transform="translate(-222,-46) scale(1,1)"><rect fill="#C0C0C0" stroke="none" x="607" y="479" width="226.12158203125" height="117" opacity="0.2"/></g><g transform="translate(-222,-46) scale(1,1)"><rect fill="#ffffff" stroke="none" x="600" y="472" width="226.12158203125" height="117"/></g><g transform="translate(-222,-46) scale(1,1)"><path fill="none" stroke="#000000" d="M 600 472 L 826.12158203125 472 L 826.12158203125 589 L 600 589 L 600 472 Z Z" stroke-miterlimit="10"/></g><g transform="translate(-222,-46) scale(1,1)"><path fill="none" stroke="#000000" d="M 600 512 L 826.12158203125 512" stroke-miterlimit="10"/></g><g transform="translate(-222,-46) scale(1,1)"><path fill="none" stroke="#000000" d="M 600 522 L 826.12158203125 522" stroke-miterlimit="10"/></g><g transform="translate(-222,-46) scale(1,1)"><g><path fill="none" stroke="none"/><text fill="#000000" stroke="none" font-family="Arial" font-size="13px" font-style="normal" font-weight="bold" text-decoration="none" x="656.34765625" y="491.5">BrowserThreadImpl</text></g></g><g transform="translate(-222,-46) scale(1,1)"><g><path fill="none" stroke="none"/><text fill="#000000" stroke="none" font-family="Arial" font-size="13px" font-style="normal" font-weight="normal" text-decoration="none" x="672.60400390625" y="506.5">(from content)</text></g></g><g transform="translate(-222,-46) scale(1,1)"><g><path fill="none" stroke="none"/><text fill="#000000" stroke="none" font-family="Arial" font-size="13px" font-style="normal" font-weight="normal" text-decoration="none" x="605" y="539.5">+StartWithOptions(options: Options&amp;)</text></g></g><g transform="translate(-222,-46) scale(1,1)"><g><path fill="none" stroke="none"/><text fill="#000000" stroke="none" font-family="Arial" font-size="13px" font-style="normal" font-weight="normal" text-decoration="none" x="605" y="554.5">#Init(): void</text></g></g><g transform="translate(-222,-46) scale(1,1)"><g><path fill="none" stroke="none"/><text fill="#000000" stroke="none" font-family="Arial" font-size="13px" font-style="normal" font-weight="normal" text-decoration="none" x="605" y="569.5">#CleanUp(): void</text></g></g><g transform="translate(-222,-46) scale(1,1)"><g><path fill="none" stroke="none"/><text fill="#000000" stroke="none" font-family="Arial" font-size="13px" font-style="normal" font-weight="normal" text-decoration="none" x="605" y="584.5">-PostTaskHelper()</text><path fill="none" stroke="#000000" d="M 605 584.5 L 710.46630859375 584.5" stroke-miterlimit="10"/></g></g><g transform="translate(-222,-46) scale(1,1)"><rect fill="#C0C0C0" stroke="none" x="639" y="647" width="256" height="87" opacity="0.2"/></g><g transform="translate(-222,-46) scale(1,1)"><rect fill="#ffffff" stroke="none" x="632" y="640" width="256" height="87"/></g><g transform="translate(-222,-46) scale(1,1)"><path fill="none" stroke="#000000" d="M 632 640 L 888 640 L 888 727 L 632 727 L 632 640 Z Z" stroke-miterlimit="10"/></g><g transform="translate(-222,-46) scale(1,1)"><path fill="none" stroke="#000000" d="M 632 680 L 888 680" stroke-miterlimit="10"/></g><g transform="translate(-222,-46) scale(1,1)"><path fill="none" stroke="#000000" d="M 632 690 L 888 690" stroke-miterlimit="10"/></g><g transform="translate(-222,-46) scale(1,1)"><g><path fill="none" stroke="none"/><text fill="#000000" stroke="none" font-family="Arial" font-size="13px" font-style="normal" font-weight="bold" text-decoration="none" x="680.52099609375" y="659.5">BrowserProcessSubThread</text></g></g><g transform="translate(-222,-46) scale(1,1)"><g><path fill="none" stroke="none"/><text fill="#000000" stroke="none" font-family="Arial" font-size="13px" font-style="normal" font-weight="normal" text-decoration="none" x="719.543212890625" y="674.5">(from content)</text></g></g><g transform="translate(-222,-46) scale(1,1)"><g><path fill="none" stroke="none"/><text fill="#000000" stroke="none" font-family="Arial" font-size="13px" font-style="normal" font-weight="normal" text-decoration="none" x="637" y="707.5">#Init(): void</text></g></g><g transform="translate(-222,-46) scale(1,1)"><g><path fill="none" stroke="none"/><text fill="#000000" stroke="none" font-family="Arial" font-size="13px" font-style="normal" font-weight="normal" text-decoration="none" x="637" y="722.5">#CleanUp(): void</text></g></g><g transform="translate(-222,-46) scale(1,1)"><path fill="none" stroke="#000000" d="M 712 472 L 712 418" stroke-miterlimit="10"/></g><g transform="translate(-222,-46) scale(1,1)"><path fill="#FFFFFF" stroke="none" d="M 716.209517756016 428.16267485762415 L 712 418 L 707.790482243984 428.16267485762415 L 712 440"/></g><g transform="translate(-222,-46) scale(1,1)"><path fill="none" stroke="#000000" d="M 716.209517756016 428.16267485762415 L 712 418 L 707.790482243984 428.16267485762415 L 712 440 L 716.209517756016 428.16267485762415" stroke-miterlimit="10"/></g><g transform="translate(-222,-46) scale(1,1)"><g><path fill="none" stroke="none"/><text fill="#000000" stroke="none" font-family="Arial" font-size="13px" font-style="normal" font-weight="normal" text-decoration="none" x="719.885009765625" y="456.5">1</text></g></g><g transform="translate(-222,-46) scale(1,1)"><path fill="#C0C0C0" stroke="none" d="M 349.074951171875 362.5 C 349.074951171875 356.1487248 354.223675971875 351 360.574951171875 351 C 366.926226371875 351 372.074951171875 356.1487248 372.074951171875 362.5 C 372.074951171875 368.8512752 366.926226371875 374 360.574951171875 374 C 354.223675971875 374 349.074951171875 368.8512752 349.074951171875 362.5 Z" opacity="0.2"/></g><g transform="translate(-222,-46) scale(1,1)"><path fill="#ffffff" stroke="none" d="M 342.074951171875 355.5 C 342.074951171875 349.1487248 347.223675971875 344 353.574951171875 344 C 359.926226371875 344 365.074951171875 349.1487248 365.074951171875 355.5 C 365.074951171875 361.8512752 359.926226371875 367 353.574951171875 367 C 347.223675971875 367 342.074951171875 361.8512752 342.074951171875 355.5 Z"/></g><g transform="translate(-222,-46) scale(1,1)"><path fill="none" stroke="#000000" d="M 342.074951171875 355.5 C 342.074951171875 349.1487248 347.223675971875 344 353.574951171875 344 C 359.926226371875 344 365.074951171875 349.1487248 365.074951171875 355.5 C 365.074951171875 361.8512752 359.926226371875 367 353.574951171875 367 C 347.223675971875 367 342.074951171875 361.8512752 342.074951171875 355.5 Z" stroke-miterlimit="10"/></g><g transform="translate(-222,-46) scale(1,1)"><g><path fill="none" stroke="none"/><text fill="#000000" stroke="none" font-family="Arial" font-size="13px" font-style="normal" font-weight="bold" text-decoration="none" x="300.476806640625" y="386.5">BrowserMainParts</text></g></g><g transform="translate(-222,-46) scale(1,1)"><g><path fill="none" stroke="none"/><text fill="#000000" stroke="none" font-family="Arial" font-size="13px" font-style="normal" font-weight="normal" text-decoration="none" x="313.1181640625" y="401.5">(from content)</text></g></g><g transform="translate(-222,-46) scale(1,1)"><path fill="none" stroke="#000000" d="M 353 416 L 353 367" stroke-miterlimit="10"/></g><g transform="translate(-222,-46) scale(1,1)"><path fill="none" stroke="#000000" d="M 864 640 L 864 418" stroke-miterlimit="10"/></g><g transform="translate(-222,-46) scale(1,1)"><path fill="#FFFFFF" stroke="none" d="M 868.209517756016 428.16267485762415 L 864 418 L 859.790482243984 428.16267485762415 L 864 440"/></g><g transform="translate(-222,-46) scale(1,1)"><path fill="none" stroke="#000000" d="M 868.209517756016 428.16267485762415 L 864 418 L 859.790482243984 428.16267485762415 L 864 440 L 868.209517756016 428.16267485762415" stroke-miterlimit="10"/></g><g transform="translate(-222,-46) scale(1,1)"><g><path fill="none" stroke="none"/><text fill="#000000" stroke="none" font-family="Arial" font-size="13px" font-style="normal" font-weight="normal" text-decoration="none" x="872.970458984375" y="445.5">*</text></g></g><g transform="translate(-222,-46) scale(1,1)"><path fill="none" stroke="#000000" d="M 712 640 L 712 589" stroke-miterlimit="10"/></g><g transform="translate(-222,-46) scale(1,1)"><path fill="#FFFFFF" stroke="none" d="M 720.419035512032 609.3253497152483 L 712 589 L 703.580964487968 609.3253497152483"/></g><g transform="translate(-222,-46) scale(1,1)"><path fill="none" stroke="#000000" d="M 720.419035512032 609.3253497152483 L 712 589 L 703.580964487968 609.3253497152483 L 720.419035512032 609.3253497152483" stroke-miterlimit="10"/></g></g></svg>