<svg version="1.1" xmlns="http://www.w3.org/2000/svg" xmlns:xlink="http://www.w3.org/1999/xlink" width="840.21533203125" height="653"><defs/><g><g transform="translate(-30,-30) scale(1,1)"><rect fill="#C0C0C0" stroke="none" x="175" y="47" width="172.8544921875" height="39" opacity="0.2"/></g><g transform="translate(-30,-30) scale(1,1)"><rect fill="#ffffff" stroke="none" x="168" y="40" width="172.8544921875" height="39"/></g><g transform="translate(-30,-30) scale(1,1)"><path fill="none" stroke="#000000" d="M 168 40 L 340.8544921875 40 L 340.8544921875 79 L 168 79 L 168 40 Z Z" stroke-miterlimit="10"/></g><g transform="translate(-30,-30) scale(1,1)"><g><path fill="none" stroke="none"/><text fill="#000000" stroke="none" font-family="Arial" font-size="13px" font-style="normal" font-weight="bold" text-decoration="none" x="216.128662109375" y="59.5">main_runner:</text><text fill="#000000" stroke="none" font-family="Arial" font-size="13px" font-style="normal" font-weight="bold" text-decoration="none" x="182.90185546875" y="72.5">BrowserMainRunnerImpl</text></g></g><g transform="translate(-30,-30) scale(1,1)"><path fill="none" stroke="#000000" d="M 255.5 80 L 255.5 673" stroke-miterlimit="10" stroke-dasharray="3"/></g><g transform="translate(-30,-30) scale(1,1)"><rect fill="#C0C0C0" stroke="none" x="47" y="47" width="100.630859375" height="39" opacity="0.2"/></g><g transform="translate(-30,-30) scale(1,1)"><rect fill="#ffffff" stroke="none" x="40" y="40" width="100.630859375" height="39"/></g><g transform="translate(-30,-30) scale(1,1)"><path fill="none" stroke="#000000" d="M 40 40 L 140.630859375 40 L 140.630859375 79 L 40 79 L 40 40 Z Z" stroke-miterlimit="10"/></g><g transform="translate(-30,-30) scale(1,1)"><g><path fill="none" stroke="none"/><text fill="#000000" stroke="none" font-family="Arial" font-size="13px" font-style="normal" font-weight="bold" text-decoration="none" x="52.38818359375" y="59.5">BrowserMain</text></g></g><g transform="translate(-30,-30) scale(1,1)"><path fill="none" stroke="#000000" d="M 91.5 80 L 91.5 672" stroke-miterlimit="10" stroke-dasharray="3"/></g><g transform="translate(-30,-30) scale(1,1)"><rect fill="#C0C0C0" stroke="none" x="375" y="107" width="132.39453125" height="39" opacity="0.2"/></g><g transform="translate(-30,-30) scale(1,1)"><rect fill="#ffffff" stroke="none" x="368" y="100" width="132.39453125" height="39"/></g><g transform="translate(-30,-30) scale(1,1)"><path fill="none" stroke="#000000" d="M 368 100 L 500.39453125 100 L 500.39453125 139 L 368 139 L 368 100 Z Z" stroke-miterlimit="10"/></g><g transform="translate(-30,-30) scale(1,1)"><g><path fill="none" stroke="none"/><text fill="#000000" stroke="none" font-family="Arial" font-size="13px" font-style="normal" font-weight="bold" text-decoration="none" x="398.78369140625" y="119.5">main_loop_:</text><text fill="#000000" stroke="none" font-family="Arial" font-size="13px" font-style="normal" font-weight="bold" text-decoration="none" x="381.81005859375" y="132.5">BrowserMainLoop</text></g></g><g transform="translate(-30,-30) scale(1,1)"><path fill="none" stroke="#000000" d="M 435.5 140 L 435.5 673" stroke-miterlimit="10" stroke-dasharray="3"/></g><g transform="translate(-30,-30) scale(1,1)"><rect fill="#C0C0C0" stroke="none" x="503" y="243" width="141.08447265625" height="39" opacity="0.2"/></g><g transform="translate(-30,-30) scale(1,1)"><rect fill="#ffffff" stroke="none" x="496" y="236" width="141.08447265625" height="39"/></g><g transform="translate(-30,-30) scale(1,1)"><path fill="none" stroke="#000000" d="M 496 236 L 637.08447265625 236 L 637.08447265625 275 L 496 275 L 496 236 Z Z" stroke-miterlimit="10"/></g><g transform="translate(-30,-30) scale(1,1)"><g><path fill="none" stroke="none"/><text fill="#000000" stroke="none" font-family="Arial" font-size="13px" font-style="normal" font-weight="bold" text-decoration="none" x="524.9873046875" y="255.5">main_thread_:</text><text fill="#000000" stroke="none" font-family="Arial" font-size="13px" font-style="normal" font-weight="bold" text-decoration="none" x="509.8291015625" y="268.5">BrowserThreadImpl</text></g></g><g transform="translate(-30,-30) scale(1,1)"><path fill="none" stroke="#000000" d="M 567.5 276 L 567.5 384" stroke-miterlimit="10" stroke-dasharray="3"/></g><g transform="translate(-30,-30) scale(1,1)"><rect fill="#C0C0C0" stroke="none" x="615" y="307" width="156.26806640625" height="39" opacity="0.2"/></g><g transform="translate(-30,-30) scale(1,1)"><rect fill="#ffffff" stroke="none" x="608" y="300" width="156.26806640625" height="39"/></g><g transform="translate(-30,-30) scale(1,1)"><path fill="none" stroke="#000000" d="M 608 300 L 764.26806640625 300 L 764.26806640625 339 L 608 339 L 608 300 Z Z" stroke-miterlimit="10"/></g><g transform="translate(-30,-30) scale(1,1)"><g><path fill="none" stroke="none"/><text fill="#000000" stroke="none" font-family="Arial" font-size="13px" font-style="normal" font-weight="bold" text-decoration="none" x="622.90185546875" y="319.5">startup_task_runner_:</text><text fill="#000000" stroke="none" font-family="Arial" font-size="13px" font-style="normal" font-weight="bold" text-decoration="none" x="629.773193359375" y="332.5">StartupTaskRunner</text></g></g><g transform="translate(-30,-30) scale(1,1)"><path fill="none" stroke="#000000" d="M 687.5 340 L 687.5 603" stroke-miterlimit="10" stroke-dasharray="3"/></g><g transform="translate(-30,-30) scale(1,1)"><rect fill="#C0C0C0" stroke="none" x="703" y="155" width="164.21533203125" height="39" opacity="0.2"/></g><g transform="translate(-30,-30) scale(1,1)"><rect fill="#ffffff" stroke="none" x="696" y="148" width="164.21533203125" height="39"/></g><g transform="translate(-30,-30) scale(1,1)"><path fill="none" stroke="#000000" d="M 696 148 L 860.21533203125 148 L 860.21533203125 187 L 696 187 L 696 148 Z Z" stroke-miterlimit="10"/></g><g transform="translate(-30,-30) scale(1,1)"><g><path fill="none" stroke="none"/><text fill="#000000" stroke="none" font-family="Arial" font-size="13px" font-style="normal" font-weight="bold" text-decoration="none" x="758.236328125" y="167.5">parts_:</text><text fill="#000000" stroke="none" font-family="Arial" font-size="13px" font-style="normal" font-weight="bold" text-decoration="none" x="710.555908203125" y="180.5">ShellBrowserMainParts</text></g></g><g transform="translate(-30,-30) scale(1,1)"><path fill="none" stroke="#000000" d="M 779.5 188 L 779.5 624" stroke-miterlimit="10" stroke-dasharray="3"/></g><g transform="translate(-30,-30) scale(1,1)"><path fill="none" stroke="#000000" d="M 91 112 L 248 112" stroke-miterlimit="10"/></g><g transform="translate(-30,-30) scale(1,1)"><path fill="#000000" stroke="none" d="M 237.83732514237585 116.20951775601598 L 248 112 L 237.83732514237585 107.79048224398402"/></g><g transform="translate(-30,-30) scale(1,1)"><path fill="none" stroke="#000000" d="M 237.83732514237585 116.20951775601598 L 248 112 L 237.83732514237585 107.79048224398402 L 237.83732514237585 116.20951775601598" stroke-miterlimit="10"/></g><g transform="translate(-30,-30) scale(1,1)"><g><path fill="none" stroke="none"/><text fill="#000000" stroke="none" font-family="Arial" font-size="13px" font-style="normal" font-weight="normal" text-decoration="none" x="136.00634765625" y="108.5">1 : Initialize</text></g></g><g transform="translate(-30,-30) scale(1,1)"><rect fill="#ffffff" stroke="none" x="248" y="112" width="13" height="400"/></g><g transform="translate(-30,-30) scale(1,1)"><path fill="none" stroke="#000000" d="M 248 112 L 261 112 L 261 512 L 248 512 L 248 112 Z Z" stroke-miterlimit="10"/></g><g transform="translate(-30,-30) scale(1,1)"><path fill="none" stroke="#000000" d="M 261 120 L 368 120" stroke-miterlimit="10" stroke-dasharray="3"/></g><g transform="translate(-30,-30) scale(1,1)"><path fill="none" stroke="#000000" d="M 357.83732514237585 124.20951775601598 L 368 120 L 357.83732514237585 115.79048224398402" stroke-miterlimit="10"/></g><g transform="translate(-30,-30) scale(1,1)"><g><path fill="none" stroke="none"/><text fill="#000000" stroke="none" font-family="Arial" font-size="13px" font-style="normal" font-weight="normal" text-decoration="none" x="304.46728515625" y="116.5">2 : </text></g></g><g transform="translate(-30,-30) scale(1,1)"><g><path fill="none" stroke="none"/><text fill="#000000" stroke="none" font-family="Arial" font-size="13px" font-style="normal" font-weight="normal" text-decoration="none" x="288.5" y="101.5">«create»</text></g></g><g transform="translate(-30,-30) scale(1,1)"><path fill="none" stroke="#000000" d="M 261 156 L 428 156" stroke-miterlimit="10"/></g><g transform="translate(-30,-30) scale(1,1)"><path fill="#000000" stroke="none" d="M 417.83732514237585 160.209517756016 L 428 156 L 417.83732514237585 151.790482243984"/></g><g transform="translate(-30,-30) scale(1,1)"><path fill="none" stroke="#000000" d="M 417.83732514237585 160.209517756016 L 428 156 L 417.83732514237585 151.790482243984 L 417.83732514237585 160.209517756016" stroke-miterlimit="10"/></g><g transform="translate(-30,-30) scale(1,1)"><g><path fill="none" stroke="none"/><text fill="#000000" stroke="none" font-family="Arial" font-size="13px" font-style="normal" font-weight="normal" text-decoration="none" x="325.818603515625" y="152.5">3 : Init</text></g></g><g transform="translate(-30,-30) scale(1,1)"><rect fill="#ffffff" stroke="none" x="428" y="156" width="13" height="28"/></g><g transform="translate(-30,-30) scale(1,1)"><path fill="none" stroke="#000000" d="M 428 156 L 441 156 L 441 184 L 428 184 L 428 156 Z Z" stroke-miterlimit="10"/></g><g transform="translate(-30,-30) scale(1,1)"><path fill="none" stroke="#000000" d="M 441 168 L 696 168" stroke-miterlimit="10" stroke-dasharray="3"/></g><g transform="translate(-30,-30) scale(1,1)"><path fill="none" stroke="#000000" d="M 685.8373251423759 172.209517756016 L 696 168 L 685.8373251423758 163.790482243984" stroke-miterlimit="10"/></g><g transform="translate(-30,-30) scale(1,1)"><g><path fill="none" stroke="none"/><text fill="#000000" stroke="none" font-family="Arial" font-size="13px" font-style="normal" font-weight="normal" text-decoration="none" x="558.46728515625" y="164.5">4 : </text></g></g><g transform="translate(-30,-30) scale(1,1)"><g><path fill="none" stroke="none"/><text fill="#000000" stroke="none" font-family="Arial" font-size="13px" font-style="normal" font-weight="normal" text-decoration="none" x="542.5" y="149.5">«create»</text></g></g><g transform="translate(-30,-30) scale(1,1)"><path fill="none" stroke="#000000" d="M 261 196 L 428 196" stroke-miterlimit="10"/></g><g transform="translate(-30,-30) scale(1,1)"><path fill="#000000" stroke="none" d="M 417.83732514237585 200.209517756016 L 428 196 L 417.83732514237585 191.790482243984"/></g><g transform="translate(-30,-30) scale(1,1)"><path fill="none" stroke="#000000" d="M 417.83732514237585 200.209517756016 L 428 196 L 417.83732514237585 191.790482243984 L 417.83732514237585 200.209517756016" stroke-miterlimit="10"/></g><g transform="translate(-30,-30) scale(1,1)"><g><path fill="none" stroke="none"/><text fill="#000000" stroke="none" font-family="Arial" font-size="13px" font-style="normal" font-weight="normal" text-decoration="none" x="266.5" y="192.5">5 : MainMessageLoopStart</text></g></g><g transform="translate(-30,-30) scale(1,1)"><rect fill="#ffffff" stroke="none" x="428" y="196" width="13" height="87"/></g><g transform="translate(-30,-30) scale(1,1)"><path fill="none" stroke="#000000" d="M 428 196 L 441 196 L 441 283 L 428 283 L 428 196 Z Z" stroke-miterlimit="10"/></g><g transform="translate(-30,-30) scale(1,1)"><path fill="none" stroke="#000000" d="M 441 200 L 471 200 L 471 220 L 448 220" stroke-miterlimit="10"/></g><g transform="translate(-30,-30) scale(1,1)"><path fill="#000000" stroke="none" d="M 458.16267485762415 215.790482243984 L 448 220 L 458.16267485762415 224.209517756016"/></g><g transform="translate(-30,-30) scale(1,1)"><path fill="none" stroke="#000000" d="M 458.16267485762415 215.790482243984 L 448 220 L 458.16267485762415 224.209517756016 L 458.16267485762415 215.790482243984" stroke-miterlimit="10"/></g><g transform="translate(-30,-30) scale(1,1)"><g><path fill="none" stroke="none"/><text fill="#000000" stroke="none" font-family="Arial" font-size="13px" font-style="normal" font-weight="normal" text-decoration="none" x="412.300537109375" y="215.5">6 : InitializeMainThread</text></g></g><g transform="translate(-30,-30) scale(1,1)"><rect fill="#ffffff" stroke="none" x="435" y="220" width="13" height="44"/></g><g transform="translate(-30,-30) scale(1,1)"><path fill="none" stroke="#000000" d="M 435 220 L 448 220 L 448 264 L 435 264 L 435 220 Z Z" stroke-miterlimit="10"/></g><g transform="translate(-30,-30) scale(1,1)"><path fill="none" stroke="#000000" d="M 448 256 L 496 256" stroke-miterlimit="10" stroke-dasharray="3"/></g><g transform="translate(-30,-30) scale(1,1)"><path fill="none" stroke="#000000" d="M 485.83732514237585 260.209517756016 L 496 256 L 485.83732514237585 251.790482243984" stroke-miterlimit="10"/></g><g transform="translate(-30,-30) scale(1,1)"><g><path fill="none" stroke="none"/><text fill="#000000" stroke="none" font-family="Arial" font-size="13px" font-style="normal" font-weight="normal" text-decoration="none" x="462.46728515625" y="252.5">7 : </text></g></g><g transform="translate(-30,-30) scale(1,1)"><g><path fill="none" stroke="none"/><text fill="#000000" stroke="none" font-family="Arial" font-size="13px" font-style="normal" font-weight="normal" text-decoration="none" x="446.5" y="237.5">«create»</text></g></g><g transform="translate(-30,-30) scale(1,1)"><path fill="none" stroke="#000000" d="M 261 312 L 428 312" stroke-miterlimit="10"/></g><g transform="translate(-30,-30) scale(1,1)"><path fill="#000000" stroke="none" d="M 417.83732514237585 316.209517756016 L 428 312 L 417.83732514237585 307.790482243984"/></g><g transform="translate(-30,-30) scale(1,1)"><path fill="none" stroke="#000000" d="M 417.83732514237585 316.209517756016 L 428 312 L 417.83732514237585 307.790482243984 L 417.83732514237585 316.209517756016" stroke-miterlimit="10"/></g><g transform="translate(-30,-30) scale(1,1)"><g><path fill="none" stroke="none"/><text fill="#000000" stroke="none" font-family="Arial" font-size="13px" font-style="normal" font-weight="normal" text-decoration="none" x="277.5" y="308.5">8 : CreateStartupTasks</text></g></g><g transform="translate(-30,-30) scale(1,1)"><rect fill="#ffffff" stroke="none" x="428" y="312" width="13" height="176"/></g><g transform="translate(-30,-30) scale(1,1)"><path fill="none" stroke="#000000" d="M 428 312 L 441 312 L 441 488 L 428 488 L 428 312 Z Z" stroke-miterlimit="10"/></g><g transform="translate(-30,-30) scale(1,1)"><path fill="none" stroke="#000000" d="M 441 320 L 608 320" stroke-miterlimit="10" stroke-dasharray="3"/></g><g transform="translate(-30,-30) scale(1,1)"><path fill="none" stroke="#000000" d="M 597.8373251423759 324.209517756016 L 608 320 L 597.8373251423758 315.790482243984" stroke-miterlimit="10"/></g><g transform="translate(-30,-30) scale(1,1)"><g><path fill="none" stroke="none"/><text fill="#000000" stroke="none" font-family="Arial" font-size="13px" font-style="normal" font-weight="normal" text-decoration="none" x="515.114990234375" y="316.5">9 : </text></g></g><g transform="translate(-30,-30) scale(1,1)"><g><path fill="none" stroke="none"/><text fill="#000000" stroke="none" font-family="Arial" font-size="13px" font-style="normal" font-weight="normal" text-decoration="none" x="498.5" y="301.5">«create»</text></g></g><g transform="translate(-30,-30) scale(1,1)"><path fill="none" stroke="#000000" d="M 441 360 L 680 360" stroke-miterlimit="10"/></g><g transform="translate(-30,-30) scale(1,1)"><path fill="#000000" stroke="none" d="M 669.8373251423759 364.209517756016 L 680 360 L 669.8373251423758 355.790482243984"/></g><g transform="translate(-30,-30) scale(1,1)"><path fill="none" stroke="#000000" d="M 669.8373251423759 364.209517756016 L 680 360 L 669.8373251423758 355.790482243984 L 669.8373251423759 364.209517756016" stroke-miterlimit="10"/></g><g transform="translate(-30,-30) scale(1,1)"><g><path fill="none" stroke="none"/><text fill="#000000" stroke="none" font-family="Arial" font-size="13px" font-style="normal" font-weight="normal" text-decoration="none" x="474.5" y="356.5">10 : AddTask(create_threads)</text></g></g><g transform="translate(-30,-30) scale(1,1)"><rect fill="#ffffff" stroke="none" x="680" y="360" width="13" height="28"/></g><g transform="translate(-30,-30) scale(1,1)"><path fill="none" stroke="#000000" d="M 680 360 L 693 360 L 693 388 L 680 388 L 680 360 Z Z" stroke-miterlimit="10"/></g><g transform="translate(-30,-30) scale(1,1)"><path fill="none" stroke="#000000" d="M 441 408 L 680 408" stroke-miterlimit="10"/></g><g transform="translate(-30,-30) scale(1,1)"><path fill="#000000" stroke="none" d="M 669.8373251423759 412.209517756016 L 680 408 L 669.8373251423758 403.790482243984"/></g><g transform="translate(-30,-30) scale(1,1)"><path fill="none" stroke="#000000" d="M 669.8373251423759 412.209517756016 L 680 408 L 669.8373251423758 403.790482243984 L 669.8373251423759 412.209517756016" stroke-miterlimit="10"/></g><g transform="translate(-30,-30) scale(1,1)"><g><path fill="none" stroke="none"/><text fill="#000000" stroke="none" font-family="Arial" font-size="13px" font-style="normal" font-weight="normal" text-decoration="none" x="431.5" y="404.5">11 : AddTask(pre_main_message_loop_run)</text></g></g><g transform="translate(-30,-30) scale(1,1)"><rect fill="#ffffff" stroke="none" x="680" y="408" width="13" height="28"/></g><g transform="translate(-30,-30) scale(1,1)"><path fill="none" stroke="#000000" d="M 680 408 L 693 408 L 693 436 L 680 436 L 680 408 Z Z" stroke-miterlimit="10"/></g><g transform="translate(-30,-30) scale(1,1)"><path fill="none" stroke="#000000" d="M 441 448 L 680 448" stroke-miterlimit="10"/></g><g transform="translate(-30,-30) scale(1,1)"><path fill="#000000" stroke="none" d="M 669.8373251423759 452.209517756016 L 680 448 L 669.8373251423758 443.790482243984"/></g><g transform="translate(-30,-30) scale(1,1)"><path fill="none" stroke="#000000" d="M 669.8373251423759 452.209517756016 L 680 448 L 669.8373251423758 443.790482243984 L 669.8373251423759 452.209517756016" stroke-miterlimit="10"/></g><g transform="translate(-30,-30) scale(1,1)"><g><path fill="none" stroke="none"/><text fill="#000000" stroke="none" font-family="Arial" font-size="13px" font-style="normal" font-weight="normal" text-decoration="none" x="496.5" y="435.5">12 : RunAllTasksNow</text></g></g><g transform="translate(-30,-30) scale(1,1)"><rect fill="#ffffff" stroke="none" x="680" y="448" width="13" height="28"/></g><g transform="translate(-30,-30) scale(1,1)"><path fill="none" stroke="#000000" d="M 680 448 L 693 448 L 693 476 L 680 476 L 680 448 Z Z" stroke-miterlimit="10"/></g><g transform="translate(-30,-30) scale(1,1)"><path fill="none" stroke="#000000" d="M 91 528 L 248 528" stroke-miterlimit="10"/></g><g transform="translate(-30,-30) scale(1,1)"><path fill="#000000" stroke="none" d="M 237.83732514237585 532.209517756016 L 248 528 L 237.83732514237585 523.790482243984"/></g><g transform="translate(-30,-30) scale(1,1)"><path fill="none" stroke="#000000" d="M 237.83732514237585 532.209517756016 L 248 528 L 237.83732514237585 523.790482243984 L 237.83732514237585 532.209517756016" stroke-miterlimit="10"/></g><g transform="translate(-30,-30) scale(1,1)"><g><path fill="none" stroke="none"/><text fill="#000000" stroke="none" font-family="Arial" font-size="13px" font-style="normal" font-weight="normal" text-decoration="none" x="144.5654296875" y="524.5">13 : Run</text></g></g><g transform="translate(-30,-30) scale(1,1)"><rect fill="#ffffff" stroke="none" x="248" y="528" width="13" height="120"/></g><g transform="translate(-30,-30) scale(1,1)"><path fill="none" stroke="#000000" d="M 248 528 L 261 528 L 261 648 L 248 648 L 248 528 Z Z" stroke-miterlimit="10"/></g><g transform="translate(-30,-30) scale(1,1)"><path fill="none" stroke="#000000" d="M 261 544 L 428 544" stroke-miterlimit="10"/></g><g transform="translate(-30,-30) scale(1,1)"><path fill="#000000" stroke="none" d="M 417.83732514237585 548.209517756016 L 428 544 L 417.83732514237585 539.790482243984"/></g><g transform="translate(-30,-30) scale(1,1)"><path fill="none" stroke="#000000" d="M 417.83732514237585 548.209517756016 L 428 544 L 417.83732514237585 539.790482243984 L 417.83732514237585 548.209517756016" stroke-miterlimit="10"/></g><g transform="translate(-30,-30) scale(1,1)"><g><path fill="none" stroke="none"/><text fill="#000000" stroke="none" font-family="Arial" font-size="13px" font-style="normal" font-weight="normal" text-decoration="none" x="249.5" y="540.5">14 : RunMainMessageLoopParts</text></g></g><g transform="translate(-30,-30) scale(1,1)"><rect fill="#ffffff" stroke="none" x="428" y="544" width="13" height="115"/></g><g transform="translate(-30,-30) scale(1,1)"><path fill="none" stroke="#000000" d="M 428 544 L 441 544 L 441 659 L 428 659 L 428 544 Z Z" stroke-miterlimit="10"/></g><g transform="translate(-30,-30) scale(1,1)"><path fill="none" stroke="#000000" d="M 441 568 L 772 568" stroke-miterlimit="10"/></g><g transform="translate(-30,-30) scale(1,1)"><path fill="#000000" stroke="none" d="M 761.8373251423759 572.209517756016 L 772 568 L 761.8373251423758 563.790482243984"/></g><g transform="translate(-30,-30) scale(1,1)"><path fill="none" stroke="#000000" d="M 761.8373251423759 572.209517756016 L 772 568 L 761.8373251423758 563.790482243984 L 761.8373251423759 572.209517756016" stroke-miterlimit="10"/></g><g transform="translate(-30,-30) scale(1,1)"><g><path fill="none" stroke="none"/><text fill="#000000" stroke="none" font-family="Arial" font-size="13px" font-style="normal" font-weight="normal" text-decoration="none" x="526.5" y="564.5">15 : MainMessageLoopRun</text></g></g><g transform="translate(-30,-30) scale(1,1)"><rect fill="#ffffff" stroke="none" x="772" y="568" width="13" height="28"/></g><g transform="translate(-30,-30) scale(1,1)"><path fill="none" stroke="#000000" d="M 772 568 L 785 568 L 785 596 L 772 596 L 772 568 Z Z" stroke-miterlimit="10"/></g><g transform="translate(-30,-30) scale(1,1)"><path fill="none" stroke="#000000" d="M 441 600 L 471 600 L 471 620 L 448 620" stroke-miterlimit="10"/></g><g transform="translate(-30,-30) scale(1,1)"><path fill="#000000" stroke="none" d="M 458.16267485762415 615.790482243984 L 448 620 L 458.16267485762415 624.209517756016"/></g><g transform="translate(-30,-30) scale(1,1)"><path fill="none" stroke="#000000" d="M 458.16267485762415 615.790482243984 L 448 620 L 458.16267485762415 624.209517756016 L 458.16267485762415 615.790482243984" stroke-miterlimit="10"/></g><g transform="translate(-30,-30) scale(1,1)"><g><path fill="none" stroke="none"/><text fill="#000000" stroke="none" font-family="Arial" font-size="13px" font-style="normal" font-weight="normal" text-decoration="none" x="400.5" y="615.5">16 : MainMessageLoopRun</text></g></g><g transform="translate(-30,-30) scale(1,1)"><rect fill="#ffffff" stroke="none" x="435" y="620" width="13" height="28"/></g><g transform="translate(-30,-30) scale(1,1)"><path fill="none" stroke="#000000" d="M 435 620 L 448 620 L 448 648 L 435 648 L 435 620 Z Z" stroke-miterlimit="10"/></g></g></svg>