<svg version="1.1" xmlns="http://www.w3.org/2000/svg" xmlns:xlink="http://www.w3.org/1999/xlink" width="907" height="612"><defs/><g><g transform="translate(-62,-30) scale(1,1)"><rect fill="#C0C0C0" stroke="none" x="79" y="47" width="156.26806640625" height="39" opacity="0.2"/></g><g transform="translate(-62,-30) scale(1,1)"><rect fill="#ffffff" stroke="none" x="72" y="40" width="156.26806640625" height="39"/></g><g transform="translate(-62,-30) scale(1,1)"><path fill="none" stroke="#000000" d="M 72 40 L 228.26806640625 40 L 228.26806640625 79 L 72 79 L 72 40 Z Z" stroke-miterlimit="10"/></g><g transform="translate(-62,-30) scale(1,1)"><g><path fill="none" stroke="none"/><text fill="#000000" stroke="none" font-family="Arial" font-size="13px" font-style="normal" font-weight="bold" text-decoration="none" x="86.90185546875" y="59.5">startup_task_runner_:</text><text fill="#000000" stroke="none" font-family="Arial" font-size="13px" font-style="normal" font-weight="bold" text-decoration="none" x="93.773193359375" y="72.5">StartupTaskRunner</text></g></g><g transform="translate(-62,-30) scale(1,1)"><path fill="none" stroke="#000000" d="M 151.5 80 L 151.5 632" stroke-miterlimit="10" stroke-dasharray="3"/></g><g transform="translate(-62,-30) scale(1,1)"><rect fill="#C0C0C0" stroke="none" x="247" y="47" width="132.39453125" height="39" opacity="0.2"/></g><g transform="translate(-62,-30) scale(1,1)"><rect fill="#ffffff" stroke="none" x="240" y="40" width="132.39453125" height="39"/></g><g transform="translate(-62,-30) scale(1,1)"><path fill="none" stroke="#000000" d="M 240 40 L 372.39453125 40 L 372.39453125 79 L 240 79 L 240 40 Z Z" stroke-miterlimit="10"/></g><g transform="translate(-62,-30) scale(1,1)"><g><path fill="none" stroke="none"/><text fill="#000000" stroke="none" font-family="Arial" font-size="13px" font-style="normal" font-weight="bold" text-decoration="none" x="270.78369140625" y="59.5">main_loop_:</text><text fill="#000000" stroke="none" font-family="Arial" font-size="13px" font-style="normal" font-weight="bold" text-decoration="none" x="253.81005859375" y="72.5">BrowserMainLoop</text></g></g><g transform="translate(-62,-30) scale(1,1)"><path fill="none" stroke="#000000" d="M 307.5 80 L 307.5 624" stroke-miterlimit="10" stroke-dasharray="3"/></g><g transform="translate(-62,-30) scale(1,1)"><rect fill="#C0C0C0" stroke="none" x="391" y="139" width="189.50439453125" height="39" opacity="0.2"/></g><g transform="translate(-62,-30) scale(1,1)"><rect fill="#ffffff" stroke="none" x="384" y="132" width="189.50439453125" height="39"/></g><g transform="translate(-62,-30) scale(1,1)"><path fill="none" stroke="#000000" d="M 384 132 L 573.50439453125 132 L 573.50439453125 171 L 384 171 L 384 132 Z Z" stroke-miterlimit="10"/></g><g transform="translate(-62,-30) scale(1,1)"><g><path fill="none" stroke="none"/><text fill="#000000" stroke="none" font-family="Arial" font-size="13px" font-style="normal" font-weight="bold" text-decoration="none" x="444.055908203125" y="151.5">db_thread_:</text><text fill="#000000" stroke="none" font-family="Arial" font-size="13px" font-style="normal" font-weight="bold" text-decoration="none" x="399.273193359375" y="164.5">BrowserProcessSubThread</text></g></g><g transform="translate(-62,-30) scale(1,1)"><path fill="none" stroke="#000000" d="M 479.5 172 L 479.5 624" stroke-miterlimit="10" stroke-dasharray="3"/></g><g transform="translate(-62,-30) scale(1,1)"><rect fill="#C0C0C0" stroke="none" x="583" y="47" width="80" height="39" opacity="0.2"/></g><g transform="translate(-62,-30) scale(1,1)"><rect fill="#ffffff" stroke="none" x="576" y="40" width="80" height="39"/></g><g transform="translate(-62,-30) scale(1,1)"><path fill="none" stroke="#000000" d="M 576 40 L 656 40 L 656 79 L 576 79 L 576 40 Z Z" stroke-miterlimit="10"/></g><g transform="translate(-62,-30) scale(1,1)"><g><path fill="none" stroke="none"/><text fill="#000000" stroke="none" font-family="Arial" font-size="13px" font-style="normal" font-weight="bold" text-decoration="none" x="591.793212890625" y="59.5">: Thread</text></g></g><g transform="translate(-62,-30) scale(1,1)"><path fill="none" stroke="#000000" d="M 617.5 80 L 617.5 626" stroke-miterlimit="10" stroke-dasharray="3"/></g><g transform="translate(-62,-30) scale(1,1)"><rect fill="#C0C0C0" stroke="none" x="687" y="47" width="123.0126953125" height="39" opacity="0.2"/></g><g transform="translate(-62,-30) scale(1,1)"><rect fill="#ffffff" stroke="none" x="680" y="40" width="123.0126953125" height="39"/></g><g transform="translate(-62,-30) scale(1,1)"><path fill="none" stroke="#000000" d="M 680 40 L 803.0126953125 40 L 803.0126953125 79 L 680 79 L 680 40 Z Z" stroke-miterlimit="10"/></g><g transform="translate(-62,-30) scale(1,1)"><g><path fill="none" stroke="none"/><text fill="#000000" stroke="none" font-family="Arial" font-size="13px" font-style="normal" font-weight="bold" text-decoration="none" x="693.09912109375" y="59.5">: PlatformThread</text></g></g><g transform="translate(-62,-30) scale(1,1)"><path fill="none" stroke="#000000" d="M 742.5 80 L 742.5 624" stroke-miterlimit="10" stroke-dasharray="3"/></g><g transform="translate(-62,-30) scale(1,1)"><rect fill="#C0C0C0" stroke="none" x="855" y="267" width="71.736328125" height="39" opacity="0.2"/></g><g transform="translate(-62,-30) scale(1,1)"><rect fill="#ffffff" stroke="none" x="848" y="260" width="71.736328125" height="39"/></g><g transform="translate(-62,-30) scale(1,1)"><path fill="none" stroke="#000000" d="M 848 260 L 919.736328125 260 L 919.736328125 299 L 848 299 L 848 260 Z Z" stroke-miterlimit="10"/></g><g transform="translate(-62,-30) scale(1,1)"><g><path fill="none" stroke="none"/><text fill="#000000" stroke="none" font-family="Arial" font-size="13px" font-style="normal" font-weight="bold" text-decoration="none" x="864.34912109375" y="279.5">handle</text></g></g><g transform="translate(-62,-30) scale(1,1)"><path fill="none" stroke="#000000" d="M 884.5 300 L 884.5 622" stroke-miterlimit="10" stroke-dasharray="3"/></g><g transform="translate(-62,-30) scale(1,1)"><path fill="none" stroke="#000000" d="M 216 120 L 959 120 L 959 359 L 216 359 L 216 120" stroke-miterlimit="10"/></g><g transform="translate(-62,-30) scale(1,1)"><path fill="#ffffff" stroke="none" d="M 216 120 L 216 142 L 256.578125 142 L 267.578125 131 L 267.578125 120 L 216 120"/></g><g transform="translate(-62,-30) scale(1,1)"><path fill="none" stroke="#000000" d="M 216 120 L 216 142 L 256.578125 142 L 267.578125 131 L 267.578125 120 L 216 120 L 216 120" stroke-miterlimit="10"/></g><g transform="translate(-62,-30) scale(1,1)"><g><path fill="none" stroke="none"/><text fill="#000000" stroke="none" font-family="Arial" font-size="13px" font-style="normal" font-weight="bold" text-decoration="none" x="221" y="137.5">loop</text></g></g><g transform="translate(-62,-30) scale(1,1)"><g><path fill="none" stroke="none"/><text fill="#000000" stroke="none" font-family="Arial" font-size="13px" font-style="normal" font-weight="normal" text-decoration="none" x="235.5" y="170.5">[DB~IO]</text></g></g><g transform="translate(-62,-30) scale(1,1)"><path fill="none" stroke="#000000" d="M 151 112 L 300 112" stroke-miterlimit="10"/></g><g transform="translate(-62,-30) scale(1,1)"><path fill="#000000" stroke="none" d="M 289.83732514237585 116.20951775601598 L 300 112 L 289.83732514237585 107.79048224398402"/></g><g transform="translate(-62,-30) scale(1,1)"><path fill="none" stroke="#000000" d="M 289.83732514237585 116.20951775601598 L 300 112 L 289.83732514237585 107.79048224398402 L 289.83732514237585 116.20951775601598" stroke-miterlimit="10"/></g><g transform="translate(-62,-30) scale(1,1)"><g><path fill="none" stroke="none"/><text fill="#000000" stroke="none" font-family="Arial" font-size="13px" font-style="normal" font-weight="normal" text-decoration="none" x="172.5" y="108.5">1 : CreateThreads</text></g></g><g transform="translate(-62,-30) scale(1,1)"><rect fill="#ffffff" stroke="none" x="300" y="112" width="13" height="264"/></g><g transform="translate(-62,-30) scale(1,1)"><path fill="none" stroke="#000000" d="M 300 112 L 313 112 L 313 376 L 300 376 L 300 112 Z Z" stroke-miterlimit="10"/></g><g transform="translate(-62,-30) scale(1,1)"><path fill="none" stroke="#000000" d="M 313 152 L 384 152" stroke-miterlimit="10" stroke-dasharray="3"/></g><g transform="translate(-62,-30) scale(1,1)"><path fill="none" stroke="#000000" d="M 373.83732514237585 156.209517756016 L 384 152 L 373.83732514237585 147.790482243984" stroke-miterlimit="10"/></g><g transform="translate(-62,-30) scale(1,1)"><g><path fill="none" stroke="none"/><text fill="#000000" stroke="none" font-family="Arial" font-size="13px" font-style="normal" font-weight="normal" text-decoration="none" x="338.46728515625" y="148.5">2 : </text></g></g><g transform="translate(-62,-30) scale(1,1)"><g><path fill="none" stroke="none"/><text fill="#000000" stroke="none" font-family="Arial" font-size="13px" font-style="normal" font-weight="normal" text-decoration="none" x="322.5" y="133.5">«create»</text></g></g><g transform="translate(-62,-30) scale(1,1)"><path fill="none" stroke="#000000" d="M 313 200 L 472 200" stroke-miterlimit="10"/></g><g transform="translate(-62,-30) scale(1,1)"><path fill="#000000" stroke="none" d="M 461.83732514237585 204.209517756016 L 472 200 L 461.83732514237585 195.790482243984"/></g><g transform="translate(-62,-30) scale(1,1)"><path fill="none" stroke="#000000" d="M 461.83732514237585 204.209517756016 L 472 200 L 461.83732514237585 195.790482243984 L 461.83732514237585 204.209517756016" stroke-miterlimit="10"/></g><g transform="translate(-62,-30) scale(1,1)"><g><path fill="none" stroke="none"/><text fill="#000000" stroke="none" font-family="Arial" font-size="13px" font-style="normal" font-weight="normal" text-decoration="none" x="333.5" y="196.5">3 : StartWithOptions</text></g></g><g transform="translate(-62,-30) scale(1,1)"><rect fill="#ffffff" stroke="none" x="472" y="200" width="13" height="136"/></g><g transform="translate(-62,-30) scale(1,1)"><path fill="none" stroke="#000000" d="M 472 200 L 485 200 L 485 336 L 472 336 L 472 200 Z Z" stroke-miterlimit="10"/></g><g transform="translate(-62,-30) scale(1,1)"><path fill="none" stroke="#000000" d="M 485 216 L 610 216" stroke-miterlimit="10"/></g><g transform="translate(-62,-30) scale(1,1)"><path fill="#000000" stroke="none" d="M 599.8373251423759 220.209517756016 L 610 216 L 599.8373251423758 211.790482243984"/></g><g transform="translate(-62,-30) scale(1,1)"><path fill="none" stroke="#000000" d="M 599.8373251423759 220.209517756016 L 610 216 L 599.8373251423758 211.790482243984 L 599.8373251423759 220.209517756016" stroke-miterlimit="10"/></g><g transform="translate(-62,-30) scale(1,1)"><g><path fill="none" stroke="none"/><text fill="#000000" stroke="none" font-family="Arial" font-size="13px" font-style="normal" font-weight="normal" text-decoration="none" x="488.5" y="212.5">4 : StartWithOptions</text></g></g><g transform="translate(-62,-30) scale(1,1)"><rect fill="#ffffff" stroke="none" x="610" y="216" width="13" height="112"/></g><g transform="translate(-62,-30) scale(1,1)"><path fill="none" stroke="#000000" d="M 610 216 L 623 216 L 623 328 L 610 328 L 610 216 Z Z" stroke-miterlimit="10"/></g><g transform="translate(-62,-30) scale(1,1)"><path fill="none" stroke="#000000" d="M 623 224 L 735 224" stroke-miterlimit="10"/></g><g transform="translate(-62,-30) scale(1,1)"><path fill="#000000" stroke="none" d="M 724.8373251423759 228.209517756016 L 735 224 L 724.8373251423758 219.790482243984"/></g><g transform="translate(-62,-30) scale(1,1)"><path fill="none" stroke="#000000" d="M 724.8373251423759 228.209517756016 L 735 224 L 724.8373251423758 219.790482243984 L 724.8373251423759 228.209517756016" stroke-miterlimit="10"/></g><g transform="translate(-62,-30) scale(1,1)"><g><path fill="none" stroke="none"/><text fill="#000000" stroke="none" font-family="Arial" font-size="13px" font-style="normal" font-weight="normal" text-decoration="none" x="617.5" y="220.5">5 : CreateWithPriority</text></g></g><g transform="translate(-62,-30) scale(1,1)"><rect fill="#ffffff" stroke="none" x="735" y="224" width="13" height="88"/></g><g transform="translate(-62,-30) scale(1,1)"><path fill="none" stroke="#000000" d="M 735 224 L 748 224 L 748 312 L 735 312 L 735 224 Z Z" stroke-miterlimit="10"/></g><g transform="translate(-62,-30) scale(1,1)"><path fill="none" stroke="#000000" d="M 748 232 L 778 232 L 778 252 L 755 252" stroke-miterlimit="10"/></g><g transform="translate(-62,-30) scale(1,1)"><path fill="#000000" stroke="none" d="M 765.1626748576241 247.790482243984 L 755 252 L 765.1626748576241 256.209517756016"/></g><g transform="translate(-62,-30) scale(1,1)"><path fill="none" stroke="#000000" d="M 765.1626748576241 247.790482243984 L 755 252 L 765.1626748576241 256.209517756016 L 765.1626748576241 247.790482243984" stroke-miterlimit="10"/></g><g transform="translate(-62,-30) scale(1,1)"><g><path fill="none" stroke="none"/><text fill="#000000" stroke="none" font-family="Arial" font-size="13px" font-style="normal" font-weight="normal" text-decoration="none" x="737.5" y="247.5">6 : CreateThread</text></g></g><g transform="translate(-62,-30) scale(1,1)"><rect fill="#ffffff" stroke="none" x="742" y="252" width="13" height="44"/></g><g transform="translate(-62,-30) scale(1,1)"><path fill="none" stroke="#000000" d="M 742 252 L 755 252 L 755 296 L 742 296 L 742 252 Z Z" stroke-miterlimit="10"/></g><g transform="translate(-62,-30) scale(1,1)"><path fill="none" stroke="#000000" d="M 755 280 L 848 280" stroke-miterlimit="10" stroke-dasharray="3"/></g><g transform="translate(-62,-30) scale(1,1)"><path fill="none" stroke="#000000" d="M 837.8373251423759 284.209517756016 L 848 280 L 837.8373251423758 275.790482243984" stroke-miterlimit="10"/></g><g transform="translate(-62,-30) scale(1,1)"><g><path fill="none" stroke="none"/><text fill="#000000" stroke="none" font-family="Arial" font-size="13px" font-style="normal" font-weight="normal" text-decoration="none" x="791.46728515625" y="276.5">7 : </text></g></g><g transform="translate(-62,-30) scale(1,1)"><g><path fill="none" stroke="none"/><text fill="#000000" stroke="none" font-family="Arial" font-size="13px" font-style="normal" font-weight="normal" text-decoration="none" x="775.5" y="261.5">«create»</text></g></g><g transform="translate(-62,-30) scale(1,1)"><path fill="none" stroke="#000000" d="M 884 384 L 623 384" stroke-miterlimit="10"/></g><g transform="translate(-62,-30) scale(1,1)"><path fill="#000000" stroke="none" d="M 633.1626748576241 379.790482243984 L 623 384 L 633.1626748576241 388.209517756016"/></g><g transform="translate(-62,-30) scale(1,1)"><path fill="none" stroke="#000000" d="M 633.1626748576241 379.790482243984 L 623 384 L 633.1626748576241 388.209517756016 L 633.1626748576241 379.790482243984" stroke-miterlimit="10"/></g><g transform="translate(-62,-30) scale(1,1)"><g><path fill="none" stroke="none"/><text fill="#000000" stroke="none" font-family="Arial" font-size="13px" font-style="normal" font-weight="normal" text-decoration="none" x="708.5" y="400.5">8 : ThreadMain</text></g></g><g transform="translate(-62,-30) scale(1,1)"><rect fill="#ffffff" stroke="none" x="610" y="384" width="13" height="216"/></g><g transform="translate(-62,-30) scale(1,1)"><path fill="none" stroke="#000000" d="M 610 384 L 623 384 L 623 600 L 610 600 L 610 384 Z Z" stroke-miterlimit="10"/></g><g transform="translate(-62,-30) scale(1,1)"><path fill="none" stroke="#000000" d="M 610 408 L 485 408" stroke-miterlimit="10"/></g><g transform="translate(-62,-30) scale(1,1)"><path fill="#000000" stroke="none" d="M 495.16267485762415 403.790482243984 L 485 408 L 495.16267485762415 412.209517756016"/></g><g transform="translate(-62,-30) scale(1,1)"><path fill="none" stroke="#000000" d="M 495.16267485762415 403.790482243984 L 485 408 L 495.16267485762415 412.209517756016 L 495.16267485762415 403.790482243984" stroke-miterlimit="10"/></g><g transform="translate(-62,-30) scale(1,1)"><g><path fill="none" stroke="none"/><text fill="#000000" stroke="none" font-family="Arial" font-size="13px" font-style="normal" font-weight="normal" text-decoration="none" x="527.818603515625" y="424.5">9 : Init</text></g></g><g transform="translate(-62,-30) scale(1,1)"><rect fill="#ffffff" stroke="none" x="472" y="408" width="13" height="32"/></g><g transform="translate(-62,-30) scale(1,1)"><path fill="none" stroke="#000000" d="M 472 408 L 485 408 L 485 440 L 472 440 L 472 408 Z Z" stroke-miterlimit="10"/></g><g transform="translate(-62,-30) scale(1,1)"><path fill="none" stroke="#000000" d="M 610 464 L 485 464" stroke-miterlimit="10"/></g><g transform="translate(-62,-30) scale(1,1)"><path fill="#000000" stroke="none" d="M 495.16267485762415 459.790482243984 L 485 464 L 495.16267485762415 468.209517756016"/></g><g transform="translate(-62,-30) scale(1,1)"><path fill="none" stroke="#000000" d="M 495.16267485762415 459.790482243984 L 485 464 L 495.16267485762415 468.209517756016 L 495.16267485762415 459.790482243984" stroke-miterlimit="10"/></g><g transform="translate(-62,-30) scale(1,1)"><g><path fill="none" stroke="none"/><text fill="#000000" stroke="none" font-family="Arial" font-size="13px" font-style="normal" font-weight="normal" text-decoration="none" x="521.5654296875" y="480.5">10 : Run</text></g></g><g transform="translate(-62,-30) scale(1,1)"><rect fill="#ffffff" stroke="none" x="472" y="464" width="13" height="120"/></g><g transform="translate(-62,-30) scale(1,1)"><path fill="none" stroke="#000000" d="M 472 464 L 485 464 L 485 584 L 472 584 L 472 464 Z Z" stroke-miterlimit="10"/></g><g transform="translate(-62,-30) scale(1,1)"><path fill="none" stroke="#000000" d="M 485 496 L 515 496 L 515 516 L 492 516" stroke-miterlimit="10"/></g><g transform="translate(-62,-30) scale(1,1)"><path fill="#000000" stroke="none" d="M 502.16267485762415 511.790482243984 L 492 516 L 502.16267485762415 520.209517756016"/></g><g transform="translate(-62,-30) scale(1,1)"><path fill="none" stroke="#000000" d="M 502.16267485762415 511.790482243984 L 492 516 L 502.16267485762415 520.209517756016 L 502.16267485762415 511.790482243984" stroke-miterlimit="10"/></g><g transform="translate(-62,-30) scale(1,1)"><g><path fill="none" stroke="none"/><text fill="#000000" stroke="none" font-family="Arial" font-size="13px" font-style="normal" font-weight="normal" text-decoration="none" x="469.5" y="511.5">11 : DBThreadRun</text></g></g><g transform="translate(-62,-30) scale(1,1)"><rect fill="#ffffff" stroke="none" x="479" y="516" width="13" height="60"/></g><g transform="translate(-62,-30) scale(1,1)"><path fill="none" stroke="#000000" d="M 479 516 L 492 516 L 492 576 L 479 576 L 479 516 Z Z" stroke-miterlimit="10"/></g><g transform="translate(-62,-30) scale(1,1)"><path fill="none" stroke="#000000" d="M 492 536 L 617 536" stroke-miterlimit="10"/></g><g transform="translate(-62,-30) scale(1,1)"><path fill="#000000" stroke="none" d="M 606.8373251423759 540.209517756016 L 617 536 L 606.8373251423758 531.790482243984"/></g><g transform="translate(-62,-30) scale(1,1)"><path fill="none" stroke="#000000" d="M 606.8373251423759 540.209517756016 L 617 536 L 606.8373251423758 531.790482243984 L 606.8373251423759 540.209517756016" stroke-miterlimit="10"/></g><g transform="translate(-62,-30) scale(1,1)"><g><path fill="none" stroke="none"/><text fill="#000000" stroke="none" font-family="Arial" font-size="13px" font-style="normal" font-weight="normal" text-decoration="none" x="529.5654296875" y="532.5">12 : Run</text></g></g><g transform="translate(-62,-30) scale(1,1)"><rect fill="#ffffff" stroke="none" x="617" y="536" width="13" height="28"/></g><g transform="translate(-62,-30) scale(1,1)"><path fill="none" stroke="#000000" d="M 617 536 L 630 536 L 630 564 L 617 564 L 617 536 Z Z" stroke-miterlimit="10"/></g></g></svg>