<svg version="1.1" xmlns="http://www.w3.org/2000/svg" xmlns:xlink="http://www.w3.org/1999/xlink" width="787.1005859375" height="587"><defs/><g><g transform="translate(-254,-86) scale(1,1)"><rect fill="#C0C0C0" stroke="none" x="631" y="583" width="179.50439453125" height="87" opacity="0.2"/></g><g transform="translate(-254,-86) scale(1,1)"><rect fill="#ffffff" stroke="none" x="624" y="576" width="179.50439453125" height="87"/></g><g transform="translate(-254,-86) scale(1,1)"><path fill="none" stroke="#000000" d="M 624 576 L 803.50439453125 576 L 803.50439453125 663 L 624 663 L 624 576 Z Z" stroke-miterlimit="10"/></g><g transform="translate(-254,-86) scale(1,1)"><path fill="none" stroke="#000000" d="M 624 616 L 803.50439453125 616" stroke-miterlimit="10"/></g><g transform="translate(-254,-86) scale(1,1)"><path fill="none" stroke="#000000" d="M 624 626 L 803.50439453125 626" stroke-miterlimit="10"/></g><g transform="translate(-254,-86) scale(1,1)"><g><path fill="none" stroke="none"/><text fill="#000000" stroke="none" font-family="Arial" font-size="13px" font-style="normal" font-weight="bold" text-decoration="none" x="634.273193359375" y="595.5">BrowserProcessSubThread</text></g></g><g transform="translate(-254,-86) scale(1,1)"><g><path fill="none" stroke="none"/><text fill="#000000" stroke="none" font-family="Arial" font-size="13px" font-style="normal" font-weight="normal" text-decoration="none" x="673.29541015625" y="610.5">(from content)</text></g></g><g transform="translate(-254,-86) scale(1,1)"><g><path fill="none" stroke="none"/><text fill="#000000" stroke="none" font-family="Arial" font-size="13px" font-style="normal" font-weight="normal" text-decoration="none" x="629" y="643.5">#Init(): void</text></g></g><g transform="translate(-254,-86) scale(1,1)"><g><path fill="none" stroke="none"/><text fill="#000000" stroke="none" font-family="Arial" font-size="13px" font-style="normal" font-weight="normal" text-decoration="none" x="629" y="658.5">#CleanUp(): void</text></g></g><g transform="translate(-254,-86) scale(1,1)"><rect fill="#C0C0C0" stroke="none" x="575" y="391" width="313.23046875" height="147" opacity="0.2"/></g><g transform="translate(-254,-86) scale(1,1)"><rect fill="#ffffff" stroke="none" x="568" y="384" width="313.23046875" height="147"/></g><g transform="translate(-254,-86) scale(1,1)"><path fill="none" stroke="#000000" d="M 568 384 L 881.23046875 384 L 881.23046875 531 L 568 531 L 568 384 Z Z" stroke-miterlimit="10"/></g><g transform="translate(-254,-86) scale(1,1)"><path fill="none" stroke="#000000" d="M 568 424 L 881.23046875 424" stroke-miterlimit="10"/></g><g transform="translate(-254,-86) scale(1,1)"><path fill="none" stroke="#000000" d="M 568 434 L 881.23046875 434" stroke-miterlimit="10"/></g><g transform="translate(-254,-86) scale(1,1)"><g><path fill="none" stroke="none"/><text fill="#000000" stroke="none" font-family="Arial" font-size="13px" font-style="normal" font-weight="bold" text-decoration="none" x="667.902099609375" y="403.5">BrowserThreadImpl</text></g></g><g transform="translate(-254,-86) scale(1,1)"><g><path fill="none" stroke="none"/><text fill="#000000" stroke="none" font-family="Arial" font-size="13px" font-style="normal" font-weight="normal" text-decoration="none" x="684.158447265625" y="418.5">(from content)</text></g></g><g transform="translate(-254,-86) scale(1,1)"><g><path fill="none" stroke="none"/><text fill="#000000" stroke="none" font-family="Arial" font-size="13px" font-style="normal" font-weight="normal" text-decoration="none" x="573" y="451.5">+StartWithOptions(options: Options&amp;)</text></g></g><g transform="translate(-254,-86) scale(1,1)"><g><path fill="none" stroke="none"/><text fill="#000000" stroke="none" font-family="Arial" font-size="13px" font-style="normal" font-weight="normal" text-decoration="none" x="573" y="466.5">#Init(): void</text></g></g><g transform="translate(-254,-86) scale(1,1)"><g><path fill="none" stroke="none"/><text fill="#000000" stroke="none" font-family="Arial" font-size="13px" font-style="normal" font-weight="normal" text-decoration="none" x="573" y="481.5">#Run(message_loop: MessageLoop*): void</text></g></g><g transform="translate(-254,-86) scale(1,1)"><g><path fill="none" stroke="none"/><text fill="#000000" stroke="none" font-family="Arial" font-size="13px" font-style="normal" font-weight="normal" text-decoration="none" x="573" y="496.5">#CleanUp(): void</text></g></g><g transform="translate(-254,-86) scale(1,1)"><g><path fill="none" stroke="none"/><text fill="#000000" stroke="none" font-family="Arial" font-size="13px" font-style="normal" font-weight="normal" text-decoration="none" x="573" y="511.5">-PostTaskHelper()</text><path fill="none" stroke="#000000" d="M 573 511.5 L 678.46630859375 511.5" stroke-miterlimit="10"/></g></g><g transform="translate(-254,-86) scale(1,1)"><g><path fill="none" stroke="none"/><text fill="#000000" stroke="none" font-family="Arial" font-size="13px" font-style="normal" font-weight="normal" text-decoration="none" x="573" y="526.5">-IOThreadRun(message_loop: MessageLoop*): void</text></g></g><g transform="translate(-254,-86) scale(1,1)"><path fill="none" stroke="#000000" d="M 719 576 L 719 531" stroke-miterlimit="10"/></g><g transform="translate(-254,-86) scale(1,1)"><path fill="#FFFFFF" stroke="none" d="M 727.419035512032 551.3253497152483 L 719 531 L 710.580964487968 551.3253497152483"/></g><g transform="translate(-254,-86) scale(1,1)"><path fill="none" stroke="#000000" d="M 727.419035512032 551.3253497152483 L 719 531 L 710.580964487968 551.3253497152483 L 727.419035512032 551.3253497152483" stroke-miterlimit="10"/></g><g transform="translate(-254,-86) scale(1,1)"><rect fill="#C0C0C0" stroke="none" x="791" y="175" width="247.1005859375" height="132" opacity="0.2"/></g><g transform="translate(-254,-86) scale(1,1)"><rect fill="#ffffff" stroke="none" x="784" y="168" width="247.1005859375" height="132"/></g><g transform="translate(-254,-86) scale(1,1)"><path fill="none" stroke="#000000" d="M 784 168 L 1031.1005859375 168 L 1031.1005859375 300 L 784 300 L 784 168 Z Z" stroke-miterlimit="10"/></g><g transform="translate(-254,-86) scale(1,1)"><path fill="none" stroke="#000000" d="M 784 208 L 1031.1005859375 208" stroke-miterlimit="10"/></g><g transform="translate(-254,-86) scale(1,1)"><path fill="none" stroke="#000000" d="M 784 218 L 1031.1005859375 218" stroke-miterlimit="10"/></g><g transform="translate(-254,-86) scale(1,1)"><g><path fill="none" stroke="none"/><text fill="#000000" stroke="none" font-family="Arial" font-size="13px" font-style="normal" font-weight="bold" text-decoration="none" x="863.11669921875" y="187.5">BrowserThread</text></g></g><g transform="translate(-254,-86) scale(1,1)"><g><path fill="none" stroke="none"/><text fill="#000000" stroke="none" font-family="Arial" font-size="13px" font-style="normal" font-weight="normal" text-decoration="none" x="867.093505859375" y="202.5">(from content)</text></g></g><g transform="translate(-254,-86) scale(1,1)"><g><path fill="none" stroke="none"/><text fill="#000000" stroke="none" font-family="Arial" font-size="13px" font-style="normal" font-weight="normal" text-decoration="none" x="789" y="235.5">+PostTask(): bool</text><path fill="none" stroke="#000000" d="M 789 235.5 L 891.2353515625 235.5" stroke-miterlimit="10"/></g></g><g transform="translate(-254,-86) scale(1,1)"><g><path fill="none" stroke="none"/><text fill="#000000" stroke="none" font-family="Arial" font-size="13px" font-style="normal" font-weight="normal" text-decoration="none" x="789" y="250.5">+PostDelayedTask(): bool</text><path fill="none" stroke="#000000" d="M 789 250.5 L 938.931640625 250.5" stroke-miterlimit="10"/></g></g><g transform="translate(-254,-86) scale(1,1)"><g><path fill="none" stroke="none"/><text fill="#000000" stroke="none" font-family="Arial" font-size="13px" font-style="normal" font-weight="normal" text-decoration="none" x="789" y="265.5">+IsThreadInitialized(identifier: ID): bool</text><path fill="none" stroke="#000000" d="M 789 265.5 L 1011.91064453125 265.5" stroke-miterlimit="10"/></g></g><g transform="translate(-254,-86) scale(1,1)"><g><path fill="none" stroke="none"/><text fill="#000000" stroke="none" font-family="Arial" font-size="13px" font-style="normal" font-weight="normal" text-decoration="none" x="789" y="280.5">+CurrentlyOn(identifier: ID): bool</text><path fill="none" stroke="#000000" d="M 789 280.5 L 976.49072265625 280.5" stroke-miterlimit="10"/></g></g><g transform="translate(-254,-86) scale(1,1)"><g><path fill="none" stroke="none"/><text fill="#000000" stroke="none" font-family="Arial" font-size="13px" font-style="normal" font-weight="normal" text-decoration="none" x="789" y="295.5">+IsMessageLoopValid(identifier: ID): bool</text><path fill="none" stroke="#000000" d="M 789 295.5 L 1027.1005859375 295.5" stroke-miterlimit="10"/></g></g><g transform="translate(-254,-86) scale(1,1)"><rect fill="#C0C0C0" stroke="none" x="519" y="223" width="226.12158203125" height="100" opacity="0.2"/></g><g transform="translate(-254,-86) scale(1,1)"><rect fill="#ffffff" stroke="none" x="512" y="216" width="226.12158203125" height="100"/></g><g transform="translate(-254,-86) scale(1,1)"><path fill="none" stroke="#000000" d="M 512 216 L 738.12158203125 216 L 738.12158203125 316 L 512 316 L 512 216 Z Z" stroke-miterlimit="10"/></g><g transform="translate(-254,-86) scale(1,1)"><path fill="none" stroke="#000000" d="M 512 256 L 738.12158203125 256" stroke-miterlimit="10"/></g><g transform="translate(-254,-86) scale(1,1)"><path fill="none" stroke="#000000" d="M 512 279 L 738.12158203125 279" stroke-miterlimit="10"/></g><g transform="translate(-254,-86) scale(1,1)"><g><path fill="none" stroke="none"/><text fill="#000000" stroke="none" font-family="Arial" font-size="13px" font-style="normal" font-weight="bold" text-decoration="none" x="604.4658203125" y="235.5">Thread</text></g></g><g transform="translate(-254,-86) scale(1,1)"><g><path fill="none" stroke="none"/><text fill="#000000" stroke="none" font-family="Arial" font-size="13px" font-style="normal" font-weight="normal" text-decoration="none" x="591.830810546875" y="250.5">(from base)</text></g></g><g transform="translate(-254,-86) scale(1,1)"><g><path fill="none" stroke="none"/><text fill="#000000" stroke="none" font-family="Arial" font-size="13px" font-style="normal" font-weight="normal" text-decoration="none" x="517" y="273.5">-message_loop_: MessageLoop*</text></g></g><g transform="translate(-254,-86) scale(1,1)"><g><path fill="none" stroke="none"/><text fill="#000000" stroke="none" font-family="Arial" font-size="13px" font-style="normal" font-weight="normal" text-decoration="none" x="517" y="296.5">+StartWithOptions(options: Options&amp;)</text></g></g><g transform="translate(-254,-86) scale(1,1)"><g><path fill="none" stroke="none"/><text fill="#000000" stroke="none" font-family="Arial" font-size="13px" font-style="normal" font-weight="normal" text-decoration="none" x="517" y="311.5">+ThreadMain(): void</text></g></g><g transform="translate(-254,-86) scale(1,1)"><rect fill="#C0C0C0" stroke="none" x="271" y="231" width="198.63623046875" height="72" opacity="0.2"/></g><g transform="translate(-254,-86) scale(1,1)"><rect fill="#ffffff" stroke="none" x="264" y="224" width="198.63623046875" height="72"/></g><g transform="translate(-254,-86) scale(1,1)"><path fill="none" stroke="#000000" d="M 264 224 L 462.63623046875 224 L 462.63623046875 296 L 264 296 L 264 224 Z Z" stroke-miterlimit="10"/></g><g transform="translate(-254,-86) scale(1,1)"><path fill="none" stroke="#000000" d="M 264 264 L 462.63623046875 264" stroke-miterlimit="10"/></g><g transform="translate(-254,-86) scale(1,1)"><path fill="none" stroke="#000000" d="M 264 274 L 462.63623046875 274" stroke-miterlimit="10"/></g><g transform="translate(-254,-86) scale(1,1)"><g><path fill="none" stroke="none"/><text fill="#000000" stroke="none" font-family="Arial" font-size="13px" font-style="normal" font-weight="bold" text-decoration="none" x="318.522705078125" y="243.5">PlatformThread</text></g></g><g transform="translate(-254,-86) scale(1,1)"><g><path fill="none" stroke="none"/><text fill="#000000" stroke="none" font-family="Arial" font-size="13px" font-style="normal" font-weight="normal" text-decoration="none" x="330.088134765625" y="258.5">(from base)</text></g></g><g transform="translate(-254,-86) scale(1,1)"><g><path fill="none" stroke="none"/><text fill="#000000" stroke="none" font-family="Arial" font-size="13px" font-style="normal" font-weight="normal" text-decoration="none" x="269" y="291.5">+CreateWithPriority(): bool</text></g></g><g transform="translate(-254,-86) scale(1,1)"><rect fill="#C0C0C0" stroke="none" x="559" y="103" width="162.537109375" height="72" opacity="0.2"/></g><g transform="translate(-254,-86) scale(1,1)"><rect fill="#ffffff" stroke="none" x="552" y="96" width="162.537109375" height="72"/></g><g transform="translate(-254,-86) scale(1,1)"><path fill="none" stroke="#000000" d="M 552 96 L 714.537109375 96 L 714.537109375 168 L 552 168 L 552 96 Z Z" stroke-miterlimit="10"/></g><g transform="translate(-254,-86) scale(1,1)"><path fill="none" stroke="#000000" d="M 552 136 L 714.537109375 136" stroke-miterlimit="10"/></g><g transform="translate(-254,-86) scale(1,1)"><path fill="none" stroke="#000000" d="M 552 146 L 714.537109375 146" stroke-miterlimit="10"/></g><g transform="translate(-254,-86) scale(1,1)"><g><path fill="none" stroke="none"/><text fill="#000000" stroke="none" font-family="Arial" font-size="13px" font-style="normal" font-weight="bold" text-decoration="none" x="607.24951171875" y="115.5">Delegate</text></g></g><g transform="translate(-254,-86) scale(1,1)"><g><path fill="none" stroke="none"/><text fill="#000000" stroke="none" font-family="Arial" font-size="13px" font-style="normal" font-weight="normal" text-decoration="none" x="569.338134765625" y="130.5">(from PlatformThread)</text></g></g><g transform="translate(-254,-86) scale(1,1)"><g><path fill="none" stroke="none"/><text fill="#000000" stroke="none" font-family="Arial" font-size="13px" font-style="italic" font-weight="normal" text-decoration="none" x="557" y="163.5">+ThreadMain(): void</text></g></g><g transform="translate(-254,-86) scale(1,1)"><path fill="none" stroke="#000000" d="M 848 384 L 848 300" stroke-miterlimit="10"/></g><g transform="translate(-254,-86) scale(1,1)"><path fill="#FFFFFF" stroke="none" d="M 856.419035512032 320.3253497152483 L 848 300 L 839.580964487968 320.3253497152483"/></g><g transform="translate(-254,-86) scale(1,1)"><path fill="none" stroke="#000000" d="M 856.419035512032 320.3253497152483 L 848 300 L 839.580964487968 320.3253497152483 L 856.419035512032 320.3253497152483" stroke-miterlimit="10"/></g><g transform="translate(-254,-86) scale(1,1)"><path fill="none" stroke="#000000" d="M 632 384 L 632 316" stroke-miterlimit="10"/></g><g transform="translate(-254,-86) scale(1,1)"><path fill="#FFFFFF" stroke="none" d="M 640.419035512032 336.3253497152483 L 632 316 L 623.580964487968 336.3253497152483"/></g><g transform="translate(-254,-86) scale(1,1)"><path fill="none" stroke="#000000" d="M 640.419035512032 336.3253497152483 L 632 316 L 623.580964487968 336.3253497152483 L 640.419035512032 336.3253497152483" stroke-miterlimit="10"/></g><g transform="translate(-254,-86) scale(1,1)"><path fill="none" stroke="#000000" d="M 632 216 L 632 168" stroke-miterlimit="10"/></g><g transform="translate(-254,-86) scale(1,1)"><path fill="#FFFFFF" stroke="none" d="M 640.419035512032 188.3253497152483 L 632 168 L 623.580964487968 188.3253497152483"/></g><g transform="translate(-254,-86) scale(1,1)"><path fill="none" stroke="#000000" d="M 640.419035512032 188.3253497152483 L 632 168 L 623.580964487968 188.3253497152483 L 640.419035512032 188.3253497152483" stroke-miterlimit="10"/></g><g transform="translate(-254,-86) scale(1,1)"><path fill="none" stroke="#000000" d="M 512 260 L 463 260" stroke-miterlimit="10"/></g><g transform="translate(-254,-86) scale(1,1)"><path fill="none" stroke="#000000" d="M 473.16267485762415 255.790482243984 L 463 260 L 473.16267485762415 264.209517756016" stroke-miterlimit="10"/></g></g></svg>