<svg version="1.1" xmlns="http://www.w3.org/2000/svg" xmlns:xlink="http://www.w3.org/1999/xlink" width="1149.3330078125" height="672"><defs/><g><g transform="translate(-102,-104) scale(1,1)"><path fill="#C0C0C0" stroke="none" d="M 205.660400390625 516.5 C 205.660400390625 510.1487248 210.809125190625 505 217.160400390625 505 C 223.511675590625 505 228.660400390625 510.1487248 228.660400390625 516.5 C 228.660400390625 522.8512752 223.511675590625 528 217.160400390625 528 C 210.809125190625 528 205.660400390625 522.8512752 205.660400390625 516.5 Z" opacity="0.2"/></g><g transform="translate(-102,-104) scale(1,1)"><path fill="#ffffff" stroke="none" d="M 198.660400390625 509.5 C 198.660400390625 503.1487248 203.809125190625 498 210.160400390625 498 C 216.511675590625 498 221.660400390625 503.1487248 221.660400390625 509.5 C 221.660400390625 515.8512752 216.511675590625 521 210.160400390625 521 C 203.809125190625 521 198.660400390625 515.8512752 198.660400390625 509.5 Z"/></g><g transform="translate(-102,-104) scale(1,1)"><path fill="none" stroke="#000000" d="M 198.660400390625 509.5 C 198.660400390625 503.1487248 203.809125190625 498 210.160400390625 498 C 216.511675590625 498 221.660400390625 503.1487248 221.660400390625 509.5 C 221.660400390625 515.8512752 216.511675590625 521 210.160400390625 521 C 203.809125190625 521 198.660400390625 515.8512752 198.660400390625 509.5 Z" stroke-miterlimit="10"/></g><g transform="translate(-102,-104) scale(1,1)"><g><path fill="none" stroke="none"/><text fill="#000000" stroke="none" font-family="Arial" font-size="13px" font-style="normal" font-weight="bold" text-decoration="none" x="138.27001953125" y="540.5">PlatformEventDispatcher</text></g></g><g transform="translate(-102,-104) scale(1,1)"><g><path fill="none" stroke="none"/><text fill="#000000" stroke="none" font-family="Arial" font-size="13px" font-style="normal" font-weight="normal" text-decoration="none" x="185.96630859375" y="555.5">(from ui)</text></g></g><g transform="translate(-102,-104) scale(1,1)"><rect fill="#C0C0C0" stroke="none" x="119" y="673" width="414.32958984375" height="100" opacity="0.2"/></g><g transform="translate(-102,-104) scale(1,1)"><rect fill="#ffffff" stroke="none" x="112" y="666" width="414.32958984375" height="100"/></g><g transform="translate(-102,-104) scale(1,1)"><path fill="none" stroke="#000000" d="M 112 666 L 526.32958984375 666 L 526.32958984375 766 L 112 766 L 112 666 Z Z" stroke-miterlimit="10"/></g><g transform="translate(-102,-104) scale(1,1)"><path fill="none" stroke="#000000" d="M 112 706 L 526.32958984375 706" stroke-miterlimit="10"/></g><g transform="translate(-102,-104) scale(1,1)"><path fill="none" stroke="#000000" d="M 112 729 L 526.32958984375 729" stroke-miterlimit="10"/></g><g transform="translate(-102,-104) scale(1,1)"><g><path fill="none" stroke="none"/><text fill="#000000" stroke="none" font-family="Arial" font-size="13px" font-style="normal" font-weight="bold" text-decoration="none" x="233.90625" y="685.5">DesktopWindowTreeHostX11</text></g></g><g transform="translate(-102,-104) scale(1,1)"><g><path fill="none" stroke="none"/><text fill="#000000" stroke="none" font-family="Arial" font-size="13px" font-style="normal" font-weight="normal" text-decoration="none" x="283.776611328125" y="700.5">(from views)</text></g></g><g transform="translate(-102,-104) scale(1,1)"><g><path fill="none" stroke="none"/><text fill="#000000" stroke="none" font-family="Arial" font-size="13px" font-style="normal" font-weight="normal" text-decoration="none" x="117" y="723.5">-observer_list_: ObserverList&lt;DesktopWindowTreeHostObserverX11&gt;</text></g></g><g transform="translate(-102,-104) scale(1,1)"><g><path fill="none" stroke="none"/><text fill="#000000" stroke="none" font-family="Arial" font-size="13px" font-style="italic" font-weight="normal" text-decoration="none" x="117" y="746.5">-CanDispatchEvent(event: PlatformEvent&amp;): bool</text></g></g><g transform="translate(-102,-104) scale(1,1)"><g><path fill="none" stroke="none"/><text fill="#000000" stroke="none" font-family="Arial" font-size="13px" font-style="normal" font-weight="normal" text-decoration="none" x="117" y="761.5">-DispatchEvent(event: PlatformEvent&amp;): uint32_t</text></g></g><g transform="translate(-102,-104) scale(1,1)"><rect fill="#C0C0C0" stroke="none" x="351" y="345" width="308.88232421875" height="145" opacity="0.2"/></g><g transform="translate(-102,-104) scale(1,1)"><rect fill="#ffffff" stroke="none" x="344" y="338" width="308.88232421875" height="145"/></g><g transform="translate(-102,-104) scale(1,1)"><path fill="none" stroke="#000000" d="M 344 338 L 652.88232421875 338 L 652.88232421875 483 L 344 483 L 344 338 Z Z" stroke-miterlimit="10"/></g><g transform="translate(-102,-104) scale(1,1)"><path fill="none" stroke="#000000" d="M 344 378 L 652.88232421875 378" stroke-miterlimit="10"/></g><g transform="translate(-102,-104) scale(1,1)"><path fill="none" stroke="#000000" d="M 344 431 L 652.88232421875 431" stroke-miterlimit="10"/></g><g transform="translate(-102,-104) scale(1,1)"><g><path fill="none" stroke="none"/><text fill="#000000" stroke="none" font-family="Arial" font-size="13px" font-style="normal" font-weight="bold" text-decoration="none" x="448.593017578125" y="357.5">WindowTreeHost</text></g></g><g transform="translate(-102,-104) scale(1,1)"><g><path fill="none" stroke="none"/><text fill="#000000" stroke="none" font-family="Arial" font-size="13px" font-style="normal" font-weight="normal" text-decoration="none" x="466.296630859375" y="372.5">(from aura)</text></g></g><g transform="translate(-102,-104) scale(1,1)"><g><path fill="none" stroke="none"/><text fill="#000000" stroke="none" font-family="Arial" font-size="13px" font-style="normal" font-weight="normal" text-decoration="none" x="349" y="395.5">-input_method_: InputMethod*</text></g></g><g transform="translate(-102,-104) scale(1,1)"><g><path fill="none" stroke="none"/><text fill="#000000" stroke="none" font-family="Arial" font-size="13px" font-style="normal" font-weight="normal" text-decoration="none" x="349" y="410.5">-window_: Window*</text></g></g><g transform="translate(-102,-104) scale(1,1)"><g><path fill="none" stroke="none"/><text fill="#000000" stroke="none" font-family="Arial" font-size="13px" font-style="normal" font-weight="normal" text-decoration="none" x="349" y="425.5">-dispatcher_: scoped_ptr&lt;WindowEventDispatcher&gt;</text></g></g><g transform="translate(-102,-104) scale(1,1)"><g><path fill="none" stroke="none"/><text fill="#000000" stroke="none" font-family="Arial" font-size="13px" font-style="normal" font-weight="normal" text-decoration="none" x="349" y="448.5">+GetInputMethod(): InputMethod*</text></g></g><g transform="translate(-102,-104) scale(1,1)"><g><path fill="none" stroke="none"/><text fill="#000000" stroke="none" font-family="Arial" font-size="13px" font-style="normal" font-weight="normal" text-decoration="none" x="349" y="463.5">+DispatchKeyEventPostIME(event: KeyEvent*)</text></g></g><g transform="translate(-102,-104) scale(1,1)"><g><path fill="none" stroke="none"/><text fill="#000000" stroke="none" font-family="Arial" font-size="13px" font-style="normal" font-weight="normal" text-decoration="none" x="349" y="478.5">#GetEventProcessor(): EventProcessor*</text></g></g><g transform="translate(-102,-104) scale(1,1)"><path fill="none" stroke="#000000" d="M 320 666 L 320 586 L 432 586 L 432 483" stroke-miterlimit="10"/></g><g transform="translate(-102,-104) scale(1,1)"><path fill="#FFFFFF" stroke="none" d="M 440.419035512032 503.3253497152483 L 432 483 L 423.580964487968 503.3253497152483"/></g><g transform="translate(-102,-104) scale(1,1)"><path fill="none" stroke="#000000" d="M 440.419035512032 503.3253497152483 L 432 483 L 423.580964487968 503.3253497152483 L 440.419035512032 503.3253497152483" stroke-miterlimit="10"/></g><g transform="translate(-102,-104) scale(1,1)"><path fill="none" stroke="#000000" d="M 320 666 L 320 586 L 210 586 L 210 521" stroke-miterlimit="10"/></g><g transform="translate(-102,-104) scale(1,1)"><path fill="#C0C0C0" stroke="none" d="M 270 188.5 C 270 182.1487248 275.1487248 177 281.5 177 C 287.8512752 177 293 182.1487248 293 188.5 C 293 194.8512752 287.8512752 200 281.5 200 C 275.1487248 200 270 194.8512752 270 188.5 Z" opacity="0.2"/></g><g transform="translate(-102,-104) scale(1,1)"><path fill="#ffffff" stroke="none" d="M 263 181.5 C 263 175.1487248 268.1487248 170 274.5 170 C 280.8512752 170 286 175.1487248 286 181.5 C 286 187.8512752 280.8512752 193 274.5 193 C 268.1487248 193 263 187.8512752 263 181.5 Z"/></g><g transform="translate(-102,-104) scale(1,1)"><path fill="none" stroke="#000000" d="M 263 181.5 C 263 175.1487248 268.1487248 170 274.5 170 C 280.8512752 170 286 175.1487248 286 181.5 C 286 187.8512752 280.8512752 193 274.5 193 C 268.1487248 193 263 187.8512752 263 181.5 Z" stroke-miterlimit="10"/></g><g transform="translate(-102,-104) scale(1,1)"><path fill="none" stroke="#000000" d="M 120 233 L 429 233" stroke-miterlimit="10"/></g><g transform="translate(-102,-104) scale(1,1)"><g><path fill="none" stroke="none"/><text fill="#000000" stroke="none" font-family="Arial" font-size="13px" font-style="normal" font-weight="bold" text-decoration="none" x="212.34375" y="212.5">InputMethodDelegate</text></g></g><g transform="translate(-102,-104) scale(1,1)"><g><path fill="none" stroke="none"/><text fill="#000000" stroke="none" font-family="Arial" font-size="13px" font-style="normal" font-weight="normal" text-decoration="none" x="234.04638671875" y="227.5">(from internal)</text></g></g><g transform="translate(-102,-104) scale(1,1)"><g><path fill="none" stroke="none"/><text fill="#000000" stroke="none" font-family="Arial" font-size="13px" font-style="italic" font-weight="normal" text-decoration="none" x="125" y="250.5">+DispatchKeyEventPostIME(key_event: KeyEvent)</text></g></g><g transform="translate(-102,-104) scale(1,1)"><path fill="none" stroke="#000000" d="M 496 338 L 496 288 L 274 288 L 274 193" stroke-miterlimit="10"/></g><g transform="translate(-102,-104) scale(1,1)"><rect fill="#C0C0C0" stroke="none" x="575" y="121" width="246.70068359375" height="115" opacity="0.2"/></g><g transform="translate(-102,-104) scale(1,1)"><rect fill="#ffffff" stroke="none" x="568" y="114" width="246.70068359375" height="115"/></g><g transform="translate(-102,-104) scale(1,1)"><path fill="none" stroke="#000000" d="M 568 114 L 814.70068359375 114 L 814.70068359375 229 L 568 229 L 568 114 Z Z" stroke-miterlimit="10"/></g><g transform="translate(-102,-104) scale(1,1)"><path fill="none" stroke="#000000" d="M 568 154 L 814.70068359375 154" stroke-miterlimit="10"/></g><g transform="translate(-102,-104) scale(1,1)"><path fill="none" stroke="#000000" d="M 568 177 L 814.70068359375 177" stroke-miterlimit="10"/></g><g transform="translate(-102,-104) scale(1,1)"><g><path fill="none" stroke="none"/><text fill="#000000" stroke="none" font-family="Arial" font-size="13px" font-style="normal" font-weight="bold" text-decoration="none" x="654.134033203125" y="133.5">EventSource</text></g></g><g transform="translate(-102,-104) scale(1,1)"><g><path fill="none" stroke="none"/><text fill="#000000" stroke="none" font-family="Arial" font-size="13px" font-style="normal" font-weight="normal" text-decoration="none" x="667.15625" y="148.5">(from ui)</text></g></g><g transform="translate(-102,-104) scale(1,1)"><g><path fill="none" stroke="none"/><text fill="#000000" stroke="none" font-family="Arial" font-size="13px" font-style="normal" font-weight="normal" text-decoration="none" x="573" y="171.5">-rewriter_list_: EventRewriterList</text></g></g><g transform="translate(-102,-104) scale(1,1)"><g><path fill="none" stroke="none"/><text fill="#000000" stroke="none" font-family="Arial" font-size="13px" font-style="italic" font-weight="normal" text-decoration="none" x="573" y="194.5">+GetEventProcessor(): EventProcessor*</text></g></g><g transform="translate(-102,-104) scale(1,1)"><g><path fill="none" stroke="none"/><text fill="#000000" stroke="none" font-family="Arial" font-size="13px" font-style="normal" font-weight="normal" text-decoration="none" x="573" y="209.5">#SendEventToProcessor(event: Event*)</text></g></g><g transform="translate(-102,-104) scale(1,1)"><g><path fill="none" stroke="none"/><text fill="#000000" stroke="none" font-family="Arial" font-size="13px" font-style="normal" font-weight="normal" text-decoration="none" x="573" y="224.5">-DeliverEventToProcessor(event: Event*)</text></g></g><g transform="translate(-102,-104) scale(1,1)"><path fill="#C0C0C0" stroke="none" d="M 1004.16650390625 260.5 C 1004.16650390625 254.1487248 1009.31522870625 249 1015.66650390625 249 C 1022.01777910625 249 1027.16650390625 254.1487248 1027.16650390625 260.5 C 1027.16650390625 266.8512752 1022.01777910625 272 1015.66650390625 272 C 1009.31522870625 272 1004.16650390625 266.8512752 1004.16650390625 260.5 Z" opacity="0.2"/></g><g transform="translate(-102,-104) scale(1,1)"><path fill="#ffffff" stroke="none" d="M 997.16650390625 253.5 C 997.16650390625 247.1487248 1002.31522870625 242 1008.66650390625 242 C 1015.01777910625 242 1020.16650390625 247.1487248 1020.16650390625 253.5 C 1020.16650390625 259.8512752 1015.01777910625 265 1008.66650390625 265 C 1002.31522870625 265 997.16650390625 259.8512752 997.16650390625 253.5 Z"/></g><g transform="translate(-102,-104) scale(1,1)"><path fill="none" stroke="#000000" d="M 997.16650390625 253.5 C 997.16650390625 247.1487248 1002.31522870625 242 1008.66650390625 242 C 1015.01777910625 242 1020.16650390625 247.1487248 1020.16650390625 253.5 C 1020.16650390625 259.8512752 1015.01777910625 265 1008.66650390625 265 C 1002.31522870625 265 997.16650390625 259.8512752 997.16650390625 253.5 Z" stroke-miterlimit="10"/></g><g transform="translate(-102,-104) scale(1,1)"><path fill="none" stroke="#000000" d="M 776 305 L 1241.3330078125 305" stroke-miterlimit="10"/></g><g transform="translate(-102,-104) scale(1,1)"><g><path fill="none" stroke="none"/><text fill="#000000" stroke="none" font-family="Arial" font-size="13px" font-style="normal" font-weight="bold" text-decoration="none" x="967.847900390625" y="284.5">EventRewriter</text></g></g><g transform="translate(-102,-104) scale(1,1)"><g><path fill="none" stroke="none"/><text fill="#000000" stroke="none" font-family="Arial" font-size="13px" font-style="normal" font-weight="normal" text-decoration="none" x="984.472412109375" y="299.5">(from ui)</text></g></g><g transform="translate(-102,-104) scale(1,1)"><g><path fill="none" stroke="none"/><text fill="#000000" stroke="none" font-family="Arial" font-size="13px" font-style="italic" font-weight="normal" text-decoration="none" x="781" y="322.5">+RewriteEvent(event: Event&amp;, rewritten_event: scoped_ptr&lt;Event&gt;*)</text></g></g><g transform="translate(-102,-104) scale(1,1)"><g><path fill="none" stroke="none"/><text fill="#000000" stroke="none" font-family="Arial" font-size="13px" font-style="italic" font-weight="normal" text-decoration="none" x="781" y="337.5">+NextDispatchEvent(last_event: Event&amp;, new_event: scoped_ptr&lt;Event&gt;*)</text></g></g><g transform="translate(-102,-104) scale(1,1)"><path fill="none" stroke="#000000" d="M 1008 242 L 1008 163 L 815 163" stroke-miterlimit="10"/></g><g transform="translate(-102,-104) scale(1,1)"><path fill="#000000" stroke="none" d="M 825.1626748576241 158.790482243984 L 815 163 L 825.1626748576241 167.209517756016 L 837 163"/></g><g transform="translate(-102,-104) scale(1,1)"><path fill="none" stroke="#000000" d="M 825.1626748576241 158.790482243984 L 815 163 L 825.1626748576241 167.209517756016 L 837 163 L 825.1626748576241 158.790482243984" stroke-miterlimit="10"/></g><g transform="translate(-102,-104) scale(1,1)"><g><path fill="none" stroke="none"/><text fill="#000000" stroke="none" font-family="Arial" font-size="13px" font-style="normal" font-weight="normal" text-decoration="none" x="827" y="157">0..*</text></g></g><g transform="translate(-102,-104) scale(1,1)"><path fill="#C0C0C0" stroke="none" d="M 750.9873046875 436.5 C 750.9873046875 430.1487248 756.1360294875 425 762.4873046875 425 C 768.8385798875 425 773.9873046875 430.1487248 773.9873046875 436.5 C 773.9873046875 442.8512752 768.8385798875 448 762.4873046875 448 C 756.1360294875 448 750.9873046875 442.8512752 750.9873046875 436.5 Z" opacity="0.2"/></g><g transform="translate(-102,-104) scale(1,1)"><path fill="#ffffff" stroke="none" d="M 743.9873046875 429.5 C 743.9873046875 423.1487248 749.1360294875 418 755.4873046875 418 C 761.8385798875 418 766.9873046875 423.1487248 766.9873046875 429.5 C 766.9873046875 435.8512752 761.8385798875 441 755.4873046875 441 C 749.1360294875 441 743.9873046875 435.8512752 743.9873046875 429.5 Z"/></g><g transform="translate(-102,-104) scale(1,1)"><path fill="none" stroke="#000000" d="M 743.9873046875 429.5 C 743.9873046875 423.1487248 749.1360294875 418 755.4873046875 418 C 761.8385798875 418 766.9873046875 423.1487248 766.9873046875 429.5 C 766.9873046875 435.8512752 761.8385798875 441 755.4873046875 441 C 749.1360294875 441 743.9873046875 435.8512752 743.9873046875 429.5 Z" stroke-miterlimit="10"/></g><g transform="translate(-102,-104) scale(1,1)"><g><path fill="none" stroke="none"/><text fill="#000000" stroke="none" font-family="Arial" font-size="13px" font-style="normal" font-weight="bold" text-decoration="none" x="719.35009765625" y="460.5">InputMethod</text></g></g><g transform="translate(-102,-104) scale(1,1)"><g><path fill="none" stroke="none"/><text fill="#000000" stroke="none" font-family="Arial" font-size="13px" font-style="normal" font-weight="normal" text-decoration="none" x="731.293212890625" y="475.5">(from ui)</text></g></g><g transform="translate(-102,-104) scale(1,1)"><rect fill="#C0C0C0" stroke="none" x="559" y="553" width="279.96240234375" height="85" opacity="0.2"/></g><g transform="translate(-102,-104) scale(1,1)"><rect fill="#ffffff" stroke="none" x="552" y="546" width="279.96240234375" height="85"/></g><g transform="translate(-102,-104) scale(1,1)"><path fill="none" stroke="#000000" d="M 552 546 L 831.96240234375 546 L 831.96240234375 631 L 552 631 L 552 546 Z Z" stroke-miterlimit="10"/></g><g transform="translate(-102,-104) scale(1,1)"><path fill="none" stroke="#000000" d="M 552 586 L 831.96240234375 586" stroke-miterlimit="10"/></g><g transform="translate(-102,-104) scale(1,1)"><path fill="none" stroke="#000000" d="M 552 609 L 831.96240234375 609" stroke-miterlimit="10"/></g><g transform="translate(-102,-104) scale(1,1)"><g><path fill="none" stroke="none"/><text fill="#000000" stroke="none" font-family="Arial" font-size="13px" font-style="normal" font-weight="bold" text-decoration="none" x="641.028564453125" y="565.5">InputMethodBase</text></g></g><g transform="translate(-102,-104) scale(1,1)"><g><path fill="none" stroke="none"/><text fill="#000000" stroke="none" font-family="Arial" font-size="13px" font-style="normal" font-weight="normal" text-decoration="none" x="667.787109375" y="580.5">(from ui)</text></g></g><g transform="translate(-102,-104) scale(1,1)"><g><path fill="none" stroke="none"/><text fill="#000000" stroke="none" font-family="Arial" font-size="13px" font-style="normal" font-weight="normal" text-decoration="none" x="557" y="603.5">+delegate_: InputMethodDelegate</text></g></g><g transform="translate(-102,-104) scale(1,1)"><g><path fill="none" stroke="none"/><text fill="#000000" stroke="none" font-family="Arial" font-size="13px" font-style="normal" font-weight="normal" text-decoration="none" x="557" y="626.5">#DispatchKeyEventPostIME(event: KeyEvent*)</text></g></g><g transform="translate(-102,-104) scale(1,1)"><path fill="none" stroke="#000000" d="M 755 546 L 755 441" stroke-miterlimit="10"/></g><g transform="translate(-102,-104) scale(1,1)"><path fill="none" stroke="#000000" d="M 712 442 L 653 442" stroke-miterlimit="10"/></g><g transform="translate(-102,-104) scale(1,1)"><path fill="#FFFFFF" stroke="none" d="M 663.1626748576241 437.790482243984 L 653 442 L 663.1626748576241 446.209517756016 L 675 442"/></g><g transform="translate(-102,-104) scale(1,1)"><path fill="none" stroke="#000000" d="M 663.1626748576241 437.790482243984 L 653 442 L 663.1626748576241 446.209517756016 L 675 442 L 663.1626748576241 437.790482243984" stroke-miterlimit="10"/></g><g transform="translate(-102,-104) scale(1,1)"><g><path fill="none" stroke="none"/><text fill="#000000" stroke="none" font-family="Arial" font-size="13px" font-style="normal" font-weight="normal" text-decoration="none" x="671" y="436">1</text></g></g><g transform="translate(-102,-104) scale(1,1)"><rect fill="#C0C0C0" stroke="none" x="583" y="695" width="231.19970703125" height="72" opacity="0.2"/></g><g transform="translate(-102,-104) scale(1,1)"><rect fill="#ffffff" stroke="none" x="576" y="688" width="231.19970703125" height="72"/></g><g transform="translate(-102,-104) scale(1,1)"><path fill="none" stroke="#000000" d="M 576 688 L 807.19970703125 688 L 807.19970703125 760 L 576 760 L 576 688 Z Z" stroke-miterlimit="10"/></g><g transform="translate(-102,-104) scale(1,1)"><path fill="none" stroke="#000000" d="M 576 728 L 807.19970703125 728" stroke-miterlimit="10"/></g><g transform="translate(-102,-104) scale(1,1)"><path fill="none" stroke="#000000" d="M 576 738 L 807.19970703125 738" stroke-miterlimit="10"/></g><g transform="translate(-102,-104) scale(1,1)"><g><path fill="none" stroke="none"/><text fill="#000000" stroke="none" font-family="Arial" font-size="13px" font-style="normal" font-weight="bold" text-decoration="none" x="626.193603515625" y="707.5">InputMethodAuraLinux</text></g></g><g transform="translate(-102,-104) scale(1,1)"><g><path fill="none" stroke="none"/><text fill="#000000" stroke="none" font-family="Arial" font-size="13px" font-style="normal" font-weight="normal" text-decoration="none" x="667.40576171875" y="722.5">(from ui)</text></g></g><g transform="translate(-102,-104) scale(1,1)"><g><path fill="none" stroke="none"/><text fill="#000000" stroke="none" font-family="Arial" font-size="13px" font-style="normal" font-weight="normal" text-decoration="none" x="581" y="755.5">+DispatchKeyEvent(event: KeyEvent*)</text></g></g><g transform="translate(-102,-104) scale(1,1)"><rect fill="#C0C0C0" stroke="none" x="903" y="569" width="306.34326171875" height="100" opacity="0.2"/></g><g transform="translate(-102,-104) scale(1,1)"><rect fill="#ffffff" stroke="none" x="896" y="562" width="306.34326171875" height="100"/></g><g transform="translate(-102,-104) scale(1,1)"><path fill="none" stroke="#000000" d="M 896 562 L 1202.34326171875 562 L 1202.34326171875 662 L 896 662 L 896 562 Z Z" stroke-miterlimit="10"/></g><g transform="translate(-102,-104) scale(1,1)"><path fill="none" stroke="#000000" d="M 896 602 L 1202.34326171875 602" stroke-miterlimit="10"/></g><g transform="translate(-102,-104) scale(1,1)"><path fill="none" stroke="#000000" d="M 896 625 L 1202.34326171875 625" stroke-miterlimit="10"/></g><g transform="translate(-102,-104) scale(1,1)"><g><path fill="none" stroke="none"/><text fill="#000000" stroke="none" font-family="Arial" font-size="13px" font-style="normal" font-weight="bold" text-decoration="none" x="978.363525390625" y="581.5">WindowEventDispatcher</text></g></g><g transform="translate(-102,-104) scale(1,1)"><g><path fill="none" stroke="none"/><text fill="#000000" stroke="none" font-family="Arial" font-size="13px" font-style="normal" font-weight="normal" text-decoration="none" x="1017.027099609375" y="596.5">(from aura)</text></g></g><g transform="translate(-102,-104) scale(1,1)"><g><path fill="none" stroke="none"/><text fill="#000000" stroke="none" font-family="Arial" font-size="13px" font-style="normal" font-weight="normal" text-decoration="none" x="901" y="619.5">-host_: WindowTreeHost*</text></g></g><g transform="translate(-102,-104) scale(1,1)"><g><path fill="none" stroke="none"/><text fill="#000000" stroke="none" font-family="Arial" font-size="13px" font-style="normal" font-weight="normal" text-decoration="none" x="901" y="642.5">+GetRootTarget(): WindowEventDispatcher</text></g></g><g transform="translate(-102,-104) scale(1,1)"><g><path fill="none" stroke="none"/><text fill="#000000" stroke="none" font-family="Arial" font-size="13px" font-style="normal" font-weight="normal" text-decoration="none" x="901" y="657.5">+ProcessEvent(target: EventTarget*, event: Event*)</text></g></g><g transform="translate(-102,-104) scale(1,1)"><rect fill="#C0C0C0" stroke="none" x="927" y="417" width="260.0751953125" height="87" opacity="0.2"/></g><g transform="translate(-102,-104) scale(1,1)"><rect fill="#ffffff" stroke="none" x="920" y="410" width="260.0751953125" height="87"/></g><g transform="translate(-102,-104) scale(1,1)"><path fill="none" stroke="#000000" d="M 920 410 L 1180.0751953125 410 L 1180.0751953125 497 L 920 497 L 920 410 Z Z" stroke-miterlimit="10"/></g><g transform="translate(-102,-104) scale(1,1)"><path fill="none" stroke="#000000" d="M 920 450 L 1180.0751953125 450" stroke-miterlimit="10"/></g><g transform="translate(-102,-104) scale(1,1)"><path fill="none" stroke="#000000" d="M 920 460 L 1180.0751953125 460" stroke-miterlimit="10"/></g><g transform="translate(-102,-104) scale(1,1)"><g><path fill="none" stroke="none"/><text fill="#000000" stroke="none" font-family="Arial" font-size="13px" font-style="normal" font-weight="bold" text-decoration="none" x="1004.15673828125" y="429.5">EventProcessor</text></g></g><g transform="translate(-102,-104) scale(1,1)"><g><path fill="none" stroke="none"/><text fill="#000000" stroke="none" font-family="Arial" font-size="13px" font-style="normal" font-weight="normal" text-decoration="none" x="1025.843505859375" y="444.5">(from ui)</text></g></g><g transform="translate(-102,-104) scale(1,1)"><g><path fill="none" stroke="none"/><text fill="#000000" stroke="none" font-family="Arial" font-size="13px" font-style="italic" font-weight="normal" text-decoration="none" x="925" y="477.5">+GetRootTarget(): WindowEventDispatcher</text></g></g><g transform="translate(-102,-104) scale(1,1)"><g><path fill="none" stroke="none"/><text fill="#000000" stroke="none" font-family="Arial" font-size="13px" font-style="normal" font-weight="normal" text-decoration="none" x="925" y="492.5">+OnEventFromSource(event: Event*)</text></g></g><g transform="translate(-102,-104) scale(1,1)"><path fill="none" stroke="#000000" d="M 896 612 L 864 612 L 864 386 L 653 386" stroke-miterlimit="10"/></g><g transform="translate(-102,-104) scale(1,1)"><path fill="#FFFFFF" stroke="none" d="M 663.1626748576241 381.790482243984 L 653 386 L 663.1626748576241 390.209517756016 L 675 386"/></g><g transform="translate(-102,-104) scale(1,1)"><path fill="none" stroke="#000000" d="M 663.1626748576241 381.790482243984 L 653 386 L 663.1626748576241 390.209517756016 L 675 386 L 663.1626748576241 381.790482243984" stroke-miterlimit="10"/></g><g transform="translate(-102,-104) scale(1,1)"><g><path fill="none" stroke="none"/><text fill="#000000" stroke="none" font-family="Arial" font-size="13px" font-style="normal" font-weight="normal" text-decoration="none" x="671" y="380">1</text></g></g><g transform="translate(-102,-104) scale(1,1)"><path fill="none" stroke="#000000" d="M 496 338 L 496 288 L 696 288 L 696 229" stroke-miterlimit="10"/></g><g transform="translate(-102,-104) scale(1,1)"><path fill="#FFFFFF" stroke="none" d="M 704.419035512032 249.3253497152483 L 696 229 L 687.580964487968 249.3253497152483"/></g><g transform="translate(-102,-104) scale(1,1)"><path fill="none" stroke="#000000" d="M 704.419035512032 249.3253497152483 L 696 229 L 687.580964487968 249.3253497152483 L 704.419035512032 249.3253497152483" stroke-miterlimit="10"/></g><g transform="translate(-102,-104) scale(1,1)"><path fill="none" stroke="#000000" d="M 1050 562 L 1050 497" stroke-miterlimit="10"/></g><g transform="translate(-102,-104) scale(1,1)"><path fill="#FFFFFF" stroke="none" d="M 1058.419035512032 517.3253497152483 L 1050 497 L 1041.580964487968 517.3253497152483"/></g><g transform="translate(-102,-104) scale(1,1)"><path fill="none" stroke="#000000" d="M 1058.419035512032 517.3253497152483 L 1050 497 L 1041.580964487968 517.3253497152483 L 1058.419035512032 517.3253497152483" stroke-miterlimit="10"/></g><g transform="translate(-102,-104) scale(1,1)"><path fill="none" stroke="#000000" d="M 691 688 L 691 631" stroke-miterlimit="10"/></g><g transform="translate(-102,-104) scale(1,1)"><path fill="#FFFFFF" stroke="none" d="M 699.419035512032 651.3253497152483 L 691 631 L 682.580964487968 651.3253497152483"/></g><g transform="translate(-102,-104) scale(1,1)"><path fill="none" stroke="#000000" d="M 699.419035512032 651.3253497152483 L 691 631 L 682.580964487968 651.3253497152483 L 699.419035512032 651.3253497152483" stroke-miterlimit="10"/></g></g></svg>