<svg version="1.1" xmlns="http://www.w3.org/2000/svg" xmlns:xlink="http://www.w3.org/1999/xlink" width="1332.3369140625" height="566"><defs/><g><g transform="translate(-446,-78) scale(1,1)"><rect fill="#C0C0C0" stroke="none" x="463" y="535" width="358.72412109375" height="100" opacity="0.2"/></g><g transform="translate(-446,-78) scale(1,1)"><rect fill="#ffffff" stroke="none" x="456" y="528" width="358.72412109375" height="100"/></g><g transform="translate(-446,-78) scale(1,1)"><path fill="none" stroke="#000000" d="M 456 528 L 814.72412109375 528 L 814.72412109375 628 L 456 628 L 456 528 Z Z" stroke-miterlimit="10"/></g><g transform="translate(-446,-78) scale(1,1)"><path fill="none" stroke="#000000" d="M 456 568 L 814.72412109375 568" stroke-miterlimit="10"/></g><g transform="translate(-446,-78) scale(1,1)"><path fill="none" stroke="#000000" d="M 456 591 L 814.72412109375 591" stroke-miterlimit="10"/></g><g transform="translate(-446,-78) scale(1,1)"><g><path fill="none" stroke="none"/><text fill="#000000" stroke="none" font-family="Arial" font-size="13px" font-style="normal" font-weight="bold" text-decoration="none" x="552.6298828125" y="547.5">RenderWidgetHostViewAura</text></g></g><g transform="translate(-446,-78) scale(1,1)"><g><path fill="none" stroke="none"/><text fill="#000000" stroke="none" font-family="Arial" font-size="13px" font-style="normal" font-weight="normal" text-decoration="none" x="594.9052734375" y="562.5">(from content)</text></g></g><g transform="translate(-446,-78) scale(1,1)"><g><path fill="none" stroke="none"/><text fill="#000000" stroke="none" font-family="Arial" font-size="13px" font-style="normal" font-weight="normal" text-decoration="none" x="461" y="585.5">-host_: RenderWidgetHostImpl*</text></g></g><g transform="translate(-446,-78) scale(1,1)"><g><path fill="none" stroke="none"/><text fill="#000000" stroke="none" font-family="Arial" font-size="13px" font-style="normal" font-weight="normal" text-decoration="none" x="461" y="608.5">+OnKeyEvent(event: KeyEvent*)</text></g></g><g transform="translate(-446,-78) scale(1,1)"><g><path fill="none" stroke="none"/><text fill="#000000" stroke="none" font-family="Arial" font-size="13px" font-style="normal" font-weight="normal" text-decoration="none" x="461" y="623.5">-ForwardKeyboardEvent(event: NativeWebKeyboardEvent&amp;)</text></g></g><g transform="translate(-446,-78) scale(1,1)"><rect fill="#C0C0C0" stroke="none" x="463" y="351" width="358.72412109375" height="100" opacity="0.2"/></g><g transform="translate(-446,-78) scale(1,1)"><rect fill="#ffffff" stroke="none" x="456" y="344" width="358.72412109375" height="100"/></g><g transform="translate(-446,-78) scale(1,1)"><path fill="none" stroke="#000000" d="M 456 344 L 814.72412109375 344 L 814.72412109375 444 L 456 444 L 456 344 Z Z" stroke-miterlimit="10"/></g><g transform="translate(-446,-78) scale(1,1)"><path fill="none" stroke="#000000" d="M 456 384 L 814.72412109375 384" stroke-miterlimit="10"/></g><g transform="translate(-446,-78) scale(1,1)"><path fill="none" stroke="#000000" d="M 456 422 L 814.72412109375 422" stroke-miterlimit="10"/></g><g transform="translate(-446,-78) scale(1,1)"><g><path fill="none" stroke="none"/><text fill="#000000" stroke="none" font-family="Arial" font-size="13px" font-style="normal" font-weight="bold" text-decoration="none" x="568.1689453125" y="363.5">RenderWidgetHostImpl</text></g></g><g transform="translate(-446,-78) scale(1,1)"><g><path fill="none" stroke="none"/><text fill="#000000" stroke="none" font-family="Arial" font-size="13px" font-style="normal" font-weight="normal" text-decoration="none" x="594.9052734375" y="378.5">(from content)</text></g></g><g transform="translate(-446,-78) scale(1,1)"><g><path fill="none" stroke="none"/><text fill="#000000" stroke="none" font-family="Arial" font-size="13px" font-style="normal" font-weight="normal" text-decoration="none" x="461" y="401.5">-input_router_: scoped_ptr&lt;InputRouter&gt;</text></g></g><g transform="translate(-446,-78) scale(1,1)"><g><path fill="none" stroke="none"/><text fill="#000000" stroke="none" font-family="Arial" font-size="13px" font-style="normal" font-weight="normal" text-decoration="none" x="461" y="416.5">-view_: WeakPtr&lt;RenderWidgetHostViewBase&gt;</text></g></g><g transform="translate(-446,-78) scale(1,1)"><g><path fill="none" stroke="none"/><text fill="#000000" stroke="none" font-family="Arial" font-size="13px" font-style="normal" font-weight="normal" text-decoration="none" x="461" y="439.5">-ForwardKeyboardEvent(event: NativeWebKeyboardEvent&amp;)</text></g></g><g transform="translate(-446,-78) scale(1,1)"><path fill="none" stroke="#000000" d="M 648 528 L 648 444" stroke-miterlimit="10"/></g><g transform="translate(-446,-78) scale(1,1)"><path fill="#000000" stroke="none" d="M 652.209517756016 454.16267485762415 L 648 444 L 643.790482243984 454.16267485762415 L 648 466"/></g><g transform="translate(-446,-78) scale(1,1)"><path fill="none" stroke="#000000" d="M 652.209517756016 454.16267485762415 L 648 444 L 643.790482243984 454.16267485762415 L 648 466 L 652.209517756016 454.16267485762415" stroke-miterlimit="10"/></g><g transform="translate(-446,-78) scale(1,1)"><rect fill="#C0C0C0" stroke="none" x="919" y="511" width="234.8369140625" height="130" opacity="0.2"/></g><g transform="translate(-446,-78) scale(1,1)"><rect fill="#ffffff" stroke="none" x="912" y="504" width="234.8369140625" height="130"/></g><g transform="translate(-446,-78) scale(1,1)"><path fill="none" stroke="#000000" d="M 912 504 L 1146.8369140625 504 L 1146.8369140625 634 L 912 634 L 912 504 Z Z" stroke-miterlimit="10"/></g><g transform="translate(-446,-78) scale(1,1)"><path fill="none" stroke="#000000" d="M 912 544 L 1146.8369140625 544" stroke-miterlimit="10"/></g><g transform="translate(-446,-78) scale(1,1)"><path fill="none" stroke="#000000" d="M 912 567 L 1146.8369140625 567" stroke-miterlimit="10"/></g><g transform="translate(-446,-78) scale(1,1)"><g><path fill="none" stroke="none"/><text fill="#000000" stroke="none" font-family="Arial" font-size="13px" font-style="normal" font-weight="bold" text-decoration="none" x="983.172607421875" y="523.5">InputRouterImpl</text></g></g><g transform="translate(-446,-78) scale(1,1)"><g><path fill="none" stroke="none"/><text fill="#000000" stroke="none" font-family="Arial" font-size="13px" font-style="normal" font-weight="normal" text-decoration="none" x="988.961669921875" y="538.5">(from content)</text></g></g><g transform="translate(-446,-78) scale(1,1)"><g><path fill="none" stroke="none"/><text fill="#000000" stroke="none" font-family="Arial" font-size="13px" font-style="normal" font-weight="normal" text-decoration="none" x="917" y="561.5">-sender_: Sender*</text></g></g><g transform="translate(-446,-78) scale(1,1)"><g><path fill="none" stroke="none"/><text fill="#000000" stroke="none" font-family="Arial" font-size="13px" font-style="normal" font-weight="normal" text-decoration="none" x="917" y="584.5">+SendKeyboardEvent(key_event): void</text></g></g><g transform="translate(-446,-78) scale(1,1)"><g><path fill="none" stroke="none"/><text fill="#000000" stroke="none" font-family="Arial" font-size="13px" font-style="normal" font-weight="normal" text-decoration="none" x="917" y="599.5">-FilterAndSendWebInputEvent()</text></g></g><g transform="translate(-446,-78) scale(1,1)"><g><path fill="none" stroke="none"/><text fill="#000000" stroke="none" font-family="Arial" font-size="13px" font-style="normal" font-weight="normal" text-decoration="none" x="917" y="614.5">-OfferToHandlers()</text></g></g><g transform="translate(-446,-78) scale(1,1)"><g><path fill="none" stroke="none"/><text fill="#000000" stroke="none" font-family="Arial" font-size="13px" font-style="normal" font-weight="normal" text-decoration="none" x="917" y="629.5">-OfferToRenderer()</text></g></g><g transform="translate(-446,-78) scale(1,1)"><path fill="#C0C0C0" stroke="none" d="M 1023.5 362.5 C 1023.5 356.1487248 1028.6487248 351 1035 351 C 1041.3512752 351 1046.5 356.1487248 1046.5 362.5 C 1046.5 368.8512752 1041.3512752 374 1035 374 C 1028.6487248 374 1023.5 368.8512752 1023.5 362.5 Z" opacity="0.2"/></g><g transform="translate(-446,-78) scale(1,1)"><path fill="#ffffff" stroke="none" d="M 1016.5 355.5 C 1016.5 349.1487248 1021.6487248 344 1028 344 C 1034.3512752 344 1039.5 349.1487248 1039.5 355.5 C 1039.5 361.8512752 1034.3512752 367 1028 367 C 1021.6487248 367 1016.5 361.8512752 1016.5 355.5 Z"/></g><g transform="translate(-446,-78) scale(1,1)"><path fill="none" stroke="#000000" d="M 1016.5 355.5 C 1016.5 349.1487248 1021.6487248 344 1028 344 C 1034.3512752 344 1039.5 349.1487248 1039.5 355.5 C 1039.5 361.8512752 1034.3512752 367 1028 367 C 1021.6487248 367 1016.5 361.8512752 1016.5 355.5 Z" stroke-miterlimit="10"/></g><g transform="translate(-446,-78) scale(1,1)"><path fill="none" stroke="#000000" d="M 904 407 L 1152 407" stroke-miterlimit="10"/></g><g transform="translate(-446,-78) scale(1,1)"><g><path fill="none" stroke="none"/><text fill="#000000" stroke="none" font-family="Arial" font-size="13px" font-style="normal" font-weight="bold" text-decoration="none" x="994.03369140625" y="386.5">InputRouter</text></g></g><g transform="translate(-446,-78) scale(1,1)"><g><path fill="none" stroke="none"/><text fill="#000000" stroke="none" font-family="Arial" font-size="13px" font-style="normal" font-weight="normal" text-decoration="none" x="987.543212890625" y="401.5">(from content)</text></g></g><g transform="translate(-446,-78) scale(1,1)"><g><path fill="none" stroke="none"/><text fill="#000000" stroke="none" font-family="Arial" font-size="13px" font-style="italic" font-weight="normal" text-decoration="none" x="909" y="424.5">+SendKeyboardEvent(key_event): void</text></g></g><g transform="translate(-446,-78) scale(1,1)"><path fill="none" stroke="#000000" d="M 1028 504 L 1028 367" stroke-miterlimit="10"/></g><g transform="translate(-446,-78) scale(1,1)"><path fill="none" stroke="#000000" d="M 904 392 L 815 392" stroke-miterlimit="10"/></g><g transform="translate(-446,-78) scale(1,1)"><path fill="#000000" stroke="none" d="M 825.1626748576241 387.790482243984 L 815 392 L 825.1626748576241 396.209517756016 L 837 392"/></g><g transform="translate(-446,-78) scale(1,1)"><path fill="none" stroke="#000000" d="M 825.1626748576241 387.790482243984 L 815 392 L 825.1626748576241 396.209517756016 L 837 392 L 825.1626748576241 387.790482243984" stroke-miterlimit="10"/></g><g transform="translate(-446,-78) scale(1,1)"><g><path fill="none" stroke="none"/><text fill="#000000" stroke="none" font-family="Arial" font-size="13px" font-style="normal" font-weight="normal" text-decoration="none" x="833" y="386">1</text></g></g><g transform="translate(-446,-78) scale(1,1)"><path fill="#C0C0C0" stroke="none" d="M 1068.5 106.5 C 1068.5 100.1487248 1073.6487248 95 1080 95 C 1086.3512752 95 1091.5 100.1487248 1091.5 106.5 C 1091.5 112.8512752 1086.3512752 118 1080 118 C 1073.6487248 118 1068.5 112.8512752 1068.5 106.5 Z" opacity="0.2"/></g><g transform="translate(-446,-78) scale(1,1)"><path fill="#ffffff" stroke="none" d="M 1061.5 99.5 C 1061.5 93.1487248 1066.6487248 88 1073 88 C 1079.3512752 88 1084.5 93.1487248 1084.5 99.5 C 1084.5 105.8512752 1079.3512752 111 1073 111 C 1066.6487248 111 1061.5 105.8512752 1061.5 99.5 Z"/></g><g transform="translate(-446,-78) scale(1,1)"><path fill="none" stroke="#000000" d="M 1061.5 99.5 C 1061.5 93.1487248 1066.6487248 88 1073 88 C 1079.3512752 88 1084.5 93.1487248 1084.5 99.5 C 1084.5 105.8512752 1079.3512752 111 1073 111 C 1066.6487248 111 1061.5 105.8512752 1061.5 99.5 Z" stroke-miterlimit="10"/></g><g transform="translate(-446,-78) scale(1,1)"><path fill="none" stroke="#000000" d="M 984 151 L 1162 151" stroke-miterlimit="10"/></g><g transform="translate(-446,-78) scale(1,1)"><g><path fill="none" stroke="none"/><text fill="#000000" stroke="none" font-family="Arial" font-size="13px" font-style="normal" font-weight="bold" text-decoration="none" x="1052.0400390625" y="130.5">Sender</text></g></g><g transform="translate(-446,-78) scale(1,1)"><g><path fill="none" stroke="none"/><text fill="#000000" stroke="none" font-family="Arial" font-size="13px" font-style="normal" font-weight="normal" text-decoration="none" x="1043.029541015625" y="145.5">(from IPC)</text></g></g><g transform="translate(-446,-78) scale(1,1)"><g><path fill="none" stroke="none"/><text fill="#000000" stroke="none" font-family="Arial" font-size="13px" font-style="italic" font-weight="normal" text-decoration="none" x="989" y="168.5">+Send(msg: Message*): bool</text></g></g><g transform="translate(-446,-78) scale(1,1)"><path fill="#C0C0C0" stroke="none" d="M 626.5 226.5 C 626.5 220.1487248 631.6487248 215 638 215 C 644.3512752 215 649.5 220.1487248 649.5 226.5 C 649.5 232.8512752 644.3512752 238 638 238 C 631.6487248 238 626.5 232.8512752 626.5 226.5 Z" opacity="0.2"/></g><g transform="translate(-446,-78) scale(1,1)"><path fill="#ffffff" stroke="none" d="M 619.5 219.5 C 619.5 213.1487248 624.6487248 208 631 208 C 637.3512752 208 642.5 213.1487248 642.5 219.5 C 642.5 225.8512752 637.3512752 231 631 231 C 624.6487248 231 619.5 225.8512752 619.5 219.5 Z"/></g><g transform="translate(-446,-78) scale(1,1)"><path fill="none" stroke="#000000" d="M 619.5 219.5 C 619.5 213.1487248 624.6487248 208 631 208 C 637.3512752 208 642.5 213.1487248 642.5 219.5 C 642.5 225.8512752 637.3512752 231 631 231 C 624.6487248 231 619.5 225.8512752 619.5 219.5 Z" stroke-miterlimit="10"/></g><g transform="translate(-446,-78) scale(1,1)"><g><path fill="none" stroke="none"/><text fill="#000000" stroke="none" font-family="Arial" font-size="13px" font-style="normal" font-weight="bold" text-decoration="none" x="576.08642578125" y="250.5">RenderWidgetHost</text></g></g><g transform="translate(-446,-78) scale(1,1)"><g><path fill="none" stroke="none"/><text fill="#000000" stroke="none" font-family="Arial" font-size="13px" font-style="normal" font-weight="normal" text-decoration="none" x="590.543212890625" y="265.5">(from content)</text></g></g><g transform="translate(-446,-78) scale(1,1)"><path fill="none" stroke="#000000" d="M 631 344 L 631 231" stroke-miterlimit="10"/></g><g transform="translate(-446,-78) scale(1,1)"><rect fill="#C0C0C0" stroke="none" x="1303" y="343" width="352" height="130" opacity="0.2"/></g><g transform="translate(-446,-78) scale(1,1)"><rect fill="#ffffff" stroke="none" x="1296" y="336" width="352" height="130"/></g><g transform="translate(-446,-78) scale(1,1)"><path fill="none" stroke="#000000" d="M 1296 336 L 1648 336 L 1648 466 L 1296 466 L 1296 336 Z Z" stroke-miterlimit="10"/></g><g transform="translate(-446,-78) scale(1,1)"><path fill="none" stroke="#000000" d="M 1296 376 L 1648 376" stroke-miterlimit="10"/></g><g transform="translate(-446,-78) scale(1,1)"><path fill="none" stroke="#000000" d="M 1296 444 L 1648 444" stroke-miterlimit="10"/></g><g transform="translate(-446,-78) scale(1,1)"><g><path fill="none" stroke="none"/><text fill="#000000" stroke="none" font-family="Arial" font-size="13px" font-style="normal" font-weight="bold" text-decoration="none" x="1401.556884765625" y="355.5">RenderProcessHostImpl</text></g></g><g transform="translate(-446,-78) scale(1,1)"><g><path fill="none" stroke="none"/><text fill="#000000" stroke="none" font-family="Arial" font-size="13px" font-style="normal" font-weight="normal" text-decoration="none" x="1431.543212890625" y="370.5">(from content)</text></g></g><g transform="translate(-446,-78) scale(1,1)"><g><path fill="none" stroke="none"/><text fill="#000000" stroke="none" font-family="Arial" font-size="13px" font-style="normal" font-weight="normal" text-decoration="none" x="1301" y="393.5">-immediate_sender_: SafeSenderProxy</text></g></g><g transform="translate(-446,-78) scale(1,1)"><g><path fill="none" stroke="none"/><text fill="#000000" stroke="none" font-family="Arial" font-size="13px" font-style="normal" font-weight="normal" text-decoration="none" x="1301" y="408.5">-io_thread_sender_: SafeSenderProxy</text></g></g><g transform="translate(-446,-78) scale(1,1)"><g><path fill="none" stroke="none"/><text fill="#000000" stroke="none" font-family="Arial" font-size="13px" font-style="normal" font-weight="normal" text-decoration="none" x="1301" y="423.5">-channel_: ChannelProxy</text></g></g><g transform="translate(-446,-78) scale(1,1)"><g><path fill="none" stroke="none"/><text fill="#000000" stroke="none" font-family="Arial" font-size="13px" font-style="normal" font-weight="normal" text-decoration="none" x="1301" y="438.5">-listeners_: Listener</text></g></g><g transform="translate(-446,-78) scale(1,1)"><g><path fill="none" stroke="none"/><text fill="#000000" stroke="none" font-family="Arial" font-size="13px" font-style="normal" font-weight="normal" text-decoration="none" x="1301" y="461.5">-SendImpl(message: Message, send_now: bool): bool</text></g></g><g transform="translate(-446,-78) scale(1,1)"><rect fill="#C0C0C0" stroke="none" x="1231" y="551" width="222.509765625" height="85" opacity="0.2"/></g><g transform="translate(-446,-78) scale(1,1)"><rect fill="#ffffff" stroke="none" x="1224" y="544" width="222.509765625" height="85"/></g><g transform="translate(-446,-78) scale(1,1)"><path fill="none" stroke="#000000" d="M 1224 544 L 1446.509765625 544 L 1446.509765625 629 L 1224 629 L 1224 544 Z Z" stroke-miterlimit="10"/></g><g transform="translate(-446,-78) scale(1,1)"><path fill="none" stroke="#000000" d="M 1224 584 L 1446.509765625 584" stroke-miterlimit="10"/></g><g transform="translate(-446,-78) scale(1,1)"><path fill="none" stroke="#000000" d="M 1224 607 L 1446.509765625 607" stroke-miterlimit="10"/></g><g transform="translate(-446,-78) scale(1,1)"><g><path fill="none" stroke="none"/><text fill="#000000" stroke="none" font-family="Arial" font-size="13px" font-style="normal" font-weight="bold" text-decoration="none" x="1284.30859375" y="563.5">SafeSenderProxy</text></g></g><g transform="translate(-446,-78) scale(1,1)"><g><path fill="none" stroke="none"/><text fill="#000000" stroke="none" font-family="Arial" font-size="13px" font-style="normal" font-weight="normal" text-decoration="none" x="1248.9267578125" y="578.5">(from RenderWidgetHostImpl)</text></g></g><g transform="translate(-446,-78) scale(1,1)"><g><path fill="none" stroke="none"/><text fill="#000000" stroke="none" font-family="Arial" font-size="13px" font-style="normal" font-weight="normal" text-decoration="none" x="1229" y="601.5">+process_: RenderProcessHostImpl*</text></g></g><g transform="translate(-446,-78) scale(1,1)"><g><path fill="none" stroke="none"/><text fill="#000000" stroke="none" font-family="Arial" font-size="13px" font-style="normal" font-weight="normal" text-decoration="none" x="1229" y="624.5">+Send(msg: Message*): bool</text></g></g><g transform="translate(-446,-78) scale(1,1)"><path fill="none" stroke="#000000" d="M 694 232 L 1032 232 L 1032 174" stroke-miterlimit="10"/></g><g transform="translate(-446,-78) scale(1,1)"><path fill="#FFFFFF" stroke="none" d="M 1040.419035512032 194.3253497152483 L 1032 174 L 1023.580964487968 194.3253497152483"/></g><g transform="translate(-446,-78) scale(1,1)"><path fill="none" stroke="#000000" d="M 1040.419035512032 194.3253497152483 L 1032 174 L 1023.580964487968 194.3253497152483 L 1040.419035512032 194.3253497152483" stroke-miterlimit="10"/></g><g transform="translate(-446,-78) scale(1,1)"><path fill="none" stroke="#000000" d="M 1224 576 L 1192 576 L 1192 264 L 1073 264 L 1073 111" stroke-miterlimit="10"/></g><g transform="translate(-446,-78) scale(1,1)"><path fill="none" stroke="#000000" d="M 1224 600 L 1147 600" stroke-miterlimit="10"/></g><g transform="translate(-446,-78) scale(1,1)"><path fill="#FFFFFF" stroke="none" d="M 1157.162674857624 595.790482243984 L 1147 600 L 1157.162674857624 604.209517756016 L 1169 600"/></g><g transform="translate(-446,-78) scale(1,1)"><path fill="none" stroke="#000000" d="M 1157.162674857624 595.790482243984 L 1147 600 L 1157.162674857624 604.209517756016 L 1169 600 L 1157.162674857624 595.790482243984" stroke-miterlimit="10"/></g><g transform="translate(-446,-78) scale(1,1)"><g><path fill="none" stroke="none"/><text fill="#000000" stroke="none" font-family="Arial" font-size="13px" font-style="normal" font-weight="normal" text-decoration="none" x="1165" y="594">1</text></g></g><g transform="translate(-446,-78) scale(1,1)"><path fill="none" stroke="#000000" d="M 1392 544 L 1392 466" stroke-miterlimit="10"/></g><g transform="translate(-446,-78) scale(1,1)"><path fill="#000000" stroke="none" d="M 1396.2095177560159 476.16267485762415 L 1392 466 L 1387.7904822439841 476.16267485762415 L 1392 488"/></g><g transform="translate(-446,-78) scale(1,1)"><path fill="none" stroke="#000000" d="M 1396.2095177560159 476.16267485762415 L 1392 466 L 1387.7904822439841 476.16267485762415 L 1392 488 L 1396.2095177560159 476.16267485762415" stroke-miterlimit="10"/></g><g transform="translate(-446,-78) scale(1,1)"><g><path fill="none" stroke="none"/><text fill="#000000" stroke="none" font-family="Arial" font-size="13px" font-style="normal" font-weight="normal" text-decoration="none" x="1401" y="494">2</text></g></g><g transform="translate(-446,-78) scale(1,1)"><path fill="#C0C0C0" stroke="none" d="M 1462.134033203125 226.5 C 1462.134033203125 220.1487248 1467.282758003125 215 1473.634033203125 215 C 1479.985308403125 215 1485.134033203125 220.1487248 1485.134033203125 226.5 C 1485.134033203125 232.8512752 1479.985308403125 238 1473.634033203125 238 C 1467.282758003125 238 1462.134033203125 232.8512752 1462.134033203125 226.5 Z" opacity="0.2"/></g><g transform="translate(-446,-78) scale(1,1)"><path fill="#ffffff" stroke="none" d="M 1455.134033203125 219.5 C 1455.134033203125 213.1487248 1460.282758003125 208 1466.634033203125 208 C 1472.985308403125 208 1478.134033203125 213.1487248 1478.134033203125 219.5 C 1478.134033203125 225.8512752 1472.985308403125 231 1466.634033203125 231 C 1460.282758003125 231 1455.134033203125 225.8512752 1455.134033203125 219.5 Z"/></g><g transform="translate(-446,-78) scale(1,1)"><path fill="none" stroke="#000000" d="M 1455.134033203125 219.5 C 1455.134033203125 213.1487248 1460.282758003125 208 1466.634033203125 208 C 1472.985308403125 208 1478.134033203125 213.1487248 1478.134033203125 219.5 C 1478.134033203125 225.8512752 1472.985308403125 231 1466.634033203125 231 C 1460.282758003125 231 1455.134033203125 225.8512752 1455.134033203125 219.5 Z" stroke-miterlimit="10"/></g><g transform="translate(-446,-78) scale(1,1)"><g><path fill="none" stroke="none"/><text fill="#000000" stroke="none" font-family="Arial" font-size="13px" font-style="normal" font-weight="bold" text-decoration="none" x="1408.470458984375" y="250.5">RenderProcessHost</text></g></g><g transform="translate(-446,-78) scale(1,1)"><g><path fill="none" stroke="none"/><text fill="#000000" stroke="none" font-family="Arial" font-size="13px" font-style="normal" font-weight="normal" text-decoration="none" x="1426.17724609375" y="265.5">(from content)</text></g></g><g transform="translate(-446,-78) scale(1,1)"><path fill="none" stroke="#000000" d="M 1466 336 L 1466 231" stroke-miterlimit="10"/></g><g transform="translate(-446,-78) scale(1,1)"><path fill="none" stroke="#000000" d="M 1400 232 L 1120 232 L 1120 174" stroke-miterlimit="10"/></g><g transform="translate(-446,-78) scale(1,1)"><path fill="#FFFFFF" stroke="none" d="M 1128.419035512032 194.3253497152483 L 1120 174 L 1111.580964487968 194.3253497152483"/></g><g transform="translate(-446,-78) scale(1,1)"><path fill="none" stroke="#000000" d="M 1128.419035512032 194.3253497152483 L 1120 174 L 1111.580964487968 194.3253497152483 L 1128.419035512032 194.3253497152483" stroke-miterlimit="10"/></g><g transform="translate(-446,-78) scale(1,1)"><rect fill="#C0C0C0" stroke="none" x="1495" y="551" width="280.3369140625" height="87" opacity="0.2"/></g><g transform="translate(-446,-78) scale(1,1)"><rect fill="#ffffff" stroke="none" x="1488" y="544" width="280.3369140625" height="87"/></g><g transform="translate(-446,-78) scale(1,1)"><path fill="none" stroke="#000000" d="M 1488 544 L 1768.3369140625 544 L 1768.3369140625 631 L 1488 631 L 1488 544 Z Z" stroke-miterlimit="10"/></g><g transform="translate(-446,-78) scale(1,1)"><path fill="none" stroke="#000000" d="M 1488 584 L 1768.3369140625 584" stroke-miterlimit="10"/></g><g transform="translate(-446,-78) scale(1,1)"><path fill="none" stroke="#000000" d="M 1488 594 L 1768.3369140625 594" stroke-miterlimit="10"/></g><g transform="translate(-446,-78) scale(1,1)"><g><path fill="none" stroke="none"/><text fill="#000000" stroke="none" font-family="Arial" font-size="13px" font-style="normal" font-weight="bold" text-decoration="none" x="1587.34033203125" y="563.5">ChannelProxy</text></g></g><g transform="translate(-446,-78) scale(1,1)"><g><path fill="none" stroke="none"/><text fill="#000000" stroke="none" font-family="Arial" font-size="13px" font-style="normal" font-weight="normal" text-decoration="none" x="1598.197998046875" y="578.5">(from IPC)</text></g></g><g transform="translate(-446,-78) scale(1,1)"><g><path fill="none" stroke="none"/><text fill="#000000" stroke="none" font-family="Arial" font-size="13px" font-style="normal" font-weight="normal" text-decoration="none" x="1493" y="611.5">+SendNow(message: Message): bool</text></g></g><g transform="translate(-446,-78) scale(1,1)"><g><path fill="none" stroke="none"/><text fill="#000000" stroke="none" font-family="Arial" font-size="13px" font-style="normal" font-weight="normal" text-decoration="none" x="1493" y="626.5">+SendOnIPCThread(message: Message): bool</text></g></g><g transform="translate(-446,-78) scale(1,1)"><path fill="none" stroke="#000000" d="M 1568 544 L 1568 466" stroke-miterlimit="10"/></g><g transform="translate(-446,-78) scale(1,1)"><path fill="#000000" stroke="none" d="M 1572.2095177560159 476.16267485762415 L 1568 466 L 1563.7904822439841 476.16267485762415 L 1568 488"/></g><g transform="translate(-446,-78) scale(1,1)"><path fill="none" stroke="#000000" d="M 1572.2095177560159 476.16267485762415 L 1568 466 L 1563.7904822439841 476.16267485762415 L 1568 488 L 1572.2095177560159 476.16267485762415" stroke-miterlimit="10"/></g><g transform="translate(-446,-78) scale(1,1)"><g><path fill="none" stroke="none"/><text fill="#000000" stroke="none" font-family="Arial" font-size="13px" font-style="normal" font-weight="normal" text-decoration="none" x="1577" y="494">1</text></g></g><g transform="translate(-446,-78) scale(1,1)"><path fill="none" stroke="#000000" d="M 1336 466 L 1336 544" stroke-miterlimit="10"/></g><g transform="translate(-446,-78) scale(1,1)"><path fill="none" stroke="#000000" d="M 1331.7904822439841 533.8373251423759 L 1336 544 L 1340.2095177560159 533.8373251423759" stroke-miterlimit="10"/></g></g></svg>