<svg version="1.1" xmlns="http://www.w3.org/2000/svg" xmlns:xlink="http://www.w3.org/1999/xlink" width="1290.72412109375" height="680"><defs/><g><g transform="translate(-79,-86) scale(1,1)"><rect fill="#C0C0C0" stroke="none" x="151" y="471" width="260.0751953125" height="87" opacity="0.2"/></g><g transform="translate(-79,-86) scale(1,1)"><rect fill="#ffffff" stroke="none" x="144" y="464" width="260.0751953125" height="87"/></g><g transform="translate(-79,-86) scale(1,1)"><path fill="none" stroke="#000000" d="M 144 464 L 404.0751953125 464 L 404.0751953125 551 L 144 551 L 144 464 Z Z" stroke-miterlimit="10"/></g><g transform="translate(-79,-86) scale(1,1)"><path fill="none" stroke="#000000" d="M 144 504 L 404.0751953125 504" stroke-miterlimit="10"/></g><g transform="translate(-79,-86) scale(1,1)"><path fill="none" stroke="#000000" d="M 144 514 L 404.0751953125 514" stroke-miterlimit="10"/></g><g transform="translate(-79,-86) scale(1,1)"><g><path fill="none" stroke="none"/><text fill="#000000" stroke="none" font-family="Arial" font-size="13px" font-style="normal" font-weight="bold" text-decoration="none" x="228.15673828125" y="483.5">EventProcessor</text></g></g><g transform="translate(-79,-86) scale(1,1)"><g><path fill="none" stroke="none"/><text fill="#000000" stroke="none" font-family="Arial" font-size="13px" font-style="normal" font-weight="normal" text-decoration="none" x="249.843505859375" y="498.5">(from ui)</text></g></g><g transform="translate(-79,-86) scale(1,1)"><g><path fill="none" stroke="none"/><text fill="#000000" stroke="none" font-family="Arial" font-size="13px" font-style="italic" font-weight="normal" text-decoration="none" x="149" y="531.5">+GetRootTarget(): WindowEventDispatcher</text></g></g><g transform="translate(-79,-86) scale(1,1)"><g><path fill="none" stroke="none"/><text fill="#000000" stroke="none" font-family="Arial" font-size="13px" font-style="normal" font-weight="normal" text-decoration="none" x="149" y="546.5">+OnEventFromSource(event: Event*)</text></g></g><g transform="translate(-79,-86) scale(1,1)"><rect fill="#C0C0C0" stroke="none" x="96" y="303" width="362.7041015625" height="87" opacity="0.2"/></g><g transform="translate(-79,-86) scale(1,1)"><rect fill="#ffffff" stroke="none" x="89" y="296" width="362.7041015625" height="87"/></g><g transform="translate(-79,-86) scale(1,1)"><path fill="none" stroke="#000000" d="M 89 296 L 451.7041015625 296 L 451.7041015625 383 L 89 383 L 89 296 Z Z" stroke-miterlimit="10"/></g><g transform="translate(-79,-86) scale(1,1)"><path fill="none" stroke="#000000" d="M 89 336 L 451.7041015625 336" stroke-miterlimit="10"/></g><g transform="translate(-79,-86) scale(1,1)"><path fill="none" stroke="#000000" d="M 89 346 L 451.7041015625 346" stroke-miterlimit="10"/></g><g transform="translate(-79,-86) scale(1,1)"><g><path fill="none" stroke="none"/><text fill="#000000" stroke="none" font-family="Arial" font-size="13px" font-style="normal" font-weight="bold" text-decoration="none" x="196.64306640625" y="315.5">EventDispatcherDelegate</text></g></g><g transform="translate(-79,-86) scale(1,1)"><g><path fill="none" stroke="none"/><text fill="#000000" stroke="none" font-family="Arial" font-size="13px" font-style="normal" font-weight="normal" text-decoration="none" x="246.157958984375" y="330.5">(from ui)</text></g></g><g transform="translate(-79,-86) scale(1,1)"><g><path fill="none" stroke="none"/><text fill="#000000" stroke="none" font-family="Arial" font-size="13px" font-style="normal" font-weight="normal" text-decoration="none" x="94" y="363.5">+DispatchEvent(target: EventTarget*, event: Event*)</text></g></g><g transform="translate(-79,-86) scale(1,1)"><g><path fill="none" stroke="none"/><text fill="#000000" stroke="none" font-family="Arial" font-size="13px" font-style="normal" font-weight="normal" text-decoration="none" x="94" y="378.5">+DispatchEventToTarget(target: EventTarget*, event: Event*)</text></g></g><g transform="translate(-79,-86) scale(1,1)"><rect fill="#C0C0C0" stroke="none" x="122" y="663" width="309.96142578125" height="100" opacity="0.2"/></g><g transform="translate(-79,-86) scale(1,1)"><rect fill="#ffffff" stroke="none" x="115" y="656" width="309.96142578125" height="100"/></g><g transform="translate(-79,-86) scale(1,1)"><path fill="none" stroke="#000000" d="M 115 656 L 424.96142578125 656 L 424.96142578125 756 L 115 756 L 115 656 Z Z" stroke-miterlimit="10"/></g><g transform="translate(-79,-86) scale(1,1)"><path fill="none" stroke="#000000" d="M 115 696 L 424.96142578125 696" stroke-miterlimit="10"/></g><g transform="translate(-79,-86) scale(1,1)"><path fill="none" stroke="#000000" d="M 115 719 L 424.96142578125 719" stroke-miterlimit="10"/></g><g transform="translate(-79,-86) scale(1,1)"><g><path fill="none" stroke="none"/><text fill="#000000" stroke="none" font-family="Arial" font-size="13px" font-style="normal" font-weight="bold" text-decoration="none" x="199.172607421875" y="675.5">WindowEventDispatcher</text></g></g><g transform="translate(-79,-86) scale(1,1)"><g><path fill="none" stroke="none"/><text fill="#000000" stroke="none" font-family="Arial" font-size="13px" font-style="normal" font-weight="normal" text-decoration="none" x="237.836181640625" y="690.5">(from aura)</text></g></g><g transform="translate(-79,-86) scale(1,1)"><g><path fill="none" stroke="none"/><text fill="#000000" stroke="none" font-family="Arial" font-size="13px" font-style="normal" font-weight="normal" text-decoration="none" x="120" y="713.5">-host_: WindowTreeHost*</text></g></g><g transform="translate(-79,-86) scale(1,1)"><g><path fill="none" stroke="none"/><text fill="#000000" stroke="none" font-family="Arial" font-size="13px" font-style="normal" font-weight="normal" text-decoration="none" x="120" y="736.5">+GetRootTarget(): WindowEventDispatcher</text></g></g><g transform="translate(-79,-86) scale(1,1)"><g><path fill="none" stroke="none"/><text fill="#000000" stroke="none" font-family="Arial" font-size="13px" font-style="normal" font-weight="normal" text-decoration="none" x="120" y="751.5">+ProcessEvent(target: EventTarget*, event: Event*)</text></g></g><g transform="translate(-79,-86) scale(1,1)"><rect fill="#C0C0C0" stroke="none" x="496" y="103" width="308.88232421875" height="145" opacity="0.2"/></g><g transform="translate(-79,-86) scale(1,1)"><rect fill="#ffffff" stroke="none" x="489" y="96" width="308.88232421875" height="145"/></g><g transform="translate(-79,-86) scale(1,1)"><path fill="none" stroke="#000000" d="M 489 96 L 797.88232421875 96 L 797.88232421875 241 L 489 241 L 489 96 Z Z" stroke-miterlimit="10"/></g><g transform="translate(-79,-86) scale(1,1)"><path fill="none" stroke="#000000" d="M 489 136 L 797.88232421875 136" stroke-miterlimit="10"/></g><g transform="translate(-79,-86) scale(1,1)"><path fill="none" stroke="#000000" d="M 489 189 L 797.88232421875 189" stroke-miterlimit="10"/></g><g transform="translate(-79,-86) scale(1,1)"><g><path fill="none" stroke="none"/><text fill="#000000" stroke="none" font-family="Arial" font-size="13px" font-style="normal" font-weight="bold" text-decoration="none" x="593.593017578125" y="115.5">WindowTreeHost</text></g></g><g transform="translate(-79,-86) scale(1,1)"><g><path fill="none" stroke="none"/><text fill="#000000" stroke="none" font-family="Arial" font-size="13px" font-style="normal" font-weight="normal" text-decoration="none" x="611.296630859375" y="130.5">(from aura)</text></g></g><g transform="translate(-79,-86) scale(1,1)"><g><path fill="none" stroke="none"/><text fill="#000000" stroke="none" font-family="Arial" font-size="13px" font-style="normal" font-weight="normal" text-decoration="none" x="494" y="153.5">-input_method_: InputMethod*</text></g></g><g transform="translate(-79,-86) scale(1,1)"><g><path fill="none" stroke="none"/><text fill="#000000" stroke="none" font-family="Arial" font-size="13px" font-style="normal" font-weight="normal" text-decoration="none" x="494" y="168.5">-window_: Window*</text></g></g><g transform="translate(-79,-86) scale(1,1)"><g><path fill="none" stroke="none"/><text fill="#000000" stroke="none" font-family="Arial" font-size="13px" font-style="normal" font-weight="normal" text-decoration="none" x="494" y="183.5">-dispatcher_: scoped_ptr&lt;WindowEventDispatcher&gt;</text></g></g><g transform="translate(-79,-86) scale(1,1)"><g><path fill="none" stroke="none"/><text fill="#000000" stroke="none" font-family="Arial" font-size="13px" font-style="normal" font-weight="normal" text-decoration="none" x="494" y="206.5">+GetInputMethod(): InputMethod*</text></g></g><g transform="translate(-79,-86) scale(1,1)"><g><path fill="none" stroke="none"/><text fill="#000000" stroke="none" font-family="Arial" font-size="13px" font-style="normal" font-weight="normal" text-decoration="none" x="494" y="221.5">+DispatchKeyEventPostIME(event: KeyEvent*)</text></g></g><g transform="translate(-79,-86) scale(1,1)"><g><path fill="none" stroke="none"/><text fill="#000000" stroke="none" font-family="Arial" font-size="13px" font-style="normal" font-weight="normal" text-decoration="none" x="494" y="236.5">#GetEventProcessor(): EventProcessor*</text></g></g><g transform="translate(-79,-86) scale(1,1)"><path fill="none" stroke="#000000" d="M 425 672 L 536 672 L 536 241" stroke-miterlimit="10"/></g><g transform="translate(-79,-86) scale(1,1)"><path fill="#FFFFFF" stroke="none" d="M 540.209517756016 251.16267485762415 L 536 241 L 531.790482243984 251.16267485762415 L 536 263"/></g><g transform="translate(-79,-86) scale(1,1)"><path fill="none" stroke="#000000" d="M 540.209517756016 251.16267485762415 L 536 241 L 531.790482243984 251.16267485762415 L 536 263 L 540.209517756016 251.16267485762415" stroke-miterlimit="10"/></g><g transform="translate(-79,-86) scale(1,1)"><g><path fill="none" stroke="none"/><text fill="#000000" stroke="none" font-family="Arial" font-size="13px" font-style="normal" font-weight="normal" text-decoration="none" x="545" y="269">1</text></g></g><g transform="translate(-79,-86) scale(1,1)"><rect fill="#C0C0C0" stroke="none" x="608" y="359" width="251.80419921875" height="85" opacity="0.2"/></g><g transform="translate(-79,-86) scale(1,1)"><rect fill="#ffffff" stroke="none" x="601" y="352" width="251.80419921875" height="85"/></g><g transform="translate(-79,-86) scale(1,1)"><path fill="none" stroke="#000000" d="M 601 352 L 852.80419921875 352 L 852.80419921875 437 L 601 437 L 601 352 Z Z" stroke-miterlimit="10"/></g><g transform="translate(-79,-86) scale(1,1)"><path fill="none" stroke="#000000" d="M 601 392 L 852.80419921875 392" stroke-miterlimit="10"/></g><g transform="translate(-79,-86) scale(1,1)"><path fill="none" stroke="#000000" d="M 601 415 L 852.80419921875 415" stroke-miterlimit="10"/></g><g transform="translate(-79,-86) scale(1,1)"><g><path fill="none" stroke="none"/><text fill="#000000" stroke="none" font-family="Arial" font-size="13px" font-style="normal" font-weight="bold" text-decoration="none" x="703.783935546875" y="371.5">Window</text></g></g><g transform="translate(-79,-86) scale(1,1)"><g><path fill="none" stroke="none"/><text fill="#000000" stroke="none" font-family="Arial" font-size="13px" font-style="normal" font-weight="normal" text-decoration="none" x="694.757568359375" y="386.5">(from aura)</text></g></g><g transform="translate(-79,-86) scale(1,1)"><g><path fill="none" stroke="none"/><text fill="#000000" stroke="none" font-family="Arial" font-size="13px" font-style="normal" font-weight="normal" text-decoration="none" x="606" y="409.5">-targeter_: scoped_ptr&lt;ui::EventTargeter&gt;</text></g></g><g transform="translate(-79,-86) scale(1,1)"><g><path fill="none" stroke="none"/><text fill="#000000" stroke="none" font-family="Arial" font-size="13px" font-style="normal" font-weight="normal" text-decoration="none" x="606" y="432.5">+GetEventTargeter(): EventTargeter*</text></g></g><g transform="translate(-79,-86) scale(1,1)"><path fill="none" stroke="#000000" d="M 697 352 L 697 241" stroke-miterlimit="10"/></g><g transform="translate(-79,-86) scale(1,1)"><path fill="#000000" stroke="none" d="M 701.209517756016 251.16267485762415 L 697 241 L 692.790482243984 251.16267485762415 L 697 263"/></g><g transform="translate(-79,-86) scale(1,1)"><path fill="none" stroke="#000000" d="M 701.209517756016 251.16267485762415 L 697 241 L 692.790482243984 251.16267485762415 L 697 263 L 701.209517756016 251.16267485762415" stroke-miterlimit="10"/></g><g transform="translate(-79,-86) scale(1,1)"><g><path fill="none" stroke="none"/><text fill="#000000" stroke="none" font-family="Arial" font-size="13px" font-style="normal" font-weight="normal" text-decoration="none" x="706" y="269">1</text></g></g><g transform="translate(-79,-86) scale(1,1)"><rect fill="#C0C0C0" stroke="none" x="856" y="103" width="223.2333984375" height="100" opacity="0.2"/></g><g transform="translate(-79,-86) scale(1,1)"><rect fill="#ffffff" stroke="none" x="849" y="96" width="223.2333984375" height="100"/></g><g transform="translate(-79,-86) scale(1,1)"><path fill="none" stroke="#000000" d="M 849 96 L 1072.2333984375 96 L 1072.2333984375 196 L 849 196 L 849 96 Z Z" stroke-miterlimit="10"/></g><g transform="translate(-79,-86) scale(1,1)"><path fill="none" stroke="#000000" d="M 849 136 L 1072.2333984375 136" stroke-miterlimit="10"/></g><g transform="translate(-79,-86) scale(1,1)"><path fill="none" stroke="#000000" d="M 849 159 L 1072.2333984375 159" stroke-miterlimit="10"/></g><g transform="translate(-79,-86) scale(1,1)"><g><path fill="none" stroke="none"/><text fill="#000000" stroke="none" font-family="Arial" font-size="13px" font-style="normal" font-weight="bold" text-decoration="none" x="925.20947265625" y="115.5">EventTarget</text></g></g><g transform="translate(-79,-86) scale(1,1)"><g><path fill="none" stroke="none"/><text fill="#000000" stroke="none" font-family="Arial" font-size="13px" font-style="normal" font-weight="normal" text-decoration="none" x="936.422607421875" y="130.5">(from ui)</text></g></g><g transform="translate(-79,-86) scale(1,1)"><g><path fill="none" stroke="none"/><text fill="#000000" stroke="none" font-family="Arial" font-size="13px" font-style="normal" font-weight="normal" text-decoration="none" x="854" y="153.5">-target_handler_: EventHandler*</text></g></g><g transform="translate(-79,-86) scale(1,1)"><g><path fill="none" stroke="none"/><text fill="#000000" stroke="none" font-family="Arial" font-size="13px" font-style="italic" font-weight="normal" text-decoration="none" x="854" y="176.5">+GetEventTargeter(): EventTargeter*</text></g></g><g transform="translate(-79,-86) scale(1,1)"><g><path fill="none" stroke="none"/><text fill="#000000" stroke="none" font-family="Arial" font-size="13px" font-style="normal" font-weight="normal" text-decoration="none" x="854" y="191.5">+target_handler(): EventHandler*</text></g></g><g transform="translate(-79,-86) scale(1,1)"><path fill="#C0C0C0" stroke="none" d="M 718.5 538.5 C 718.5 532.1487248 723.6487248 527 730 527 C 736.3512752 527 741.5 532.1487248 741.5 538.5 C 741.5 544.8512752 736.3512752 550 730 550 C 723.6487248 550 718.5 544.8512752 718.5 538.5 Z" opacity="0.2"/></g><g transform="translate(-79,-86) scale(1,1)"><path fill="#ffffff" stroke="none" d="M 711.5 531.5 C 711.5 525.1487248 716.6487248 520 723 520 C 729.3512752 520 734.5 525.1487248 734.5 531.5 C 734.5 537.8512752 729.3512752 543 723 543 C 716.6487248 543 711.5 537.8512752 711.5 531.5 Z"/></g><g transform="translate(-79,-86) scale(1,1)"><path fill="none" stroke="#000000" d="M 711.5 531.5 C 711.5 525.1487248 716.6487248 520 723 520 C 729.3512752 520 734.5 525.1487248 734.5 531.5 C 734.5 537.8512752 729.3512752 543 723 543 C 716.6487248 543 711.5 537.8512752 711.5 531.5 Z" stroke-miterlimit="10"/></g><g transform="translate(-79,-86) scale(1,1)"><path fill="none" stroke="#000000" d="M 481 583 L 965 583" stroke-miterlimit="10"/></g><g transform="translate(-79,-86) scale(1,1)"><g><path fill="none" stroke="none"/><text fill="#000000" stroke="none" font-family="Arial" font-size="13px" font-style="normal" font-weight="bold" text-decoration="none" x="681.813232421875" y="562.5">EventTargeter</text></g></g><g transform="translate(-79,-86) scale(1,1)"><g><path fill="none" stroke="none"/><text fill="#000000" stroke="none" font-family="Arial" font-size="13px" font-style="normal" font-weight="normal" text-decoration="none" x="698.805908203125" y="577.5">(from ui)</text></g></g><g transform="translate(-79,-86) scale(1,1)"><g><path fill="none" stroke="none"/><text fill="#000000" stroke="none" font-family="Arial" font-size="13px" font-style="italic" font-weight="normal" text-decoration="none" x="486" y="600.5">+FindTargetForEvent(previous_target: EventTarget*, event: Event*): EventTarget*</text></g></g><g transform="translate(-79,-86) scale(1,1)"><g><path fill="none" stroke="none"/><text fill="#000000" stroke="none" font-family="Arial" font-size="13px" font-style="italic" font-weight="normal" text-decoration="none" x="486" y="615.5">+FindNextBestTarget(root: EventTarget*, event: Event*): EventTarget*</text></g></g><g transform="translate(-79,-86) scale(1,1)"><rect fill="#C0C0C0" stroke="none" x="632" y="671" width="183.83984375" height="87" opacity="0.2"/></g><g transform="translate(-79,-86) scale(1,1)"><rect fill="#ffffff" stroke="none" x="625" y="664" width="183.83984375" height="87"/></g><g transform="translate(-79,-86) scale(1,1)"><path fill="none" stroke="#000000" d="M 625 664 L 808.83984375 664 L 808.83984375 751 L 625 751 L 625 664 Z Z" stroke-miterlimit="10"/></g><g transform="translate(-79,-86) scale(1,1)"><path fill="none" stroke="#000000" d="M 625 704 L 808.83984375 704" stroke-miterlimit="10"/></g><g transform="translate(-79,-86) scale(1,1)"><path fill="none" stroke="#000000" d="M 625 714 L 808.83984375 714" stroke-miterlimit="10"/></g><g transform="translate(-79,-86) scale(1,1)"><g><path fill="none" stroke="none"/><text fill="#000000" stroke="none" font-family="Arial" font-size="13px" font-style="normal" font-weight="bold" text-decoration="none" x="669.236328125" y="683.5">WindowTargeter</text></g></g><g transform="translate(-79,-86) scale(1,1)"><g><path fill="none" stroke="none"/><text fill="#000000" stroke="none" font-family="Arial" font-size="13px" font-style="normal" font-weight="normal" text-decoration="none" x="684.775390625" y="698.5">(from aura)</text></g></g><g transform="translate(-79,-86) scale(1,1)"><g><path fill="none" stroke="none"/><text fill="#000000" stroke="none" font-family="Arial" font-size="13px" font-style="normal" font-weight="normal" text-decoration="none" x="630" y="731.5">-FindTargetForKeyEvent()</text></g></g><g transform="translate(-79,-86) scale(1,1)"><g><path fill="none" stroke="none"/><text fill="#000000" stroke="none" font-family="Arial" font-size="13px" font-style="normal" font-weight="normal" text-decoration="none" x="630" y="746.5">-FindTargetForNonKeyEvent()</text></g></g><g transform="translate(-79,-86) scale(1,1)"><path fill="none" stroke="#000000" d="M 723 664 L 723 543" stroke-miterlimit="10"/></g><g transform="translate(-79,-86) scale(1,1)"><path fill="none" stroke="#000000" d="M 721 520 L 721 437" stroke-miterlimit="10"/></g><g transform="translate(-79,-86) scale(1,1)"><path fill="#FFFFFF" stroke="none" d="M 725.209517756016 447.16267485762415 L 721 437 L 716.790482243984 447.16267485762415 L 721 459"/></g><g transform="translate(-79,-86) scale(1,1)"><path fill="none" stroke="#000000" d="M 725.209517756016 447.16267485762415 L 721 437 L 716.790482243984 447.16267485762415 L 721 459 L 725.209517756016 447.16267485762415" stroke-miterlimit="10"/></g><g transform="translate(-79,-86) scale(1,1)"><rect fill="#C0C0C0" stroke="none" x="120" y="103" width="306.34326171875" height="85" opacity="0.2"/></g><g transform="translate(-79,-86) scale(1,1)"><rect fill="#ffffff" stroke="none" x="113" y="96" width="306.34326171875" height="85"/></g><g transform="translate(-79,-86) scale(1,1)"><path fill="none" stroke="#000000" d="M 113 96 L 419.34326171875 96 L 419.34326171875 181 L 113 181 L 113 96 Z Z" stroke-miterlimit="10"/></g><g transform="translate(-79,-86) scale(1,1)"><path fill="none" stroke="#000000" d="M 113 136 L 419.34326171875 136" stroke-miterlimit="10"/></g><g transform="translate(-79,-86) scale(1,1)"><path fill="none" stroke="#000000" d="M 113 159 L 419.34326171875 159" stroke-miterlimit="10"/></g><g transform="translate(-79,-86) scale(1,1)"><g><path fill="none" stroke="none"/><text fill="#000000" stroke="none" font-family="Arial" font-size="13px" font-style="normal" font-weight="bold" text-decoration="none" x="218.481689453125" y="115.5">EventDispatcher</text></g></g><g transform="translate(-79,-86) scale(1,1)"><g><path fill="none" stroke="none"/><text fill="#000000" stroke="none" font-family="Arial" font-size="13px" font-style="normal" font-weight="normal" text-decoration="none" x="241.9775390625" y="130.5">(from ui)</text></g></g><g transform="translate(-79,-86) scale(1,1)"><g><path fill="none" stroke="none"/><text fill="#000000" stroke="none" font-family="Arial" font-size="13px" font-style="normal" font-weight="normal" text-decoration="none" x="118" y="153.5">+delegate_: EventDispatcherDelegate*</text></g></g><g transform="translate(-79,-86) scale(1,1)"><g><path fill="none" stroke="none"/><text fill="#000000" stroke="none" font-family="Arial" font-size="13px" font-style="normal" font-weight="normal" text-decoration="none" x="118" y="176.5">+ProcessEvent(target: EventTarget*, event: Event*)</text></g></g><g transform="translate(-79,-86) scale(1,1)"><rect fill="#C0C0C0" stroke="none" x="1144" y="103" width="197.96337890625" height="87" opacity="0.2"/></g><g transform="translate(-79,-86) scale(1,1)"><rect fill="#ffffff" stroke="none" x="1137" y="96" width="197.96337890625" height="87"/></g><g transform="translate(-79,-86) scale(1,1)"><path fill="none" stroke="#000000" d="M 1137 96 L 1334.96337890625 96 L 1334.96337890625 183 L 1137 183 L 1137 96 Z Z" stroke-miterlimit="10"/></g><g transform="translate(-79,-86) scale(1,1)"><path fill="none" stroke="#000000" d="M 1137 136 L 1334.96337890625 136" stroke-miterlimit="10"/></g><g transform="translate(-79,-86) scale(1,1)"><path fill="none" stroke="#000000" d="M 1137 146 L 1334.96337890625 146" stroke-miterlimit="10"/></g><g transform="translate(-79,-86) scale(1,1)"><g><path fill="none" stroke="none"/><text fill="#000000" stroke="none" font-family="Arial" font-size="13px" font-style="normal" font-weight="bold" text-decoration="none" x="1196.59765625" y="115.5">EventHandler</text></g></g><g transform="translate(-79,-86) scale(1,1)"><g><path fill="none" stroke="none"/><text fill="#000000" stroke="none" font-family="Arial" font-size="13px" font-style="normal" font-weight="normal" text-decoration="none" x="1211.78759765625" y="130.5">(from ui)</text></g></g><g transform="translate(-79,-86) scale(1,1)"><g><path fill="none" stroke="none"/><text fill="#000000" stroke="none" font-family="Arial" font-size="13px" font-style="normal" font-weight="normal" text-decoration="none" x="1142" y="163.5">+OnEvent(event: Evnet*)</text></g></g><g transform="translate(-79,-86) scale(1,1)"><g><path fill="none" stroke="none"/><text fill="#000000" stroke="none" font-family="Arial" font-size="13px" font-style="normal" font-weight="normal" text-decoration="none" x="1142" y="178.5">+OnKeyEvent(event: KeyEvent*)</text></g></g><g transform="translate(-79,-86) scale(1,1)"><path fill="none" stroke="#000000" d="M 1137 143 L 1072 143" stroke-miterlimit="10"/></g><g transform="translate(-79,-86) scale(1,1)"><path fill="#000000" stroke="none" d="M 1082.162674857624 138.790482243984 L 1072 143 L 1082.162674857624 147.209517756016 L 1094 143"/></g><g transform="translate(-79,-86) scale(1,1)"><path fill="none" stroke="#000000" d="M 1082.162674857624 138.790482243984 L 1072 143 L 1082.162674857624 147.209517756016 L 1094 143 L 1082.162674857624 138.790482243984" stroke-miterlimit="10"/></g><g transform="translate(-79,-86) scale(1,1)"><g><path fill="none" stroke="none"/><text fill="#000000" stroke="none" font-family="Arial" font-size="13px" font-style="normal" font-weight="normal" text-decoration="none" x="1084" y="137">1..*</text></g></g><g transform="translate(-79,-86) scale(1,1)"><rect fill="#C0C0C0" stroke="none" x="1000" y="423" width="358.72412109375" height="100" opacity="0.2"/></g><g transform="translate(-79,-86) scale(1,1)"><rect fill="#ffffff" stroke="none" x="993" y="416" width="358.72412109375" height="100"/></g><g transform="translate(-79,-86) scale(1,1)"><path fill="none" stroke="#000000" d="M 993 416 L 1351.72412109375 416 L 1351.72412109375 516 L 993 516 L 993 416 Z Z" stroke-miterlimit="10"/></g><g transform="translate(-79,-86) scale(1,1)"><path fill="none" stroke="#000000" d="M 993 456 L 1351.72412109375 456" stroke-miterlimit="10"/></g><g transform="translate(-79,-86) scale(1,1)"><path fill="none" stroke="#000000" d="M 993 479 L 1351.72412109375 479" stroke-miterlimit="10"/></g><g transform="translate(-79,-86) scale(1,1)"><g><path fill="none" stroke="none"/><text fill="#000000" stroke="none" font-family="Arial" font-size="13px" font-style="normal" font-weight="bold" text-decoration="none" x="1089.6298828125" y="435.5">RenderWidgetHostViewAura</text></g></g><g transform="translate(-79,-86) scale(1,1)"><g><path fill="none" stroke="none"/><text fill="#000000" stroke="none" font-family="Arial" font-size="13px" font-style="normal" font-weight="normal" text-decoration="none" x="1131.9052734375" y="450.5">(from content)</text></g></g><g transform="translate(-79,-86) scale(1,1)"><g><path fill="none" stroke="none"/><text fill="#000000" stroke="none" font-family="Arial" font-size="13px" font-style="normal" font-weight="normal" text-decoration="none" x="998" y="473.5">-host_: RenderWidgetHostImpl*</text></g></g><g transform="translate(-79,-86) scale(1,1)"><g><path fill="none" stroke="none"/><text fill="#000000" stroke="none" font-family="Arial" font-size="13px" font-style="normal" font-weight="normal" text-decoration="none" x="998" y="496.5">+OnKeyEvent(event: KeyEvent*)</text></g></g><g transform="translate(-79,-86) scale(1,1)"><g><path fill="none" stroke="none"/><text fill="#000000" stroke="none" font-family="Arial" font-size="13px" font-style="normal" font-weight="normal" text-decoration="none" x="998" y="511.5">-ForwardKeyboardEvent(event: NativeWebKeyboardEvent&amp;)</text></g></g><g transform="translate(-79,-86) scale(1,1)"><rect fill="#C0C0C0" stroke="none" x="1192" y="255" width="113.00634765625" height="59" opacity="0.2"/></g><g transform="translate(-79,-86) scale(1,1)"><rect fill="#ffffff" stroke="none" x="1185" y="248" width="113.00634765625" height="59"/></g><g transform="translate(-79,-86) scale(1,1)"><path fill="none" stroke="#000000" d="M 1185 248 L 1298.00634765625 248 L 1298.00634765625 307 L 1185 307 L 1185 248 Z Z" stroke-miterlimit="10"/></g><g transform="translate(-79,-86) scale(1,1)"><path fill="none" stroke="#000000" d="M 1185 288 L 1298.00634765625 288" stroke-miterlimit="10"/></g><g transform="translate(-79,-86) scale(1,1)"><path fill="none" stroke="#000000" d="M 1185 298 L 1298.00634765625 298" stroke-miterlimit="10"/></g><g transform="translate(-79,-86) scale(1,1)"><g><path fill="none" stroke="none"/><text fill="#000000" stroke="none" font-family="Arial" font-size="13px" font-style="normal" font-weight="bold" text-decoration="none" x="1192.365966796875" y="267.5">WindowDelegate</text></g></g><g transform="translate(-79,-86) scale(1,1)"><g><path fill="none" stroke="none"/><text fill="#000000" stroke="none" font-family="Arial" font-size="13px" font-style="normal" font-weight="normal" text-decoration="none" x="1209.358642578125" y="282.5">(from aura)</text></g></g><g transform="translate(-79,-86) scale(1,1)"><rect fill="#C0C0C0" stroke="none" x="1008" y="655" width="358.72412109375" height="100" opacity="0.2"/></g><g transform="translate(-79,-86) scale(1,1)"><rect fill="#ffffff" stroke="none" x="1001" y="648" width="358.72412109375" height="100"/></g><g transform="translate(-79,-86) scale(1,1)"><path fill="none" stroke="#000000" d="M 1001 648 L 1359.72412109375 648 L 1359.72412109375 748 L 1001 748 L 1001 648 Z Z" stroke-miterlimit="10"/></g><g transform="translate(-79,-86) scale(1,1)"><path fill="none" stroke="#000000" d="M 1001 688 L 1359.72412109375 688" stroke-miterlimit="10"/></g><g transform="translate(-79,-86) scale(1,1)"><path fill="none" stroke="#000000" d="M 1001 726 L 1359.72412109375 726" stroke-miterlimit="10"/></g><g transform="translate(-79,-86) scale(1,1)"><g><path fill="none" stroke="none"/><text fill="#000000" stroke="none" font-family="Arial" font-size="13px" font-style="normal" font-weight="bold" text-decoration="none" x="1113.1689453125" y="667.5">RenderWidgetHostImpl</text></g></g><g transform="translate(-79,-86) scale(1,1)"><g><path fill="none" stroke="none"/><text fill="#000000" stroke="none" font-family="Arial" font-size="13px" font-style="normal" font-weight="normal" text-decoration="none" x="1139.9052734375" y="682.5">(from content)</text></g></g><g transform="translate(-79,-86) scale(1,1)"><g><path fill="none" stroke="none"/><text fill="#000000" stroke="none" font-family="Arial" font-size="13px" font-style="normal" font-weight="normal" text-decoration="none" x="1006" y="705.5">-input_router_: scoped_ptr&lt;InputRouter&gt;</text></g></g><g transform="translate(-79,-86) scale(1,1)"><g><path fill="none" stroke="none"/><text fill="#000000" stroke="none" font-family="Arial" font-size="13px" font-style="normal" font-weight="normal" text-decoration="none" x="1006" y="720.5">-view_: WeakPtr&lt;RenderWidgetHostViewBase&gt;</text></g></g><g transform="translate(-79,-86) scale(1,1)"><g><path fill="none" stroke="none"/><text fill="#000000" stroke="none" font-family="Arial" font-size="13px" font-style="normal" font-weight="normal" text-decoration="none" x="1006" y="743.5">-ForwardKeyboardEvent(event: NativeWebKeyboardEvent&amp;)</text></g></g><g transform="translate(-79,-86) scale(1,1)"><path fill="none" stroke="#000000" d="M 1201 516 L 1201 648" stroke-miterlimit="10"/></g><g transform="translate(-79,-86) scale(1,1)"><path fill="#000000" stroke="none" d="M 1196.7904822439841 637.8373251423759 L 1201 648 L 1205.2095177560159 637.8373251423759 L 1201 626"/></g><g transform="translate(-79,-86) scale(1,1)"><path fill="none" stroke="#000000" d="M 1196.7904822439841 637.8373251423759 L 1201 648 L 1205.2095177560159 637.8373251423759 L 1201 626 L 1196.7904822439841 637.8373251423759" stroke-miterlimit="10"/></g><g transform="translate(-79,-86) scale(1,1)"><path fill="none" stroke="#000000" d="M 267 296 L 267 181" stroke-miterlimit="10"/></g><g transform="translate(-79,-86) scale(1,1)"><path fill="#000000" stroke="none" d="M 271.209517756016 191.16267485762415 L 267 181 L 262.790482243984 191.16267485762415 L 267 203"/></g><g transform="translate(-79,-86) scale(1,1)"><path fill="none" stroke="#000000" d="M 271.209517756016 191.16267485762415 L 267 181 L 262.790482243984 191.16267485762415 L 267 203 L 271.209517756016 191.16267485762415" stroke-miterlimit="10"/></g><g transform="translate(-79,-86) scale(1,1)"><g><path fill="none" stroke="none"/><text fill="#000000" stroke="none" font-family="Arial" font-size="13px" font-style="normal" font-weight="normal" text-decoration="none" x="276" y="209">1</text></g></g><g transform="translate(-79,-86) scale(1,1)"><path fill="none" stroke="#000000" d="M 271 464 L 271 383" stroke-miterlimit="10"/></g><g transform="translate(-79,-86) scale(1,1)"><path fill="#FFFFFF" stroke="none" d="M 279.419035512032 403.3253497152483 L 271 383 L 262.580964487968 403.3253497152483"/></g><g transform="translate(-79,-86) scale(1,1)"><path fill="none" stroke="#000000" d="M 279.419035512032 403.3253497152483 L 271 383 L 262.580964487968 403.3253497152483 L 279.419035512032 403.3253497152483" stroke-miterlimit="10"/></g><g transform="translate(-79,-86) scale(1,1)"><path fill="none" stroke="#000000" d="M 273 656 L 273 551" stroke-miterlimit="10"/></g><g transform="translate(-79,-86) scale(1,1)"><path fill="#FFFFFF" stroke="none" d="M 281.419035512032 571.3253497152483 L 273 551 L 264.580964487968 571.3253497152483"/></g><g transform="translate(-79,-86) scale(1,1)"><path fill="none" stroke="#000000" d="M 281.419035512032 571.3253497152483 L 273 551 L 264.580964487968 571.3253497152483 L 281.419035512032 571.3253497152483" stroke-miterlimit="10"/></g><g transform="translate(-79,-86) scale(1,1)"><path fill="none" stroke="#000000" d="M 1237 248 L 1237 183" stroke-miterlimit="10"/></g><g transform="translate(-79,-86) scale(1,1)"><path fill="#FFFFFF" stroke="none" d="M 1245.419035512032 203.3253497152483 L 1237 183 L 1228.580964487968 203.3253497152483"/></g><g transform="translate(-79,-86) scale(1,1)"><path fill="none" stroke="#000000" d="M 1245.419035512032 203.3253497152483 L 1237 183 L 1228.580964487968 203.3253497152483 L 1245.419035512032 203.3253497152483" stroke-miterlimit="10"/></g><g transform="translate(-79,-86) scale(1,1)"><path fill="none" stroke="#000000" d="M 1240 416 L 1240 307" stroke-miterlimit="10"/></g><g transform="translate(-79,-86) scale(1,1)"><path fill="#FFFFFF" stroke="none" d="M 1248.419035512032 327.3253497152483 L 1240 307 L 1231.580964487968 327.3253497152483"/></g><g transform="translate(-79,-86) scale(1,1)"><path fill="none" stroke="#000000" d="M 1248.419035512032 327.3253497152483 L 1240 307 L 1231.580964487968 327.3253497152483 L 1248.419035512032 327.3253497152483" stroke-miterlimit="10"/></g><g transform="translate(-79,-86) scale(1,1)"><path fill="none" stroke="#000000" d="M 853 376 L 880 376 L 880 196" stroke-miterlimit="10"/></g><g transform="translate(-79,-86) scale(1,1)"><path fill="#FFFFFF" stroke="none" d="M 888.419035512032 216.3253497152483 L 880 196 L 871.580964487968 216.3253497152483"/></g><g transform="translate(-79,-86) scale(1,1)"><path fill="none" stroke="#000000" d="M 888.419035512032 216.3253497152483 L 880 196 L 871.580964487968 216.3253497152483 L 888.419035512032 216.3253497152483" stroke-miterlimit="10"/></g><g transform="translate(-79,-86) scale(1,1)"><path fill="none" stroke="#000000" d="M 938 196 L 938 707 L 809 707" stroke-miterlimit="10"/></g><g transform="translate(-79,-86) scale(1,1)"><path fill="none" stroke="#000000" d="M 819.1626748576241 702.790482243984 L 809 707 L 819.1626748576241 711.209517756016" stroke-miterlimit="10"/></g><g transform="translate(-79,-86) scale(1,1)"><path fill="none" stroke="#000000" d="M 1144 648 L 1144 516" stroke-miterlimit="10"/></g><g transform="translate(-79,-86) scale(1,1)"><path fill="none" stroke="#000000" d="M 1148.2095177560159 526.1626748576241 L 1144 516 L 1139.7904822439841 526.1626748576241" stroke-miterlimit="10"/></g></g></svg>