<svg version="1.1" xmlns="http://www.w3.org/2000/svg" xmlns:xlink="http://www.w3.org/1999/xlink" width="879.4072265625" height="425"><defs/><g><g transform="translate(-14,-30) scale(1,1)"><path fill="#ffffff" stroke="none" d="M 120 144 L 302.82080078125 144 L 312.82080078125 154 L 312.82080078125 206 L 120 206 L 120 144"/></g><g transform="translate(-14,-30) scale(1,1)"><path fill="none" stroke="#000000" d="M 120 144 L 302.82080078125 144 L 312.82080078125 154 L 312.82080078125 206 L 120 206 L 120 144 L 120 144" stroke-miterlimit="10"/></g><g transform="translate(-14,-30) scale(1,1)"><path fill="none" stroke="#000000" d="M 302.82080078125 144 L 302.82080078125 154 L 312.82080078125 154 L 302.82080078125 144" stroke-miterlimit="10"/></g><g transform="translate(-14,-30) scale(1,1)"><g><path fill="none" stroke="none"/><text fill="#000000" stroke="none" font-family="Arial" font-size="13px" font-style="normal" font-weight="normal" text-decoration="none" x="125" y="162"> DesktopWindowTreeHostX11</text><text fill="#000000" stroke="none" font-family="Arial" font-size="13px" font-style="normal" font-weight="normal" text-decoration="none" x="125" y="175">的DispatchEvent方法中完成由</text><text fill="#000000" stroke="none" font-family="Arial" font-size="13px" font-style="normal" font-weight="normal" text-decoration="none" x="125" y="188">PlatformEvent到UI Event的转换</text></g></g><g transform="translate(-14,-30) scale(1,1)"><rect fill="#C0C0C0" stroke="none" x="31" y="47" width="151.20263671875" height="39" opacity="0.2"/></g><g transform="translate(-14,-30) scale(1,1)"><rect fill="#ffffff" stroke="none" x="24" y="40" width="151.20263671875" height="39"/></g><g transform="translate(-14,-30) scale(1,1)"><path fill="none" stroke="#000000" d="M 24 40 L 175.20263671875 40 L 175.20263671875 79 L 24 79 L 24 40 Z Z" stroke-miterlimit="10"/></g><g transform="translate(-14,-30) scale(1,1)"><g><path fill="none" stroke="none"/><text fill="#000000" stroke="none" font-family="Arial" font-size="13px" font-style="normal" font-weight="bold" text-decoration="none" x="78.285888671875" y="59.5">source:</text><text fill="#000000" stroke="none" font-family="Arial" font-size="13px" font-style="normal" font-weight="bold" text-decoration="none" x="38.1845703125" y="72.5">PlatformEventSource</text></g></g><g transform="translate(-14,-30) scale(1,1)"><path fill="none" stroke="#000000" d="M 100.5 80 L 100.5 440" stroke-miterlimit="10" stroke-dasharray="3"/></g><g transform="translate(-14,-30) scale(1,1)"><rect fill="#C0C0C0" stroke="none" x="239" y="47" width="199.58447265625" height="39" opacity="0.2"/></g><g transform="translate(-14,-30) scale(1,1)"><rect fill="#ffffff" stroke="none" x="232" y="40" width="199.58447265625" height="39"/></g><g transform="translate(-14,-30) scale(1,1)"><path fill="none" stroke="#000000" d="M 232 40 L 431.58447265625 40 L 431.58447265625 79 L 232 79 L 232 40 Z Z" stroke-miterlimit="10"/></g><g transform="translate(-14,-30) scale(1,1)"><g><path fill="none" stroke="none"/><text fill="#000000" stroke="none" font-family="Arial" font-size="13px" font-style="normal" font-weight="bold" text-decoration="none" x="299.996826171875" y="59.5">dispatcher:</text><text fill="#000000" stroke="none" font-family="Arial" font-size="13px" font-style="normal" font-weight="bold" text-decoration="none" x="246.53369140625" y="72.5">DesktopWindowTreeHostX11</text></g></g><g transform="translate(-14,-30) scale(1,1)"><path fill="none" stroke="#000000" d="M 332.5 80 L 332.5 445" stroke-miterlimit="10" stroke-dasharray="3"/></g><g transform="translate(-14,-30) scale(1,1)"><rect fill="#C0C0C0" stroke="none" x="503" y="47" width="161.25732421875" height="39" opacity="0.2"/></g><g transform="translate(-14,-30) scale(1,1)"><rect fill="#ffffff" stroke="none" x="496" y="40" width="161.25732421875" height="39"/></g><g transform="translate(-14,-30) scale(1,1)"><path fill="none" stroke="#000000" d="M 496 40 L 657.25732421875 40 L 657.25732421875 79 L 496 79 L 496 40 Z Z" stroke-miterlimit="10"/></g><g transform="translate(-14,-30) scale(1,1)"><g><path fill="none" stroke="none"/><text fill="#000000" stroke="none" font-family="Arial" font-size="13px" font-style="normal" font-weight="bold" text-decoration="none" x="531.8173828125" y="59.5">input_method_:</text><text fill="#000000" stroke="none" font-family="Arial" font-size="13px" font-style="normal" font-weight="bold" text-decoration="none" x="511.222412109375" y="72.5">InputMethodAuraLinux</text></g></g><g transform="translate(-14,-30) scale(1,1)"><path fill="none" stroke="#000000" d="M 577.5 80 L 577.5 436" stroke-miterlimit="10" stroke-dasharray="3"/></g><g transform="translate(-14,-30) scale(1,1)"><rect fill="#C0C0C0" stroke="none" x="719" y="47" width="171.4072265625" height="39" opacity="0.2"/></g><g transform="translate(-14,-30) scale(1,1)"><rect fill="#ffffff" stroke="none" x="712" y="40" width="171.4072265625" height="39"/></g><g transform="translate(-14,-30) scale(1,1)"><path fill="none" stroke="#000000" d="M 712 40 L 883.4072265625 40 L 883.4072265625 79 L 712 79 L 712 40 Z Z" stroke-miterlimit="10"/></g><g transform="translate(-14,-30) scale(1,1)"><g><path fill="none" stroke="none"/><text fill="#000000" stroke="none" font-family="Arial" font-size="13px" font-style="normal" font-weight="bold" text-decoration="none" x="762.293212890625" y="59.5">dispatcher_:</text><text fill="#000000" stroke="none" font-family="Arial" font-size="13px" font-style="normal" font-weight="bold" text-decoration="none" x="726.8955078125" y="72.5">WindowEventDispatcher</text></g></g><g transform="translate(-14,-30) scale(1,1)"><path fill="none" stroke="#000000" d="M 798.5 80 L 798.5 445" stroke-miterlimit="10" stroke-dasharray="3"/></g><g transform="translate(-14,-30) scale(1,1)"><path fill="none" stroke="#000000" d="M 100 113 L 325 113" stroke-miterlimit="10"/></g><g transform="translate(-14,-30) scale(1,1)"><path fill="#000000" stroke="none" d="M 314.83732514237585 117.20951775601598 L 325 113 L 314.83732514237585 108.79048224398402"/></g><g transform="translate(-14,-30) scale(1,1)"><path fill="none" stroke="#000000" d="M 314.83732514237585 117.20951775601598 L 325 113 L 314.83732514237585 108.79048224398402 L 314.83732514237585 117.20951775601598" stroke-miterlimit="10"/></g><g transform="translate(-14,-30) scale(1,1)"><g><path fill="none" stroke="none"/><text fill="#000000" stroke="none" font-family="Arial" font-size="13px" font-style="normal" font-weight="normal" text-decoration="none" x="162" y="110">1 : DispatchEvent</text></g></g><g transform="translate(-14,-30) scale(1,1)"><rect fill="#ffffff" stroke="none" x="325" y="113" width="13" height="114"/></g><g transform="translate(-14,-30) scale(1,1)"><path fill="none" stroke="#000000" d="M 325 113 L 338 113 L 338 227 L 325 227 L 325 113 Z Z" stroke-miterlimit="10"/></g><g transform="translate(-14,-30) scale(1,1)"><path fill="none" stroke="#000000" d="M 352 344 L 382 344 L 382 364 L 359 364" stroke-miterlimit="10"/></g><g transform="translate(-14,-30) scale(1,1)"><path fill="#000000" stroke="none" d="M 369.16267485762415 359.790482243984 L 359 364 L 369.16267485762415 368.209517756016"/></g><g transform="translate(-14,-30) scale(1,1)"><path fill="none" stroke="#000000" d="M 369.16267485762415 359.790482243984 L 359 364 L 369.16267485762415 368.209517756016 L 369.16267485762415 359.790482243984" stroke-miterlimit="10"/></g><g transform="translate(-14,-30) scale(1,1)"><g><path fill="none" stroke="none"/><text fill="#000000" stroke="none" font-family="Arial" font-size="13px" font-style="normal" font-weight="normal" text-decoration="none" x="391" y="360">10 : GetEventProcessor</text></g></g><g transform="translate(-14,-30) scale(1,1)"><rect fill="#ffffff" stroke="none" x="346" y="364" width="13" height="28"/></g><g transform="translate(-14,-30) scale(1,1)"><path fill="none" stroke="#000000" d="M 346 364 L 359 364 L 359 392 L 346 392 L 346 364 Z Z" stroke-miterlimit="10"/></g><g transform="translate(-14,-30) scale(1,1)"><path fill="none" stroke="#000000" d="M 352 403 L 791 403" stroke-miterlimit="10"/></g><g transform="translate(-14,-30) scale(1,1)"><path fill="none" stroke="#000000" d="M 780.8373251423759 407.209517756016 L 791 403 L 780.8373251423758 398.790482243984" stroke-miterlimit="10"/></g><g transform="translate(-14,-30) scale(1,1)"><g><path fill="none" stroke="none"/><text fill="#000000" stroke="none" font-family="Arial" font-size="13px" font-style="normal" font-weight="normal" text-decoration="none" x="498" y="400">11 : OnEventFromSource</text></g></g><g transform="translate(-14,-30) scale(1,1)"><rect fill="#ffffff" stroke="none" x="791" y="403" width="13" height="28"/></g><g transform="translate(-14,-30) scale(1,1)"><path fill="none" stroke="#000000" d="M 791 403 L 804 403 L 804 431 L 791 431 L 791 403 Z Z" stroke-miterlimit="10"/></g><g transform="translate(-14,-30) scale(1,1)"><path fill="none" stroke="#000000" d="M 345 312 L 375 312 L 375 332 L 352 332" stroke-miterlimit="10"/></g><g transform="translate(-14,-30) scale(1,1)"><path fill="#000000" stroke="none" d="M 362.16267485762415 327.790482243984 L 352 332 L 362.16267485762415 336.209517756016"/></g><g transform="translate(-14,-30) scale(1,1)"><path fill="none" stroke="#000000" d="M 362.16267485762415 327.790482243984 L 352 332 L 362.16267485762415 336.209517756016 L 362.16267485762415 327.790482243984" stroke-miterlimit="10"/></g><g transform="translate(-14,-30) scale(1,1)"><g><path fill="none" stroke="none"/><text fill="#000000" stroke="none" font-family="Arial" font-size="13px" font-style="normal" font-weight="normal" text-decoration="none" x="387" y="328">9 : DeliverEventToProcessor</text></g></g><g transform="translate(-14,-30) scale(1,1)"><rect fill="#ffffff" stroke="none" x="339" y="332" width="13" height="84"/></g><g transform="translate(-14,-30) scale(1,1)"><path fill="none" stroke="#000000" d="M 339 332 L 352 332 L 352 416 L 339 416 L 339 332 Z Z" stroke-miterlimit="10"/></g><g transform="translate(-14,-30) scale(1,1)"><path fill="none" stroke="#000000" d="M 338 120 L 368 120 L 368 140 L 345 140" stroke-miterlimit="10"/></g><g transform="translate(-14,-30) scale(1,1)"><path fill="#000000" stroke="none" d="M 355.16267485762415 135.790482243984 L 345 140 L 355.16267485762415 144.209517756016"/></g><g transform="translate(-14,-30) scale(1,1)"><path fill="none" stroke="#000000" d="M 355.16267485762415 135.790482243984 L 345 140 L 355.16267485762415 144.209517756016 L 355.16267485762415 135.790482243984" stroke-miterlimit="10"/></g><g transform="translate(-14,-30) scale(1,1)"><g><path fill="none" stroke="none"/><text fill="#000000" stroke="none" font-family="Arial" font-size="13px" font-style="normal" font-weight="normal" text-decoration="none" x="375" y="133">2 : DispatchKeyEvent</text></g></g><g transform="translate(-14,-30) scale(1,1)"><rect fill="#ffffff" stroke="none" x="332" y="140" width="13" height="84"/></g><g transform="translate(-14,-30) scale(1,1)"><path fill="none" stroke="#000000" d="M 332 140 L 345 140 L 345 224 L 332 224 L 332 140 Z Z" stroke-miterlimit="10"/></g><g transform="translate(-14,-30) scale(1,1)"><path fill="none" stroke="#000000" d="M 345 152 L 375 152 L 375 172 L 352 172" stroke-miterlimit="10"/></g><g transform="translate(-14,-30) scale(1,1)"><path fill="#000000" stroke="none" d="M 362.16267485762415 167.790482243984 L 352 172 L 362.16267485762415 176.209517756016"/></g><g transform="translate(-14,-30) scale(1,1)"><path fill="none" stroke="#000000" d="M 362.16267485762415 167.790482243984 L 352 172 L 362.16267485762415 176.209517756016 L 362.16267485762415 167.790482243984" stroke-miterlimit="10"/></g><g transform="translate(-14,-30) scale(1,1)"><g><path fill="none" stroke="none"/><text fill="#000000" stroke="none" font-family="Arial" font-size="13px" font-style="normal" font-weight="normal" text-decoration="none" x="384" y="168">3 : GetInputMethod</text></g></g><g transform="translate(-14,-30) scale(1,1)"><rect fill="#ffffff" stroke="none" x="339" y="172" width="13" height="28"/></g><g transform="translate(-14,-30) scale(1,1)"><path fill="none" stroke="#000000" d="M 339 172 L 352 172 L 352 200 L 339 200 L 339 172 Z Z" stroke-miterlimit="10"/></g><g transform="translate(-14,-30) scale(1,1)"><path fill="none" stroke="#000000" d="M 345 208 L 570 208" stroke-miterlimit="10"/></g><g transform="translate(-14,-30) scale(1,1)"><path fill="#000000" stroke="none" d="M 559.8373251423759 212.209517756016 L 570 208 L 559.8373251423758 203.790482243984"/></g><g transform="translate(-14,-30) scale(1,1)"><path fill="none" stroke="#000000" d="M 559.8373251423759 212.209517756016 L 570 208 L 559.8373251423758 203.790482243984 L 559.8373251423759 212.209517756016" stroke-miterlimit="10"/></g><g transform="translate(-14,-30) scale(1,1)"><g><path fill="none" stroke="none"/><text fill="#000000" stroke="none" font-family="Arial" font-size="13px" font-style="normal" font-weight="normal" text-decoration="none" x="395" y="205">4 : DispatchKeyEvent</text></g></g><g transform="translate(-14,-30) scale(1,1)"><rect fill="#ffffff" stroke="none" x="570" y="208" width="13" height="72"/></g><g transform="translate(-14,-30) scale(1,1)"><path fill="none" stroke="#000000" d="M 570 208 L 583 208 L 583 280 L 570 280 L 570 208 Z Z" stroke-miterlimit="10"/></g><g transform="translate(-14,-30) scale(1,1)"><path fill="none" stroke="#000000" d="M 583 216 L 613 216 L 613 236 L 590 236" stroke-miterlimit="10"/></g><g transform="translate(-14,-30) scale(1,1)"><path fill="#000000" stroke="none" d="M 600.1626748576241 231.790482243984 L 590 236 L 600.1626748576241 240.209517756016"/></g><g transform="translate(-14,-30) scale(1,1)"><path fill="none" stroke="#000000" d="M 600.1626748576241 231.790482243984 L 590 236 L 600.1626748576241 240.209517756016 L 600.1626748576241 231.790482243984" stroke-miterlimit="10"/></g><g transform="translate(-14,-30) scale(1,1)"><g><path fill="none" stroke="none"/><text fill="#000000" stroke="none" font-family="Arial" font-size="13px" font-style="normal" font-weight="normal" text-decoration="none" x="616" y="232">5 : DispatchKeyEventPostIME</text></g></g><g transform="translate(-14,-30) scale(1,1)"><rect fill="#ffffff" stroke="none" x="577" y="236" width="13" height="28"/></g><g transform="translate(-14,-30) scale(1,1)"><path fill="none" stroke="#000000" d="M 577 236 L 590 236 L 590 264 L 577 264 L 577 236 Z Z" stroke-miterlimit="10"/></g><g transform="translate(-14,-30) scale(1,1)"><path fill="none" stroke="#000000" d="M 577 256 L 338 256" stroke-miterlimit="10"/></g><g transform="translate(-14,-30) scale(1,1)"><path fill="none" stroke="#000000" d="M 348.16267485762415 251.790482243984 L 338 256 L 348.16267485762415 260.209517756016" stroke-miterlimit="10"/></g><g transform="translate(-14,-30) scale(1,1)"><g><path fill="none" stroke="none"/><text fill="#000000" stroke="none" font-family="Arial" font-size="13px" font-style="normal" font-weight="normal" text-decoration="none" x="370" y="273">6 : DispatchKeyEventPostIME</text></g></g><g transform="translate(-14,-30) scale(1,1)"><rect fill="#ffffff" stroke="none" x="325" y="256" width="13" height="166"/></g><g transform="translate(-14,-30) scale(1,1)"><path fill="none" stroke="#000000" d="M 325 256 L 338 256 L 338 422 L 325 422 L 325 256 Z Z" stroke-miterlimit="10"/></g><g transform="translate(-14,-30) scale(1,1)"><path fill="none" stroke="#000000" d="M 338 280 L 368 280 L 368 300 L 345 300" stroke-miterlimit="10"/></g><g transform="translate(-14,-30) scale(1,1)"><path fill="#000000" stroke="none" d="M 355.16267485762415 295.790482243984 L 345 300 L 355.16267485762415 304.209517756016"/></g><g transform="translate(-14,-30) scale(1,1)"><path fill="none" stroke="#000000" d="M 355.16267485762415 295.790482243984 L 345 300 L 355.16267485762415 304.209517756016 L 355.16267485762415 295.790482243984" stroke-miterlimit="10"/></g><g transform="translate(-14,-30) scale(1,1)"><g><path fill="none" stroke="none"/><text fill="#000000" stroke="none" font-family="Arial" font-size="13px" font-style="normal" font-weight="normal" text-decoration="none" x="387" y="296">7 : SendEventToProcessor</text></g></g><g transform="translate(-14,-30) scale(1,1)"><rect fill="#ffffff" stroke="none" x="332" y="300" width="13" height="119"/></g><g transform="translate(-14,-30) scale(1,1)"><path fill="none" stroke="#000000" d="M 332 300 L 345 300 L 345 419 L 332 419 L 332 300 Z Z" stroke-miterlimit="10"/></g></g></svg>