<svg version="1.1" xmlns="http://www.w3.org/2000/svg" xmlns:xlink="http://www.w3.org/1999/xlink" width="1038.41357421875" height="319"><defs/><g><g transform="translate(-22,-30) scale(1,1)"><rect fill="#C0C0C0" stroke="none" x="39" y="47" width="195.24267578125" height="39" opacity="0.2"/></g><g transform="translate(-22,-30) scale(1,1)"><rect fill="#ffffff" stroke="none" x="32" y="40" width="195.24267578125" height="39"/></g><g transform="translate(-22,-30) scale(1,1)"><path fill="none" stroke="#000000" d="M 32 40 L 227.24267578125 40 L 227.24267578125 79 L 32 79 L 32 40 Z Z" stroke-miterlimit="10"/></g><g transform="translate(-22,-30) scale(1,1)"><g><path fill="none" stroke="none"/><text fill="#000000" stroke="none" font-family="Arial" font-size="13px" font-style="normal" font-weight="bold" text-decoration="none" x="111.197265625" y="59.5">view_:</text><text fill="#000000" stroke="none" font-family="Arial" font-size="13px" font-style="normal" font-weight="bold" text-decoration="none" x="46.88916015625" y="72.5">RenderWidgetHostViewAura</text></g></g><g transform="translate(-22,-30) scale(1,1)"><path fill="none" stroke="#000000" d="M 130.5 80 L 130.5 328" stroke-miterlimit="10" stroke-dasharray="3"/></g><g transform="translate(-22,-30) scale(1,1)"><rect fill="#C0C0C0" stroke="none" x="255" y="47" width="162.7236328125" height="39" opacity="0.2"/></g><g transform="translate(-22,-30) scale(1,1)"><rect fill="#ffffff" stroke="none" x="248" y="40" width="162.7236328125" height="39"/></g><g transform="translate(-22,-30) scale(1,1)"><path fill="none" stroke="#000000" d="M 248 40 L 410.7236328125 40 L 410.7236328125 79 L 248 79 L 248 40 Z Z" stroke-miterlimit="10"/></g><g transform="translate(-22,-30) scale(1,1)"><g><path fill="none" stroke="none"/><text fill="#000000" stroke="none" font-family="Arial" font-size="13px" font-style="normal" font-weight="bold" text-decoration="none" x="295.03369140625" y="59.5">target_host:</text><text fill="#000000" stroke="none" font-family="Arial" font-size="13px" font-style="normal" font-weight="bold" text-decoration="none" x="262.168701171875" y="72.5">RenderWidgetHostImpl</text></g></g><g transform="translate(-22,-30) scale(1,1)"><path fill="none" stroke="#000000" d="M 330.5 80 L 330.5 328" stroke-miterlimit="10" stroke-dasharray="3"/></g><g transform="translate(-22,-30) scale(1,1)"><rect fill="#C0C0C0" stroke="none" x="455" y="47" width="119.37548828125" height="39" opacity="0.2"/></g><g transform="translate(-22,-30) scale(1,1)"><rect fill="#ffffff" stroke="none" x="448" y="40" width="119.37548828125" height="39"/></g><g transform="translate(-22,-30) scale(1,1)"><path fill="none" stroke="#000000" d="M 448 40 L 567.37548828125 40 L 567.37548828125 79 L 448 79 L 448 40 Z Z" stroke-miterlimit="10"/></g><g transform="translate(-22,-30) scale(1,1)"><g><path fill="none" stroke="none"/><text fill="#000000" stroke="none" font-family="Arial" font-size="13px" font-style="normal" font-weight="bold" text-decoration="none" x="467.576904296875" y="59.5">input_router_:</text><text fill="#000000" stroke="none" font-family="Arial" font-size="13px" font-style="normal" font-weight="bold" text-decoration="none" x="461.44189453125" y="72.5">InputRouterImpl</text></g></g><g transform="translate(-22,-30) scale(1,1)"><path fill="none" stroke="#000000" d="M 508.5 80 L 508.5 328" stroke-miterlimit="10" stroke-dasharray="3"/></g><g transform="translate(-22,-30) scale(1,1)"><rect fill="#C0C0C0" stroke="none" x="615" y="47" width="126.66259765625" height="39" opacity="0.2"/></g><g transform="translate(-22,-30) scale(1,1)"><rect fill="#ffffff" stroke="none" x="608" y="40" width="126.66259765625" height="39"/></g><g transform="translate(-22,-30) scale(1,1)"><path fill="none" stroke="#000000" d="M 608 40 L 734.66259765625 40 L 734.66259765625 79 L 608 79 L 608 40 Z Z" stroke-miterlimit="10"/></g><g transform="translate(-22,-30) scale(1,1)"><g><path fill="none" stroke="none"/><text fill="#000000" stroke="none" font-family="Arial" font-size="13px" font-style="normal" font-weight="bold" text-decoration="none" x="646.035888671875" y="59.5">sender_:</text><text fill="#000000" stroke="none" font-family="Arial" font-size="13px" font-style="normal" font-weight="bold" text-decoration="none" x="620.385009765625" y="72.5">SafeSenderProxy</text></g></g><g transform="translate(-22,-30) scale(1,1)"><path fill="none" stroke="#000000" d="M 672.5 80 L 672.5 336" stroke-miterlimit="10" stroke-dasharray="3"/></g><g transform="translate(-22,-30) scale(1,1)"><rect fill="#C0C0C0" stroke="none" x="759" y="47" width="169.99169921875" height="39" opacity="0.2"/></g><g transform="translate(-22,-30) scale(1,1)"><rect fill="#ffffff" stroke="none" x="752" y="40" width="169.99169921875" height="39"/></g><g transform="translate(-22,-30) scale(1,1)"><path fill="none" stroke="#000000" d="M 752 40 L 921.99169921875 40 L 921.99169921875 79 L 752 79 L 752 40 Z Z" stroke-miterlimit="10"/></g><g transform="translate(-22,-30) scale(1,1)"><g><path fill="none" stroke="none"/><text fill="#000000" stroke="none" font-family="Arial" font-size="13px" font-style="normal" font-weight="bold" text-decoration="none" x="808.8154296875" y="59.5">process_:</text><text fill="#000000" stroke="none" font-family="Arial" font-size="13px" font-style="normal" font-weight="bold" text-decoration="none" x="766.552734375" y="72.5">RenderProcessHostImpl</text></g></g><g transform="translate(-22,-30) scale(1,1)"><path fill="none" stroke="#000000" d="M 837.5 80 L 837.5 339" stroke-miterlimit="10" stroke-dasharray="3"/></g><g transform="translate(-22,-30) scale(1,1)"><rect fill="#C0C0C0" stroke="none" x="951" y="47" width="106.41357421875" height="39" opacity="0.2"/></g><g transform="translate(-22,-30) scale(1,1)"><rect fill="#ffffff" stroke="none" x="944" y="40" width="106.41357421875" height="39"/></g><g transform="translate(-22,-30) scale(1,1)"><path fill="none" stroke="#000000" d="M 944 40 L 1050.41357421875 40 L 1050.41357421875 79 L 944 79 L 944 40 Z Z" stroke-miterlimit="10"/></g><g transform="translate(-22,-30) scale(1,1)"><g><path fill="none" stroke="none"/><text fill="#000000" stroke="none" font-family="Arial" font-size="13px" font-style="normal" font-weight="bold" text-decoration="none" x="969.016845703125" y="59.5">channel_:</text><text fill="#000000" stroke="none" font-family="Arial" font-size="13px" font-style="normal" font-weight="bold" text-decoration="none" x="956.378662109375" y="72.5">ChannelProxy</text></g></g><g transform="translate(-22,-30) scale(1,1)"><path fill="none" stroke="#000000" d="M 998.5 80 L 998.5 339" stroke-miterlimit="10" stroke-dasharray="3"/></g><g transform="translate(-22,-30) scale(1,1)"><path fill="none" stroke="#000000" d="M 130 104 L 323 104" stroke-miterlimit="10"/></g><g transform="translate(-22,-30) scale(1,1)"><path fill="#000000" stroke="none" d="M 312.83732514237585 108.20951775601598 L 323 104 L 312.83732514237585 99.79048224398402"/></g><g transform="translate(-22,-30) scale(1,1)"><path fill="none" stroke="#000000" d="M 312.83732514237585 108.20951775601598 L 323 104 L 312.83732514237585 99.79048224398402 L 312.83732514237585 108.20951775601598" stroke-miterlimit="10"/></g><g transform="translate(-22,-30) scale(1,1)"><g><path fill="none" stroke="none"/><text fill="#000000" stroke="none" font-family="Arial" font-size="13px" font-style="normal" font-weight="normal" text-decoration="none" x="149" y="101">1 : ForwardKeyboardEvent</text></g></g><g transform="translate(-22,-30) scale(1,1)"><rect fill="#ffffff" stroke="none" x="323" y="104" width="13" height="28"/></g><g transform="translate(-22,-30) scale(1,1)"><path fill="none" stroke="#000000" d="M 323 104 L 336 104 L 336 132 L 323 132 L 323 104 Z Z" stroke-miterlimit="10"/></g><g transform="translate(-22,-30) scale(1,1)"><path fill="none" stroke="#000000" d="M 336 128 L 501 128" stroke-miterlimit="10"/></g><g transform="translate(-22,-30) scale(1,1)"><path fill="none" stroke="#000000" d="M 490.83732514237585 132.209517756016 L 501 128 L 490.83732514237585 123.79048224398402" stroke-miterlimit="10"/></g><g transform="translate(-22,-30) scale(1,1)"><g><path fill="none" stroke="none"/><text fill="#000000" stroke="none" font-family="Arial" font-size="13px" font-style="normal" font-weight="normal" text-decoration="none" x="350" y="125">2 : SendKeyboardEvent</text></g></g><g transform="translate(-22,-30) scale(1,1)"><rect fill="#ffffff" stroke="none" x="501" y="128" width="13" height="156"/></g><g transform="translate(-22,-30) scale(1,1)"><path fill="none" stroke="#000000" d="M 501 128 L 514 128 L 514 284 L 501 284 L 501 128 Z Z" stroke-miterlimit="10"/></g><g transform="translate(-22,-30) scale(1,1)"><path fill="none" stroke="#000000" d="M 514 136 L 544 136 L 544 156 L 521 156" stroke-miterlimit="10"/></g><g transform="translate(-22,-30) scale(1,1)"><path fill="#000000" stroke="none" d="M 531.1626748576241 151.790482243984 L 521 156 L 531.1626748576241 160.209517756016"/></g><g transform="translate(-22,-30) scale(1,1)"><path fill="none" stroke="#000000" d="M 531.1626748576241 151.790482243984 L 521 156 L 531.1626748576241 160.209517756016 L 531.1626748576241 151.790482243984" stroke-miterlimit="10"/></g><g transform="translate(-22,-30) scale(1,1)"><g><path fill="none" stroke="none"/><text fill="#000000" stroke="none" font-family="Arial" font-size="13px" font-style="normal" font-weight="normal" text-decoration="none" x="472" y="152">3 : FilterAndSendWebInputEvent</text></g></g><g transform="translate(-22,-30) scale(1,1)"><rect fill="#ffffff" stroke="none" x="508" y="156" width="13" height="125"/></g><g transform="translate(-22,-30) scale(1,1)"><path fill="none" stroke="#000000" d="M 508 156 L 521 156 L 521 281 L 508 281 L 508 156 Z Z" stroke-miterlimit="10"/></g><g transform="translate(-22,-30) scale(1,1)"><path fill="none" stroke="#000000" d="M 521 168 L 551 168 L 551 188 L 528 188" stroke-miterlimit="10"/></g><g transform="translate(-22,-30) scale(1,1)"><path fill="#000000" stroke="none" d="M 538.1626748576241 183.790482243984 L 528 188 L 538.1626748576241 192.209517756016"/></g><g transform="translate(-22,-30) scale(1,1)"><path fill="none" stroke="#000000" d="M 538.1626748576241 183.790482243984 L 528 188 L 538.1626748576241 192.209517756016 L 538.1626748576241 183.790482243984" stroke-miterlimit="10"/></g><g transform="translate(-22,-30) scale(1,1)"><g><path fill="none" stroke="none"/><text fill="#000000" stroke="none" font-family="Arial" font-size="13px" font-style="normal" font-weight="normal" text-decoration="none" x="535" y="181">4 : OfferToHandlers</text></g></g><g transform="translate(-22,-30) scale(1,1)"><rect fill="#ffffff" stroke="none" x="515" y="188" width="13" height="90"/></g><g transform="translate(-22,-30) scale(1,1)"><path fill="none" stroke="#000000" d="M 515 188 L 528 188 L 528 278 L 515 278 L 515 188 Z Z" stroke-miterlimit="10"/></g><g transform="translate(-22,-30) scale(1,1)"><path fill="none" stroke="#000000" d="M 528 200 L 558 200 L 558 220 L 535 220" stroke-miterlimit="10"/></g><g transform="translate(-22,-30) scale(1,1)"><path fill="#000000" stroke="none" d="M 545.1626748576241 215.790482243984 L 535 220 L 545.1626748576241 224.209517756016"/></g><g transform="translate(-22,-30) scale(1,1)"><path fill="none" stroke="#000000" d="M 545.1626748576241 215.790482243984 L 535 220 L 545.1626748576241 224.209517756016 L 545.1626748576241 215.790482243984" stroke-miterlimit="10"/></g><g transform="translate(-22,-30) scale(1,1)"><g><path fill="none" stroke="none"/><text fill="#000000" stroke="none" font-family="Arial" font-size="13px" font-style="normal" font-weight="normal" text-decoration="none" x="535" y="216">5 : OfferToRenderer</text></g></g><g transform="translate(-22,-30) scale(1,1)"><rect fill="#ffffff" stroke="none" x="522" y="220" width="13" height="55"/></g><g transform="translate(-22,-30) scale(1,1)"><path fill="none" stroke="#000000" d="M 522 220 L 535 220 L 535 275 L 522 275 L 522 220 Z Z" stroke-miterlimit="10"/></g><g transform="translate(-22,-30) scale(1,1)"><path fill="none" stroke="#000000" d="M 535 224 L 565 224 L 565 244 L 542 244" stroke-miterlimit="10"/></g><g transform="translate(-22,-30) scale(1,1)"><path fill="#000000" stroke="none" d="M 552.1626748576241 239.790482243984 L 542 244 L 552.1626748576241 248.209517756016"/></g><g transform="translate(-22,-30) scale(1,1)"><path fill="none" stroke="#000000" d="M 552.1626748576241 239.790482243984 L 542 244 L 552.1626748576241 248.209517756016 L 552.1626748576241 239.790482243984" stroke-miterlimit="10"/></g><g transform="translate(-22,-30) scale(1,1)"><g><path fill="none" stroke="none"/><text fill="#000000" stroke="none" font-family="Arial" font-size="13px" font-style="normal" font-weight="normal" text-decoration="none" x="550" y="240">6 : Send</text></g></g><g transform="translate(-22,-30) scale(1,1)"><rect fill="#ffffff" stroke="none" x="529" y="244" width="13" height="28"/></g><g transform="translate(-22,-30) scale(1,1)"><path fill="none" stroke="#000000" d="M 529 244 L 542 244 L 542 272 L 529 272 L 529 244 Z Z" stroke-miterlimit="10"/></g><g transform="translate(-22,-30) scale(1,1)"><path fill="none" stroke="#000000" d="M 542 264 L 665 264" stroke-miterlimit="10"/></g><g transform="translate(-22,-30) scale(1,1)"><path fill="none" stroke="#000000" d="M 654.8373251423759 268.209517756016 L 665 264 L 654.8373251423758 259.790482243984" stroke-miterlimit="10"/></g><g transform="translate(-22,-30) scale(1,1)"><g><path fill="none" stroke="none"/><text fill="#000000" stroke="none" font-family="Arial" font-size="13px" font-style="normal" font-weight="normal" text-decoration="none" x="579" y="261">7 : Send</text></g></g><g transform="translate(-22,-30) scale(1,1)"><rect fill="#ffffff" stroke="none" x="665" y="264" width="13" height="28"/></g><g transform="translate(-22,-30) scale(1,1)"><path fill="none" stroke="#000000" d="M 665 264 L 678 264 L 678 292 L 665 292 L 665 264 Z Z" stroke-miterlimit="10"/></g><g transform="translate(-22,-30) scale(1,1)"><path fill="none" stroke="#000000" d="M 678 280 L 830 280" stroke-miterlimit="10"/></g><g transform="translate(-22,-30) scale(1,1)"><path fill="none" stroke="#000000" d="M 819.8373251423759 284.209517756016 L 830 280 L 819.8373251423758 275.790482243984" stroke-miterlimit="10"/></g><g transform="translate(-22,-30) scale(1,1)"><g><path fill="none" stroke="none"/><text fill="#000000" stroke="none" font-family="Arial" font-size="13px" font-style="normal" font-weight="normal" text-decoration="none" x="718" y="277">8 : SendImpl</text></g></g><g transform="translate(-22,-30) scale(1,1)"><rect fill="#ffffff" stroke="none" x="830" y="280" width="13" height="28"/></g><g transform="translate(-22,-30) scale(1,1)"><path fill="none" stroke="#000000" d="M 830 280 L 843 280 L 843 308 L 830 308 L 830 280 Z Z" stroke-miterlimit="10"/></g><g transform="translate(-22,-30) scale(1,1)"><path fill="none" stroke="#000000" d="M 843 297 L 998 297" stroke-miterlimit="10"/></g><g transform="translate(-22,-30) scale(1,1)"><path fill="none" stroke="#000000" d="M 987.8373251423759 301.209517756016 L 998 297 L 987.8373251423758 292.790482243984" stroke-miterlimit="10"/></g><g transform="translate(-22,-30) scale(1,1)"><g><path fill="none" stroke="none"/><text fill="#000000" stroke="none" font-family="Arial" font-size="13px" font-style="normal" font-weight="normal" text-decoration="none" x="856" y="294">9 : SendOnIPCThread</text></g></g></g></svg>