<svg version="1.1" xmlns="http://www.w3.org/2000/svg" xmlns:xlink="http://www.w3.org/1999/xlink" width="1150.7236328125" height="510"><defs/><g><g transform="translate(-14,-30) scale(1,1)"><rect fill="#C0C0C0" stroke="none" x="191" y="47" width="171.4072265625" height="39" opacity="0.2"/></g><g transform="translate(-14,-30) scale(1,1)"><rect fill="#ffffff" stroke="none" x="184" y="40" width="171.4072265625" height="39"/></g><g transform="translate(-14,-30) scale(1,1)"><path fill="none" stroke="#000000" d="M 184 40 L 355.4072265625 40 L 355.4072265625 79 L 184 79 L 184 40 Z Z" stroke-miterlimit="10"/></g><g transform="translate(-14,-30) scale(1,1)"><g><path fill="none" stroke="none"/><text fill="#000000" stroke="none" font-family="Arial" font-size="13px" font-style="normal" font-weight="bold" text-decoration="none" x="234.293212890625" y="59.5">dispatcher_:</text><text fill="#000000" stroke="none" font-family="Arial" font-size="13px" font-style="normal" font-weight="bold" text-decoration="none" x="198.8955078125" y="72.5">WindowEventDispatcher</text></g></g><g transform="translate(-14,-30) scale(1,1)"><path fill="none" stroke="#000000" d="M 270.5 80 L 270.5 528" stroke-miterlimit="10" stroke-dasharray="3"/></g><g transform="translate(-14,-30) scale(1,1)"><rect fill="#C0C0C0" stroke="none" x="383" y="47" width="131.6455078125" height="39" opacity="0.2"/></g><g transform="translate(-14,-30) scale(1,1)"><rect fill="#ffffff" stroke="none" x="376" y="40" width="131.6455078125" height="39"/></g><g transform="translate(-14,-30) scale(1,1)"><path fill="none" stroke="#000000" d="M 376 40 L 507.6455078125 40 L 507.6455078125 79 L 376 79 L 376 40 Z Z" stroke-miterlimit="10"/></g><g transform="translate(-14,-30) scale(1,1)"><g><path fill="none" stroke="none"/><text fill="#000000" stroke="none" font-family="Arial" font-size="13px" font-style="normal" font-weight="bold" text-decoration="none" x="389.800537109375" y="59.5">window_: Window</text></g></g><g transform="translate(-14,-30) scale(1,1)"><path fill="none" stroke="#000000" d="M 442.5 80 L 442.5 528" stroke-miterlimit="10" stroke-dasharray="3"/></g><g transform="translate(-14,-30) scale(1,1)"><rect fill="#C0C0C0" stroke="none" x="527" y="47" width="120.83544921875" height="39" opacity="0.2"/></g><g transform="translate(-14,-30) scale(1,1)"><rect fill="#ffffff" stroke="none" x="520" y="40" width="120.83544921875" height="39"/></g><g transform="translate(-14,-30) scale(1,1)"><path fill="none" stroke="#000000" d="M 520 40 L 640.83544921875 40 L 640.83544921875 79 L 520 79 L 520 40 Z Z" stroke-miterlimit="10"/></g><g transform="translate(-14,-30) scale(1,1)"><g><path fill="none" stroke="none"/><text fill="#000000" stroke="none" font-family="Arial" font-size="13px" font-style="normal" font-weight="bold" text-decoration="none" x="556.2109375" y="59.5">targeter:</text><text fill="#000000" stroke="none" font-family="Arial" font-size="13px" font-style="normal" font-weight="bold" text-decoration="none" x="532.734130859375" y="72.5">WindowTargeter</text></g></g><g transform="translate(-14,-30) scale(1,1)"><path fill="none" stroke="#000000" d="M 581.5 80 L 581.5 528" stroke-miterlimit="10" stroke-dasharray="3"/></g><g transform="translate(-14,-30) scale(1,1)"><rect fill="#C0C0C0" stroke="none" x="655" y="47" width="121.5908203125" height="39" opacity="0.2"/></g><g transform="translate(-14,-30) scale(1,1)"><rect fill="#ffffff" stroke="none" x="648" y="40" width="121.5908203125" height="39"/></g><g transform="translate(-14,-30) scale(1,1)"><path fill="none" stroke="#000000" d="M 648 40 L 769.5908203125 40 L 769.5908203125 79 L 648 79 L 648 40 Z Z" stroke-miterlimit="10"/></g><g transform="translate(-14,-30) scale(1,1)"><g><path fill="none" stroke="none"/><text fill="#000000" stroke="none" font-family="Arial" font-size="13px" font-style="normal" font-weight="bold" text-decoration="none" x="677" y="59.5">dispatcher:</text><text fill="#000000" stroke="none" font-family="Arial" font-size="13px" font-style="normal" font-weight="bold" text-decoration="none" x="661.10546875" y="72.5">EventDispatcher</text></g></g><g transform="translate(-14,-30) scale(1,1)"><path fill="none" stroke="#000000" d="M 709.5 80 L 709.5 526" stroke-miterlimit="10" stroke-dasharray="3"/></g><g transform="translate(-14,-30) scale(1,1)"><rect fill="#C0C0C0" stroke="none" x="783" y="47" width="195.24267578125" height="39" opacity="0.2"/></g><g transform="translate(-14,-30) scale(1,1)"><rect fill="#ffffff" stroke="none" x="776" y="40" width="195.24267578125" height="39"/></g><g transform="translate(-14,-30) scale(1,1)"><path fill="none" stroke="#000000" d="M 776 40 L 971.24267578125 40 L 971.24267578125 79 L 776 79 L 776 40 Z Z" stroke-miterlimit="10"/></g><g transform="translate(-14,-30) scale(1,1)"><g><path fill="none" stroke="none"/><text fill="#000000" stroke="none" font-family="Arial" font-size="13px" font-style="normal" font-weight="bold" text-decoration="none" x="850.1318359375" y="59.5">handler:</text><text fill="#000000" stroke="none" font-family="Arial" font-size="13px" font-style="normal" font-weight="bold" text-decoration="none" x="790.88916015625" y="72.5">RenderWidgetHostViewAura</text></g></g><g transform="translate(-14,-30) scale(1,1)"><path fill="none" stroke="#000000" d="M 874.5 80 L 874.5 530" stroke-miterlimit="10" stroke-dasharray="3"/></g><g transform="translate(-14,-30) scale(1,1)"><rect fill="#C0C0C0" stroke="none" x="31" y="47" width="125.16455078125" height="39" opacity="0.2"/></g><g transform="translate(-14,-30) scale(1,1)"><rect fill="#ffffff" stroke="none" x="24" y="40" width="125.16455078125" height="39"/></g><g transform="translate(-14,-30) scale(1,1)"><path fill="none" stroke="#000000" d="M 24 40 L 149.16455078125 40 L 149.16455078125 79 L 24 79 L 24 40 Z Z" stroke-miterlimit="10"/></g><g transform="translate(-14,-30) scale(1,1)"><g><path fill="none" stroke="none"/><text fill="#000000" stroke="none" font-family="Arial" font-size="13px" font-style="normal" font-weight="bold" text-decoration="none" x="68.87548828125" y="59.5">host_:</text><text fill="#000000" stroke="none" font-family="Arial" font-size="13px" font-style="normal" font-weight="bold" text-decoration="none" x="36.734130859375" y="72.5">WindowTreeHost</text></g></g><g transform="translate(-14,-30) scale(1,1)"><path fill="none" stroke="#000000" d="M 87.5 80 L 87.5 528" stroke-miterlimit="10" stroke-dasharray="3"/></g><g transform="translate(-14,-30) scale(1,1)"><path fill="#ffffff" stroke="none" d="M 96 144 L 239.103515625 144 L 249.103515625 154 L 249.103515625 245 L 96 245 L 96 144"/></g><g transform="translate(-14,-30) scale(1,1)"><path fill="none" stroke="#000000" d="M 96 144 L 239.103515625 144 L 249.103515625 154 L 249.103515625 245 L 96 245 L 96 144 L 96 144" stroke-miterlimit="10"/></g><g transform="translate(-14,-30) scale(1,1)"><path fill="none" stroke="#000000" d="M 239.103515625 144 L 239.103515625 154 L 249.103515625 154 L 239.103515625 144" stroke-miterlimit="10"/></g><g transform="translate(-14,-30) scale(1,1)"><g><path fill="none" stroke="none"/><text fill="#000000" stroke="none" font-family="Arial" font-size="13px" font-style="normal" font-weight="normal" text-decoration="none" x="101" y="162">在OnEventFromSource</text><text fill="#000000" stroke="none" font-family="Arial" font-size="13px" font-style="normal" font-weight="normal" text-decoration="none" x="101" y="175">方法中调用</text><text fill="#000000" stroke="none" font-family="Arial" font-size="13px" font-style="normal" font-weight="normal" text-decoration="none" x="101" y="188">FindTargetForEvent</text><text fill="#000000" stroke="none" font-family="Arial" font-size="13px" font-style="normal" font-weight="normal" text-decoration="none" x="101" y="201">方法来查找决定事件</text><text fill="#000000" stroke="none" font-family="Arial" font-size="13px" font-style="normal" font-weight="normal" text-decoration="none" x="101" y="214">由哪个window处理，</text><text fill="#000000" stroke="none" font-family="Arial" font-size="13px" font-style="normal" font-weight="normal" text-decoration="none" x="101" y="227">一个事件可以由多个</text><text fill="#000000" stroke="none" font-family="Arial" font-size="13px" font-style="normal" font-weight="normal" text-decoration="none" x="101" y="240">window处理</text></g></g><g transform="translate(-14,-30) scale(1,1)"><rect fill="#C0C0C0" stroke="none" x="999" y="47" width="162.7236328125" height="39" opacity="0.2"/></g><g transform="translate(-14,-30) scale(1,1)"><rect fill="#ffffff" stroke="none" x="992" y="40" width="162.7236328125" height="39"/></g><g transform="translate(-14,-30) scale(1,1)"><path fill="none" stroke="#000000" d="M 992 40 L 1154.7236328125 40 L 1154.7236328125 79 L 992 79 L 992 40 Z Z" stroke-miterlimit="10"/></g><g transform="translate(-14,-30) scale(1,1)"><g><path fill="none" stroke="none"/><text fill="#000000" stroke="none" font-family="Arial" font-size="13px" font-style="normal" font-weight="bold" text-decoration="none" x="1039.03369140625" y="59.5">target_host:</text><text fill="#000000" stroke="none" font-family="Arial" font-size="13px" font-style="normal" font-weight="bold" text-decoration="none" x="1006.168701171875" y="72.5">RenderWidgetHostImpl</text></g></g><g transform="translate(-14,-30) scale(1,1)"><path fill="none" stroke="#000000" d="M 1074.5 80 L 1074.5 530" stroke-miterlimit="10" stroke-dasharray="3"/></g><g transform="translate(-14,-30) scale(1,1)"><path fill="#ffffff" stroke="none" d="M 880 312 L 1040.470703125 312 L 1050.470703125 322 L 1050.470703125 393 L 880 393 L 880 312"/></g><g transform="translate(-14,-30) scale(1,1)"><path fill="none" stroke="#000000" d="M 880 312 L 1040.470703125 312 L 1050.470703125 322 L 1050.470703125 393 L 880 393 L 880 312 L 880 312" stroke-miterlimit="10"/></g><g transform="translate(-14,-30) scale(1,1)"><path fill="none" stroke="#000000" d="M 1040.470703125 312 L 1040.470703125 322 L 1050.470703125 322 L 1040.470703125 312" stroke-miterlimit="10"/></g><g transform="translate(-14,-30) scale(1,1)"><g><path fill="none" stroke="none"/><text fill="#000000" stroke="none" font-family="Arial" font-size="13px" font-style="normal" font-weight="normal" text-decoration="none" x="885" y="330">在OnKeyEvent方法中</text></g></g><g transform="translate(-14,-30) scale(1,1)"><g><path fill="none" stroke="none"/><text fill="#000000" stroke="none" font-family="Arial" font-size="13px" font-style="normal" font-weight="normal" text-decoration="none" x="885" y="345">完成由ui::event到</text></g></g><g transform="translate(-14,-30) scale(1,1)"><g><path fill="none" stroke="none"/><text fill="#000000" stroke="none" font-family="Arial" font-size="13px" font-style="normal" font-weight="normal" text-decoration="none" x="885" y="360"> NativeWebKeyboardEvent</text></g></g><g transform="translate(-14,-30) scale(1,1)"><g><path fill="none" stroke="none"/><text fill="#000000" stroke="none" font-family="Arial" font-size="13px" font-style="normal" font-weight="normal" text-decoration="none" x="885" y="375">的转换</text></g></g><g transform="translate(-14,-30) scale(1,1)"><path fill="none" stroke="#000000" d="M 702 336 L 448 336" stroke-miterlimit="10"/></g><g transform="translate(-14,-30) scale(1,1)"><path fill="none" stroke="#000000" d="M 458.16267485762415 331.790482243984 L 448 336 L 458.16267485762415 340.209517756016" stroke-miterlimit="10"/></g><g transform="translate(-14,-30) scale(1,1)"><g><path fill="none" stroke="none"/><text fill="#000000" stroke="none" font-family="Arial" font-size="13px" font-style="normal" font-weight="normal" text-decoration="none" x="524" y="353">9 : target_handler</text></g></g><g transform="translate(-14,-30) scale(1,1)"><rect fill="#ffffff" stroke="none" x="435" y="336" width="13" height="28"/></g><g transform="translate(-14,-30) scale(1,1)"><path fill="none" stroke="#000000" d="M 435 336 L 448 336 L 448 364 L 435 364 L 435 336 Z Z" stroke-miterlimit="10"/></g><g transform="translate(-14,-30) scale(1,1)"><path fill="none" stroke="#000000" d="M 715 368 L 745 368 L 745 388 L 722 388" stroke-miterlimit="10"/></g><g transform="translate(-14,-30) scale(1,1)"><path fill="#000000" stroke="none" d="M 732.1626748576241 383.790482243984 L 722 388 L 732.1626748576241 392.209517756016"/></g><g transform="translate(-14,-30) scale(1,1)"><path fill="none" stroke="#000000" d="M 732.1626748576241 383.790482243984 L 722 388 L 732.1626748576241 392.209517756016 L 732.1626748576241 383.790482243984" stroke-miterlimit="10"/></g><g transform="translate(-14,-30) scale(1,1)"><g><path fill="none" stroke="none"/><text fill="#000000" stroke="none" font-family="Arial" font-size="13px" font-style="normal" font-weight="normal" text-decoration="none" x="732" y="384">10 : DispatchEvent</text></g></g><g transform="translate(-14,-30) scale(1,1)"><rect fill="#ffffff" stroke="none" x="709" y="388" width="13" height="28"/></g><g transform="translate(-14,-30) scale(1,1)"><path fill="none" stroke="#000000" d="M 709 388 L 722 388 L 722 416 L 709 416 L 709 388 Z Z" stroke-miterlimit="10"/></g><g transform="translate(-14,-30) scale(1,1)"><path fill="none" stroke="#000000" d="M 880 416 L 910 416 L 910 436 L 887 436" stroke-miterlimit="10"/></g><g transform="translate(-14,-30) scale(1,1)"><path fill="#000000" stroke="none" d="M 897.1626748576241 431.790482243984 L 887 436 L 897.1626748576241 440.209517756016"/></g><g transform="translate(-14,-30) scale(1,1)"><path fill="none" stroke="#000000" d="M 897.1626748576241 431.790482243984 L 887 436 L 897.1626748576241 440.209517756016 L 897.1626748576241 431.790482243984" stroke-miterlimit="10"/></g><g transform="translate(-14,-30) scale(1,1)"><g><path fill="none" stroke="none"/><text fill="#000000" stroke="none" font-family="Arial" font-size="13px" font-style="normal" font-weight="normal" text-decoration="none" x="911" y="432">11 : OnKeyEvent</text></g></g><g transform="translate(-14,-30) scale(1,1)"><rect fill="#ffffff" stroke="none" x="874" y="436" width="13" height="63"/></g><g transform="translate(-14,-30) scale(1,1)"><path fill="none" stroke="#000000" d="M 874 436 L 887 436 L 887 499 L 874 499 L 874 436 Z Z" stroke-miterlimit="10"/></g><g transform="translate(-14,-30) scale(1,1)"><path fill="none" stroke="#000000" d="M 722 408 L 867 408" stroke-miterlimit="10"/></g><g transform="translate(-14,-30) scale(1,1)"><path fill="none" stroke="#000000" d="M 856.8373251423759 412.209517756016 L 867 408 L 856.8373251423758 403.790482243984" stroke-miterlimit="10"/></g><g transform="translate(-14,-30) scale(1,1)"><g><path fill="none" stroke="none"/><text fill="#000000" stroke="none" font-family="Arial" font-size="13px" font-style="normal" font-weight="normal" text-decoration="none" x="757" y="405">12 : OnEvent</text></g></g><g transform="translate(-14,-30) scale(1,1)"><rect fill="#ffffff" stroke="none" x="867" y="408" width="13" height="96"/></g><g transform="translate(-14,-30) scale(1,1)"><path fill="none" stroke="#000000" d="M 867 408 L 880 408 L 880 504 L 867 504 L 867 408 Z Z" stroke-miterlimit="10"/></g><g transform="translate(-14,-30) scale(1,1)"><path fill="none" stroke="#000000" d="M 894 488 L 1067 488" stroke-miterlimit="10"/></g><g transform="translate(-14,-30) scale(1,1)"><path fill="none" stroke="#000000" d="M 1056.837325142376 492.209517756016 L 1067 488 L 1056.837325142376 483.790482243984" stroke-miterlimit="10"/></g><g transform="translate(-14,-30) scale(1,1)"><g><path fill="none" stroke="none"/><text fill="#000000" stroke="none" font-family="Arial" font-size="13px" font-style="normal" font-weight="normal" text-decoration="none" x="900" y="485">13 : ForwardKeyboardEvent</text></g></g><g transform="translate(-14,-30) scale(1,1)"><rect fill="#ffffff" stroke="none" x="1067" y="488" width="13" height="28"/></g><g transform="translate(-14,-30) scale(1,1)"><path fill="none" stroke="#000000" d="M 1067 488 L 1080 488 L 1080 516 L 1067 516 L 1067 488 Z Z" stroke-miterlimit="10"/></g><g transform="translate(-14,-30) scale(1,1)"><path fill="none" stroke="#000000" d="M 887 448 L 917 448 L 917 468 L 894 468" stroke-miterlimit="10"/></g><g transform="translate(-14,-30) scale(1,1)"><path fill="#000000" stroke="none" d="M 904.1626748576241 463.790482243984 L 894 468 L 904.1626748576241 472.209517756016"/></g><g transform="translate(-14,-30) scale(1,1)"><path fill="none" stroke="#000000" d="M 904.1626748576241 463.790482243984 L 894 468 L 904.1626748576241 472.209517756016 L 904.1626748576241 463.790482243984" stroke-miterlimit="10"/></g><g transform="translate(-14,-30) scale(1,1)"><g><path fill="none" stroke="none"/><text fill="#000000" stroke="none" font-family="Arial" font-size="13px" font-style="normal" font-weight="normal" text-decoration="none" x="896" y="464">14 : ForwardKeyboardEvent</text></g></g><g transform="translate(-14,-30) scale(1,1)"><rect fill="#ffffff" stroke="none" x="881" y="468" width="13" height="28"/></g><g transform="translate(-14,-30) scale(1,1)"><path fill="none" stroke="#000000" d="M 881 468 L 894 468 L 894 496 L 881 496 L 881 468 Z Z" stroke-miterlimit="10"/></g><g transform="translate(-14,-30) scale(1,1)"><path fill="none" stroke="#000000" d="M 87 104 L 263 104" stroke-miterlimit="10"/></g><g transform="translate(-14,-30) scale(1,1)"><path fill="none" stroke="#000000" d="M 252.83732514237585 108.20951775601598 L 263 104 L 252.83732514237585 99.79048224398402" stroke-miterlimit="10"/></g><g transform="translate(-14,-30) scale(1,1)"><g><path fill="none" stroke="none"/><text fill="#000000" stroke="none" font-family="Arial" font-size="13px" font-style="normal" font-weight="normal" text-decoration="none" x="105" y="101">1 : OnEventFromSource</text></g></g><g transform="translate(-14,-30) scale(1,1)"><rect fill="#ffffff" stroke="none" x="263" y="104" width="13" height="264"/></g><g transform="translate(-14,-30) scale(1,1)"><path fill="none" stroke="#000000" d="M 263 104 L 276 104 L 276 368 L 263 368 L 263 104 Z Z" stroke-miterlimit="10"/></g><g transform="translate(-14,-30) scale(1,1)"><path fill="none" stroke="#000000" d="M 276 120 L 306 120 L 306 140 L 283 140" stroke-miterlimit="10"/></g><g transform="translate(-14,-30) scale(1,1)"><path fill="#000000" stroke="none" d="M 293.16267485762415 135.790482243984 L 283 140 L 293.16267485762415 144.209517756016"/></g><g transform="translate(-14,-30) scale(1,1)"><path fill="none" stroke="#000000" d="M 293.16267485762415 135.790482243984 L 283 140 L 293.16267485762415 144.209517756016 L 293.16267485762415 135.790482243984" stroke-miterlimit="10"/></g><g transform="translate(-14,-30) scale(1,1)"><g><path fill="none" stroke="none"/><text fill="#000000" stroke="none" font-family="Arial" font-size="13px" font-style="normal" font-weight="normal" text-decoration="none" x="311" y="136">2 : GetRootTarget</text></g></g><g transform="translate(-14,-30) scale(1,1)"><rect fill="#ffffff" stroke="none" x="270" y="140" width="13" height="28"/></g><g transform="translate(-14,-30) scale(1,1)"><path fill="none" stroke="#000000" d="M 270 140 L 283 140 L 283 168 L 270 168 L 270 140 Z Z" stroke-miterlimit="10"/></g><g transform="translate(-14,-30) scale(1,1)"><path fill="none" stroke="#000000" d="M 276 176 L 435 176" stroke-miterlimit="10"/></g><g transform="translate(-14,-30) scale(1,1)"><path fill="none" stroke="#000000" d="M 424.83732514237585 180.209517756016 L 435 176 L 424.83732514237585 171.790482243984" stroke-miterlimit="10"/></g><g transform="translate(-14,-30) scale(1,1)"><g><path fill="none" stroke="none"/><text fill="#000000" stroke="none" font-family="Arial" font-size="13px" font-style="normal" font-weight="normal" text-decoration="none" x="295" y="173">3 : GetEventTargeter</text></g></g><g transform="translate(-14,-30) scale(1,1)"><rect fill="#ffffff" stroke="none" x="435" y="176" width="13" height="28"/></g><g transform="translate(-14,-30) scale(1,1)"><path fill="none" stroke="#000000" d="M 435 176 L 448 176 L 448 204 L 435 204 L 435 176 Z Z" stroke-miterlimit="10"/></g><g transform="translate(-14,-30) scale(1,1)"><path fill="none" stroke="#000000" d="M 276 224 L 574 224" stroke-miterlimit="10"/></g><g transform="translate(-14,-30) scale(1,1)"><path fill="none" stroke="#000000" d="M 563.8373251423759 228.209517756016 L 574 224 L 563.8373251423758 219.790482243984" stroke-miterlimit="10"/></g><g transform="translate(-14,-30) scale(1,1)"><g><path fill="none" stroke="none"/><text fill="#000000" stroke="none" font-family="Arial" font-size="13px" font-style="normal" font-weight="normal" text-decoration="none" x="359" y="221">4 : FindTargetForEvent</text></g></g><g transform="translate(-14,-30) scale(1,1)"><rect fill="#ffffff" stroke="none" x="574" y="224" width="13" height="28"/></g><g transform="translate(-14,-30) scale(1,1)"><path fill="none" stroke="#000000" d="M 574 224 L 587 224 L 587 252 L 574 252 L 574 224 Z Z" stroke-miterlimit="10"/></g><g transform="translate(-14,-30) scale(1,1)"><path fill="none" stroke="#000000" d="M 276 248 L 306 248 L 306 268 L 283 268" stroke-miterlimit="10"/></g><g transform="translate(-14,-30) scale(1,1)"><path fill="#000000" stroke="none" d="M 293.16267485762415 263.790482243984 L 283 268 L 293.16267485762415 272.209517756016"/></g><g transform="translate(-14,-30) scale(1,1)"><path fill="none" stroke="#000000" d="M 293.16267485762415 263.790482243984 L 283 268 L 293.16267485762415 272.209517756016 L 293.16267485762415 263.790482243984" stroke-miterlimit="10"/></g><g transform="translate(-14,-30) scale(1,1)"><g><path fill="none" stroke="none"/><text fill="#000000" stroke="none" font-family="Arial" font-size="13px" font-style="normal" font-weight="normal" text-decoration="none" x="312" y="264">5 : DispatchEvent</text></g></g><g transform="translate(-14,-30) scale(1,1)"><rect fill="#ffffff" stroke="none" x="270" y="268" width="13" height="84"/></g><g transform="translate(-14,-30) scale(1,1)"><path fill="none" stroke="#000000" d="M 270 268 L 283 268 L 283 352 L 270 352 L 270 268 Z Z" stroke-miterlimit="10"/></g><g transform="translate(-14,-30) scale(1,1)"><path fill="none" stroke="#000000" d="M 283 288 L 313 288 L 313 308 L 290 308" stroke-miterlimit="10"/></g><g transform="translate(-14,-30) scale(1,1)"><path fill="#000000" stroke="none" d="M 300.16267485762415 303.790482243984 L 290 308 L 300.16267485762415 312.209517756016"/></g><g transform="translate(-14,-30) scale(1,1)"><path fill="none" stroke="#000000" d="M 300.16267485762415 303.790482243984 L 290 308 L 300.16267485762415 312.209517756016 L 300.16267485762415 303.790482243984" stroke-miterlimit="10"/></g><g transform="translate(-14,-30) scale(1,1)"><g><path fill="none" stroke="none"/><text fill="#000000" stroke="none" font-family="Arial" font-size="13px" font-style="normal" font-weight="normal" text-decoration="none" x="279" y="301">6 : DispatchEventToTarget</text></g></g><g transform="translate(-14,-30) scale(1,1)"><rect fill="#ffffff" stroke="none" x="277" y="308" width="13" height="28"/></g><g transform="translate(-14,-30) scale(1,1)"><path fill="none" stroke="#000000" d="M 277 308 L 290 308 L 290 336 L 277 336 L 277 308 Z Z" stroke-miterlimit="10"/></g><g transform="translate(-14,-30) scale(1,1)"><path fill="none" stroke="#000000" d="M 290 323 L 702 323" stroke-miterlimit="10"/></g><g transform="translate(-14,-30) scale(1,1)"><path fill="none" stroke="#000000" d="M 691.8373251423759 327.209517756016 L 702 323 L 691.8373251423758 318.790482243984" stroke-miterlimit="10"/></g><g transform="translate(-14,-30) scale(1,1)"><g><path fill="none" stroke="none"/><text fill="#000000" stroke="none" font-family="Arial" font-size="13px" font-style="normal" font-weight="normal" text-decoration="none" x="447" y="320">7 : ProcessEvent</text></g></g><g transform="translate(-14,-30) scale(1,1)"><rect fill="#ffffff" stroke="none" x="702" y="323" width="13" height="96"/></g><g transform="translate(-14,-30) scale(1,1)"><path fill="none" stroke="#000000" d="M 702 323 L 715 323 L 715 419 L 702 419 L 702 323 Z Z" stroke-miterlimit="10"/></g></g></svg>