<svg version="1.1" xmlns="http://www.w3.org/2000/svg" xmlns:xlink="http://www.w3.org/1999/xlink" width="834.32080078125" height="238"><defs/><g><g transform="translate(-54,-30) scale(1,1)"><rect fill="#C0C0C0" stroke="none" x="71" y="47" width="71.736328125" height="39" opacity="0.2"/></g><g transform="translate(-54,-30) scale(1,1)"><rect fill="#ffffff" stroke="none" x="64" y="40" width="71.736328125" height="39"/></g><g transform="translate(-54,-30) scale(1,1)"><path fill="none" stroke="#000000" d="M 64 40 L 135.736328125 40 L 135.736328125 79 L 64 79 L 64 40 Z Z" stroke-miterlimit="10"/></g><g transform="translate(-54,-30) scale(1,1)"><g><path fill="none" stroke="none"/><text fill="#000000" stroke="none" font-family="Arial" font-size="13px" font-style="normal" font-weight="bold" text-decoration="none" x="89.75" y="59.5">glib</text></g></g><g transform="translate(-54,-30) scale(1,1)"><path fill="none" stroke="#000000" d="M 100.5 80 L 100.5 256" stroke-miterlimit="10" stroke-dasharray="3"/></g><g transform="translate(-54,-30) scale(1,1)"><rect fill="#C0C0C0" stroke="none" x="199" y="47" width="115.80810546875" height="39" opacity="0.2"/></g><g transform="translate(-54,-30) scale(1,1)"><rect fill="#ffffff" stroke="none" x="192" y="40" width="115.80810546875" height="39"/></g><g transform="translate(-54,-30) scale(1,1)"><path fill="none" stroke="#000000" d="M 192 40 L 307.80810546875 40 L 307.80810546875 79 L 192 79 L 192 40 Z Z" stroke-miterlimit="10"/></g><g transform="translate(-54,-30) scale(1,1)"><g><path fill="none" stroke="none"/><text fill="#000000" stroke="none" font-family="Arial" font-size="13px" font-style="normal" font-weight="bold" text-decoration="none" x="207.990478515625" y="59.5">glib_x_source:</text><text fill="#000000" stroke="none" font-family="Arial" font-size="13px" font-style="normal" font-weight="bold" text-decoration="none" x="204.013671875" y="72.5">GLibX11Source</text></g></g><g transform="translate(-54,-30) scale(1,1)"><path fill="none" stroke="#000000" d="M 250.5 80 L 250.5 256" stroke-miterlimit="10" stroke-dasharray="3"/></g><g transform="translate(-54,-30) scale(1,1)"><rect fill="#C0C0C0" stroke="none" x="367" y="47" width="121.603515625" height="39" opacity="0.2"/></g><g transform="translate(-54,-30) scale(1,1)"><rect fill="#ffffff" stroke="none" x="360" y="40" width="121.603515625" height="39"/></g><g transform="translate(-54,-30) scale(1,1)"><path fill="none" stroke="#000000" d="M 360 40 L 481.603515625 40 L 481.603515625 79 L 360 79 L 360 40 Z Z" stroke-miterlimit="10"/></g><g transform="translate(-54,-30) scale(1,1)"><g><path fill="none" stroke="none"/><text fill="#000000" stroke="none" font-family="Arial" font-size="13px" font-style="normal" font-weight="bold" text-decoration="none" x="385.391357421875" y="59.5">x11_source:</text><text fill="#000000" stroke="none" font-family="Arial" font-size="13px" font-style="normal" font-weight="bold" text-decoration="none" x="372.02001953125" y="72.5">X11EventSource</text></g></g><g transform="translate(-54,-30) scale(1,1)"><path fill="none" stroke="#000000" d="M 421.5 80 L 421.5 256" stroke-miterlimit="10" stroke-dasharray="3"/></g><g transform="translate(-54,-30) scale(1,1)"><rect fill="#C0C0C0" stroke="none" x="535" y="47" width="146.8798828125" height="39" opacity="0.2"/></g><g transform="translate(-54,-30) scale(1,1)"><rect fill="#ffffff" stroke="none" x="528" y="40" width="146.8798828125" height="39"/></g><g transform="translate(-54,-30) scale(1,1)"><path fill="none" stroke="#000000" d="M 528 40 L 674.8798828125 40 L 674.8798828125 79 L 528 79 L 528 40 Z Z" stroke-miterlimit="10"/></g><g transform="translate(-54,-30) scale(1,1)"><g><path fill="none" stroke="none"/><text fill="#000000" stroke="none" font-family="Arial" font-size="13px" font-style="normal" font-weight="bold" text-decoration="none" x="571.0791015625" y="59.5">delegate_:</text><text fill="#000000" stroke="none" font-family="Arial" font-size="13px" font-style="normal" font-weight="bold" text-decoration="none" x="541.09912109375" y="72.5">X11EventSourceGlib</text></g></g><g transform="translate(-54,-30) scale(1,1)"><path fill="none" stroke="#000000" d="M 602.5 80 L 602.5 258" stroke-miterlimit="10" stroke-dasharray="3"/></g><g transform="translate(-54,-30) scale(1,1)"><rect fill="#C0C0C0" stroke="none" x="711" y="47" width="174.32080078125" height="39" opacity="0.2"/></g><g transform="translate(-54,-30) scale(1,1)"><rect fill="#ffffff" stroke="none" x="704" y="40" width="174.32080078125" height="39"/></g><g transform="translate(-54,-30) scale(1,1)"><path fill="none" stroke="#000000" d="M 704 40 L 878.32080078125 40 L 878.32080078125 79 L 704 79 L 704 40 Z Z" stroke-miterlimit="10"/></g><g transform="translate(-54,-30) scale(1,1)"><g><path fill="none" stroke="none"/><text fill="#000000" stroke="none" font-family="Arial" font-size="13px" font-style="normal" font-weight="bold" text-decoration="none" x="759.364990234375" y="59.5">dispatcher:</text><text fill="#000000" stroke="none" font-family="Arial" font-size="13px" font-style="normal" font-weight="bold" text-decoration="none" x="719.27001953125" y="72.5">PlatformEventDispatcher</text></g></g><g transform="translate(-54,-30) scale(1,1)"><path fill="none" stroke="#000000" d="M 792.5 80 L 792.5 258" stroke-miterlimit="10" stroke-dasharray="3"/></g><g transform="translate(-54,-30) scale(1,1)"><path fill="none" stroke="#000000" d="M 100 112 L 243 112" stroke-miterlimit="10"/></g><g transform="translate(-54,-30) scale(1,1)"><path fill="none" stroke="#000000" d="M 232.83732514237585 116.20951775601598 L 243 112 L 232.83732514237585 107.79048224398402" stroke-miterlimit="10"/></g><g transform="translate(-54,-30) scale(1,1)"><g><path fill="none" stroke="none"/><text fill="#000000" stroke="none" font-family="Arial" font-size="13px" font-style="normal" font-weight="normal" text-decoration="none" x="112" y="109">1 : XSourceDispatch</text></g></g><g transform="translate(-54,-30) scale(1,1)"><rect fill="#ffffff" stroke="none" x="243" y="112" width="13" height="28"/></g><g transform="translate(-54,-30) scale(1,1)"><path fill="none" stroke="#000000" d="M 243 112 L 256 112 L 256 140 L 243 140 L 243 112 Z Z" stroke-miterlimit="10"/></g><g transform="translate(-54,-30) scale(1,1)"><path fill="none" stroke="#000000" d="M 256 122 L 414 122" stroke-miterlimit="10"/></g><g transform="translate(-54,-30) scale(1,1)"><path fill="none" stroke="#000000" d="M 403.83732514237585 126.20951775601598 L 414 122 L 403.83732514237585 117.79048224398402" stroke-miterlimit="10"/></g><g transform="translate(-54,-30) scale(1,1)"><g><path fill="none" stroke="none"/><text fill="#000000" stroke="none" font-family="Arial" font-size="13px" font-style="normal" font-weight="normal" text-decoration="none" x="277" y="119">2 : DispatchXEvents</text></g></g><g transform="translate(-54,-30) scale(1,1)"><rect fill="#ffffff" stroke="none" x="414" y="122" width="13" height="94"/></g><g transform="translate(-54,-30) scale(1,1)"><path fill="none" stroke="#000000" d="M 414 122 L 427 122 L 427 216 L 414 216 L 414 122 Z Z" stroke-miterlimit="10"/></g><g transform="translate(-54,-30) scale(1,1)"><path fill="none" stroke="#000000" d="M 427 128 L 457 128 L 457 148 L 434 148" stroke-miterlimit="10"/></g><g transform="translate(-54,-30) scale(1,1)"><path fill="#000000" stroke="none" d="M 444.16267485762415 143.790482243984 L 434 148 L 444.16267485762415 152.209517756016"/></g><g transform="translate(-54,-30) scale(1,1)"><path fill="none" stroke="#000000" d="M 444.16267485762415 143.790482243984 L 434 148 L 444.16267485762415 152.209517756016 L 444.16267485762415 143.790482243984" stroke-miterlimit="10"/></g><g transform="translate(-54,-30) scale(1,1)"><g><path fill="none" stroke="none"/><text fill="#000000" stroke="none" font-family="Arial" font-size="13px" font-style="normal" font-weight="normal" text-decoration="none" x="361" y="144">3 : ExtractCookieDataDispatchEvent</text></g></g><g transform="translate(-54,-30) scale(1,1)"><rect fill="#ffffff" stroke="none" x="421" y="148" width="13" height="44"/></g><g transform="translate(-54,-30) scale(1,1)"><path fill="none" stroke="#000000" d="M 421 148 L 434 148 L 434 192 L 421 192 L 421 148 Z Z" stroke-miterlimit="10"/></g><g transform="translate(-54,-30) scale(1,1)"><path fill="none" stroke="#000000" d="M 434 168 L 595 168" stroke-miterlimit="10"/></g><g transform="translate(-54,-30) scale(1,1)"><path fill="#000000" stroke="none" d="M 584.8373251423759 172.209517756016 L 595 168 L 584.8373251423758 163.790482243984"/></g><g transform="translate(-54,-30) scale(1,1)"><path fill="none" stroke="#000000" d="M 584.8373251423759 172.209517756016 L 595 168 L 584.8373251423758 163.790482243984 L 584.8373251423759 172.209517756016" stroke-miterlimit="10"/></g><g transform="translate(-54,-30) scale(1,1)"><g><path fill="none" stroke="none"/><text fill="#000000" stroke="none" font-family="Arial" font-size="13px" font-style="normal" font-weight="normal" text-decoration="none" x="461" y="165">4 : ProcessXEvent</text></g></g><g transform="translate(-54,-30) scale(1,1)"><rect fill="#ffffff" stroke="none" x="595" y="168" width="13" height="64"/></g><g transform="translate(-54,-30) scale(1,1)"><path fill="none" stroke="#000000" d="M 595 168 L 608 168 L 608 232 L 595 232 L 595 168 Z Z" stroke-miterlimit="10"/></g><g transform="translate(-54,-30) scale(1,1)"><path fill="none" stroke="#000000" d="M 608 176 L 638 176 L 638 196 L 615 196" stroke-miterlimit="10"/></g><g transform="translate(-54,-30) scale(1,1)"><path fill="#000000" stroke="none" d="M 625.1626748576241 191.790482243984 L 615 196 L 625.1626748576241 200.209517756016"/></g><g transform="translate(-54,-30) scale(1,1)"><path fill="none" stroke="#000000" d="M 625.1626748576241 191.790482243984 L 615 196 L 625.1626748576241 200.209517756016 L 625.1626748576241 191.790482243984" stroke-miterlimit="10"/></g><g transform="translate(-54,-30) scale(1,1)"><g><path fill="none" stroke="none"/><text fill="#000000" stroke="none" font-family="Arial" font-size="13px" font-style="normal" font-weight="normal" text-decoration="none" x="640" y="192">5 : DispatchEvent</text></g></g><g transform="translate(-54,-30) scale(1,1)"><rect fill="#ffffff" stroke="none" x="602" y="196" width="13" height="28"/></g><g transform="translate(-54,-30) scale(1,1)"><path fill="none" stroke="#000000" d="M 602 196 L 615 196 L 615 224 L 602 224 L 602 196 Z Z" stroke-miterlimit="10"/></g><g transform="translate(-54,-30) scale(1,1)"><path fill="none" stroke="#000000" d="M 615 216 L 785 216" stroke-miterlimit="10"/></g><g transform="translate(-54,-30) scale(1,1)"><path fill="none" stroke="#000000" d="M 774.8373251423759 220.209517756016 L 785 216 L 774.8373251423758 211.790482243984" stroke-miterlimit="10"/></g><g transform="translate(-54,-30) scale(1,1)"><g><path fill="none" stroke="none"/><text fill="#000000" stroke="none" font-family="Arial" font-size="13px" font-style="normal" font-weight="normal" text-decoration="none" x="650" y="213">6 : DispatchEvent</text></g></g><g transform="translate(-54,-30) scale(1,1)"><rect fill="#ffffff" stroke="none" x="785" y="216" width="13" height="28"/></g><g transform="translate(-54,-30) scale(1,1)"><path fill="none" stroke="#000000" d="M 785 216 L 798 216 L 798 244 L 785 244 L 785 216 Z Z" stroke-miterlimit="10"/></g></g></svg>