<svg version="1.1" xmlns="http://www.w3.org/2000/svg" xmlns:xlink="http://www.w3.org/1999/xlink" width="1325" height="562"><defs/><g><g transform="translate(-126,-156) scale(1,1)"><rect fill="#C0C0C0" stroke="none" x="583" y="173" width="483.34765625" height="175" opacity="0.2"/></g><g transform="translate(-126,-156) scale(1,1)"><rect fill="#ffffff" stroke="none" x="576" y="166" width="483.34765625" height="175"/></g><g transform="translate(-126,-156) scale(1,1)"><path fill="none" stroke="#000000" d="M 576 166 L 1059.34765625 166 L 1059.34765625 341 L 576 341 L 576 166 Z Z" stroke-miterlimit="10"/></g><g transform="translate(-126,-156) scale(1,1)"><path fill="none" stroke="#000000" d="M 576 206 L 1059.34765625 206" stroke-miterlimit="10"/></g><g transform="translate(-126,-156) scale(1,1)"><path fill="none" stroke="#000000" d="M 576 244 L 1059.34765625 244" stroke-miterlimit="10"/></g><g transform="translate(-126,-156) scale(1,1)"><g><path fill="none" stroke="none"/><text fill="#000000" stroke="none" font-family="Arial" font-size="13px" font-style="normal" font-weight="bold" text-decoration="none" x="756.257080078125" y="185.5">PlatformEventSource</text></g></g><g transform="translate(-126,-156) scale(1,1)"><g><path fill="none" stroke="none"/><text fill="#000000" stroke="none" font-family="Arial" font-size="13px" font-style="normal" font-weight="normal" text-decoration="none" x="793.479736328125" y="200.5">(from ui)</text></g></g><g transform="translate(-126,-156) scale(1,1)"><g><path fill="none" stroke="none"/><text fill="#000000" stroke="none" font-family="Arial" font-size="13px" font-style="normal" font-weight="normal" text-decoration="none" x="581" y="223.5">+dispatchers_: PlatformEventDispatcherList</text></g></g><g transform="translate(-126,-156) scale(1,1)"><g><path fill="none" stroke="none"/><text fill="#000000" stroke="none" font-family="Arial" font-size="13px" font-style="normal" font-weight="normal" text-decoration="none" x="581" y="238.5">+observers_: ObserverList&lt;PlatformEventObserver&gt;</text></g></g><g transform="translate(-126,-156) scale(1,1)"><g><path fill="none" stroke="none"/><text fill="#000000" stroke="none" font-family="Arial" font-size="13px" font-style="normal" font-weight="normal" text-decoration="none" x="581" y="261.5">+CreateDefault(): scoped_ptr&lt;PlatformEventSource&gt;</text><path fill="none" stroke="#000000" d="M 581 261.5 L 887.0205078125 261.5" stroke-miterlimit="10"/></g></g><g transform="translate(-126,-156) scale(1,1)"><g><path fill="none" stroke="none"/><text fill="#000000" stroke="none" font-family="Arial" font-size="13px" font-style="normal" font-weight="normal" text-decoration="none" x="581" y="276.5">+AddPlatformEventDispatcher(dispatcher: PlatformEventDispatcher*): void</text></g></g><g transform="translate(-126,-156) scale(1,1)"><g><path fill="none" stroke="none"/><text fill="#000000" stroke="none" font-family="Arial" font-size="13px" font-style="normal" font-weight="normal" text-decoration="none" x="581" y="291.5">+RemovePlatformEventDispatcher(dispatcher: PlatformEventDispatcher*): void</text></g></g><g transform="translate(-126,-156) scale(1,1)"><g><path fill="none" stroke="none"/><text fill="#000000" stroke="none" font-family="Arial" font-size="13px" font-style="normal" font-weight="normal" text-decoration="none" x="581" y="306.5">+AddPlatformEventObserver(observer: PlatformEventObserver*): void</text></g></g><g transform="translate(-126,-156) scale(1,1)"><g><path fill="none" stroke="none"/><text fill="#000000" stroke="none" font-family="Arial" font-size="13px" font-style="normal" font-weight="normal" text-decoration="none" x="581" y="321.5">+RemovePlatformEventObserver(observer: PlatformEventObserver*): void</text></g></g><g transform="translate(-126,-156) scale(1,1)"><g><path fill="none" stroke="none"/><text fill="#000000" stroke="none" font-family="Arial" font-size="13px" font-style="normal" font-weight="normal" text-decoration="none" x="581" y="336.5">#DispatchEvent(platform_event: PlatformEvent): uint32_t</text></g></g><g transform="translate(-126,-156) scale(1,1)"><rect fill="#C0C0C0" stroke="none" x="239" y="447" width="337.05322265625" height="87" opacity="0.2"/></g><g transform="translate(-126,-156) scale(1,1)"><rect fill="#ffffff" stroke="none" x="232" y="440" width="337.05322265625" height="87"/></g><g transform="translate(-126,-156) scale(1,1)"><path fill="none" stroke="#000000" d="M 232 440 L 569.05322265625 440 L 569.05322265625 527 L 232 527 L 232 440 Z Z" stroke-miterlimit="10"/></g><g transform="translate(-126,-156) scale(1,1)"><path fill="none" stroke="#000000" d="M 232 480 L 569.05322265625 480" stroke-miterlimit="10"/></g><g transform="translate(-126,-156) scale(1,1)"><path fill="none" stroke="#000000" d="M 232 490 L 569.05322265625 490" stroke-miterlimit="10"/></g><g transform="translate(-126,-156) scale(1,1)"><g><path fill="none" stroke="none"/><text fill="#000000" stroke="none" font-family="Arial" font-size="13px" font-style="normal" font-weight="bold" text-decoration="none" x="351.744873046875" y="459.5">X11EventSource</text></g></g><g transform="translate(-126,-156) scale(1,1)"><g><path fill="none" stroke="none"/><text fill="#000000" stroke="none" font-family="Arial" font-size="13px" font-style="normal" font-weight="normal" text-decoration="none" x="376.33251953125" y="474.5">(from ui)</text></g></g><g transform="translate(-126,-156) scale(1,1)"><g><path fill="none" stroke="none"/><text fill="#000000" stroke="none" font-family="Arial" font-size="13px" font-style="normal" font-weight="normal" text-decoration="none" x="237" y="507.5">+DispatchXEvents(): void</text></g></g><g transform="translate(-126,-156) scale(1,1)"><g><path fill="none" stroke="none"/><text fill="#000000" stroke="none" font-family="Arial" font-size="13px" font-style="normal" font-weight="normal" text-decoration="none" x="237" y="522.5">#DispatchEvent(platform_event: PlatformEvent): uint32_t</text></g></g><g transform="translate(-126,-156) scale(1,1)"><rect fill="#C0C0C0" stroke="none" x="679" y="615" width="237.693359375" height="100" opacity="0.2"/></g><g transform="translate(-126,-156) scale(1,1)"><rect fill="#ffffff" stroke="none" x="672" y="608" width="237.693359375" height="100"/></g><g transform="translate(-126,-156) scale(1,1)"><path fill="none" stroke="#000000" d="M 672 608 L 909.693359375 608 L 909.693359375 708 L 672 708 L 672 608 Z Z" stroke-miterlimit="10"/></g><g transform="translate(-126,-156) scale(1,1)"><path fill="none" stroke="#000000" d="M 672 648 L 909.693359375 648" stroke-miterlimit="10"/></g><g transform="translate(-126,-156) scale(1,1)"><path fill="none" stroke="#000000" d="M 672 671 L 909.693359375 671" stroke-miterlimit="10"/></g><g transform="translate(-126,-156) scale(1,1)"><g><path fill="none" stroke="none"/><text fill="#000000" stroke="none" font-family="Arial" font-size="13px" font-style="normal" font-weight="bold" text-decoration="none" x="730.505859375" y="627.5">X11EventSourceGlib</text></g></g><g transform="translate(-126,-156) scale(1,1)"><g><path fill="none" stroke="none"/><text fill="#000000" stroke="none" font-family="Arial" font-size="13px" font-style="normal" font-weight="normal" text-decoration="none" x="766.652587890625" y="642.5">(from ui)</text></g></g><g transform="translate(-126,-156) scale(1,1)"><g><path fill="none" stroke="none"/><text fill="#000000" stroke="none" font-family="Arial" font-size="13px" font-style="normal" font-weight="normal" text-decoration="none" x="677" y="665.5">-event_source_: X11EventSource</text></g></g><g transform="translate(-126,-156) scale(1,1)"><g><path fill="none" stroke="none"/><text fill="#000000" stroke="none" font-family="Arial" font-size="13px" font-style="normal" font-weight="normal" text-decoration="none" x="677" y="688.5">+ProcessXEvent(xevent: XEvent*): void</text></g></g><g transform="translate(-126,-156) scale(1,1)"><g><path fill="none" stroke="none"/><text fill="#000000" stroke="none" font-family="Arial" font-size="13px" font-style="normal" font-weight="normal" text-decoration="none" x="677" y="703.5">-InitXSource(fd: int)</text></g></g><g transform="translate(-126,-156) scale(1,1)"><path fill="#C0C0C0" stroke="none" d="M 296.935302734375 208.5 C 296.935302734375 202.1487248 302.084027534375 197 308.435302734375 197 C 314.786577934375 197 319.935302734375 202.1487248 319.935302734375 208.5 C 319.935302734375 214.8512752 314.786577934375 220 308.435302734375 220 C 302.084027534375 220 296.935302734375 214.8512752 296.935302734375 208.5 Z" opacity="0.2"/></g><g transform="translate(-126,-156) scale(1,1)"><path fill="#ffffff" stroke="none" d="M 289.935302734375 201.5 C 289.935302734375 195.1487248 295.084027534375 190 301.435302734375 190 C 307.786577934375 190 312.935302734375 195.1487248 312.935302734375 201.5 C 312.935302734375 207.8512752 307.786577934375 213 301.435302734375 213 C 295.084027534375 213 289.935302734375 207.8512752 289.935302734375 201.5 Z"/></g><g transform="translate(-126,-156) scale(1,1)"><path fill="none" stroke="#000000" d="M 289.935302734375 201.5 C 289.935302734375 195.1487248 295.084027534375 190 301.435302734375 190 C 307.786577934375 190 312.935302734375 195.1487248 312.935302734375 201.5 C 312.935302734375 207.8512752 307.786577934375 213 301.435302734375 213 C 295.084027534375 213 289.935302734375 207.8512752 289.935302734375 201.5 Z" stroke-miterlimit="10"/></g><g transform="translate(-126,-156) scale(1,1)"><path fill="none" stroke="#000000" d="M 136 253 L 466.87060546875 253" stroke-miterlimit="10"/></g><g transform="translate(-126,-156) scale(1,1)"><path fill="none" stroke="#000000" d="M 136 291 L 466.87060546875 291" stroke-miterlimit="10"/></g><g transform="translate(-126,-156) scale(1,1)"><g><path fill="none" stroke="none"/><text fill="#000000" stroke="none" font-family="Arial" font-size="13px" font-style="normal" font-weight="bold" text-decoration="none" x="233.883544921875" y="232.5">PlatformEventObserver</text></g></g><g transform="translate(-126,-156) scale(1,1)"><g><path fill="none" stroke="none"/><text fill="#000000" stroke="none" font-family="Arial" font-size="13px" font-style="normal" font-weight="normal" text-decoration="none" x="277.2412109375" y="247.5">(from ui)</text></g></g><g transform="translate(-126,-156) scale(1,1)"><g><path fill="none" stroke="none"/><text fill="#000000" stroke="none" font-family="Arial" font-size="13px" font-style="italic" font-weight="normal" text-decoration="none" x="141" y="270.5">+WillProcessEvent(event: PlatformEvent&amp;, : void)</text></g></g><g transform="translate(-126,-156) scale(1,1)"><g><path fill="none" stroke="none"/><text fill="#000000" stroke="none" font-family="Arial" font-size="13px" font-style="italic" font-weight="normal" text-decoration="none" x="141" y="285.5">+DidProcessEvent(event: PlatformEvent&amp;, : void)</text></g></g><g transform="translate(-126,-156) scale(1,1)"><path fill="#C0C0C0" stroke="none" d="M 1283 208.5 C 1283 199.3873008 1290.3873008 192 1299.5 192 C 1308.6126992 192 1316 199.3873008 1316 208.5 C 1316 217.6126992 1308.6126992 225 1299.5 225 C 1290.3873008 225 1283 217.6126992 1283 208.5 Z" opacity="0.2"/></g><g transform="translate(-126,-156) scale(1,1)"><path fill="#ffffff" stroke="none" d="M 1276 201.5 C 1276 192.3873008 1283.3873008 185 1292.5 185 C 1301.6126992 185 1309 192.3873008 1309 201.5 C 1309 210.6126992 1301.6126992 218 1292.5 218 C 1283.3873008 218 1276 210.6126992 1276 201.5 Z"/></g><g transform="translate(-126,-156) scale(1,1)"><path fill="none" stroke="#000000" d="M 1276 201.5 C 1276 192.3873008 1283.3873008 185 1292.5 185 C 1301.6126992 185 1309 192.3873008 1309 201.5 C 1309 210.6126992 1301.6126992 218 1292.5 218 C 1283.3873008 218 1276 210.6126992 1276 201.5 Z" stroke-miterlimit="10"/></g><g transform="translate(-126,-156) scale(1,1)"><path fill="none" stroke="#000000" d="M 1144 258 L 1441 258" stroke-miterlimit="10"/></g><g transform="translate(-126,-156) scale(1,1)"><path fill="none" stroke="#000000" d="M 1144 268 L 1441 268" stroke-miterlimit="10"/></g><g transform="translate(-126,-156) scale(1,1)"><g><path fill="none" stroke="none"/><text fill="#000000" stroke="none" font-family="Arial" font-size="13px" font-style="normal" font-weight="bold" text-decoration="none" x="1220.609619140625" y="237.5">PlatformEventDispatcher</text></g></g><g transform="translate(-126,-156) scale(1,1)"><g><path fill="none" stroke="none"/><text fill="#000000" stroke="none" font-family="Arial" font-size="13px" font-style="normal" font-weight="normal" text-decoration="none" x="1268.305908203125" y="252.5">(from ui)</text></g></g><g transform="translate(-126,-156) scale(1,1)"><g><path fill="none" stroke="none"/><text fill="#000000" stroke="none" font-family="Arial" font-size="13px" font-style="italic" font-weight="normal" text-decoration="none" x="1149" y="285.5">+CanDispatchEvent(event: PlatformEvent&amp;): bool</text></g></g><g transform="translate(-126,-156) scale(1,1)"><g><path fill="none" stroke="none"/><text fill="#000000" stroke="none" font-family="Arial" font-size="13px" font-style="italic" font-weight="normal" text-decoration="none" x="1149" y="300.5">+DispatchEvent(event: PlatformEvent&amp;): uint32_t</text></g></g><g transform="translate(-126,-156) scale(1,1)"><path fill="none" stroke="#000000" d="M 468 248 L 575 249" stroke-miterlimit="10"/></g><g transform="translate(-126,-156) scale(1,1)"><path fill="#000000" stroke="none" d="M 564.7984293675524 253.114359808182 L 575 249 L 564.8771085064359 244.69569194764966 L 553.0009607196669 248.79440150205298"/></g><g transform="translate(-126,-156) scale(1,1)"><path fill="none" stroke="#000000" d="M 564.7984293675524 253.114359808182 L 575 249 L 564.8771085064359 244.69569194764966 L 553.0009607196669 248.79440150205298 L 564.7984293675524 253.114359808182" stroke-miterlimit="10"/></g><g transform="translate(-126,-156) scale(1,1)"><g><path fill="none" stroke="none"/><text fill="#000000" stroke="none" font-family="Arial" font-size="13px" font-style="normal" font-weight="normal" text-decoration="none" x="544" y="268">0..*</text></g></g><g transform="translate(-126,-156) scale(1,1)"><path fill="none" stroke="#000000" d="M 1144 249 L 1059 249" stroke-miterlimit="10"/></g><g transform="translate(-126,-156) scale(1,1)"><path fill="#000000" stroke="none" d="M 1069.162674857624 244.790482243984 L 1059 249 L 1069.162674857624 253.209517756016 L 1081 249"/></g><g transform="translate(-126,-156) scale(1,1)"><path fill="none" stroke="#000000" d="M 1069.162674857624 244.790482243984 L 1059 249 L 1069.162674857624 253.209517756016 L 1081 249 L 1069.162674857624 244.790482243984" stroke-miterlimit="10"/></g><g transform="translate(-126,-156) scale(1,1)"><g><path fill="none" stroke="none"/><text fill="#000000" stroke="none" font-family="Arial" font-size="13px" font-style="normal" font-weight="normal" text-decoration="none" x="1071" y="243">0..*</text></g></g><g transform="translate(-126,-156) scale(1,1)"><path fill="none" stroke="#000000" d="M 910 656 L 976 656 L 976 341" stroke-miterlimit="10"/></g><g transform="translate(-126,-156) scale(1,1)"><path fill="#FFFFFF" stroke="none" d="M 984.419035512032 361.3253497152483 L 976 341 L 967.580964487968 361.3253497152483"/></g><g transform="translate(-126,-156) scale(1,1)"><path fill="none" stroke="#000000" d="M 984.419035512032 361.3253497152483 L 976 341 L 967.580964487968 361.3253497152483 L 984.419035512032 361.3253497152483" stroke-miterlimit="10"/></g><g transform="translate(-126,-156) scale(1,1)"><rect fill="#C0C0C0" stroke="none" x="663" y="455" width="281.76513671875" height="72" opacity="0.2"/></g><g transform="translate(-126,-156) scale(1,1)"><rect fill="#ffffff" stroke="none" x="656" y="448" width="281.76513671875" height="72"/></g><g transform="translate(-126,-156) scale(1,1)"><path fill="none" stroke="#000000" d="M 656 448 L 937.76513671875 448 L 937.76513671875 520 L 656 520 L 656 448 Z Z" stroke-miterlimit="10"/></g><g transform="translate(-126,-156) scale(1,1)"><path fill="none" stroke="#000000" d="M 656 488 L 937.76513671875 488" stroke-miterlimit="10"/></g><g transform="translate(-126,-156) scale(1,1)"><path fill="none" stroke="#000000" d="M 656 498 L 937.76513671875 498" stroke-miterlimit="10"/></g><g transform="translate(-126,-156) scale(1,1)"><g><path fill="none" stroke="none"/><text fill="#000000" stroke="none" font-family="Arial" font-size="13px" font-style="normal" font-weight="bold" text-decoration="none" x="722.081787109375" y="467.5">X11EventSourceDelegate</text></g></g><g transform="translate(-126,-156) scale(1,1)"><g><path fill="none" stroke="none"/><text fill="#000000" stroke="none" font-family="Arial" font-size="13px" font-style="normal" font-weight="normal" text-decoration="none" x="772.6884765625" y="482.5">(from ui)</text></g></g><g transform="translate(-126,-156) scale(1,1)"><g><path fill="none" stroke="none"/><text fill="#000000" stroke="none" font-family="Arial" font-size="13px" font-style="italic" font-weight="normal" text-decoration="none" x="661" y="515.5">+ProcessXEvent(xevent: XEvent*): void</text></g></g><g transform="translate(-126,-156) scale(1,1)"><path fill="none" stroke="#000000" d="M 800 608 L 800 520" stroke-miterlimit="10"/></g><g transform="translate(-126,-156) scale(1,1)"><path fill="#FFFFFF" stroke="none" d="M 808.419035512032 540.3253497152483 L 800 520 L 791.580964487968 540.3253497152483"/></g><g transform="translate(-126,-156) scale(1,1)"><path fill="none" stroke="#000000" d="M 808.419035512032 540.3253497152483 L 800 520 L 791.580964487968 540.3253497152483 L 808.419035512032 540.3253497152483" stroke-miterlimit="10"/></g><g transform="translate(-126,-156) scale(1,1)"><path fill="none" stroke="#000000" d="M 656 484 L 569 484" stroke-miterlimit="10"/></g><g transform="translate(-126,-156) scale(1,1)"><path fill="#000000" stroke="none" d="M 579.1626748576241 479.790482243984 L 569 484 L 579.1626748576241 488.209517756016 L 591 484"/></g><g transform="translate(-126,-156) scale(1,1)"><path fill="none" stroke="#000000" d="M 579.1626748576241 479.790482243984 L 569 484 L 579.1626748576241 488.209517756016 L 591 484 L 579.1626748576241 479.790482243984" stroke-miterlimit="10"/></g><g transform="translate(-126,-156) scale(1,1)"><g><path fill="none" stroke="none"/><text fill="#000000" stroke="none" font-family="Arial" font-size="13px" font-style="normal" font-weight="normal" text-decoration="none" x="587" y="478">1</text></g></g><g transform="translate(-126,-156) scale(1,1)"><path fill="none" stroke="#000000" d="M 400 527 L 400 658 L 672 658" stroke-miterlimit="10"/></g><g transform="translate(-126,-156) scale(1,1)"><path fill="none" stroke="#000000" d="M 661.8373251423759 662.209517756016 L 672 658 L 661.8373251423758 653.790482243984" stroke-miterlimit="10"/></g></g></svg>