<svg version="1.1" xmlns="http://www.w3.org/2000/svg" xmlns:xlink="http://www.w3.org/1999/xlink" width="1537.09912109375" height="532"><defs/><g><g transform="translate(-38,-30) scale(1,1)"><rect fill="#C0C0C0" stroke="none" x="55" y="47" width="187.2763671875" height="39" opacity="0.2"/></g><g transform="translate(-38,-30) scale(1,1)"><rect fill="#ffffff" stroke="none" x="48" y="40" width="187.2763671875" height="39"/></g><g transform="translate(-38,-30) scale(1,1)"><path fill="none" stroke="#000000" d="M 48 40 L 235.2763671875 40 L 235.2763671875 79 L 48 79 L 48 40 Z Z" stroke-miterlimit="10"/></g><g transform="translate(-38,-30) scale(1,1)"><g><path fill="none" stroke="none"/><text fill="#000000" stroke="none" font-family="Arial" font-size="13px" font-style="normal" font-weight="bold" text-decoration="none" x="96.82373046875" y="59.5">input_handler_:</text><text fill="#000000" stroke="none" font-family="Arial" font-size="13px" font-style="normal" font-weight="bold" text-decoration="none" x="62.8701171875" y="72.5">RenderWidgetInputHandler</text></g></g><g transform="translate(-38,-30) scale(1,1)"><path fill="none" stroke="#000000" d="M 142.5 80 L 142.5 544" stroke-miterlimit="10" stroke-dasharray="3"/></g><g transform="translate(-38,-30) scale(1,1)"><rect fill="#C0C0C0" stroke="none" x="255" y="47" width="102.7890625" height="39" opacity="0.2"/></g><g transform="translate(-38,-30) scale(1,1)"><rect fill="#ffffff" stroke="none" x="248" y="40" width="102.7890625" height="39"/></g><g transform="translate(-38,-30) scale(1,1)"><path fill="none" stroke="#000000" d="M 248 40 L 350.7890625 40 L 350.7890625 79 L 248 79 L 248 40 Z Z" stroke-miterlimit="10"/></g><g transform="translate(-38,-30) scale(1,1)"><g><path fill="none" stroke="none"/><text fill="#000000" stroke="none" font-family="Arial" font-size="13px" font-style="normal" font-weight="bold" text-decoration="none" x="263.260498046875" y="59.5">webwidget_:</text><text fill="#000000" stroke="none" font-family="Arial" font-size="13px" font-style="normal" font-weight="bold" text-decoration="none" x="259.661376953125" y="72.5">WebViewImpl</text></g></g><g transform="translate(-38,-30) scale(1,1)"><path fill="none" stroke="#000000" d="M 300.5 80 L 300.5 544" stroke-miterlimit="10" stroke-dasharray="3"/></g><g transform="translate(-38,-30) scale(1,1)"><rect fill="#C0C0C0" stroke="none" x="383" y="47" width="147.58447265625" height="39" opacity="0.2"/></g><g transform="translate(-38,-30) scale(1,1)"><rect fill="#ffffff" stroke="none" x="376" y="40" width="147.58447265625" height="39"/></g><g transform="translate(-38,-30) scale(1,1)"><path fill="none" stroke="#000000" d="M 376 40 L 523.58447265625 40 L 523.58447265625 79 L 376 79 L 376 40 Z Z" stroke-miterlimit="10"/></g><g transform="translate(-38,-30) scale(1,1)"><g><path fill="none" stroke="none"/><text fill="#000000" stroke="none" font-family="Arial" font-size="13px" font-style="normal" font-weight="bold" text-decoration="none" x="432.8154296875" y="59.5">static:</text><text fill="#000000" stroke="none" font-family="Arial" font-size="13px" font-style="normal" font-weight="bold" text-decoration="none" x="388.36279296875" y="72.5">PageWidgetDelegate</text></g></g><g transform="translate(-38,-30) scale(1,1)"><path fill="none" stroke="#000000" d="M 450.5 80 L 450.5 544" stroke-miterlimit="10" stroke-dasharray="3"/></g><g transform="translate(-38,-30) scale(1,1)"><rect fill="#C0C0C0" stroke="none" x="543" y="47" width="124.47900390625" height="39" opacity="0.2"/></g><g transform="translate(-38,-30) scale(1,1)"><rect fill="#ffffff" stroke="none" x="536" y="40" width="124.47900390625" height="39"/></g><g transform="translate(-38,-30) scale(1,1)"><path fill="none" stroke="#000000" d="M 536 40 L 660.47900390625 40 L 660.47900390625 79 L 536 79 L 536 40 Z Z" stroke-miterlimit="10"/></g><g transform="translate(-38,-30) scale(1,1)"><g><path fill="none" stroke="none"/><text fill="#000000" stroke="none" font-family="Arial" font-size="13px" font-style="normal" font-weight="bold" text-decoration="none" x="548.740478515625" y="59.5">m_eventHandler:</text><text fill="#000000" stroke="none" font-family="Arial" font-size="13px" font-style="normal" font-weight="bold" text-decoration="none" x="558.85546875" y="72.5">EventHandler</text></g></g><g transform="translate(-38,-30) scale(1,1)"><path fill="none" stroke="#000000" d="M 599.5 80 L 599.5 544" stroke-miterlimit="10" stroke-dasharray="3"/></g><g transform="translate(-38,-30) scale(1,1)"><rect fill="#C0C0C0" stroke="none" x="695" y="47" width="90.49365234375" height="39" opacity="0.2"/></g><g transform="translate(-38,-30) scale(1,1)"><rect fill="#ffffff" stroke="none" x="688" y="40" width="90.49365234375" height="39"/></g><g transform="translate(-38,-30) scale(1,1)"><path fill="none" stroke="#000000" d="M 688 40 L 778.49365234375 40 L 778.49365234375 79 L 688 79 L 688 40 Z Z" stroke-miterlimit="10"/></g><g transform="translate(-38,-30) scale(1,1)"><g><path fill="none" stroke="none"/><text fill="#000000" stroke="none" font-family="Arial" font-size="13px" font-style="normal" font-weight="bold" text-decoration="none" x="699.635986328125" y="59.5">node: Node</text></g></g><g transform="translate(-38,-30) scale(1,1)"><path fill="none" stroke="#000000" d="M 734.5 80 L 734.5 544" stroke-miterlimit="10" stroke-dasharray="3"/></g><g transform="translate(-38,-30) scale(1,1)"><rect fill="#C0C0C0" stroke="none" x="807" y="47" width="121.5908203125" height="39" opacity="0.2"/></g><g transform="translate(-38,-30) scale(1,1)"><rect fill="#ffffff" stroke="none" x="800" y="40" width="121.5908203125" height="39"/></g><g transform="translate(-38,-30) scale(1,1)"><path fill="none" stroke="#000000" d="M 800 40 L 921.5908203125 40 L 921.5908203125 79 L 800 79 L 800 40 Z Z" stroke-miterlimit="10"/></g><g transform="translate(-38,-30) scale(1,1)"><g><path fill="none" stroke="none"/><text fill="#000000" stroke="none" font-family="Arial" font-size="13px" font-style="normal" font-weight="bold" text-decoration="none" x="843.818603515625" y="59.5">static:</text><text fill="#000000" stroke="none" font-family="Arial" font-size="13px" font-style="normal" font-weight="bold" text-decoration="none" x="813.10546875" y="72.5">EventDispatcher</text></g></g><g transform="translate(-38,-30) scale(1,1)"><path fill="none" stroke="#000000" d="M 861.5 80 L 861.5 544" stroke-miterlimit="10" stroke-dasharray="3"/></g><g transform="translate(-38,-30) scale(1,1)"><rect fill="#C0C0C0" stroke="none" x="935" y="267" width="163.47265625" height="39" opacity="0.2"/></g><g transform="translate(-38,-30) scale(1,1)"><rect fill="#ffffff" stroke="none" x="928" y="260" width="163.47265625" height="39"/></g><g transform="translate(-38,-30) scale(1,1)"><path fill="none" stroke="#000000" d="M 928 260 L 1091.47265625 260 L 1091.47265625 299 L 928 299 L 928 260 Z Z" stroke-miterlimit="10"/></g><g transform="translate(-38,-30) scale(1,1)"><g><path fill="none" stroke="none"/><text fill="#000000" stroke="none" font-family="Arial" font-size="13px" font-style="normal" font-weight="bold" text-decoration="none" x="982.641357421875" y="279.5">mediator:</text><text fill="#000000" stroke="none" font-family="Arial" font-size="13px" font-style="normal" font-weight="bold" text-decoration="none" x="942.536865234375" y="292.5">EventDispatchMediator</text></g></g><g transform="translate(-38,-30) scale(1,1)"><path fill="none" stroke="#000000" d="M 1010.5 300 L 1010.5 542" stroke-miterlimit="10" stroke-dasharray="3"/></g><g transform="translate(-38,-30) scale(1,1)"><rect fill="#C0C0C0" stroke="none" x="1111" y="323" width="121.5908203125" height="39" opacity="0.2"/></g><g transform="translate(-38,-30) scale(1,1)"><rect fill="#ffffff" stroke="none" x="1104" y="316" width="121.5908203125" height="39"/></g><g transform="translate(-38,-30) scale(1,1)"><path fill="none" stroke="#000000" d="M 1104 316 L 1225.5908203125 316 L 1225.5908203125 355 L 1104 355 L 1104 316 Z Z" stroke-miterlimit="10"/></g><g transform="translate(-38,-30) scale(1,1)"><g><path fill="none" stroke="none"/><text fill="#000000" stroke="none" font-family="Arial" font-size="13px" font-style="normal" font-weight="bold" text-decoration="none" x="1133" y="335.5">dispatcher:</text><text fill="#000000" stroke="none" font-family="Arial" font-size="13px" font-style="normal" font-weight="bold" text-decoration="none" x="1117.10546875" y="348.5">EventDispatcher</text></g></g><g transform="translate(-38,-30) scale(1,1)"><path fill="none" stroke="#000000" d="M 1165.5 356 L 1165.5 552" stroke-miterlimit="10" stroke-dasharray="3"/></g><g transform="translate(-38,-30) scale(1,1)"><rect fill="#C0C0C0" stroke="none" x="1263" y="47" width="152.60546875" height="39" opacity="0.2"/></g><g transform="translate(-38,-30) scale(1,1)"><rect fill="#ffffff" stroke="none" x="1256" y="40" width="152.60546875" height="39"/></g><g transform="translate(-38,-30) scale(1,1)"><path fill="none" stroke="#000000" d="M 1256 40 L 1408.60546875 40 L 1408.60546875 79 L 1256 79 L 1256 40 Z Z" stroke-miterlimit="10"/></g><g transform="translate(-38,-30) scale(1,1)"><g><path fill="none" stroke="none"/><text fill="#000000" stroke="none" font-family="Arial" font-size="13px" font-style="normal" font-weight="bold" text-decoration="none" x="1292.195068359375" y="59.5">eventContext:</text><text fill="#000000" stroke="none" font-family="Arial" font-size="13px" font-style="normal" font-weight="bold" text-decoration="none" x="1270.162353515625" y="72.5">WindowEventContext</text></g></g><g transform="translate(-38,-30) scale(1,1)"><path fill="none" stroke="#000000" d="M 1333.5 80 L 1333.5 552" stroke-miterlimit="10" stroke-dasharray="3"/></g><g transform="translate(-38,-30) scale(1,1)"><rect fill="#C0C0C0" stroke="none" x="1439" y="47" width="133.09912109375" height="39" opacity="0.2"/></g><g transform="translate(-38,-30) scale(1,1)"><rect fill="#ffffff" stroke="none" x="1432" y="40" width="133.09912109375" height="39"/></g><g transform="translate(-38,-30) scale(1,1)"><path fill="none" stroke="#000000" d="M 1432 40 L 1565.09912109375 40 L 1565.09912109375 79 L 1432 79 L 1432 40 Z Z" stroke-miterlimit="10"/></g><g transform="translate(-38,-30) scale(1,1)"><g><path fill="none" stroke="none"/><text fill="#000000" stroke="none" font-family="Arial" font-size="13px" font-style="normal" font-weight="bold" text-decoration="none" x="1466.036865234375" y="59.5">m_window:</text><text fill="#000000" stroke="none" font-family="Arial" font-size="13px" font-style="normal" font-weight="bold" text-decoration="none" x="1444.727783203125" y="72.5">LocalDOMWindow</text></g></g><g transform="translate(-38,-30) scale(1,1)"><path fill="none" stroke="#000000" d="M 1499.5 80 L 1499.5 552" stroke-miterlimit="10" stroke-dasharray="3"/></g><g transform="translate(-38,-30) scale(1,1)"><path fill="none" stroke="#000000" d="M 142 120 L 293 120" stroke-miterlimit="10"/></g><g transform="translate(-38,-30) scale(1,1)"><path fill="none" stroke="#000000" d="M 282.83732514237585 124.20951775601598 L 293 120 L 282.83732514237585 115.79048224398402" stroke-miterlimit="10"/></g><g transform="translate(-38,-30) scale(1,1)"><g><path fill="none" stroke="none"/><text fill="#000000" stroke="none" font-family="Arial" font-size="13px" font-style="normal" font-weight="normal" text-decoration="none" x="158" y="117">1 : handleInputEvent</text></g></g><g transform="translate(-38,-30) scale(1,1)"><rect fill="#ffffff" stroke="none" x="293" y="120" width="13" height="28"/></g><g transform="translate(-38,-30) scale(1,1)"><path fill="none" stroke="#000000" d="M 293 120 L 306 120 L 306 148 L 293 148 L 293 120 Z Z" stroke-miterlimit="10"/></g><g transform="translate(-38,-30) scale(1,1)"><path fill="none" stroke="#000000" d="M 306 136 L 443 136" stroke-miterlimit="10"/></g><g transform="translate(-38,-30) scale(1,1)"><path fill="none" stroke="#000000" d="M 432.83732514237585 140.209517756016 L 443 136 L 432.83732514237585 131.790482243984" stroke-miterlimit="10"/></g><g transform="translate(-38,-30) scale(1,1)"><g><path fill="none" stroke="none"/><text fill="#000000" stroke="none" font-family="Arial" font-size="13px" font-style="normal" font-weight="normal" text-decoration="none" x="315" y="133">2 : handleInputEvent</text></g></g><g transform="translate(-38,-30) scale(1,1)"><rect fill="#ffffff" stroke="none" x="443" y="136" width="13" height="40"/></g><g transform="translate(-38,-30) scale(1,1)"><path fill="none" stroke="#000000" d="M 443 136 L 456 136 L 456 176 L 443 176 L 443 136 Z Z" stroke-miterlimit="10"/></g><g transform="translate(-38,-30) scale(1,1)"><path fill="none" stroke="#000000" d="M 443 168 L 306 168" stroke-miterlimit="10"/></g><g transform="translate(-38,-30) scale(1,1)"><path fill="none" stroke="#000000" d="M 316.16267485762415 163.790482243984 L 306 168 L 316.16267485762415 172.209517756016" stroke-miterlimit="10"/></g><g transform="translate(-38,-30) scale(1,1)"><g><path fill="none" stroke="none"/><text fill="#000000" stroke="none" font-family="Arial" font-size="13px" font-style="normal" font-weight="normal" text-decoration="none" x="317" y="185">3 : handleKeyEvent</text></g></g><g transform="translate(-38,-30) scale(1,1)"><rect fill="#ffffff" stroke="none" x="293" y="168" width="13" height="48"/></g><g transform="translate(-38,-30) scale(1,1)"><path fill="none" stroke="#000000" d="M 293 168 L 306 168 L 306 216 L 293 216 L 293 168 Z Z" stroke-miterlimit="10"/></g><g transform="translate(-38,-30) scale(1,1)"><path fill="none" stroke="#000000" d="M 306 208 L 592 208" stroke-miterlimit="10"/></g><g transform="translate(-38,-30) scale(1,1)"><path fill="none" stroke="#000000" d="M 581.8373251423759 212.209517756016 L 592 208 L 581.8373251423758 203.790482243984" stroke-miterlimit="10"/></g><g transform="translate(-38,-30) scale(1,1)"><g><path fill="none" stroke="none"/><text fill="#000000" stroke="none" font-family="Arial" font-size="13px" font-style="normal" font-weight="normal" text-decoration="none" x="414" y="205">4 : keyEvent</text></g></g><g transform="translate(-38,-30) scale(1,1)"><rect fill="#ffffff" stroke="none" x="592" y="208" width="13" height="28"/></g><g transform="translate(-38,-30) scale(1,1)"><path fill="none" stroke="#000000" d="M 592 208 L 605 208 L 605 236 L 592 236 L 592 208 Z Z" stroke-miterlimit="10"/></g><g transform="translate(-38,-30) scale(1,1)"><path fill="none" stroke="#000000" d="M 605 224 L 727 224" stroke-miterlimit="10"/></g><g transform="translate(-38,-30) scale(1,1)"><path fill="none" stroke="#000000" d="M 716.8373251423759 228.209517756016 L 727 224 L 716.8373251423758 219.790482243984" stroke-miterlimit="10"/></g><g transform="translate(-38,-30) scale(1,1)"><g><path fill="none" stroke="none"/><text fill="#000000" stroke="none" font-family="Arial" font-size="13px" font-style="normal" font-weight="normal" text-decoration="none" x="617" y="221">5 : dispatchEvent</text></g></g><g transform="translate(-38,-30) scale(1,1)"><rect fill="#ffffff" stroke="none" x="727" y="224" width="13" height="123"/></g><g transform="translate(-38,-30) scale(1,1)"><path fill="none" stroke="#000000" d="M 727 224 L 740 224 L 740 347 L 727 347 L 727 224 Z Z" stroke-miterlimit="10"/></g><g transform="translate(-38,-30) scale(1,1)"><path fill="none" stroke="#000000" d="M 740 232 L 770 232 L 770 252 L 747 252" stroke-miterlimit="10"/></g><g transform="translate(-38,-30) scale(1,1)"><path fill="#000000" stroke="none" d="M 757.1626748576241 247.790482243984 L 747 252 L 757.1626748576241 256.209517756016"/></g><g transform="translate(-38,-30) scale(1,1)"><path fill="none" stroke="#000000" d="M 757.1626748576241 247.790482243984 L 747 252 L 757.1626748576241 256.209517756016 L 757.1626748576241 247.790482243984" stroke-miterlimit="10"/></g><g transform="translate(-38,-30) scale(1,1)"><g><path fill="none" stroke="none"/><text fill="#000000" stroke="none" font-family="Arial" font-size="13px" font-style="normal" font-weight="normal" text-decoration="none" x="712" y="248">6 : dispatchEventInternal</text></g></g><g transform="translate(-38,-30) scale(1,1)"><rect fill="#ffffff" stroke="none" x="734" y="252" width="13" height="76"/></g><g transform="translate(-38,-30) scale(1,1)"><path fill="none" stroke="#000000" d="M 734 252 L 747 252 L 747 328 L 734 328 L 734 252 Z Z" stroke-miterlimit="10"/></g><g transform="translate(-38,-30) scale(1,1)"><path fill="none" stroke="#000000" d="M 747 280 L 928 280" stroke-miterlimit="10" stroke-dasharray="3"/></g><g transform="translate(-38,-30) scale(1,1)"><path fill="none" stroke="#000000" d="M 917.8373251423759 284.209517756016 L 928 280 L 917.8373251423758 275.790482243984" stroke-miterlimit="10"/></g><g transform="translate(-38,-30) scale(1,1)"><g><path fill="none" stroke="none"/><text fill="#000000" stroke="none" font-family="Arial" font-size="13px" font-style="normal" font-weight="normal" text-decoration="none" x="828" y="277">7 : </text></g></g><g transform="translate(-38,-30) scale(1,1)"><g><path fill="none" stroke="none"/><text fill="#000000" stroke="none" font-family="Arial" font-size="13px" font-style="normal" font-weight="normal" text-decoration="none" x="812" y="262">«create»</text></g></g><g transform="translate(-38,-30) scale(1,1)"><path fill="none" stroke="#000000" d="M 747 312 L 854 312" stroke-miterlimit="10"/></g><g transform="translate(-38,-30) scale(1,1)"><path fill="none" stroke="#000000" d="M 843.8373251423759 316.209517756016 L 854 312 L 843.8373251423758 307.790482243984" stroke-miterlimit="10"/></g><g transform="translate(-38,-30) scale(1,1)"><g><path fill="none" stroke="none"/><text fill="#000000" stroke="none" font-family="Arial" font-size="13px" font-style="normal" font-weight="normal" text-decoration="none" x="751" y="309">8 : dispatchEvent</text></g></g><g transform="translate(-38,-30) scale(1,1)"><rect fill="#ffffff" stroke="none" x="854" y="312" width="13" height="72"/></g><g transform="translate(-38,-30) scale(1,1)"><path fill="none" stroke="#000000" d="M 854 312 L 867 312 L 867 384 L 854 384 L 854 312 Z Z" stroke-miterlimit="10"/></g><g transform="translate(-38,-30) scale(1,1)"><path fill="none" stroke="#000000" d="M 867 336 L 1104 336" stroke-miterlimit="10" stroke-dasharray="3"/></g><g transform="translate(-38,-30) scale(1,1)"><path fill="none" stroke="#000000" d="M 1093.837325142376 340.209517756016 L 1104 336 L 1093.837325142376 331.790482243984" stroke-miterlimit="10"/></g><g transform="translate(-38,-30) scale(1,1)"><g><path fill="none" stroke="none"/><text fill="#000000" stroke="none" font-family="Arial" font-size="13px" font-style="normal" font-weight="normal" text-decoration="none" x="976" y="333">9 : </text></g></g><g transform="translate(-38,-30) scale(1,1)"><g><path fill="none" stroke="none"/><text fill="#000000" stroke="none" font-family="Arial" font-size="13px" font-style="normal" font-weight="normal" text-decoration="none" x="960" y="318">«create»</text></g></g><g transform="translate(-38,-30) scale(1,1)"><path fill="none" stroke="#000000" d="M 867 368 L 1003 368" stroke-miterlimit="10"/></g><g transform="translate(-38,-30) scale(1,1)"><path fill="none" stroke="#000000" d="M 992.8373251423759 372.209517756016 L 1003 368 L 992.8373251423758 363.790482243984" stroke-miterlimit="10"/></g><g transform="translate(-38,-30) scale(1,1)"><g><path fill="none" stroke="none"/><text fill="#000000" stroke="none" font-family="Arial" font-size="13px" font-style="normal" font-weight="normal" text-decoration="none" x="882" y="365">10 : dispatchEvent</text></g></g><g transform="translate(-38,-30) scale(1,1)"><rect fill="#ffffff" stroke="none" x="1003" y="368" width="13" height="40"/></g><g transform="translate(-38,-30) scale(1,1)"><path fill="none" stroke="#000000" d="M 1003 368 L 1016 368 L 1016 408 L 1003 408 L 1003 368 Z Z" stroke-miterlimit="10"/></g><g transform="translate(-38,-30) scale(1,1)"><path fill="none" stroke="#000000" d="M 1016 392 L 1158 392" stroke-miterlimit="10"/></g><g transform="translate(-38,-30) scale(1,1)"><path fill="none" stroke="#000000" d="M 1147.837325142376 396.209517756016 L 1158 392 L 1147.837325142376 387.790482243984" stroke-miterlimit="10"/></g><g transform="translate(-38,-30) scale(1,1)"><g><path fill="none" stroke="none"/><text fill="#000000" stroke="none" font-family="Arial" font-size="13px" font-style="normal" font-weight="normal" text-decoration="none" x="1051" y="389">11 : dispatch</text></g></g><g transform="translate(-38,-30) scale(1,1)"><rect fill="#ffffff" stroke="none" x="1158" y="392" width="13" height="136"/></g><g transform="translate(-38,-30) scale(1,1)"><path fill="none" stroke="#000000" d="M 1158 392 L 1171 392 L 1171 528 L 1158 528 L 1158 392 Z Z" stroke-miterlimit="10"/></g><g transform="translate(-38,-30) scale(1,1)"><path fill="none" stroke="#000000" d="M 1171 400 L 1201 400 L 1201 420 L 1178 420" stroke-miterlimit="10"/></g><g transform="translate(-38,-30) scale(1,1)"><path fill="#000000" stroke="none" d="M 1188.162674857624 415.790482243984 L 1178 420 L 1188.162674857624 424.209517756016"/></g><g transform="translate(-38,-30) scale(1,1)"><path fill="none" stroke="#000000" d="M 1188.162674857624 415.790482243984 L 1178 420 L 1188.162674857624 424.209517756016 L 1188.162674857624 415.790482243984" stroke-miterlimit="10"/></g><g transform="translate(-38,-30) scale(1,1)"><g><path fill="none" stroke="none"/><text fill="#000000" stroke="none" font-family="Arial" font-size="13px" font-style="normal" font-weight="normal" text-decoration="none" x="1123" y="416">12 : dispatchEventAtCapturing</text></g></g><g transform="translate(-38,-30) scale(1,1)"><rect fill="#ffffff" stroke="none" x="1165" y="420" width="13" height="100"/></g><g transform="translate(-38,-30) scale(1,1)"><path fill="none" stroke="#000000" d="M 1165 420 L 1178 420 L 1178 520 L 1165 520 L 1165 420 Z Z" stroke-miterlimit="10"/></g><g transform="translate(-38,-30) scale(1,1)"><path fill="none" stroke="#000000" d="M 1178 440 L 1326 440" stroke-miterlimit="10"/></g><g transform="translate(-38,-30) scale(1,1)"><path fill="none" stroke="#000000" d="M 1315.837325142376 444.209517756016 L 1326 440 L 1315.837325142376 435.790482243984" stroke-miterlimit="10"/></g><g transform="translate(-38,-30) scale(1,1)"><g><path fill="none" stroke="none"/><text fill="#000000" stroke="none" font-family="Arial" font-size="13px" font-style="normal" font-weight="normal" text-decoration="none" x="1185" y="437">13 : handleLocalEvents</text></g></g><g transform="translate(-38,-30) scale(1,1)"><rect fill="#ffffff" stroke="none" x="1326" y="440" width="13" height="32"/></g><g transform="translate(-38,-30) scale(1,1)"><path fill="none" stroke="#000000" d="M 1326 440 L 1339 440 L 1339 472 L 1326 472 L 1326 440 Z Z" stroke-miterlimit="10"/></g><g transform="translate(-38,-30) scale(1,1)"><path fill="none" stroke="#000000" d="M 1178 456 L 1208 456 L 1208 476 L 1185 476" stroke-miterlimit="10"/></g><g transform="translate(-38,-30) scale(1,1)"><path fill="#000000" stroke="none" d="M 1195.162674857624 471.790482243984 L 1185 476 L 1195.162674857624 480.209517756016"/></g><g transform="translate(-38,-30) scale(1,1)"><path fill="none" stroke="#000000" d="M 1195.162674857624 471.790482243984 L 1185 476 L 1195.162674857624 480.209517756016 L 1195.162674857624 471.790482243984" stroke-miterlimit="10"/></g><g transform="translate(-38,-30) scale(1,1)"><g><path fill="none" stroke="none"/><text fill="#000000" stroke="none" font-family="Arial" font-size="13px" font-style="normal" font-weight="normal" text-decoration="none" x="1133" y="472">14 : dispatchEventAtBubbling</text></g></g><g transform="translate(-38,-30) scale(1,1)"><rect fill="#ffffff" stroke="none" x="1172" y="476" width="13" height="36"/></g><g transform="translate(-38,-30) scale(1,1)"><path fill="none" stroke="#000000" d="M 1172 476 L 1185 476 L 1185 512 L 1172 512 L 1172 476 Z Z" stroke-miterlimit="10"/></g><g transform="translate(-38,-30) scale(1,1)"><path fill="none" stroke="#000000" d="M 1339 456 L 1492 456" stroke-miterlimit="10"/></g><g transform="translate(-38,-30) scale(1,1)"><path fill="none" stroke="#000000" d="M 1481.837325142376 460.209517756016 L 1492 456 L 1481.837325142376 451.790482243984" stroke-miterlimit="10"/></g><g transform="translate(-38,-30) scale(1,1)"><g><path fill="none" stroke="none"/><text fill="#000000" stroke="none" font-family="Arial" font-size="13px" font-style="normal" font-weight="normal" text-decoration="none" x="1351" y="453">15 : fireEventListeners</text></g></g><g transform="translate(-38,-30) scale(1,1)"><rect fill="#ffffff" stroke="none" x="1492" y="456" width="13" height="28"/></g><g transform="translate(-38,-30) scale(1,1)"><path fill="none" stroke="#000000" d="M 1492 456 L 1505 456 L 1505 484 L 1492 484 L 1492 456 Z Z" stroke-miterlimit="10"/></g></g></svg>