<svg version="1.1" xmlns="http://www.w3.org/2000/svg" xmlns:xlink="http://www.w3.org/1999/xlink" width="944.88232421875" height="377"><defs/><g><g transform="translate(-62,-46) scale(1,1)"><rect fill="#C0C0C0" stroke="none" x="79" y="191" width="304.19775390625" height="85" opacity="0.2"/></g><g transform="translate(-62,-46) scale(1,1)"><rect fill="#ffffff" stroke="none" x="72" y="184" width="304.19775390625" height="85"/></g><g transform="translate(-62,-46) scale(1,1)"><path fill="none" stroke="#000000" d="M 72 184 L 376.19775390625 184 L 376.19775390625 269 L 72 269 L 72 184 Z Z" stroke-miterlimit="10"/></g><g transform="translate(-62,-46) scale(1,1)"><path fill="none" stroke="#000000" d="M 72 224 L 376.19775390625 224" stroke-miterlimit="10"/></g><g transform="translate(-62,-46) scale(1,1)"><path fill="none" stroke="#000000" d="M 72 247 L 376.19775390625 247" stroke-miterlimit="10"/></g><g transform="translate(-62,-46) scale(1,1)"><g><path fill="none" stroke="none"/><text fill="#000000" stroke="none" font-family="Arial" font-size="13px" font-style="normal" font-weight="bold" text-decoration="none" x="145.34033203125" y="203.5">PlatformWindowEmbedded</text></g></g><g transform="translate(-62,-46) scale(1,1)"><g><path fill="none" stroke="none"/><text fill="#000000" stroke="none" font-family="Arial" font-size="13px" font-style="normal" font-weight="normal" text-decoration="none" x="199.90478515625" y="218.5">(from ui)</text></g></g><g transform="translate(-62,-46) scale(1,1)"><g><path fill="none" stroke="none"/><text fill="#000000" stroke="none" font-family="Arial" font-size="13px" font-style="normal" font-weight="normal" text-decoration="none" x="77" y="241.5">-delegate_: PlatformWindowDelegate*</text></g></g><g transform="translate(-62,-46) scale(1,1)"><g><path fill="none" stroke="none"/><text fill="#000000" stroke="none" font-family="Arial" font-size="13px" font-style="normal" font-weight="normal" text-decoration="none" x="77" y="264.5">+KeyEvent(pressed, key_code, unicode_character)</text></g></g><g transform="translate(-62,-46) scale(1,1)"><path fill="#C0C0C0" stroke="none" d="M 530 186.5 C 530 180.1487248 535.1487248 175 541.5 175 C 547.8512752 175 553 180.1487248 553 186.5 C 553 192.8512752 547.8512752 198 541.5 198 C 535.1487248 198 530 192.8512752 530 186.5 Z" opacity="0.2"/></g><g transform="translate(-62,-46) scale(1,1)"><path fill="#ffffff" stroke="none" d="M 523 179.5 C 523 173.1487248 528.1487248 168 534.5 168 C 540.8512752 168 546 173.1487248 546 179.5 C 546 185.8512752 540.8512752 191 534.5 191 C 528.1487248 191 523 185.8512752 523 179.5 Z"/></g><g transform="translate(-62,-46) scale(1,1)"><path fill="none" stroke="#000000" d="M 523 179.5 C 523 173.1487248 528.1487248 168 534.5 168 C 540.8512752 168 546 173.1487248 546 179.5 C 546 185.8512752 540.8512752 191 534.5 191 C 528.1487248 191 523 185.8512752 523 179.5 Z" stroke-miterlimit="10"/></g><g transform="translate(-62,-46) scale(1,1)"><path fill="none" stroke="#000000" d="M 440 231 L 629 231" stroke-miterlimit="10"/></g><g transform="translate(-62,-46) scale(1,1)"><g><path fill="none" stroke="none"/><text fill="#000000" stroke="none" font-family="Arial" font-size="13px" font-style="normal" font-weight="bold" text-decoration="none" x="461.162353515625" y="210.5">PlatformWindowDelegate</text></g></g><g transform="translate(-62,-46) scale(1,1)"><g><path fill="none" stroke="none"/><text fill="#000000" stroke="none" font-family="Arial" font-size="13px" font-style="normal" font-weight="normal" text-decoration="none" x="510.305908203125" y="225.5">(from ui)</text></g></g><g transform="translate(-62,-46) scale(1,1)"><g><path fill="none" stroke="none"/><text fill="#000000" stroke="none" font-family="Arial" font-size="13px" font-style="italic" font-weight="normal" text-decoration="none" x="445" y="248.5">+DispatchEvent(event: Event*)</text></g></g><g transform="translate(-62,-46) scale(1,1)"><path fill="#C0C0C0" stroke="none" d="M 219.273193359375 74.5 C 219.273193359375 68.1487248 224.421918159375 63 230.773193359375 63 C 237.124468559375 63 242.273193359375 68.1487248 242.273193359375 74.5 C 242.273193359375 80.8512752 237.124468559375 86 230.773193359375 86 C 224.421918159375 86 219.273193359375 80.8512752 219.273193359375 74.5 Z" opacity="0.2"/></g><g transform="translate(-62,-46) scale(1,1)"><path fill="#ffffff" stroke="none" d="M 212.273193359375 67.5 C 212.273193359375 61.1487248 217.421918159375 56 223.773193359375 56 C 230.124468559375 56 235.273193359375 61.1487248 235.273193359375 67.5 C 235.273193359375 73.8512752 230.124468559375 79 223.773193359375 79 C 217.421918159375 79 212.273193359375 73.8512752 212.273193359375 67.5 Z"/></g><g transform="translate(-62,-46) scale(1,1)"><path fill="none" stroke="#000000" d="M 212.273193359375 67.5 C 212.273193359375 61.1487248 217.421918159375 56 223.773193359375 56 C 230.124468559375 56 235.273193359375 61.1487248 235.273193359375 67.5 C 235.273193359375 73.8512752 230.124468559375 79 223.773193359375 79 C 217.421918159375 79 212.273193359375 73.8512752 212.273193359375 67.5 Z" stroke-miterlimit="10"/></g><g transform="translate(-62,-46) scale(1,1)"><g><path fill="none" stroke="none"/><text fill="#000000" stroke="none" font-family="Arial" font-size="13px" font-style="normal" font-weight="bold" text-decoration="none" x="176.45458984375" y="98.5">PlatformWindow</text></g></g><g transform="translate(-62,-46) scale(1,1)"><g><path fill="none" stroke="none"/><text fill="#000000" stroke="none" font-family="Arial" font-size="13px" font-style="normal" font-weight="normal" text-decoration="none" x="199.5791015625" y="113.5">(from ui)</text></g></g><g transform="translate(-62,-46) scale(1,1)"><rect fill="#C0C0C0" stroke="none" x="447" y="335" width="186.39794921875" height="85" opacity="0.2"/></g><g transform="translate(-62,-46) scale(1,1)"><rect fill="#ffffff" stroke="none" x="440" y="328" width="186.39794921875" height="85"/></g><g transform="translate(-62,-46) scale(1,1)"><path fill="none" stroke="#000000" d="M 440 328 L 626.39794921875 328 L 626.39794921875 413 L 440 413 L 440 328 Z Z" stroke-miterlimit="10"/></g><g transform="translate(-62,-46) scale(1,1)"><path fill="none" stroke="#000000" d="M 440 368 L 626.39794921875 368" stroke-miterlimit="10"/></g><g transform="translate(-62,-46) scale(1,1)"><path fill="none" stroke="#000000" d="M 440 391 L 626.39794921875 391" stroke-miterlimit="10"/></g><g transform="translate(-62,-46) scale(1,1)"><g><path fill="none" stroke="none"/><text fill="#000000" stroke="none" font-family="Arial" font-size="13px" font-style="normal" font-weight="bold" text-decoration="none" x="459.150390625" y="347.5">WindowTreeHostPlatform</text></g></g><g transform="translate(-62,-46) scale(1,1)"><g><path fill="none" stroke="none"/><text fill="#000000" stroke="none" font-family="Arial" font-size="13px" font-style="normal" font-weight="normal" text-decoration="none" x="501.054443359375" y="362.5">(from aura)</text></g></g><g transform="translate(-62,-46) scale(1,1)"><g><path fill="none" stroke="none"/><text fill="#000000" stroke="none" font-family="Arial" font-size="13px" font-style="normal" font-weight="normal" text-decoration="none" x="445" y="385.5">-window_: PlatformWindow</text></g></g><g transform="translate(-62,-46) scale(1,1)"><g><path fill="none" stroke="none"/><text fill="#000000" stroke="none" font-family="Arial" font-size="13px" font-style="normal" font-weight="normal" text-decoration="none" x="445" y="408.5">+DispatchEvent(event: Event*)</text></g></g><g transform="translate(-62,-46) scale(1,1)"><rect fill="#C0C0C0" stroke="none" x="695" y="63" width="308.88232421875" height="145" opacity="0.2"/></g><g transform="translate(-62,-46) scale(1,1)"><rect fill="#ffffff" stroke="none" x="688" y="56" width="308.88232421875" height="145"/></g><g transform="translate(-62,-46) scale(1,1)"><path fill="none" stroke="#000000" d="M 688 56 L 996.88232421875 56 L 996.88232421875 201 L 688 201 L 688 56 Z Z" stroke-miterlimit="10"/></g><g transform="translate(-62,-46) scale(1,1)"><path fill="none" stroke="#000000" d="M 688 96 L 996.88232421875 96" stroke-miterlimit="10"/></g><g transform="translate(-62,-46) scale(1,1)"><path fill="none" stroke="#000000" d="M 688 149 L 996.88232421875 149" stroke-miterlimit="10"/></g><g transform="translate(-62,-46) scale(1,1)"><g><path fill="none" stroke="none"/><text fill="#000000" stroke="none" font-family="Arial" font-size="13px" font-style="normal" font-weight="bold" text-decoration="none" x="792.593017578125" y="75.5">WindowTreeHost</text></g></g><g transform="translate(-62,-46) scale(1,1)"><g><path fill="none" stroke="none"/><text fill="#000000" stroke="none" font-family="Arial" font-size="13px" font-style="normal" font-weight="normal" text-decoration="none" x="810.296630859375" y="90.5">(from aura)</text></g></g><g transform="translate(-62,-46) scale(1,1)"><g><path fill="none" stroke="none"/><text fill="#000000" stroke="none" font-family="Arial" font-size="13px" font-style="normal" font-weight="normal" text-decoration="none" x="693" y="113.5">-input_method_: InputMethod*</text></g></g><g transform="translate(-62,-46) scale(1,1)"><g><path fill="none" stroke="none"/><text fill="#000000" stroke="none" font-family="Arial" font-size="13px" font-style="normal" font-weight="normal" text-decoration="none" x="693" y="128.5">-window_: Window*</text></g></g><g transform="translate(-62,-46) scale(1,1)"><g><path fill="none" stroke="none"/><text fill="#000000" stroke="none" font-family="Arial" font-size="13px" font-style="normal" font-weight="normal" text-decoration="none" x="693" y="143.5">-dispatcher_: scoped_ptr&lt;WindowEventDispatcher&gt;</text></g></g><g transform="translate(-62,-46) scale(1,1)"><g><path fill="none" stroke="none"/><text fill="#000000" stroke="none" font-family="Arial" font-size="13px" font-style="normal" font-weight="normal" text-decoration="none" x="693" y="166.5">+GetInputMethod(): InputMethod*</text></g></g><g transform="translate(-62,-46) scale(1,1)"><g><path fill="none" stroke="none"/><text fill="#000000" stroke="none" font-family="Arial" font-size="13px" font-style="normal" font-weight="normal" text-decoration="none" x="693" y="181.5">+DispatchKeyEventPostIME(event: KeyEvent*)</text></g></g><g transform="translate(-62,-46) scale(1,1)"><g><path fill="none" stroke="none"/><text fill="#000000" stroke="none" font-family="Arial" font-size="13px" font-style="normal" font-weight="normal" text-decoration="none" x="693" y="196.5">#GetEventProcessor(): EventProcessor*</text></g></g><g transform="translate(-62,-46) scale(1,1)"><path fill="none" stroke="#000000" d="M 534 328 L 534 191" stroke-miterlimit="10"/></g><g transform="translate(-62,-46) scale(1,1)"><path fill="none" stroke="#000000" d="M 626 344 L 856 344 L 856 201" stroke-miterlimit="10"/></g><g transform="translate(-62,-46) scale(1,1)"><path fill="#FFFFFF" stroke="none" d="M 864.419035512032 221.3253497152483 L 856 201 L 847.580964487968 221.3253497152483"/></g><g transform="translate(-62,-46) scale(1,1)"><path fill="none" stroke="#000000" d="M 864.419035512032 221.3253497152483 L 856 201 L 847.580964487968 221.3253497152483 L 864.419035512032 221.3253497152483" stroke-miterlimit="10"/></g><g transform="translate(-62,-46) scale(1,1)"><path fill="none" stroke="#000000" d="M 440 208 L 376 208" stroke-miterlimit="10"/></g><g transform="translate(-62,-46) scale(1,1)"><path fill="#000000" stroke="none" d="M 386.16267485762415 203.790482243984 L 376 208 L 386.16267485762415 212.209517756016 L 398 208"/></g><g transform="translate(-62,-46) scale(1,1)"><path fill="none" stroke="#000000" d="M 386.16267485762415 203.790482243984 L 376 208 L 386.16267485762415 212.209517756016 L 398 208 L 386.16267485762415 203.790482243984" stroke-miterlimit="10"/></g><g transform="translate(-62,-46) scale(1,1)"><path fill="none" stroke="#000000" d="M 224 269 L 224 352 L 440 352" stroke-miterlimit="10"/></g><g transform="translate(-62,-46) scale(1,1)"><path fill="#000000" stroke="none" d="M 429.83732514237585 356.209517756016 L 440 352 L 429.83732514237585 347.790482243984 L 418 352"/></g><g transform="translate(-62,-46) scale(1,1)"><path fill="none" stroke="#000000" d="M 429.83732514237585 356.209517756016 L 440 352 L 429.83732514237585 347.790482243984 L 418 352 L 429.83732514237585 356.209517756016" stroke-miterlimit="10"/></g><g transform="translate(-62,-46) scale(1,1)"><path fill="none" stroke="#000000" d="M 226 184 L 226 119" stroke-miterlimit="10"/></g><g transform="translate(-62,-46) scale(1,1)"><path fill="#FFFFFF" stroke="none" d="M 234.41903551203197 139.3253497152483 L 226 119 L 217.58096448796803 139.3253497152483"/></g><g transform="translate(-62,-46) scale(1,1)"><path fill="none" stroke="#000000" d="M 234.41903551203197 139.3253497152483 L 226 119 L 217.58096448796803 139.3253497152483 L 234.41903551203197 139.3253497152483" stroke-miterlimit="10"/></g></g></svg>