<svg version="1.1" xmlns="http://www.w3.org/2000/svg" xmlns:xlink="http://www.w3.org/1999/xlink" width="1142.873046875" height="553"><defs/><g><g transform="translate(-118,-86) scale(1,1)"><path fill="#C0C0C0" stroke="none" d="M 168.456787109375 194.5 C 168.456787109375 188.1487248 173.605511909375 183 179.956787109375 183 C 186.308062309375 183 191.456787109375 188.1487248 191.456787109375 194.5 C 191.456787109375 200.8512752 186.308062309375 206 179.956787109375 206 C 173.605511909375 206 168.456787109375 200.8512752 168.456787109375 194.5 Z" opacity="0.2"/></g><g transform="translate(-118,-86) scale(1,1)"><path fill="#ffffff" stroke="none" d="M 161.456787109375 187.5 C 161.456787109375 181.1487248 166.605511909375 176 172.956787109375 176 C 179.308062309375 176 184.456787109375 181.1487248 184.456787109375 187.5 C 184.456787109375 193.8512752 179.308062309375 199 172.956787109375 199 C 166.605511909375 199 161.456787109375 193.8512752 161.456787109375 187.5 Z"/></g><g transform="translate(-118,-86) scale(1,1)"><path fill="none" stroke="#000000" d="M 161.456787109375 187.5 C 161.456787109375 181.1487248 166.605511909375 176 172.956787109375 176 C 179.308062309375 176 184.456787109375 181.1487248 184.456787109375 187.5 C 184.456787109375 193.8512752 179.308062309375 199 172.956787109375 199 C 166.605511909375 199 161.456787109375 193.8512752 161.456787109375 187.5 Z" stroke-miterlimit="10"/></g><g transform="translate(-118,-86) scale(1,1)"><g><path fill="none" stroke="none"/><text fill="#000000" stroke="none" font-family="Arial" font-size="13px" font-style="normal" font-weight="bold" text-decoration="none" x="137.549560546875" y="218.5">ChildThread</text></g></g><g transform="translate(-118,-86) scale(1,1)"><g><path fill="none" stroke="none"/><text fill="#000000" stroke="none" font-family="Arial" font-size="13px" font-style="normal" font-weight="normal" text-decoration="none" x="132.5" y="233.5">(from content)</text></g></g><g transform="translate(-118,-86) scale(1,1)"><rect fill="#C0C0C0" stroke="none" x="135" y="375" width="309.955078125" height="100" opacity="0.2"/></g><g transform="translate(-118,-86) scale(1,1)"><rect fill="#ffffff" stroke="none" x="128" y="368" width="309.955078125" height="100"/></g><g transform="translate(-118,-86) scale(1,1)"><path fill="none" stroke="#000000" d="M 128 368 L 437.955078125 368 L 437.955078125 468 L 128 468 L 128 368 Z Z" stroke-miterlimit="10"/></g><g transform="translate(-118,-86) scale(1,1)"><path fill="none" stroke="#000000" d="M 128 408 L 437.955078125 408" stroke-miterlimit="10"/></g><g transform="translate(-118,-86) scale(1,1)"><path fill="none" stroke="#000000" d="M 128 446 L 437.955078125 446" stroke-miterlimit="10"/></g><g transform="translate(-118,-86) scale(1,1)"><g><path fill="none" stroke="none"/><text fill="#000000" stroke="none" font-family="Arial" font-size="13px" font-style="normal" font-weight="bold" text-decoration="none" x="235.290771484375" y="387.5">ChildThreadImpl</text></g></g><g transform="translate(-118,-86) scale(1,1)"><g><path fill="none" stroke="none"/><text fill="#000000" stroke="none" font-family="Arial" font-size="13px" font-style="normal" font-weight="normal" text-decoration="none" x="242.520751953125" y="402.5">(from content)</text></g></g><g transform="translate(-118,-86) scale(1,1)"><g><path fill="none" stroke="none"/><text fill="#000000" stroke="none" font-family="Arial" font-size="13px" font-style="normal" font-weight="normal" text-decoration="none" x="133" y="425.5">-channel_: SyncChannel</text></g></g><g transform="translate(-118,-86) scale(1,1)"><g><path fill="none" stroke="none"/><text fill="#000000" stroke="none" font-family="Arial" font-size="13px" font-style="normal" font-weight="normal" text-decoration="none" x="133" y="440.5">-router_: ChildThreadMessageRouter</text></g></g><g transform="translate(-118,-86) scale(1,1)"><g><path fill="none" stroke="none"/><text fill="#000000" stroke="none" font-family="Arial" font-size="13px" font-style="normal" font-weight="normal" text-decoration="none" x="133" y="463.5">+OnMessageReceived(message: Message&amp;, : bool)</text></g></g><g transform="translate(-118,-86) scale(1,1)"><path fill="none" stroke="#000000" d="M 176 368 L 176 239" stroke-miterlimit="10"/></g><g transform="translate(-118,-86) scale(1,1)"><path fill="#FFFFFF" stroke="none" d="M 184.41903551203197 259.3253497152483 L 176 239 L 167.58096448796803 259.3253497152483"/></g><g transform="translate(-118,-86) scale(1,1)"><path fill="none" stroke="#000000" d="M 184.41903551203197 259.3253497152483 L 176 239 L 167.58096448796803 259.3253497152483 L 184.41903551203197 259.3253497152483" stroke-miterlimit="10"/></g><g transform="translate(-118,-86) scale(1,1)"><path fill="#C0C0C0" stroke="none" d="M 631.5 114.5 C 631.5 108.1487248 636.6487248 103 643 103 C 649.3512752 103 654.5 108.1487248 654.5 114.5 C 654.5 120.8512752 649.3512752 126 643 126 C 636.6487248 126 631.5 120.8512752 631.5 114.5 Z" opacity="0.2"/></g><g transform="translate(-118,-86) scale(1,1)"><path fill="#ffffff" stroke="none" d="M 624.5 107.5 C 624.5 101.1487248 629.6487248 96 636 96 C 642.3512752 96 647.5 101.1487248 647.5 107.5 C 647.5 113.8512752 642.3512752 119 636 119 C 629.6487248 119 624.5 113.8512752 624.5 107.5 Z"/></g><g transform="translate(-118,-86) scale(1,1)"><path fill="none" stroke="#000000" d="M 624.5 107.5 C 624.5 101.1487248 629.6487248 96 636 96 C 642.3512752 96 647.5 101.1487248 647.5 107.5 C 647.5 113.8512752 642.3512752 119 636 119 C 629.6487248 119 624.5 113.8512752 624.5 107.5 Z" stroke-miterlimit="10"/></g><g transform="translate(-118,-86) scale(1,1)"><path fill="none" stroke="#000000" d="M 480 159 L 792 159" stroke-miterlimit="10"/></g><g transform="translate(-118,-86) scale(1,1)"><g><path fill="none" stroke="none"/><text fill="#000000" stroke="none" font-family="Arial" font-size="13px" font-style="normal" font-weight="bold" text-decoration="none" x="612.87548828125" y="138.5">Listener</text></g></g><g transform="translate(-118,-86) scale(1,1)"><g><path fill="none" stroke="none"/><text fill="#000000" stroke="none" font-family="Arial" font-size="13px" font-style="normal" font-weight="normal" text-decoration="none" x="606.029541015625" y="153.5">(from IPC)</text></g></g><g transform="translate(-118,-86) scale(1,1)"><g><path fill="none" stroke="none"/><text fill="#000000" stroke="none" font-family="Arial" font-size="13px" font-style="italic" font-weight="normal" text-decoration="none" x="485" y="176.5">+OnMessageReceived(message: Message&amp;, : bool)</text></g></g><g transform="translate(-118,-86) scale(1,1)"><path fill="none" stroke="#000000" d="M 288 368 L 288 192 L 636 192 L 636 119" stroke-miterlimit="10"/></g><g transform="translate(-118,-86) scale(1,1)"><rect fill="#C0C0C0" stroke="none" x="503" y="239" width="272.3642578125" height="85" opacity="0.2"/></g><g transform="translate(-118,-86) scale(1,1)"><rect fill="#ffffff" stroke="none" x="496" y="232" width="272.3642578125" height="85"/></g><g transform="translate(-118,-86) scale(1,1)"><path fill="none" stroke="#000000" d="M 496 232 L 768.3642578125 232 L 768.3642578125 317 L 496 317 L 496 232 Z Z" stroke-miterlimit="10"/></g><g transform="translate(-118,-86) scale(1,1)"><path fill="none" stroke="#000000" d="M 496 272 L 768.3642578125 272" stroke-miterlimit="10"/></g><g transform="translate(-118,-86) scale(1,1)"><path fill="none" stroke="#000000" d="M 496 295 L 768.3642578125 295" stroke-miterlimit="10"/></g><g transform="translate(-118,-86) scale(1,1)"><g><path fill="none" stroke="none"/><text fill="#000000" stroke="none" font-family="Arial" font-size="13px" font-style="normal" font-weight="bold" text-decoration="none" x="586.298095703125" y="251.5">MessageRouter</text></g></g><g transform="translate(-118,-86) scale(1,1)"><g><path fill="none" stroke="none"/><text fill="#000000" stroke="none" font-family="Arial" font-size="13px" font-style="normal" font-weight="normal" text-decoration="none" x="602.211669921875" y="266.5">(from IPC)</text></g></g><g transform="translate(-118,-86) scale(1,1)"><g><path fill="none" stroke="none"/><text fill="#000000" stroke="none" font-family="Arial" font-size="13px" font-style="normal" font-weight="normal" text-decoration="none" x="501" y="289.5">-routes_: IDMap&lt;Listener&gt;</text></g></g><g transform="translate(-118,-86) scale(1,1)"><g><path fill="none" stroke="none"/><text fill="#000000" stroke="none" font-family="Arial" font-size="13px" font-style="normal" font-weight="normal" text-decoration="none" x="501" y="312.5">+RouteMessage(msg: Message): bool</text></g></g><g transform="translate(-118,-86) scale(1,1)"><path fill="none" stroke="#000000" d="M 636 232 L 636 119" stroke-miterlimit="10"/></g><g transform="translate(-118,-86) scale(1,1)"><rect fill="#C0C0C0" stroke="none" x="551" y="391" width="181.6435546875" height="72" opacity="0.2"/></g><g transform="translate(-118,-86) scale(1,1)"><rect fill="#ffffff" stroke="none" x="544" y="384" width="181.6435546875" height="72"/></g><g transform="translate(-118,-86) scale(1,1)"><path fill="none" stroke="#000000" d="M 544 384 L 725.6435546875 384 L 725.6435546875 456 L 544 456 L 544 384 Z Z" stroke-miterlimit="10"/></g><g transform="translate(-118,-86) scale(1,1)"><path fill="none" stroke="#000000" d="M 544 424 L 725.6435546875 424" stroke-miterlimit="10"/></g><g transform="translate(-118,-86) scale(1,1)"><path fill="none" stroke="#000000" d="M 544 434 L 725.6435546875 434" stroke-miterlimit="10"/></g><g transform="translate(-118,-86) scale(1,1)"><g><path fill="none" stroke="none"/><text fill="#000000" stroke="none" font-family="Arial" font-size="13px" font-style="normal" font-weight="bold" text-decoration="none" x="553.530517578125" y="403.5">ChildThreadMessageRouter</text></g></g><g transform="translate(-118,-86) scale(1,1)"><g><path fill="none" stroke="none"/><text fill="#000000" stroke="none" font-family="Arial" font-size="13px" font-style="normal" font-weight="normal" text-decoration="none" x="568" y="418.5">(from ChildThreadImpl)</text></g></g><g transform="translate(-118,-86) scale(1,1)"><g><path fill="none" stroke="none"/><text fill="#000000" stroke="none" font-family="Arial" font-size="13px" font-style="normal" font-weight="normal" text-decoration="none" x="549" y="451.5">+Send(msg: Message*): bool</text></g></g><g transform="translate(-118,-86) scale(1,1)"><path fill="none" stroke="#000000" d="M 632 384 L 632 317" stroke-miterlimit="10"/></g><g transform="translate(-118,-86) scale(1,1)"><path fill="#FFFFFF" stroke="none" d="M 640.419035512032 337.3253497152483 L 632 317 L 623.580964487968 337.3253497152483"/></g><g transform="translate(-118,-86) scale(1,1)"><path fill="none" stroke="#000000" d="M 640.419035512032 337.3253497152483 L 632 317 L 623.580964487968 337.3253497152483 L 640.419035512032 337.3253497152483" stroke-miterlimit="10"/></g><g transform="translate(-118,-86) scale(1,1)"><path fill="none" stroke="#000000" d="M 544 424 L 438 424" stroke-miterlimit="10"/></g><g transform="translate(-118,-86) scale(1,1)"><path fill="#FFFFFF" stroke="none" d="M 448.16267485762415 419.790482243984 L 438 424 L 448.16267485762415 428.209517756016 L 460 424"/></g><g transform="translate(-118,-86) scale(1,1)"><path fill="none" stroke="#000000" d="M 448.16267485762415 419.790482243984 L 438 424 L 448.16267485762415 428.209517756016 L 460 424 L 448.16267485762415 419.790482243984" stroke-miterlimit="10"/></g><g transform="translate(-118,-86) scale(1,1)"><g><path fill="none" stroke="none"/><text fill="#000000" stroke="none" font-family="Arial" font-size="13px" font-style="normal" font-weight="normal" text-decoration="none" x="456" y="418">1</text></g></g><g transform="translate(-118,-86) scale(1,1)"><rect fill="#C0C0C0" stroke="none" x="911" y="247" width="346.873046875" height="85" opacity="0.2"/></g><g transform="translate(-118,-86) scale(1,1)"><rect fill="#ffffff" stroke="none" x="904" y="240" width="346.873046875" height="85"/></g><g transform="translate(-118,-86) scale(1,1)"><path fill="none" stroke="#000000" d="M 904 240 L 1250.873046875 240 L 1250.873046875 325 L 904 325 L 904 240 Z Z" stroke-miterlimit="10"/></g><g transform="translate(-118,-86) scale(1,1)"><path fill="none" stroke="#000000" d="M 904 280 L 1250.873046875 280" stroke-miterlimit="10"/></g><g transform="translate(-118,-86) scale(1,1)"><path fill="none" stroke="#000000" d="M 904 303 L 1250.873046875 303" stroke-miterlimit="10"/></g><g transform="translate(-118,-86) scale(1,1)"><g><path fill="none" stroke="none"/><text fill="#000000" stroke="none" font-family="Arial" font-size="13px" font-style="normal" font-weight="bold" text-decoration="none" x="1035.887939453125" y="259.5">RenderWidget</text></g></g><g transform="translate(-118,-86) scale(1,1)"><g><path fill="none" stroke="none"/><text fill="#000000" stroke="none" font-family="Arial" font-size="13px" font-style="normal" font-weight="normal" text-decoration="none" x="1036.979736328125" y="274.5">(from content)</text></g></g><g transform="translate(-118,-86) scale(1,1)"><g><path fill="none" stroke="none"/><text fill="#000000" stroke="none" font-family="Arial" font-size="13px" font-style="normal" font-weight="normal" text-decoration="none" x="909" y="297.5">+input_handler_: scoped_ptr&lt;RenderWidgetInputHandler&gt;</text></g></g><g transform="translate(-118,-86) scale(1,1)"><g><path fill="none" stroke="none"/><text fill="#000000" stroke="none" font-family="Arial" font-size="13px" font-style="normal" font-weight="normal" text-decoration="none" x="909" y="320.5">+OnHandleInputEvent(): void</text></g></g><g transform="translate(-118,-86) scale(1,1)"><path fill="none" stroke="#000000" d="M 1088 240 L 1088 192 L 636 192 L 636 119" stroke-miterlimit="10"/></g><g transform="translate(-118,-86) scale(1,1)"><rect fill="#C0C0C0" stroke="none" x="807" y="399" width="309.955078125" height="72" opacity="0.2"/></g><g transform="translate(-118,-86) scale(1,1)"><rect fill="#ffffff" stroke="none" x="800" y="392" width="309.955078125" height="72"/></g><g transform="translate(-118,-86) scale(1,1)"><path fill="none" stroke="#000000" d="M 800 392 L 1109.955078125 392 L 1109.955078125 464 L 800 464 L 800 392 Z Z" stroke-miterlimit="10"/></g><g transform="translate(-118,-86) scale(1,1)"><path fill="none" stroke="#000000" d="M 800 432 L 1109.955078125 432" stroke-miterlimit="10"/></g><g transform="translate(-118,-86) scale(1,1)"><path fill="none" stroke="#000000" d="M 800 442 L 1109.955078125 442" stroke-miterlimit="10"/></g><g transform="translate(-118,-86) scale(1,1)"><g><path fill="none" stroke="none"/><text fill="#000000" stroke="none" font-family="Arial" font-size="13px" font-style="normal" font-weight="bold" text-decoration="none" x="907.290771484375" y="411.5">RenderViewImpl</text></g></g><g transform="translate(-118,-86) scale(1,1)"><g><path fill="none" stroke="none"/><text fill="#000000" stroke="none" font-family="Arial" font-size="13px" font-style="normal" font-weight="normal" text-decoration="none" x="914.520751953125" y="426.5">(from content)</text></g></g><g transform="translate(-118,-86) scale(1,1)"><g><path fill="none" stroke="none"/><text fill="#000000" stroke="none" font-family="Arial" font-size="13px" font-style="normal" font-weight="normal" text-decoration="none" x="805" y="459.5">+OnMessageReceived(message: Message&amp;, : bool)</text></g></g><g transform="translate(-118,-86) scale(1,1)"><rect fill="#C0C0C0" stroke="none" x="975" y="551" width="177.2763671875" height="85" opacity="0.2"/></g><g transform="translate(-118,-86) scale(1,1)"><rect fill="#ffffff" stroke="none" x="968" y="544" width="177.2763671875" height="85"/></g><g transform="translate(-118,-86) scale(1,1)"><path fill="none" stroke="#000000" d="M 968 544 L 1145.2763671875 544 L 1145.2763671875 629 L 968 629 L 968 544 Z Z" stroke-miterlimit="10"/></g><g transform="translate(-118,-86) scale(1,1)"><path fill="none" stroke="#000000" d="M 968 584 L 1145.2763671875 584" stroke-miterlimit="10"/></g><g transform="translate(-118,-86) scale(1,1)"><path fill="none" stroke="#000000" d="M 968 607 L 1145.2763671875 607" stroke-miterlimit="10"/></g><g transform="translate(-118,-86) scale(1,1)"><g><path fill="none" stroke="none"/><text fill="#000000" stroke="none" font-family="Arial" font-size="13px" font-style="normal" font-weight="bold" text-decoration="none" x="977.8701171875" y="563.5">RenderWidgetInputHandler</text></g></g><g transform="translate(-118,-86) scale(1,1)"><g><path fill="none" stroke="none"/><text fill="#000000" stroke="none" font-family="Arial" font-size="13px" font-style="normal" font-weight="normal" text-decoration="none" x="1016.181396484375" y="578.5">(from content)</text></g></g><g transform="translate(-118,-86) scale(1,1)"><g><path fill="none" stroke="none"/><text fill="#000000" stroke="none" font-family="Arial" font-size="13px" font-style="normal" font-weight="normal" text-decoration="none" x="973" y="601.5">+widget_: RenderWidget*</text></g></g><g transform="translate(-118,-86) scale(1,1)"><g><path fill="none" stroke="none"/><text fill="#000000" stroke="none" font-family="Arial" font-size="13px" font-style="normal" font-weight="normal" text-decoration="none" x="973" y="624.5">+HandleInputEvent(): void</text></g></g><g transform="translate(-118,-86) scale(1,1)"><path fill="none" stroke="#000000" d="M 1145 568 L 1224 568 L 1224 325" stroke-miterlimit="10"/></g><g transform="translate(-118,-86) scale(1,1)"><path fill="#FFFFFF" stroke="none" d="M 1228.2095177560159 335.16267485762415 L 1224 325 L 1219.7904822439841 335.16267485762415 L 1224 347"/></g><g transform="translate(-118,-86) scale(1,1)"><path fill="none" stroke="#000000" d="M 1228.2095177560159 335.16267485762415 L 1224 325 L 1219.7904822439841 335.16267485762415 L 1224 347 L 1228.2095177560159 335.16267485762415" stroke-miterlimit="10"/></g><g transform="translate(-118,-86) scale(1,1)"><g><path fill="none" stroke="none"/><text fill="#000000" stroke="none" font-family="Arial" font-size="13px" font-style="normal" font-weight="normal" text-decoration="none" x="1233" y="353">1</text></g></g><g transform="translate(-118,-86) scale(1,1)"><path fill="#C0C0C0" stroke="none" d="M 638.5 554.5 C 638.5 548.1487248 643.6487248 543 650 543 C 656.3512752 543 661.5 548.1487248 661.5 554.5 C 661.5 560.8512752 656.3512752 566 650 566 C 643.6487248 566 638.5 560.8512752 638.5 554.5 Z" opacity="0.2"/></g><g transform="translate(-118,-86) scale(1,1)"><path fill="#ffffff" stroke="none" d="M 631.5 547.5 C 631.5 541.1487248 636.6487248 536 643 536 C 649.3512752 536 654.5 541.1487248 654.5 547.5 C 654.5 553.8512752 649.3512752 559 643 559 C 636.6487248 559 631.5 553.8512752 631.5 547.5 Z"/></g><g transform="translate(-118,-86) scale(1,1)"><path fill="none" stroke="#000000" d="M 631.5 547.5 C 631.5 541.1487248 636.6487248 536 643 536 C 649.3512752 536 654.5 541.1487248 654.5 547.5 C 654.5 553.8512752 649.3512752 559 643 559 C 636.6487248 559 631.5 553.8512752 631.5 547.5 Z" stroke-miterlimit="10"/></g><g transform="translate(-118,-86) scale(1,1)"><path fill="none" stroke="#000000" d="M 456 599 L 830 599" stroke-miterlimit="10"/></g><g transform="translate(-118,-86) scale(1,1)"><g><path fill="none" stroke="none"/><text fill="#000000" stroke="none" font-family="Arial" font-size="13px" font-style="normal" font-weight="bold" text-decoration="none" x="609.405029296875" y="578.5">WebWidget</text></g></g><g transform="translate(-118,-86) scale(1,1)"><g><path fill="none" stroke="none"/><text fill="#000000" stroke="none" font-family="Arial" font-size="13px" font-style="normal" font-weight="normal" text-decoration="none" x="610.496826171875" y="593.5">(from blink)</text></g></g><g transform="translate(-118,-86) scale(1,1)"><g><path fill="none" stroke="none"/><text fill="#000000" stroke="none" font-family="Arial" font-size="13px" font-style="italic" font-weight="normal" text-decoration="none" x="461" y="616.5">+handleInputEvent(: WebInputEvent&amp;, : WebInputEventResult)</text></g></g><g transform="translate(-118,-86) scale(1,1)"><path fill="none" stroke="#000000" d="M 640 536 L 640 504 L 1152 504 L 1152 325" stroke-miterlimit="10"/></g><g transform="translate(-118,-86) scale(1,1)"><path fill="#000000" stroke="none" d="M 1156.2095177560159 335.16267485762415 L 1152 325 L 1147.7904822439841 335.16267485762415 L 1152 347"/></g><g transform="translate(-118,-86) scale(1,1)"><path fill="none" stroke="#000000" d="M 1156.2095177560159 335.16267485762415 L 1152 325 L 1147.7904822439841 335.16267485762415 L 1152 347 L 1156.2095177560159 335.16267485762415" stroke-miterlimit="10"/></g><g transform="translate(-118,-86) scale(1,1)"><path fill="none" stroke="#000000" d="M 840 392 L 840 280 L 768 280" stroke-miterlimit="10"/></g><g transform="translate(-118,-86) scale(1,1)"><path fill="none" stroke="#000000" d="M 778.1626748576241 275.790482243984 L 768 280 L 778.1626748576241 284.209517756016" stroke-miterlimit="10"/></g><g transform="translate(-118,-86) scale(1,1)"><g><path fill="none" stroke="none"/><text fill="#000000" stroke="none" font-family="Arial" font-size="13px" font-style="normal" font-weight="normal" text-decoration="none" x="780" y="274">0..*</text></g></g><g transform="translate(-118,-86) scale(1,1)"><path fill="none" stroke="#000000" d="M 1008 392 L 1008 325" stroke-miterlimit="10"/></g><g transform="translate(-118,-86) scale(1,1)"><path fill="#FFFFFF" stroke="none" d="M 1016.419035512032 345.3253497152483 L 1008 325 L 999.580964487968 345.3253497152483"/></g><g transform="translate(-118,-86) scale(1,1)"><path fill="none" stroke="#000000" d="M 1016.419035512032 345.3253497152483 L 1008 325 L 999.580964487968 345.3253497152483 L 1016.419035512032 345.3253497152483" stroke-miterlimit="10"/></g></g></svg>