<svg version="1.1" xmlns="http://www.w3.org/2000/svg" xmlns:xlink="http://www.w3.org/1999/xlink" width="1052" height="310"><defs/><g><g transform="translate(-70,-30) scale(1,1)"><rect fill="#C0C0C0" stroke="none" x="87" y="47" width="77.5126953125" height="39" opacity="0.2"/></g><g transform="translate(-70,-30) scale(1,1)"><rect fill="#ffffff" stroke="none" x="80" y="40" width="77.5126953125" height="39"/></g><g transform="translate(-70,-30) scale(1,1)"><path fill="none" stroke="#000000" d="M 80 40 L 157.5126953125 40 L 157.5126953125 79 L 80 79 L 80 40 Z Z" stroke-miterlimit="10"/></g><g transform="translate(-70,-30) scale(1,1)"><g><path fill="none" stroke="none"/><text fill="#000000" stroke="none" font-family="Arial" font-size="13px" font-style="normal" font-weight="bold" text-decoration="none" x="91.65185546875" y="59.5">io_thread</text></g></g><g transform="translate(-70,-30) scale(1,1)"><path fill="none" stroke="#000000" d="M 119.5 80 L 119.5 328" stroke-miterlimit="10" stroke-dasharray="3"/></g><g transform="translate(-70,-30) scale(1,1)"><rect fill="#C0C0C0" stroke="none" x="231" y="47" width="121.55908203125" height="39" opacity="0.2"/></g><g transform="translate(-70,-30) scale(1,1)"><rect fill="#ffffff" stroke="none" x="224" y="40" width="121.55908203125" height="39"/></g><g transform="translate(-70,-30) scale(1,1)"><path fill="none" stroke="#000000" d="M 224 40 L 345.55908203125 40 L 345.55908203125 79 L 224 79 L 224 40 Z Z" stroke-miterlimit="10"/></g><g transform="translate(-70,-30) scale(1,1)"><g><path fill="none" stroke="none"/><text fill="#000000" stroke="none" font-family="Arial" font-size="13px" font-style="normal" font-weight="bold" text-decoration="none" x="259.85546875" y="59.5">receiver:</text><text fill="#000000" stroke="none" font-family="Arial" font-size="13px" font-style="normal" font-weight="bold" text-decoration="none" x="237.0927734375" y="72.5">ChildThreadImpl</text></g></g><g transform="translate(-70,-30) scale(1,1)"><path fill="none" stroke="#000000" d="M 285.5 80 L 285.5 328" stroke-miterlimit="10" stroke-dasharray="3"/></g><g transform="translate(-70,-30) scale(1,1)"><rect fill="#C0C0C0" stroke="none" x="375" y="47" width="191.6435546875" height="39" opacity="0.2"/></g><g transform="translate(-70,-30) scale(1,1)"><rect fill="#ffffff" stroke="none" x="368" y="40" width="191.6435546875" height="39"/></g><g transform="translate(-70,-30) scale(1,1)"><path fill="none" stroke="#000000" d="M 368 40 L 559.6435546875 40 L 559.6435546875 79 L 368 79 L 368 40 Z Z" stroke-miterlimit="10"/></g><g transform="translate(-70,-30) scale(1,1)"><g><path fill="none" stroke="none"/><text fill="#000000" stroke="none" font-family="Arial" font-size="13px" font-style="normal" font-weight="bold" text-decoration="none" x="441.4208984375" y="59.5">router_:</text><text fill="#000000" stroke="none" font-family="Arial" font-size="13px" font-style="normal" font-weight="bold" text-decoration="none" x="382.530517578125" y="72.5">ChildThreadMessageRouter</text></g></g><g transform="translate(-70,-30) scale(1,1)"><path fill="none" stroke="#000000" d="M 464.5 80 L 464.5 328" stroke-miterlimit="10" stroke-dasharray="3"/></g><g transform="translate(-70,-30) scale(1,1)"><rect fill="#C0C0C0" stroke="none" x="599" y="47" width="120.13720703125" height="39" opacity="0.2"/></g><g transform="translate(-70,-30) scale(1,1)"><rect fill="#ffffff" stroke="none" x="592" y="40" width="120.13720703125" height="39"/></g><g transform="translate(-70,-30) scale(1,1)"><path fill="none" stroke="#000000" d="M 592 40 L 712.13720703125 40 L 712.13720703125 79 L 592 79 L 592 40 Z Z" stroke-miterlimit="10"/></g><g transform="translate(-70,-30) scale(1,1)"><g><path fill="none" stroke="none"/><text fill="#000000" stroke="none" font-family="Arial" font-size="13px" font-style="normal" font-weight="bold" text-decoration="none" x="629.30908203125" y="59.5">listener:</text><text fill="#000000" stroke="none" font-family="Arial" font-size="13px" font-style="normal" font-weight="bold" text-decoration="none" x="604.3818359375" y="72.5">RenderViewImpl</text></g></g><g transform="translate(-70,-30) scale(1,1)"><path fill="none" stroke="#000000" d="M 653.5 80 L 653.5 330" stroke-miterlimit="10" stroke-dasharray="3"/></g><g transform="translate(-70,-30) scale(1,1)"><rect fill="#C0C0C0" stroke="none" x="743" y="47" width="187.2763671875" height="39" opacity="0.2"/></g><g transform="translate(-70,-30) scale(1,1)"><rect fill="#ffffff" stroke="none" x="736" y="40" width="187.2763671875" height="39"/></g><g transform="translate(-70,-30) scale(1,1)"><path fill="none" stroke="#000000" d="M 736 40 L 923.2763671875 40 L 923.2763671875 79 L 736 79 L 736 40 Z Z" stroke-miterlimit="10"/></g><g transform="translate(-70,-30) scale(1,1)"><g><path fill="none" stroke="none"/><text fill="#000000" stroke="none" font-family="Arial" font-size="13px" font-style="normal" font-weight="bold" text-decoration="none" x="784.82373046875" y="59.5">input_handler_:</text><text fill="#000000" stroke="none" font-family="Arial" font-size="13px" font-style="normal" font-weight="bold" text-decoration="none" x="750.8701171875" y="72.5">RenderWidgetInputHandler</text></g></g><g transform="translate(-70,-30) scale(1,1)"><path fill="none" stroke="#000000" d="M 830.5 80 L 830.5 330" stroke-miterlimit="10" stroke-dasharray="3"/></g><g transform="translate(-70,-30) scale(1,1)"><rect fill="#C0C0C0" stroke="none" x="951" y="47" width="168" height="39" opacity="0.2"/></g><g transform="translate(-70,-30) scale(1,1)"><rect fill="#ffffff" stroke="none" x="944" y="40" width="168" height="39"/></g><g transform="translate(-70,-30) scale(1,1)"><path fill="none" stroke="#000000" d="M 944 40 L 1112 40 L 1112 79 L 944 79 L 944 40 Z Z" stroke-miterlimit="10"/></g><g transform="translate(-70,-30) scale(1,1)"><g><path fill="none" stroke="none"/><text fill="#000000" stroke="none" font-family="Arial" font-size="13px" font-style="normal" font-weight="bold" text-decoration="none" x="956.465087890625" y="59.5">webwidget_: WebWidget</text></g></g><g transform="translate(-70,-30) scale(1,1)"><path fill="none" stroke="#000000" d="M 1029.5 80 L 1029.5 328" stroke-miterlimit="10" stroke-dasharray="3"/></g><g transform="translate(-70,-30) scale(1,1)"><path fill="none" stroke="#000000" d="M 119 106 L 278 106" stroke-miterlimit="10"/></g><g transform="translate(-70,-30) scale(1,1)"><path fill="none" stroke="#000000" d="M 267.83732514237585 110.20951775601598 L 278 106 L 267.83732514237585 101.79048224398402" stroke-miterlimit="10"/></g><g transform="translate(-70,-30) scale(1,1)"><g><path fill="none" stroke="none"/><text fill="#000000" stroke="none" font-family="Arial" font-size="13px" font-style="normal" font-weight="normal" text-decoration="none" x="127" y="103">1 : OnMessageReceived</text></g></g><g transform="translate(-70,-30) scale(1,1)"><rect fill="#ffffff" stroke="none" x="278" y="106" width="13" height="28"/></g><g transform="translate(-70,-30) scale(1,1)"><path fill="none" stroke="#000000" d="M 278 106 L 291 106 L 291 134 L 278 134 L 278 106 Z Z" stroke-miterlimit="10"/></g><g transform="translate(-70,-30) scale(1,1)"><path fill="none" stroke="#000000" d="M 291 120 L 457 120" stroke-miterlimit="10"/></g><g transform="translate(-70,-30) scale(1,1)"><path fill="none" stroke="#000000" d="M 446.83732514237585 124.20951775601598 L 457 120 L 446.83732514237585 115.79048224398402" stroke-miterlimit="10"/></g><g transform="translate(-70,-30) scale(1,1)"><g><path fill="none" stroke="none"/><text fill="#000000" stroke="none" font-family="Arial" font-size="13px" font-style="normal" font-weight="normal" text-decoration="none" x="303" y="117">2 : OnMessageReceived</text></g></g><g transform="translate(-70,-30) scale(1,1)"><rect fill="#ffffff" stroke="none" x="457" y="120" width="13" height="59"/></g><g transform="translate(-70,-30) scale(1,1)"><path fill="none" stroke="#000000" d="M 457 120 L 470 120 L 470 179 L 457 179 L 457 120 Z Z" stroke-miterlimit="10"/></g><g transform="translate(-70,-30) scale(1,1)"><path fill="none" stroke="#000000" d="M 470 128 L 500 128 L 500 148 L 477 148" stroke-miterlimit="10"/></g><g transform="translate(-70,-30) scale(1,1)"><path fill="#000000" stroke="none" d="M 487.16267485762415 143.790482243984 L 477 148 L 487.16267485762415 152.209517756016"/></g><g transform="translate(-70,-30) scale(1,1)"><path fill="none" stroke="#000000" d="M 487.16267485762415 143.790482243984 L 477 148 L 487.16267485762415 152.209517756016 L 487.16267485762415 143.790482243984" stroke-miterlimit="10"/></g><g transform="translate(-70,-30) scale(1,1)"><g><path fill="none" stroke="none"/><text fill="#000000" stroke="none" font-family="Arial" font-size="13px" font-style="normal" font-weight="normal" text-decoration="none" x="504" y="144">3 : RouteMessage</text></g></g><g transform="translate(-70,-30) scale(1,1)"><rect fill="#ffffff" stroke="none" x="464" y="148" width="13" height="28"/></g><g transform="translate(-70,-30) scale(1,1)"><path fill="none" stroke="#000000" d="M 464 148 L 477 148 L 477 176 L 464 176 L 464 148 Z Z" stroke-miterlimit="10"/></g><g transform="translate(-70,-30) scale(1,1)"><path fill="none" stroke="#000000" d="M 477 168 L 646 168" stroke-miterlimit="10"/></g><g transform="translate(-70,-30) scale(1,1)"><path fill="none" stroke="#000000" d="M 635.8373251423759 172.209517756016 L 646 168 L 635.8373251423758 163.790482243984" stroke-miterlimit="10"/></g><g transform="translate(-70,-30) scale(1,1)"><g><path fill="none" stroke="none"/><text fill="#000000" stroke="none" font-family="Arial" font-size="13px" font-style="normal" font-weight="normal" text-decoration="none" x="490" y="165">4 : OnMessageReceived</text></g></g><g transform="translate(-70,-30) scale(1,1)"><rect fill="#ffffff" stroke="none" x="646" y="168" width="13" height="94"/></g><g transform="translate(-70,-30) scale(1,1)"><path fill="none" stroke="#000000" d="M 646 168 L 659 168 L 659 262 L 646 262 L 646 168 Z Z" stroke-miterlimit="10"/></g><g transform="translate(-70,-30) scale(1,1)"><path fill="none" stroke="#000000" d="M 659 176 L 689 176 L 689 196 L 666 196" stroke-miterlimit="10"/></g><g transform="translate(-70,-30) scale(1,1)"><path fill="#000000" stroke="none" d="M 676.1626748576241 191.790482243984 L 666 196 L 676.1626748576241 200.209517756016"/></g><g transform="translate(-70,-30) scale(1,1)"><path fill="none" stroke="#000000" d="M 676.1626748576241 191.790482243984 L 666 196 L 676.1626748576241 200.209517756016 L 676.1626748576241 191.790482243984" stroke-miterlimit="10"/></g><g transform="translate(-70,-30) scale(1,1)"><g><path fill="none" stroke="none"/><text fill="#000000" stroke="none" font-family="Arial" font-size="13px" font-style="normal" font-weight="normal" text-decoration="none" x="663" y="189">5 : OnMessageReceived</text></g></g><g transform="translate(-70,-30) scale(1,1)"><rect fill="#ffffff" stroke="none" x="653" y="196" width="13" height="63"/></g><g transform="translate(-70,-30) scale(1,1)"><path fill="none" stroke="#000000" d="M 653 196 L 666 196 L 666 259 L 653 259 L 653 196 Z Z" stroke-miterlimit="10"/></g><g transform="translate(-70,-30) scale(1,1)"><path fill="none" stroke="#000000" d="M 666 208 L 696 208 L 696 228 L 673 228" stroke-miterlimit="10"/></g><g transform="translate(-70,-30) scale(1,1)"><path fill="#000000" stroke="none" d="M 683.1626748576241 223.790482243984 L 673 228 L 683.1626748576241 232.209517756016"/></g><g transform="translate(-70,-30) scale(1,1)"><path fill="none" stroke="#000000" d="M 683.1626748576241 223.790482243984 L 673 228 L 683.1626748576241 232.209517756016 L 683.1626748576241 223.790482243984" stroke-miterlimit="10"/></g><g transform="translate(-70,-30) scale(1,1)"><g><path fill="none" stroke="none"/><text fill="#000000" stroke="none" font-family="Arial" font-size="13px" font-style="normal" font-weight="normal" text-decoration="none" x="671" y="224">6 : OnHandleInputEvent</text></g></g><g transform="translate(-70,-30) scale(1,1)"><rect fill="#ffffff" stroke="none" x="660" y="228" width="13" height="28"/></g><g transform="translate(-70,-30) scale(1,1)"><path fill="none" stroke="#000000" d="M 660 228 L 673 228 L 673 256 L 660 256 L 660 228 Z Z" stroke-miterlimit="10"/></g><g transform="translate(-70,-30) scale(1,1)"><path fill="none" stroke="#000000" d="M 673 248 L 823 248" stroke-miterlimit="10"/></g><g transform="translate(-70,-30) scale(1,1)"><path fill="none" stroke="#000000" d="M 812.8373251423759 252.209517756016 L 823 248 L 812.8373251423758 243.790482243984" stroke-miterlimit="10"/></g><g transform="translate(-70,-30) scale(1,1)"><g><path fill="none" stroke="none"/><text fill="#000000" stroke="none" font-family="Arial" font-size="13px" font-style="normal" font-weight="normal" text-decoration="none" x="688" y="245">7 : HandleInputEvent</text></g></g><g transform="translate(-70,-30) scale(1,1)"><rect fill="#ffffff" stroke="none" x="823" y="248" width="13" height="28"/></g><g transform="translate(-70,-30) scale(1,1)"><path fill="none" stroke="#000000" d="M 823 248 L 836 248 L 836 276 L 823 276 L 823 248 Z Z" stroke-miterlimit="10"/></g><g transform="translate(-70,-30) scale(1,1)"><path fill="none" stroke="#000000" d="M 836 264 L 1022 264" stroke-miterlimit="10"/></g><g transform="translate(-70,-30) scale(1,1)"><path fill="none" stroke="#000000" d="M 1011.8373251423759 268.209517756016 L 1022 264 L 1011.8373251423758 259.790482243984" stroke-miterlimit="10"/></g><g transform="translate(-70,-30) scale(1,1)"><g><path fill="none" stroke="none"/><text fill="#000000" stroke="none" font-family="Arial" font-size="13px" font-style="normal" font-weight="normal" text-decoration="none" x="870" y="261">8 : handleInputEvent</text></g></g><g transform="translate(-70,-30) scale(1,1)"><rect fill="#ffffff" stroke="none" x="1022" y="264" width="13" height="28"/></g><g transform="translate(-70,-30) scale(1,1)"><path fill="none" stroke="#000000" d="M 1022 264 L 1035 264 L 1035 292 L 1022 292 L 1022 264 Z Z" stroke-miterlimit="10"/></g></g></svg>