<svg version="1.1" xmlns="http://www.w3.org/2000/svg" xmlns:xlink="http://www.w3.org/1999/xlink" width="935.09912109375" height="684"><defs/><g><g transform="translate(-78,-78) scale(1,1)"><rect fill="#C0C0C0" stroke="none" x="151" y="95" width="371.40673828125" height="100" opacity="0.2"/></g><g transform="translate(-78,-78) scale(1,1)"><rect fill="#ffffff" stroke="none" x="144" y="88" width="371.40673828125" height="100"/></g><g transform="translate(-78,-78) scale(1,1)"><path fill="none" stroke="#000000" d="M 144 88 L 515.40673828125 88 L 515.40673828125 188 L 144 188 L 144 88 Z Z" stroke-miterlimit="10"/></g><g transform="translate(-78,-78) scale(1,1)"><path fill="none" stroke="#000000" d="M 144 128 L 515.40673828125 128" stroke-miterlimit="10"/></g><g transform="translate(-78,-78) scale(1,1)"><path fill="none" stroke="#000000" d="M 144 151 L 515.40673828125 151" stroke-miterlimit="10"/></g><g transform="translate(-78,-78) scale(1,1)"><g><path fill="none" stroke="none"/><text fill="#000000" stroke="none" font-family="Arial" font-size="13px" font-style="normal" font-weight="bold" text-decoration="none" x="289.97021484375" y="107.5">WebViewImpl</text></g></g><g transform="translate(-78,-78) scale(1,1)"><g><path fill="none" stroke="none"/><text fill="#000000" stroke="none" font-family="Arial" font-size="13px" font-style="normal" font-weight="normal" text-decoration="none" x="297.2001953125" y="122.5">(from blink)</text></g></g><g transform="translate(-78,-78) scale(1,1)"><g><path fill="none" stroke="none"/><text fill="#000000" stroke="none" font-family="Arial" font-size="13px" font-style="normal" font-weight="normal" text-decoration="none" x="149" y="145.5">-m_page: Page</text></g></g><g transform="translate(-78,-78) scale(1,1)"><g><path fill="none" stroke="none"/><text fill="#000000" stroke="none" font-family="Arial" font-size="13px" font-style="normal" font-weight="normal" text-decoration="none" x="149" y="168.5">+handleInputEvent(: WebInputEvent&amp;, : WebInputEventResult)</text></g></g><g transform="translate(-78,-78) scale(1,1)"><g><path fill="none" stroke="none"/><text fill="#000000" stroke="none" font-family="Arial" font-size="13px" font-style="normal" font-weight="normal" text-decoration="none" x="149" y="183.5">+handleKeyEvent(event: WebKeyboardEvent&amp;)</text></g></g><g transform="translate(-78,-78) scale(1,1)"><rect fill="#C0C0C0" stroke="none" x="623" y="95" width="259.40234375" height="72" opacity="0.2"/></g><g transform="translate(-78,-78) scale(1,1)"><rect fill="#ffffff" stroke="none" x="616" y="88" width="259.40234375" height="72"/></g><g transform="translate(-78,-78) scale(1,1)"><path fill="none" stroke="#000000" d="M 616 88 L 875.40234375 88 L 875.40234375 160 L 616 160 L 616 88 Z Z" stroke-miterlimit="10"/></g><g transform="translate(-78,-78) scale(1,1)"><path fill="none" stroke="#000000" d="M 616 128 L 875.40234375 128" stroke-miterlimit="10"/></g><g transform="translate(-78,-78) scale(1,1)"><path fill="none" stroke="#000000" d="M 616 138 L 875.40234375 138" stroke-miterlimit="10"/></g><g transform="translate(-78,-78) scale(1,1)"><g><path fill="none" stroke="none"/><text fill="#000000" stroke="none" font-family="Arial" font-size="13px" font-style="normal" font-weight="bold" text-decoration="none" x="684.271728515625" y="107.5">PageWidgetDelegate</text></g></g><g transform="translate(-78,-78) scale(1,1)"><g><path fill="none" stroke="none"/><text fill="#000000" stroke="none" font-family="Arial" font-size="13px" font-style="normal" font-weight="normal" text-decoration="none" x="713.197998046875" y="122.5">(from blink)</text></g></g><g transform="translate(-78,-78) scale(1,1)"><g><path fill="none" stroke="none"/><text fill="#000000" stroke="none" font-family="Arial" font-size="13px" font-style="normal" font-weight="normal" text-decoration="none" x="621" y="155.5">+handleInputEvent(): WebInputEventResult</text></g></g><g transform="translate(-78,-78) scale(1,1)"><rect fill="#C0C0C0" stroke="none" x="111" y="247" width="145.169921875" height="72" opacity="0.2"/></g><g transform="translate(-78,-78) scale(1,1)"><rect fill="#ffffff" stroke="none" x="104" y="240" width="145.169921875" height="72"/></g><g transform="translate(-78,-78) scale(1,1)"><path fill="none" stroke="#000000" d="M 104 240 L 249.169921875 240 L 249.169921875 312 L 104 312 L 104 240 Z Z" stroke-miterlimit="10"/></g><g transform="translate(-78,-78) scale(1,1)"><path fill="none" stroke="#000000" d="M 104 280 L 249.169921875 280" stroke-miterlimit="10"/></g><g transform="translate(-78,-78) scale(1,1)"><path fill="none" stroke="#000000" d="M 104 303 L 249.169921875 303" stroke-miterlimit="10"/></g><g transform="translate(-78,-78) scale(1,1)"><g><path fill="none" stroke="none"/><text fill="#000000" stroke="none" font-family="Arial" font-size="13px" font-style="normal" font-weight="bold" text-decoration="none" x="161.404541015625" y="259.5">Page</text></g></g><g transform="translate(-78,-78) scale(1,1)"><g><path fill="none" stroke="none"/><text fill="#000000" stroke="none" font-family="Arial" font-size="13px" font-style="normal" font-weight="normal" text-decoration="none" x="144.081787109375" y="274.5">(from blink)</text></g></g><g transform="translate(-78,-78) scale(1,1)"><g><path fill="none" stroke="none"/><text fill="#000000" stroke="none" font-family="Arial" font-size="13px" font-style="normal" font-weight="normal" text-decoration="none" x="109" y="297.5">+m_mainFrame: Frame</text></g></g><g transform="translate(-78,-78) scale(1,1)"><path fill="none" stroke="#000000" d="M 176 240 L 176 188" stroke-miterlimit="10"/></g><g transform="translate(-78,-78) scale(1,1)"><path fill="#000000" stroke="none" d="M 180.209517756016 198.16267485762415 L 176 188 L 171.790482243984 198.16267485762415 L 176 210"/></g><g transform="translate(-78,-78) scale(1,1)"><path fill="none" stroke="#000000" d="M 180.209517756016 198.16267485762415 L 176 188 L 171.790482243984 198.16267485762415 L 176 210 L 180.209517756016 198.16267485762415" stroke-miterlimit="10"/></g><g transform="translate(-78,-78) scale(1,1)"><g><path fill="none" stroke="none"/><text fill="#000000" stroke="none" font-family="Arial" font-size="13px" font-style="normal" font-weight="normal" text-decoration="none" x="185" y="216">1</text></g></g><g transform="translate(-78,-78) scale(1,1)"><path fill="none" stroke="#000000" d="M 616 112 L 515 112" stroke-miterlimit="10" stroke-dasharray="3"/></g><g transform="translate(-78,-78) scale(1,1)"><path fill="none" stroke="#000000" d="M 525.1626748576241 107.79048224398402 L 515 112 L 525.1626748576241 116.20951775601598" stroke-miterlimit="10"/></g><g transform="translate(-78,-78) scale(1,1)"><rect fill="#C0C0C0" stroke="none" x="111" y="407" width="159.642578125" height="72" opacity="0.2"/></g><g transform="translate(-78,-78) scale(1,1)"><rect fill="#ffffff" stroke="none" x="104" y="400" width="159.642578125" height="72"/></g><g transform="translate(-78,-78) scale(1,1)"><path fill="none" stroke="#000000" d="M 104 400 L 263.642578125 400 L 263.642578125 472 L 104 472 L 104 400 Z Z" stroke-miterlimit="10"/></g><g transform="translate(-78,-78) scale(1,1)"><path fill="none" stroke="#000000" d="M 104 440 L 263.642578125 440" stroke-miterlimit="10"/></g><g transform="translate(-78,-78) scale(1,1)"><path fill="none" stroke="#000000" d="M 104 463 L 263.642578125 463" stroke-miterlimit="10"/></g><g transform="translate(-78,-78) scale(1,1)"><g><path fill="none" stroke="none"/><text fill="#000000" stroke="none" font-family="Arial" font-size="13px" font-style="normal" font-weight="bold" text-decoration="none" x="165.041748046875" y="419.5">Frame</text></g></g><g transform="translate(-78,-78) scale(1,1)"><g><path fill="none" stroke="none"/><text fill="#000000" stroke="none" font-family="Arial" font-size="13px" font-style="normal" font-weight="normal" text-decoration="none" x="151.318115234375" y="434.5">(from blink)</text></g></g><g transform="translate(-78,-78) scale(1,1)"><g><path fill="none" stroke="none"/><text fill="#000000" stroke="none" font-family="Arial" font-size="13px" font-style="normal" font-weight="normal" text-decoration="none" x="109" y="457.5">+m_treeNode: FrameTree</text></g></g><g transform="translate(-78,-78) scale(1,1)"><rect fill="#C0C0C0" stroke="none" x="95" y="543" width="197.9697265625" height="85" opacity="0.2"/></g><g transform="translate(-78,-78) scale(1,1)"><rect fill="#ffffff" stroke="none" x="88" y="536" width="197.9697265625" height="85"/></g><g transform="translate(-78,-78) scale(1,1)"><path fill="none" stroke="#000000" d="M 88 536 L 285.9697265625 536 L 285.9697265625 621 L 88 621 L 88 536 Z Z" stroke-miterlimit="10"/></g><g transform="translate(-78,-78) scale(1,1)"><path fill="none" stroke="#000000" d="M 88 576 L 285.9697265625 576" stroke-miterlimit="10"/></g><g transform="translate(-78,-78) scale(1,1)"><path fill="none" stroke="#000000" d="M 88 599 L 285.9697265625 599" stroke-miterlimit="10"/></g><g transform="translate(-78,-78) scale(1,1)"><g><path fill="none" stroke="none"/><text fill="#000000" stroke="none" font-family="Arial" font-size="13px" font-style="normal" font-weight="bold" text-decoration="none" x="152.666259765625" y="555.5">LocalFrame</text></g></g><g transform="translate(-78,-78) scale(1,1)"><g><path fill="none" stroke="none"/><text fill="#000000" stroke="none" font-family="Arial" font-size="13px" font-style="normal" font-weight="normal" text-decoration="none" x="154.481689453125" y="570.5">(from blink)</text></g></g><g transform="translate(-78,-78) scale(1,1)"><g><path fill="none" stroke="none"/><text fill="#000000" stroke="none" font-family="Arial" font-size="13px" font-style="normal" font-weight="normal" text-decoration="none" x="93" y="593.5">+m_eventHandler: EventHandler</text></g></g><g transform="translate(-78,-78) scale(1,1)"><g><path fill="none" stroke="none"/><text fill="#000000" stroke="none" font-family="Arial" font-size="13px" font-style="normal" font-weight="normal" text-decoration="none" x="93" y="616.5">+eventHandler(): EventHandler&amp;</text></g></g><g transform="translate(-78,-78) scale(1,1)"><path fill="none" stroke="#000000" d="M 176 536 L 176 472" stroke-miterlimit="10"/></g><g transform="translate(-78,-78) scale(1,1)"><path fill="#FFFFFF" stroke="none" d="M 184.41903551203197 492.3253497152483 L 176 472 L 167.58096448796803 492.3253497152483"/></g><g transform="translate(-78,-78) scale(1,1)"><path fill="none" stroke="#000000" d="M 184.41903551203197 492.3253497152483 L 176 472 L 167.58096448796803 492.3253497152483 L 184.41903551203197 492.3253497152483" stroke-miterlimit="10"/></g><g transform="translate(-78,-78) scale(1,1)"><path fill="none" stroke="#000000" d="M 184 400 L 184 312" stroke-miterlimit="10"/></g><g transform="translate(-78,-78) scale(1,1)"><path fill="#000000" stroke="none" d="M 188.209517756016 322.16267485762415 L 184 312 L 179.790482243984 322.16267485762415 L 184 334"/></g><g transform="translate(-78,-78) scale(1,1)"><path fill="none" stroke="#000000" d="M 188.209517756016 322.16267485762415 L 184 312 L 179.790482243984 322.16267485762415 L 184 334 L 188.209517756016 322.16267485762415" stroke-miterlimit="10"/></g><g transform="translate(-78,-78) scale(1,1)"><g><path fill="none" stroke="none"/><text fill="#000000" stroke="none" font-family="Arial" font-size="13px" font-style="normal" font-weight="normal" text-decoration="none" x="193" y="340">1</text></g></g><g transform="translate(-78,-78) scale(1,1)"><rect fill="#C0C0C0" stroke="none" x="327" y="247" width="304.17236328125" height="72" opacity="0.2"/></g><g transform="translate(-78,-78) scale(1,1)"><rect fill="#ffffff" stroke="none" x="320" y="240" width="304.17236328125" height="72"/></g><g transform="translate(-78,-78) scale(1,1)"><path fill="none" stroke="#000000" d="M 320 240 L 624.17236328125 240 L 624.17236328125 312 L 320 312 L 320 240 Z Z" stroke-miterlimit="10"/></g><g transform="translate(-78,-78) scale(1,1)"><path fill="none" stroke="#000000" d="M 320 280 L 624.17236328125 280" stroke-miterlimit="10"/></g><g transform="translate(-78,-78) scale(1,1)"><path fill="none" stroke="#000000" d="M 320 290 L 624.17236328125 290" stroke-miterlimit="10"/></g><g transform="translate(-78,-78) scale(1,1)"><g><path fill="none" stroke="none"/><text fill="#000000" stroke="none" font-family="Arial" font-size="13px" font-style="normal" font-weight="bold" text-decoration="none" x="432.7021484375" y="259.5">EventHandler</text></g></g><g transform="translate(-78,-78) scale(1,1)"><g><path fill="none" stroke="none"/><text fill="#000000" stroke="none" font-family="Arial" font-size="13px" font-style="normal" font-weight="normal" text-decoration="none" x="439.5830078125" y="274.5">(from blink)</text></g></g><g transform="translate(-78,-78) scale(1,1)"><g><path fill="none" stroke="none"/><text fill="#000000" stroke="none" font-family="Arial" font-size="13px" font-style="normal" font-weight="normal" text-decoration="none" x="325" y="307.5">+keyEvent(initialKeyEvent): WebInputEventResult</text></g></g><g transform="translate(-78,-78) scale(1,1)"><path fill="none" stroke="#000000" d="M 392 312 L 392 560 L 286 560" stroke-miterlimit="10"/></g><g transform="translate(-78,-78) scale(1,1)"><path fill="#FFFFFF" stroke="none" d="M 296.16267485762415 555.790482243984 L 286 560 L 296.16267485762415 564.209517756016 L 308 560"/></g><g transform="translate(-78,-78) scale(1,1)"><path fill="none" stroke="#000000" d="M 296.16267485762415 555.790482243984 L 286 560 L 296.16267485762415 564.209517756016 L 308 560 L 296.16267485762415 555.790482243984" stroke-miterlimit="10"/></g><g transform="translate(-78,-78) scale(1,1)"><g><path fill="none" stroke="none"/><text fill="#000000" stroke="none" font-family="Arial" font-size="13px" font-style="normal" font-weight="normal" text-decoration="none" x="304" y="554">1</text></g></g><g transform="translate(-78,-78) scale(1,1)"><rect fill="#C0C0C0" stroke="none" x="663" y="231" width="329.46142578125" height="102" opacity="0.2"/></g><g transform="translate(-78,-78) scale(1,1)"><rect fill="#ffffff" stroke="none" x="656" y="224" width="329.46142578125" height="102"/></g><g transform="translate(-78,-78) scale(1,1)"><path fill="none" stroke="#000000" d="M 656 224 L 985.46142578125 224 L 985.46142578125 326 L 656 326 L 656 224 Z Z" stroke-miterlimit="10"/></g><g transform="translate(-78,-78) scale(1,1)"><path fill="none" stroke="#000000" d="M 656 264 L 985.46142578125 264" stroke-miterlimit="10"/></g><g transform="translate(-78,-78) scale(1,1)"><path fill="none" stroke="#000000" d="M 656 274 L 985.46142578125 274" stroke-miterlimit="10"/></g><g transform="translate(-78,-78) scale(1,1)"><g><path fill="none" stroke="none"/><text fill="#000000" stroke="none" font-family="Arial" font-size="13px" font-style="normal" font-weight="bold" text-decoration="none" x="785.323486328125" y="243.5">EventTarget</text></g></g><g transform="translate(-78,-78) scale(1,1)"><g><path fill="none" stroke="none"/><text fill="#000000" stroke="none" font-family="Arial" font-size="13px" font-style="normal" font-weight="normal" text-decoration="none" x="788.2275390625" y="258.5">(from blink)</text></g></g><g transform="translate(-78,-78) scale(1,1)"><g><path fill="none" stroke="none"/><text fill="#000000" stroke="none" font-family="Arial" font-size="13px" font-style="normal" font-weight="normal" text-decoration="none" x="661" y="291.5">+dispatchEvent(event: Event): bool</text></g></g><g transform="translate(-78,-78) scale(1,1)"><g><path fill="none" stroke="none"/><text fill="#000000" stroke="none" font-family="Arial" font-size="13px" font-style="normal" font-weight="normal" text-decoration="none" x="661" y="306.5">+dispatchEventInternal(event: Event): bool</text></g></g><g transform="translate(-78,-78) scale(1,1)"><g><path fill="none" stroke="none"/><text fill="#000000" stroke="none" font-family="Arial" font-size="13px" font-style="normal" font-weight="normal" text-decoration="none" x="661" y="321.5">+fireEventListeners(event: Event): DispatchEventResult</text></g></g><g transform="translate(-78,-78) scale(1,1)"><rect fill="#C0C0C0" stroke="none" x="519" y="391" width="254.34326171875" height="72" opacity="0.2"/></g><g transform="translate(-78,-78) scale(1,1)"><rect fill="#ffffff" stroke="none" x="512" y="384" width="254.34326171875" height="72"/></g><g transform="translate(-78,-78) scale(1,1)"><path fill="none" stroke="#000000" d="M 512 384 L 766.34326171875 384 L 766.34326171875 456 L 512 456 L 512 384 Z Z" stroke-miterlimit="10"/></g><g transform="translate(-78,-78) scale(1,1)"><path fill="none" stroke="#000000" d="M 512 424 L 766.34326171875 424" stroke-miterlimit="10"/></g><g transform="translate(-78,-78) scale(1,1)"><path fill="none" stroke="#000000" d="M 512 434 L 766.34326171875 434" stroke-miterlimit="10"/></g><g transform="translate(-78,-78) scale(1,1)"><g><path fill="none" stroke="none"/><text fill="#000000" stroke="none" font-family="Arial" font-size="13px" font-style="normal" font-weight="bold" text-decoration="none" x="623.632568359375" y="403.5">Node</text></g></g><g transform="translate(-78,-78) scale(1,1)"><g><path fill="none" stroke="none"/><text fill="#000000" stroke="none" font-family="Arial" font-size="13px" font-style="normal" font-weight="normal" text-decoration="none" x="606.66845703125" y="418.5">(from blink)</text></g></g><g transform="translate(-78,-78) scale(1,1)"><g><path fill="none" stroke="none"/><text fill="#000000" stroke="none" font-family="Arial" font-size="13px" font-style="normal" font-weight="normal" text-decoration="none" x="517" y="451.5">+dispatchEventInternal(event: Event): bool</text></g></g><g transform="translate(-78,-78) scale(1,1)"><path fill="none" stroke="#000000" d="M 704 384 L 704 326" stroke-miterlimit="10"/></g><g transform="translate(-78,-78) scale(1,1)"><path fill="#FFFFFF" stroke="none" d="M 712.419035512032 346.3253497152483 L 704 326 L 695.580964487968 346.3253497152483"/></g><g transform="translate(-78,-78) scale(1,1)"><path fill="none" stroke="#000000" d="M 712.419035512032 346.3253497152483 L 704 326 L 695.580964487968 346.3253497152483 L 712.419035512032 346.3253497152483" stroke-miterlimit="10"/></g><g transform="translate(-78,-78) scale(1,1)"><rect fill="#C0C0C0" stroke="none" x="439" y="503" width="382.2294921875" height="117" opacity="0.2"/></g><g transform="translate(-78,-78) scale(1,1)"><rect fill="#ffffff" stroke="none" x="432" y="496" width="382.2294921875" height="117"/></g><g transform="translate(-78,-78) scale(1,1)"><path fill="none" stroke="#000000" d="M 432 496 L 814.2294921875 496 L 814.2294921875 613 L 432 613 L 432 496 Z Z" stroke-miterlimit="10"/></g><g transform="translate(-78,-78) scale(1,1)"><path fill="none" stroke="#000000" d="M 432 536 L 814.2294921875 536" stroke-miterlimit="10"/></g><g transform="translate(-78,-78) scale(1,1)"><path fill="none" stroke="#000000" d="M 432 546 L 814.2294921875 546" stroke-miterlimit="10"/></g><g transform="translate(-78,-78) scale(1,1)"><g><path fill="none" stroke="none"/><text fill="#000000" stroke="none" font-family="Arial" font-size="13px" font-style="normal" font-weight="bold" text-decoration="none" x="575.4248046875" y="515.5">EventDispatcher</text></g></g><g transform="translate(-78,-78) scale(1,1)"><g><path fill="none" stroke="none"/><text fill="#000000" stroke="none" font-family="Arial" font-size="13px" font-style="normal" font-weight="normal" text-decoration="none" x="590.611572265625" y="530.5">(from blink)</text></g></g><g transform="translate(-78,-78) scale(1,1)"><g><path fill="none" stroke="none"/><text fill="#000000" stroke="none" font-family="Arial" font-size="13px" font-style="normal" font-weight="normal" text-decoration="none" x="437" y="563.5">+dispatchEvent(node: Node&amp;, mediator: EventDispatchMediator)</text></g></g><g transform="translate(-78,-78) scale(1,1)"><g><path fill="none" stroke="none"/><text fill="#000000" stroke="none" font-family="Arial" font-size="13px" font-style="normal" font-weight="normal" text-decoration="none" x="437" y="578.5">+dispatch()</text></g></g><g transform="translate(-78,-78) scale(1,1)"><g><path fill="none" stroke="none"/><text fill="#000000" stroke="none" font-family="Arial" font-size="13px" font-style="normal" font-weight="normal" text-decoration="none" x="437" y="593.5">+dispatchEventAtCapturing()</text></g></g><g transform="translate(-78,-78) scale(1,1)"><g><path fill="none" stroke="none"/><text fill="#000000" stroke="none" font-family="Arial" font-size="13px" font-style="normal" font-weight="normal" text-decoration="none" x="437" y="608.5">+dispatchEventAtBubbling()</text></g></g><g transform="translate(-78,-78) scale(1,1)"><path fill="none" stroke="#000000" d="M 544 384 L 544 312" stroke-miterlimit="10"/></g><g transform="translate(-78,-78) scale(1,1)"><path fill="none" stroke="#000000" d="M 548.209517756016 322.16267485762415 L 544 312 L 539.790482243984 322.16267485762415" stroke-miterlimit="10"/></g><g transform="translate(-78,-78) scale(1,1)"><path fill="none" stroke="#000000" d="M 576 496 L 576 456" stroke-miterlimit="10" stroke-dasharray="3"/></g><g transform="translate(-78,-78) scale(1,1)"><path fill="none" stroke="#000000" d="M 580.209517756016 466.16267485762415 L 576 456 L 571.790482243984 466.16267485762415" stroke-miterlimit="10"/></g><g transform="translate(-78,-78) scale(1,1)"><path fill="none" stroke="#000000" d="M 680 456 L 680 496" stroke-miterlimit="10"/></g><g transform="translate(-78,-78) scale(1,1)"><path fill="none" stroke="#000000" d="M 675.790482243984 485.83732514237585 L 680 496 L 684.209517756016 485.83732514237585" stroke-miterlimit="10"/></g><g transform="translate(-78,-78) scale(1,1)"><rect fill="#C0C0C0" stroke="none" x="319" y="687" width="278.166015625" height="72" opacity="0.2"/></g><g transform="translate(-78,-78) scale(1,1)"><rect fill="#ffffff" stroke="none" x="312" y="680" width="278.166015625" height="72"/></g><g transform="translate(-78,-78) scale(1,1)"><path fill="none" stroke="#000000" d="M 312 680 L 590.166015625 680 L 590.166015625 752 L 312 752 L 312 680 Z Z" stroke-miterlimit="10"/></g><g transform="translate(-78,-78) scale(1,1)"><path fill="none" stroke="#000000" d="M 312 720 L 590.166015625 720" stroke-miterlimit="10"/></g><g transform="translate(-78,-78) scale(1,1)"><path fill="none" stroke="#000000" d="M 312 730 L 590.166015625 730" stroke-miterlimit="10"/></g><g transform="translate(-78,-78) scale(1,1)"><g><path fill="none" stroke="none"/><text fill="#000000" stroke="none" font-family="Arial" font-size="13px" font-style="normal" font-weight="bold" text-decoration="none" x="383.883544921875" y="699.5">EventDispatchMediator</text></g></g><g transform="translate(-78,-78) scale(1,1)"><g><path fill="none" stroke="none"/><text fill="#000000" stroke="none" font-family="Arial" font-size="13px" font-style="normal" font-weight="normal" text-decoration="none" x="418.579833984375" y="714.5">(from blink)</text></g></g><g transform="translate(-78,-78) scale(1,1)"><g><path fill="none" stroke="none"/><text fill="#000000" stroke="none" font-family="Arial" font-size="13px" font-style="normal" font-weight="normal" text-decoration="none" x="317" y="747.5">+dispatchEvent(dispatcher: EventDispatcher&amp;)</text></g></g><g transform="translate(-78,-78) scale(1,1)"><path fill="none" stroke="#000000" d="M 536 613 L 536 680" stroke-miterlimit="10"/></g><g transform="translate(-78,-78) scale(1,1)"><path fill="none" stroke="#000000" d="M 531.790482243984 669.8373251423759 L 536 680 L 540.209517756016 669.8373251423759" stroke-miterlimit="10"/></g><g transform="translate(-78,-78) scale(1,1)"><path fill="none" stroke="#000000" d="M 464 680 L 464 613" stroke-miterlimit="10"/></g><g transform="translate(-78,-78) scale(1,1)"><path fill="none" stroke="#000000" d="M 468.209517756016 623.1626748576241 L 464 613 L 459.790482243984 623.1626748576241" stroke-miterlimit="10"/></g><g transform="translate(-78,-78) scale(1,1)"><rect fill="#C0C0C0" stroke="none" x="623" y="671" width="259" height="85" opacity="0.2"/></g><g transform="translate(-78,-78) scale(1,1)"><rect fill="#ffffff" stroke="none" x="616" y="664" width="259" height="85"/></g><g transform="translate(-78,-78) scale(1,1)"><path fill="none" stroke="#000000" d="M 616 664 L 875 664 L 875 749 L 616 749 L 616 664 Z Z" stroke-miterlimit="10"/></g><g transform="translate(-78,-78) scale(1,1)"><path fill="none" stroke="#000000" d="M 616 704 L 875 704" stroke-miterlimit="10"/></g><g transform="translate(-78,-78) scale(1,1)"><path fill="none" stroke="#000000" d="M 616 727 L 875 727" stroke-miterlimit="10"/></g><g transform="translate(-78,-78) scale(1,1)"><g><path fill="none" stroke="none"/><text fill="#000000" stroke="none" font-family="Arial" font-size="13px" font-style="normal" font-weight="bold" text-decoration="none" x="683.359619140625" y="683.5">WindowEventContext</text></g></g><g transform="translate(-78,-78) scale(1,1)"><g><path fill="none" stroke="none"/><text fill="#000000" stroke="none" font-family="Arial" font-size="13px" font-style="normal" font-weight="normal" text-decoration="none" x="712.996826171875" y="698.5">(from blink)</text></g></g><g transform="translate(-78,-78) scale(1,1)"><g><path fill="none" stroke="none"/><text fill="#000000" stroke="none" font-family="Arial" font-size="13px" font-style="normal" font-weight="normal" text-decoration="none" x="621" y="721.5">+m_window: Member&lt;LocalDOMWindow&gt;</text></g></g><g transform="translate(-78,-78) scale(1,1)"><g><path fill="none" stroke="none"/><text fill="#000000" stroke="none" font-family="Arial" font-size="13px" font-style="normal" font-weight="normal" text-decoration="none" x="621" y="744.5">+handleLocalEvents(event: Event): bool</text></g></g><g transform="translate(-78,-78) scale(1,1)"><rect fill="#C0C0C0" stroke="none" x="887" y="543" width="123.09912109375" height="59" opacity="0.2"/></g><g transform="translate(-78,-78) scale(1,1)"><rect fill="#ffffff" stroke="none" x="880" y="536" width="123.09912109375" height="59"/></g><g transform="translate(-78,-78) scale(1,1)"><path fill="none" stroke="#000000" d="M 880 536 L 1003.09912109375 536 L 1003.09912109375 595 L 880 595 L 880 536 Z Z" stroke-miterlimit="10"/></g><g transform="translate(-78,-78) scale(1,1)"><path fill="none" stroke="#000000" d="M 880 576 L 1003.09912109375 576" stroke-miterlimit="10"/></g><g transform="translate(-78,-78) scale(1,1)"><path fill="none" stroke="#000000" d="M 880 586 L 1003.09912109375 586" stroke-miterlimit="10"/></g><g transform="translate(-78,-78) scale(1,1)"><g><path fill="none" stroke="none"/><text fill="#000000" stroke="none" font-family="Arial" font-size="13px" font-style="normal" font-weight="bold" text-decoration="none" x="887.727783203125" y="555.5">LocalDOMWindow</text></g></g><g transform="translate(-78,-78) scale(1,1)"><g><path fill="none" stroke="none"/><text fill="#000000" stroke="none" font-family="Arial" font-size="13px" font-style="normal" font-weight="normal" text-decoration="none" x="909.04638671875" y="570.5">(from blink)</text></g></g><g transform="translate(-78,-78) scale(1,1)"><rect fill="#C0C0C0" stroke="none" x="903" y="407" width="89.1455078125" height="67" opacity="0.2"/></g><g transform="translate(-78,-78) scale(1,1)"><rect fill="#ffffff" stroke="none" x="896" y="400" width="89.1455078125" height="67"/></g><g transform="translate(-78,-78) scale(1,1)"><path fill="none" stroke="#000000" d="M 896 400 L 985.1455078125 400 L 985.1455078125 467 L 896 467 L 896 400 Z Z" stroke-miterlimit="10"/></g><g transform="translate(-78,-78) scale(1,1)"><path fill="none" stroke="#000000" d="M 896 440 L 985.1455078125 440" stroke-miterlimit="10"/></g><g transform="translate(-78,-78) scale(1,1)"><path fill="none" stroke="#000000" d="M 896 450 L 985.1455078125 450" stroke-miterlimit="10"/></g><g transform="translate(-78,-78) scale(1,1)"><g><path fill="none" stroke="none"/><text fill="#000000" stroke="none" font-family="Arial" font-size="13px" font-style="normal" font-weight="bold" text-decoration="none" x="902.2900390625" y="419.5">DOMWindow</text></g></g><g transform="translate(-78,-78) scale(1,1)"><g><path fill="none" stroke="none"/><text fill="#000000" stroke="none" font-family="Arial" font-size="13px" font-style="normal" font-weight="normal" text-decoration="none" x="908.069580078125" y="434.5">(from blink)</text></g></g><g transform="translate(-78,-78) scale(1,1)"><path fill="none" stroke="#000000" d="M 936 400 L 936 326" stroke-miterlimit="10"/></g><g transform="translate(-78,-78) scale(1,1)"><path fill="#FFFFFF" stroke="none" d="M 944.419035512032 346.3253497152483 L 936 326 L 927.580964487968 346.3253497152483"/></g><g transform="translate(-78,-78) scale(1,1)"><path fill="none" stroke="#000000" d="M 944.419035512032 346.3253497152483 L 936 326 L 927.580964487968 346.3253497152483 L 944.419035512032 346.3253497152483" stroke-miterlimit="10"/></g><g transform="translate(-78,-78) scale(1,1)"><path fill="none" stroke="#000000" d="M 936 536 L 936 467" stroke-miterlimit="10"/></g><g transform="translate(-78,-78) scale(1,1)"><path fill="#FFFFFF" stroke="none" d="M 944.419035512032 487.3253497152483 L 936 467 L 927.580964487968 487.3253497152483"/></g><g transform="translate(-78,-78) scale(1,1)"><path fill="none" stroke="#000000" d="M 944.419035512032 487.3253497152483 L 936 467 L 927.580964487968 487.3253497152483 L 944.419035512032 487.3253497152483" stroke-miterlimit="10"/></g><g transform="translate(-78,-78) scale(1,1)"><path fill="none" stroke="#000000" d="M 944 595 L 944 701 L 875 701" stroke-miterlimit="10"/></g><g transform="translate(-78,-78) scale(1,1)"><path fill="#FFFFFF" stroke="none" d="M 885.1626748576241 696.790482243984 L 875 701 L 885.1626748576241 705.209517756016 L 897 701"/></g><g transform="translate(-78,-78) scale(1,1)"><path fill="none" stroke="#000000" d="M 885.1626748576241 696.790482243984 L 875 701 L 885.1626748576241 705.209517756016 L 897 701 L 885.1626748576241 696.790482243984" stroke-miterlimit="10"/></g><g transform="translate(-78,-78) scale(1,1)"><path fill="none" stroke="#000000" d="M 712 664 L 712 613" stroke-miterlimit="10"/></g><g transform="translate(-78,-78) scale(1,1)"><path fill="none" stroke="#000000" d="M 716.209517756016 623.1626748576241 L 712 613 L 707.790482243984 623.1626748576241" stroke-miterlimit="10"/></g></g></svg>