<svg version="1.1" xmlns="http://www.w3.org/2000/svg" xmlns:xlink="http://www.w3.org/1999/xlink" width="934.35888671875" height="284"><defs/><g><g transform="translate(-30,-30) scale(1,1)"><rect fill="#C0C0C0" stroke="none" x="207" y="47" width="110.04443359375" height="39" opacity="0.2"/></g><g transform="translate(-30,-30) scale(1,1)"><rect fill="#ffffff" stroke="none" x="200" y="40" width="110.04443359375" height="39"/></g><g transform="translate(-30,-30) scale(1,1)"><path fill="none" stroke="#000000" d="M 200 40 L 310.04443359375 40 L 310.04443359375 79 L 200 79 L 200 40 Z Z" stroke-miterlimit="10"/></g><g transform="translate(-30,-30) scale(1,1)"><g><path fill="none" stroke="none"/><text fill="#000000" stroke="none" font-family="Arial" font-size="13px" font-style="normal" font-weight="bold" text-decoration="none" x="213.108642578125" y="59.5">shell_interface</text></g></g><g transform="translate(-30,-30) scale(1,1)"><path fill="none" stroke="#000000" d="M 256.5 80 L 256.5 304" stroke-miterlimit="10" stroke-dasharray="3"/></g><g transform="translate(-30,-30) scale(1,1)"><rect fill="#C0C0C0" stroke="none" x="47" y="47" width="99.919921875" height="39" opacity="0.2"/></g><g transform="translate(-30,-30) scale(1,1)"><rect fill="#ffffff" stroke="none" x="40" y="40" width="99.919921875" height="39"/></g><g transform="translate(-30,-30) scale(1,1)"><path fill="none" stroke="#000000" d="M 40 40 L 139.919921875 40 L 139.919921875 79 L 40 79 L 40 40 Z Z" stroke-miterlimit="10"/></g><g transform="translate(-30,-30) scale(1,1)"><g><path fill="none" stroke="none"/><text fill="#000000" stroke="none" font-family="Arial" font-size="13px" font-style="normal" font-weight="bold" text-decoration="none" x="52.74365234375" y="59.5">tos_interface</text></g></g><g transform="translate(-30,-30) scale(1,1)"><path fill="none" stroke="#000000" d="M 90.5 80 L 90.5 304" stroke-miterlimit="10" stroke-dasharray="3"/></g><g transform="translate(-30,-30) scale(1,1)"><rect fill="#C0C0C0" stroke="none" x="399" y="47" width="161.314453125" height="39" opacity="0.2"/></g><g transform="translate(-30,-30) scale(1,1)"><rect fill="#ffffff" stroke="none" x="392" y="40" width="161.314453125" height="39"/></g><g transform="translate(-30,-30) scale(1,1)"><path fill="none" stroke="#000000" d="M 392 40 L 553.314453125 40 L 553.314453125 79 L 392 79 L 392 40 Z Z" stroke-miterlimit="10"/></g><g transform="translate(-30,-30) scale(1,1)"><g><path fill="none" stroke="none"/><text fill="#000000" stroke="none" font-family="Arial" font-size="13px" font-style="normal" font-weight="bold" text-decoration="none" x="406.52734375" y="59.5">platform_event_handle</text></g></g><g transform="translate(-30,-30) scale(1,1)"><path fill="none" stroke="#000000" d="M 473.5 80 L 473.5 304" stroke-miterlimit="10" stroke-dasharray="3"/></g><g transform="translate(-30,-30) scale(1,1)"><rect fill="#C0C0C0" stroke="none" x="575" y="47" width="188" height="39" opacity="0.2"/></g><g transform="translate(-30,-30) scale(1,1)"><rect fill="#ffffff" stroke="none" x="568" y="40" width="188" height="39"/></g><g transform="translate(-30,-30) scale(1,1)"><path fill="none" stroke="#000000" d="M 568 40 L 756 40 L 756 79 L 568 79 L 568 40 Z Z" stroke-miterlimit="10"/></g><g transform="translate(-30,-30) scale(1,1)"><g><path fill="none" stroke="none"/><text fill="#000000" stroke="none" font-family="Arial" font-size="13px" font-style="normal" font-weight="bold" text-decoration="none" x="606.73095703125" y="59.5">s_platformWindow:</text><text fill="#000000" stroke="none" font-family="Arial" font-size="13px" font-style="normal" font-weight="bold" text-decoration="none" x="583.241455078125" y="72.5">PlatformWindowEmbedded</text></g></g><g transform="translate(-30,-30) scale(1,1)"><path fill="none" stroke="#000000" d="M 663.5 80 L 663.5 304" stroke-miterlimit="10" stroke-dasharray="3"/></g><g transform="translate(-30,-30) scale(1,1)"><rect fill="#C0C0C0" stroke="none" x="783" y="47" width="177.89453125" height="39" opacity="0.2"/></g><g transform="translate(-30,-30) scale(1,1)"><rect fill="#ffffff" stroke="none" x="776" y="40" width="177.89453125" height="39"/></g><g transform="translate(-30,-30) scale(1,1)"><path fill="none" stroke="#000000" d="M 776 40 L 953.89453125 40 L 953.89453125 79 L 776 79 L 776 40 Z Z" stroke-miterlimit="10"/></g><g transform="translate(-30,-30) scale(1,1)"><g><path fill="none" stroke="none"/><text fill="#000000" stroke="none" font-family="Arial" font-size="13px" font-style="normal" font-weight="bold" text-decoration="none" x="834.58642578125" y="59.5">delegate_:</text><text fill="#000000" stroke="none" font-family="Arial" font-size="13px" font-style="normal" font-weight="bold" text-decoration="none" x="790.898681640625" y="72.5">WindowTreeHostPlatform</text></g></g><g transform="translate(-30,-30) scale(1,1)"><path fill="none" stroke="#000000" d="M 865.5 80 L 865.5 304" stroke-miterlimit="10" stroke-dasharray="3"/></g><g transform="translate(-30,-30) scale(1,1)"><path fill="none" stroke="#000000" d="M 90 122 L 249 122" stroke-miterlimit="10"/></g><g transform="translate(-30,-30) scale(1,1)"><path fill="#000000" stroke="none" d="M 238.83732514237585 126.20951775601598 L 249 122 L 238.83732514237585 117.79048224398402"/></g><g transform="translate(-30,-30) scale(1,1)"><path fill="none" stroke="#000000" d="M 238.83732514237585 126.20951775601598 L 249 122 L 238.83732514237585 117.79048224398402 L 238.83732514237585 126.20951775601598" stroke-miterlimit="10"/></g><g transform="translate(-30,-30) scale(1,1)"><g><path fill="none" stroke="none"/><text fill="#000000" stroke="none" font-family="Arial" font-size="13px" font-style="normal" font-weight="normal" text-decoration="none" x="103" y="119">1 : TBrwPushKeyEvent</text></g></g><g transform="translate(-30,-30) scale(1,1)"><rect fill="#ffffff" stroke="none" x="249" y="122" width="13" height="28"/></g><g transform="translate(-30,-30) scale(1,1)"><path fill="none" stroke="#000000" d="M 249 122 L 262 122 L 262 150 L 249 150 L 249 122 Z Z" stroke-miterlimit="10"/></g><g transform="translate(-30,-30) scale(1,1)"><path fill="none" stroke="#000000" d="M 262 136 L 292 136 L 292 156 L 262 156" stroke-miterlimit="10"/></g><g transform="translate(-30,-30) scale(1,1)"><path fill="#000000" stroke="none" d="M 272.16267485762415 151.790482243984 L 262 156 L 272.16267485762415 160.209517756016"/></g><g transform="translate(-30,-30) scale(1,1)"><path fill="none" stroke="#000000" d="M 272.16267485762415 151.790482243984 L 262 156 L 272.16267485762415 160.209517756016 L 272.16267485762415 151.790482243984" stroke-miterlimit="10"/></g><g transform="translate(-30,-30) scale(1,1)"><g><path fill="none" stroke="none"/><text fill="#000000" stroke="none" font-family="Arial" font-size="13px" font-style="normal" font-weight="normal" text-decoration="none" x="296" y="152">2 : PushKeyEvent</text></g></g><g transform="translate(-30,-30) scale(1,1)"><rect fill="#ffffff" stroke="none" x="249" y="156" width="13" height="36"/></g><g transform="translate(-30,-30) scale(1,1)"><path fill="none" stroke="#000000" d="M 249 156 L 262 156 L 262 192 L 249 192 L 249 156 Z Z" stroke-miterlimit="10"/></g><g transform="translate(-30,-30) scale(1,1)"><path fill="none" stroke="#000000" d="M 262 178 L 466 178" stroke-miterlimit="10"/></g><g transform="translate(-30,-30) scale(1,1)"><path fill="none" stroke="#000000" d="M 455.83732514237585 182.209517756016 L 466 178 L 455.83732514237585 173.790482243984" stroke-miterlimit="10"/></g><g transform="translate(-30,-30) scale(1,1)"><g><path fill="none" stroke="none"/><text fill="#000000" stroke="none" font-family="Arial" font-size="13px" font-style="normal" font-weight="normal" text-decoration="none" x="266" y="175">3 : PlatformEventHandleKeyEvent</text></g></g><g transform="translate(-30,-30) scale(1,1)"><rect fill="#ffffff" stroke="none" x="466" y="178" width="13" height="28"/></g><g transform="translate(-30,-30) scale(1,1)"><path fill="none" stroke="#000000" d="M 466 178 L 479 178 L 479 206 L 466 206 L 466 178 Z Z" stroke-miterlimit="10"/></g><g transform="translate(-30,-30) scale(1,1)"><path fill="none" stroke="#000000" d="M 479 192 L 656 192" stroke-miterlimit="10"/></g><g transform="translate(-30,-30) scale(1,1)"><path fill="none" stroke="#000000" d="M 645.8373251423759 196.209517756016 L 656 192 L 645.8373251423758 187.790482243984" stroke-miterlimit="10"/></g><g transform="translate(-30,-30) scale(1,1)"><g><path fill="none" stroke="none"/><text fill="#000000" stroke="none" font-family="Arial" font-size="13px" font-style="normal" font-weight="normal" text-decoration="none" x="531" y="189">4 : KeyEvent</text></g></g><g transform="translate(-30,-30) scale(1,1)"><rect fill="#ffffff" stroke="none" x="656" y="192" width="13" height="32"/></g><g transform="translate(-30,-30) scale(1,1)"><path fill="none" stroke="#000000" d="M 656 192 L 669 192 L 669 224 L 656 224 L 656 192 Z Z" stroke-miterlimit="10"/></g><g transform="translate(-30,-30) scale(1,1)"><path fill="none" stroke="#000000" d="M 669 208 L 858 208" stroke-miterlimit="10"/></g><g transform="translate(-30,-30) scale(1,1)"><path fill="none" stroke="#000000" d="M 847.8373251423759 212.209517756016 L 858 208 L 847.8373251423758 203.790482243984" stroke-miterlimit="10"/></g><g transform="translate(-30,-30) scale(1,1)"><g><path fill="none" stroke="none"/><text fill="#000000" stroke="none" font-family="Arial" font-size="13px" font-style="normal" font-weight="normal" text-decoration="none" x="713" y="205">5 : DispatchEvent</text></g></g><g transform="translate(-30,-30) scale(1,1)"><rect fill="#ffffff" stroke="none" x="858" y="208" width="13" height="67"/></g><g transform="translate(-30,-30) scale(1,1)"><path fill="none" stroke="#000000" d="M 858 208 L 871 208 L 871 275 L 858 275 L 858 208 Z Z" stroke-miterlimit="10"/></g><g transform="translate(-30,-30) scale(1,1)"><path fill="none" stroke="#000000" d="M 871 224 L 901 224 L 901 244 L 878 244" stroke-miterlimit="10"/></g><g transform="translate(-30,-30) scale(1,1)"><path fill="#000000" stroke="none" d="M 888.1626748576241 239.790482243984 L 878 244 L 888.1626748576241 248.209517756016"/></g><g transform="translate(-30,-30) scale(1,1)"><path fill="none" stroke="#000000" d="M 888.1626748576241 239.790482243984 L 878 244 L 888.1626748576241 248.209517756016 L 888.1626748576241 239.790482243984" stroke-miterlimit="10"/></g><g transform="translate(-30,-30) scale(1,1)"><g><path fill="none" stroke="none"/><text fill="#000000" stroke="none" font-family="Arial" font-size="13px" font-style="normal" font-weight="normal" text-decoration="none" x="800" y="238">6 : SendEventToProcessor</text></g></g><g transform="translate(-30,-30) scale(1,1)"><rect fill="#ffffff" stroke="none" x="865" y="244" width="13" height="28"/></g><g transform="translate(-30,-30) scale(1,1)"><path fill="none" stroke="#000000" d="M 865 244 L 878 244 L 878 272 L 865 272 L 865 244 Z Z" stroke-miterlimit="10"/></g></g></svg>